//Event file generated from Sappy .s format.
	#include "MPlayDef.event"

	#define	disillusion_grp  voicegroup000
	#define	disillusion_pri  0
	#define	disillusion_rev  0
	#define	disillusion_mvl  127
	#define	disillusion_key  0
	#define	disillusion_tbs  1
	#define	disillusion_exg  0
	#define	disillusion_cmp  1

	// .rodata
	//	disillusion
	ALIGN 4

//**************** Track 1 (Midi-Chn.1) ****************//

disillusion_1:
	BYTE	KEYSH   disillusion_key+0
disillusion_1_B1:
// 000   ----------------------------------------
	BYTE	TEMPO   171*disillusion_tbs/2
	BYTE		VOICE   0
	BYTE		VOL     60*disillusion_mvl/mxv
	BYTE	W96
// 001   ----------------------------------------
	BYTE	W60
	BYTE		N12     Fn3   v072
	BYTE	W12
	BYTE		        Gn3   v084
	BYTE	W12
	BYTE		        Gn3   v076
	BYTE	W12
// 002   ----------------------------------------
	BYTE		N12   
	BYTE	W12
	BYTE		        Gs3   v084
	BYTE	W12
	BYTE		        Gn3   v076
	BYTE	W12
	BYTE		TIE     Cn3   v068
	BYTE	W60
// 003   ----------------------------------------
	BYTE	W48
	BYTE		EOT   
	BYTE	W12
	BYTE		N12     As2   v072
	BYTE	W12
	BYTE		        Cn3   v080
	BYTE	W12
	BYTE		        Cn3   v076
	BYTE	W12
// 004   ----------------------------------------
	BYTE		        Ds3   v088
	BYTE	W12
	BYTE		        Ds3   v076
	BYTE	W12
	BYTE		        Dn3   v072
	BYTE	W12
	BYTE		TIE     As2 
	BYTE	W60
// 005   ----------------------------------------
	BYTE	W48
	BYTE		EOT   
	BYTE	W48
// 006   ----------------------------------------
disillusion_1_006:
	BYTE		N72     Fn3   v068
	BYTE	W72
	BYTE		N24     Gs3   v084
	BYTE	W24
	BYTE	PEND
// 007   ----------------------------------------
	BYTE		N36     Gn3   v076
	BYTE	W36
	BYTE		        Ds3   v068
	BYTE	W36
	BYTE		N24     Cn3   v072
	BYTE	W24
// 008   ----------------------------------------
	BYTE		N12     As2   v076
	BYTE	W24
	BYTE		N12   
	BYTE	W12
	BYTE		N84     Cn3   v080
	BYTE	W60
// 009   ----------------------------------------
	BYTE	W60
	BYTE		N12     Fn3   v072
	BYTE	W12
	BYTE		        Gn3   v084
	BYTE	W12
	BYTE		        Gn3   v080
	BYTE	W12
// 010   ----------------------------------------
	BYTE		        Gn3   v076
	BYTE	W12
	BYTE		        Gs3 
	BYTE	W12
	BYTE		        Gn3   v072
	BYTE	W12
	BYTE		TIE     Cn3   v064
	BYTE	W60
// 011   ----------------------------------------
	BYTE	W48
	BYTE		EOT   
	BYTE	W12
	BYTE		N24     Ds3   v072
	BYTE	W24
	BYTE		        Ds3   v080
	BYTE	W12
// 012   ----------------------------------------
	BYTE	W12
	BYTE		N12     Fn3   v084
	BYTE	W12
	BYTE		        Ds3   v072
	BYTE	W12
	BYTE		N24   
	BYTE	W24
	BYTE		N84     Dn3 
	BYTE	W36
// 013   ----------------------------------------
	BYTE	W96
// 014   ----------------------------------------
	BYTE		N72     Fn3   v068
	BYTE	W72
	BYTE		N24     Cn4   v088
	BYTE	W24
// 015   ----------------------------------------
	BYTE		N48     As3   v072
	BYTE	W48
	BYTE		        Gn3 
	BYTE	W48
// 016   ----------------------------------------
	BYTE		N24     Gs3   v080
	BYTE	W24
	BYTE		N12     Gn3   v072
	BYTE	W12
	BYTE		N24     Fn3 
	BYTE	W24
	BYTE		N12     Ds3   v076
	BYTE	W12
	BYTE		N24     Cn3   v072
	BYTE	W24
// 017   ----------------------------------------
	BYTE		N12     As2   v080
	BYTE	W12
	BYTE		N84     Gs2   v076
	BYTE	W84
// 018   ----------------------------------------
	BYTE	W96
// 019   ----------------------------------------
	BYTE	W96
// 020   ----------------------------------------
	BYTE		N36     As2   v080
	BYTE	W36
	BYTE		        As2   v076
	BYTE	W36
	BYTE		N24     Fn3   v088
	BYTE	W24
// 021   ----------------------------------------
	BYTE		N36     Ds3   v072
	BYTE	W36
	BYTE		        Cn3   v068
	BYTE	W36
	BYTE		N24     Gs2   v076
	BYTE	W24
// 022   ----------------------------------------
	BYTE		N36     Cn3   v084
	BYTE	W36
	BYTE		        Cs3 
	BYTE	W36
	BYTE		N24     Cn3   v080
	BYTE	W24
// 023   ----------------------------------------
	BYTE		N72     Gs2   v072
	BYTE	W96
// 024   ----------------------------------------
	BYTE		N36     Fs2   v068
	BYTE	W36
	BYTE		        Cs3   v088
	BYTE	W36
	BYTE		N24     Fs2   v080
	BYTE	W24
// 025   ----------------------------------------
	BYTE		N36     Cs3   v092
	BYTE	W36
	BYTE		        Cs3   v076
	BYTE	W36
	BYTE		N24     Ds3   v080
	BYTE	W24
// 026   ----------------------------------------
	BYTE		N96     Cn3   v072
	BYTE	W96
// 027   ----------------------------------------
	BYTE	W96
// 028   ----------------------------------------
	BYTE		N36     As2 
	BYTE	W36
	BYTE		        As2   v084
	BYTE	W36
	BYTE		N24     Fn3   v092
	BYTE	W24
// 029   ----------------------------------------
	BYTE		N36     Ds3   v072
	BYTE	W36
	BYTE		        Cn3 
	BYTE	W36
	BYTE		N24     Gs2 
	BYTE	W24
// 030   ----------------------------------------
	BYTE		N36     Cn3   v084
	BYTE	W36
	BYTE		        Cs3   v088
	BYTE	W36
	BYTE		N24     Cn3   v072
	BYTE	W24
// 031   ----------------------------------------
	BYTE		N72     Gs2   v076
	BYTE	W96
// 032   ----------------------------------------
	BYTE		        Fn3   v072
	BYTE	W72
	BYTE		N24     Cs3   v064
	BYTE	W24
// 033   ----------------------------------------
	BYTE		        Ds3   v084
	BYTE	W24
	BYTE		N12     Ds3   v080
	BYTE	W12
	BYTE		N36     Gs3   v088
	BYTE	W36
	BYTE		N24     Gn3   v076
	BYTE	W24
// 034   ----------------------------------------
	BYTE		        Fn3   v072
	BYTE	W24
	BYTE		N12     Fn3   v076
	BYTE	W12
	BYTE		TIE     As3   v088
	BYTE	W24
	BYTE		N12     As1   v080
	BYTE	W12
	BYTE		        Cn2   v088
	BYTE	W12
	BYTE		        Dn2   v096
	BYTE	W12
// 035   ----------------------------------------
	BYTE		        Fn2 
	BYTE	W12
	BYTE		        Cn2   v080
	BYTE	W12
	BYTE		        Dn2   v096
	BYTE	W12
	BYTE		        Fn2   v100
	BYTE	W12
	BYTE		        As2 
	BYTE	W12
	BYTE		        Cn3 
	BYTE	W12
	BYTE		        Dn3 
	BYTE	W12
	BYTE		N36     Fn3 
	BYTE	W12
	BYTE		EOT     As3 
// 036   ----------------------------------------
	BYTE	W24
	BYTE		N36     Fn3   v080
	BYTE		N36     As3 
	BYTE	W36
	BYTE		        Dn4   v100
	BYTE		N36     Fn4 
	BYTE	W36
// 037   ----------------------------------------
	BYTE		N72     Fn4   v108
	BYTE		N72     As4 
	BYTE	W72
	BYTE		N24     Fn3   v056
	BYTE	W24
// 038   ----------------------------------------
	BYTE		N72     As3   v088
	BYTE	W72
	BYTE		N12     Cs4   v080
	BYTE	W12
	BYTE		N36     Cn4   v072
	BYTE	W12
// 039   ----------------------------------------
	BYTE	W24
	BYTE		N24     As3 
	BYTE	W24
	BYTE		        Gs3 
	BYTE	W24
	BYTE		        Ds3   v064
	BYTE	W24
// 040   ----------------------------------------
	BYTE		N12     Fn3   v076
	BYTE	W12
	BYTE		TIE     Gs3   v084
	BYTE	W84
// 041   ----------------------------------------
	BYTE	W48
	BYTE		EOT   
	BYTE	W24
	BYTE		N24     Fn3   v064
	BYTE	W24
// 042   ----------------------------------------
	BYTE		N72     As3   v088
	BYTE	W72
	BYTE		N12     Cs4   v080
	BYTE	W12
	BYTE		N36     Cn4   v076
	BYTE	W12
// 043   ----------------------------------------
	BYTE	W24
	BYTE		N24     As3   v068
	BYTE	W24
	BYTE		        Gs3   v072
	BYTE	W24
	BYTE		N12     Ds3   v068
	BYTE	W12
	BYTE		N24     Fn3   v076
	BYTE	W12
// 044   ----------------------------------------
	BYTE	W12
	BYTE		N48     Gs3   v088
	BYTE	W48
	BYTE		N12     Ds3   v072
	BYTE	W12
	BYTE		        Ds3   v076
	BYTE	W12
	BYTE		N24     Fn3   v080
	BYTE	W12
// 045   ----------------------------------------
disillusion_1_045:
	BYTE	W12
	BYTE		N48     Gs3   v088
	BYTE	W60
	BYTE		N24     Fn3   v072
	BYTE	W24
	BYTE	PEND
// 046   ----------------------------------------
disillusion_1_046:
	BYTE		N72     As3   v084
	BYTE	W72
	BYTE		N12     Cs4 
	BYTE	W12
	BYTE		N36     Cn4   v076
	BYTE	W12
	BYTE	PEND
// 047   ----------------------------------------
	BYTE	W24
	BYTE		N24     As3   v072
	BYTE	W24
	BYTE		        Gs3   v076
	BYTE	W24
	BYTE		N12     Ds3   v068
	BYTE	W12
	BYTE		        Ds3   v076
	BYTE	W12
// 048   ----------------------------------------
	BYTE		        Fn3   v080
	BYTE	W12
	BYTE		N48     Gs3   v084
	BYTE	W48
	BYTE		N24     Ds3   v068
	BYTE	W24
	BYTE		        Fn3   v080
	BYTE	W12
// 049   ----------------------------------------
	BYTE	W12
	BYTE		N48     Gs3   v088
	BYTE	W60
	BYTE		N24     Fn3   v068
	BYTE	W24
// 050   ----------------------------------------
disillusion_1_050:
	BYTE		N72     As3   v084
	BYTE	W72
	BYTE		N24     Cs4   v088
	BYTE	W24
	BYTE	PEND
// 051   ----------------------------------------
	BYTE		        Cn4   v080
	BYTE	W24
	BYTE		        Cs4 
	BYTE	W24
	BYTE		        Ds4 
	BYTE	W24
	BYTE		N18     Gs3   v064
	BYTE	W18
	BYTE		TIE     As3   v080
	BYTE	W06
// 052   ----------------------------------------
	BYTE	W60
	BYTE		N36     Cn2   v068
	BYTE		N36     Ds2 
	BYTE	W36
// 053   ----------------------------------------
	BYTE		N96     As1   v076
	BYTE		N96     Dn2 
	BYTE	W48
	BYTE		EOT     As3 
	BYTE	W48
// 054   ----------------------------------------
	BYTE	W60
	BYTE		N36     Dn2   v084
	BYTE		N36     Fn2 
	BYTE	W36
// 055   ----------------------------------------
	BYTE		N96     Cn2 
	BYTE		N96     En2 
	BYTE	W96
// 056   ----------------------------------------
	BYTE	W96
// 057   ----------------------------------------
	BYTE	W96
// 058   ----------------------------------------
	BYTE	W96
// 059   ----------------------------------------
	BYTE	W96
// 060   ----------------------------------------
	BYTE	W96
// 061   ----------------------------------------
	BYTE	W96
// 062   ----------------------------------------
	BYTE	W96
// 063   ----------------------------------------
	BYTE	W96
// 064   ----------------------------------------
	BYTE	W96
// 065   ----------------------------------------
	BYTE	W96
// 066   ----------------------------------------
	BYTE	W96
// 067   ----------------------------------------
	BYTE	W96
// 068   ----------------------------------------
	BYTE	W96
// 069   ----------------------------------------
	BYTE	W96
// 070   ----------------------------------------
	BYTE	W96
// 071   ----------------------------------------
	BYTE	W96
// 072   ----------------------------------------
	BYTE	W96
// 073   ----------------------------------------
disillusion_1_073:
	BYTE	W60
	BYTE		N12     Fn3   v068
	BYTE	W12
	BYTE		        Gn3   v080
	BYTE	W12
	BYTE		N12   
	BYTE	W12
	BYTE	PEND
// 074   ----------------------------------------
	BYTE		        Gn3   v076
	BYTE	W12
	BYTE		        Gs3   v080
	BYTE	W12
	BYTE		        Gn3   v072
	BYTE	W12
	BYTE		TIE     Cn3   v068
	BYTE	W60
// 075   ----------------------------------------
	BYTE	W48
	BYTE		EOT   
	BYTE	W12
	BYTE		N12     As2   v072
	BYTE	W12
	BYTE		        Cn3   v080
	BYTE	W12
	BYTE		N12   
	BYTE	W12
// 076   ----------------------------------------
	BYTE		        Ds3   v084
	BYTE	W12
	BYTE		        Ds3   v080
	BYTE	W12
	BYTE		        Dn3   v076
	BYTE	W12
	BYTE		TIE     As2   v072
	BYTE	W60
// 077   ----------------------------------------
	BYTE	W48
	BYTE		EOT   
	BYTE	W48
// 078   ----------------------------------------
	BYTE	PATT
	 POIN2	disillusion_1_006
// 079   ----------------------------------------
	BYTE		N36     Gn3   v072
	BYTE	W36
	BYTE		        Ds3   v068
	BYTE	W36
	BYTE		N24     Cn3   v072
	BYTE	W24
// 080   ----------------------------------------
	BYTE		N12     As2   v068
	BYTE	W24
	BYTE		        As2   v080
	BYTE	W12
	BYTE		N84     Cn3 
	BYTE	W60
// 081   ----------------------------------------
	BYTE	PATT
	 POIN2	disillusion_1_073
// 082   ----------------------------------------
	BYTE		N12     Gn3   v084
	BYTE	W12
	BYTE		        Gs3   v080
	BYTE	W12
	BYTE		        Gn3   v076
	BYTE	W12
	BYTE		N24     Ds3   v072
	BYTE	W24
	BYTE		N84     Cn3   v068
	BYTE	W36
// 083   ----------------------------------------
	BYTE	W60
	BYTE		N24     Ds3   v072
	BYTE	W24
	BYTE		N12   
	BYTE	W12
// 084   ----------------------------------------
	BYTE		        Ds3   v080
	BYTE	W12
	BYTE		        Fn3 
	BYTE	W12
	BYTE		        Ds3   v076
	BYTE	W12
	BYTE		N24     Ds3   v080
	BYTE	W24
	BYTE		N84     Dn3 
	BYTE	W36
// 085   ----------------------------------------
	BYTE	W96
// 086   ----------------------------------------
	BYTE		N72     Fn3   v068
	BYTE	W72
	BYTE		N24     Cn4   v092
	BYTE	W24
// 087   ----------------------------------------
	BYTE		N48     As3   v076
	BYTE	W48
	BYTE		        Gn3 
	BYTE	W48
// 088   ----------------------------------------
	BYTE		N24     Gs3   v080
	BYTE	W24
	BYTE		N12     Gn3   v072
	BYTE	W12
	BYTE		N24     Fn3 
	BYTE	W24
	BYTE		N12     Ds3 
	BYTE	W12
	BYTE		N24     Cn3   v076
	BYTE	W24
// 089   ----------------------------------------
	BYTE		N12     As2   v072
	BYTE	W12
	BYTE		N84     Gs2 
	BYTE	W84
// 090   ----------------------------------------
	BYTE	W96
// 091   ----------------------------------------
	BYTE	W96
// 092   ----------------------------------------
	BYTE		N36     As2   v076
	BYTE	W36
	BYTE		        As2   v080
	BYTE	W36
	BYTE		N24     Fn3   v088
	BYTE	W24
// 093   ----------------------------------------
	BYTE		N36     Ds3   v076
	BYTE	W36
	BYTE		        Cn3   v068
	BYTE	W36
	BYTE		N24     Gs2   v072
	BYTE	W24
// 094   ----------------------------------------
	BYTE		N36     Cn3   v088
	BYTE	W36
	BYTE		        Cs3   v084
	BYTE	W36
	BYTE		N24     Cn3   v072
	BYTE	W24
// 095   ----------------------------------------
	BYTE		N72     Gs2 
	BYTE	W96
// 096   ----------------------------------------
	BYTE		N36     Fs2   v068
	BYTE	W36
	BYTE		        Cs3   v092
	BYTE	W36
	BYTE		N24     Fs2   v068
	BYTE	W24
// 097   ----------------------------------------
	BYTE		N36     Cs3   v088
	BYTE	W36
	BYTE		        Cs3   v076
	BYTE	W36
	BYTE		N24     Ds3   v080
	BYTE	W24
// 098   ----------------------------------------
	BYTE		N96     Cn3   v072
	BYTE	W96
// 099   ----------------------------------------
	BYTE	W96
// 100   ----------------------------------------
	BYTE		N36     As2 
	BYTE	W36
	BYTE		        As2   v076
	BYTE	W36
	BYTE		N24     Fn3   v084
	BYTE	W24
// 101   ----------------------------------------
	BYTE		N36     Ds3   v076
	BYTE	W36
	BYTE		        Cn3   v072
	BYTE	W36
	BYTE		N24     Gs2   v068
	BYTE	W24
// 102   ----------------------------------------
	BYTE		N36     Cn3   v084
	BYTE	W36
	BYTE		        Cs3 
	BYTE	W36
	BYTE		N24     Cn3   v076
	BYTE	W24
// 103   ----------------------------------------
	BYTE		N72     Gs2 
	BYTE	W96
// 104   ----------------------------------------
	BYTE		        Fn3   v072
	BYTE	W72
	BYTE		N24     Cs3   v068
	BYTE	W24
// 105   ----------------------------------------
	BYTE		        Ds3   v080
	BYTE	W24
	BYTE		N12     Ds3   v072
	BYTE	W12
	BYTE		N36     Gs3   v084
	BYTE	W36
	BYTE		N24     Gn3   v076
	BYTE	W24
// 106   ----------------------------------------
	BYTE		        Fn3   v068
	BYTE	W24
	BYTE		N12     Fn3   v076
	BYTE	W12
	BYTE		TIE     As3   v092
	BYTE	W24
	BYTE		N12     As1   v080
	BYTE	W12
	BYTE		        Cn2   v096
	BYTE	W12
	BYTE		        Dn2   v100
	BYTE	W12
// 107   ----------------------------------------
	BYTE		        Fn2 
	BYTE	W12
	BYTE		        Cn2   v084
	BYTE	W12
	BYTE		        Dn2   v100
	BYTE	W12
	BYTE		        Fn2   v092
	BYTE	W12
	BYTE		        As2   v100
	BYTE	W12
	BYTE		        Cn3   v092
	BYTE	W12
	BYTE		        Dn3   v100
	BYTE	W12
	BYTE		N36     Fn3   v104
	BYTE	W12
	BYTE		EOT     As3 
// 108   ----------------------------------------
	BYTE	W24
	BYTE		N36     Fn3   v080
	BYTE		N36     As3 
	BYTE	W36
	BYTE		        Dn4   v104
	BYTE		N36     Fn4 
	BYTE	W36
// 109   ----------------------------------------
	BYTE		N72     Fn4   v108
	BYTE		N72     As4 
	BYTE	W72
	BYTE		N24     Fn3   v064
	BYTE	W24
// 110   ----------------------------------------
	BYTE	PATT
	 POIN2	disillusion_1_046
// 111   ----------------------------------------
	BYTE	W24
	BYTE		N24     As3   v076
	BYTE	W24
	BYTE		        Gs3 
	BYTE	W24
	BYTE		        Ds3   v068
	BYTE	W24
// 112   ----------------------------------------
disillusion_1_112:
	BYTE		N12     Fn3   v080
	BYTE	W12
	BYTE		TIE     Gs3   v088
	BYTE	W84
	BYTE	PEND
// 113   ----------------------------------------
	BYTE	W48
	BYTE		EOT   
	BYTE	W24
	BYTE		N24     Fn3   v072
	BYTE	W24
// 114   ----------------------------------------
	BYTE		N72     As3   v080
	BYTE	W72
	BYTE		N12     Cs4   v088
	BYTE	W12
	BYTE		N36     Cn4   v080
	BYTE	W12
// 115   ----------------------------------------
	BYTE	W24
	BYTE		N24     As3   v072
	BYTE	W24
	BYTE		        Gs3 
	BYTE	W24
	BYTE		N12     Ds3   v068
	BYTE	W12
	BYTE		N24     Fn3   v076
	BYTE	W12
// 116   ----------------------------------------
	BYTE	W12
	BYTE		N48     Gs3   v084
	BYTE	W48
	BYTE		N12     Ds3   v068
	BYTE	W12
	BYTE		        Ds3   v076
	BYTE	W12
	BYTE		N24     Fn3   v084
	BYTE	W12
// 117   ----------------------------------------
	BYTE	W12
	BYTE		N48     Gs3   v080
	BYTE	W60
	BYTE		N24     Fn3   v068
	BYTE	W24
// 118   ----------------------------------------
	BYTE		N72     As3   v088
	BYTE	W72
	BYTE		N12     Cs4   v084
	BYTE	W12
	BYTE		N36     Cn4   v072
	BYTE	W12
// 119   ----------------------------------------
	BYTE	W24
	BYTE		N24     As3   v076
	BYTE	W24
	BYTE		        Gs3   v072
	BYTE	W24
	BYTE		N12     Ds3   v068
	BYTE	W12
	BYTE		        Ds3   v076
	BYTE	W12
// 120   ----------------------------------------
	BYTE		        Fn3   v084
	BYTE	W12
	BYTE		N48     Gs3 
	BYTE	W48
	BYTE		N24     Ds3   v068
	BYTE	W24
	BYTE		        Fn3   v076
	BYTE	W12
// 121   ----------------------------------------
	BYTE	PATT
	 POIN2	disillusion_1_045
// 122   ----------------------------------------
	BYTE		N72     As3   v088
	BYTE	W72
	BYTE		N24     Cs4   v084
	BYTE	W24
// 123   ----------------------------------------
	BYTE		        Cn4   v076
	BYTE	W24
	BYTE		        Cs4   v084
	BYTE	W24
	BYTE		        Ds4 
	BYTE	W24
	BYTE		N18     Gs3   v064
	BYTE	W18
	BYTE		TIE     As3   v080
	BYTE	W06
// 124   ----------------------------------------
	BYTE	W60
	BYTE		N36     Cn2   v072
	BYTE		N36     Ds2 
	BYTE	W36
// 125   ----------------------------------------
	BYTE		N96     As1 
	BYTE		N96     Dn2 
	BYTE	W48
	BYTE		EOT     As3 
	BYTE	W24
	BYTE		N24     Fn3   v068
	BYTE	W24
// 126   ----------------------------------------
	BYTE		N72     As3   v088
	BYTE	W72
	BYTE		N12     Cs4   v080
	BYTE	W12
	BYTE		N36     Cn4 
	BYTE	W12
// 127   ----------------------------------------
	BYTE	W24
	BYTE		N24     As3   v072
	BYTE	W24
	BYTE		        Gs3   v076
	BYTE	W24
	BYTE		        Ds3   v072
	BYTE	W24
// 128   ----------------------------------------
	BYTE	PATT
	 POIN2	disillusion_1_112
// 129   ----------------------------------------
	BYTE	W48
	BYTE		EOT     Gs3 
	BYTE	W24
	BYTE		N24     Fn3   v072
	BYTE	W24
// 130   ----------------------------------------
	BYTE	PATT
	 POIN2	disillusion_1_046
// 131   ----------------------------------------
	BYTE	W24
	BYTE		N24     As3   v072
	BYTE	W24
	BYTE		        Gs3 
	BYTE	W24
	BYTE		N12     Ds3   v068
	BYTE	W12
	BYTE		N24     Fn3   v080
	BYTE	W12
// 132   ----------------------------------------
	BYTE	W12
	BYTE		N72     Gs3 
	BYTE	W72
	BYTE		N24     Cn4   v088
	BYTE	W12
// 133   ----------------------------------------
	BYTE	W12
	BYTE		N12     Cn4   v072
	BYTE	W12
	BYTE		        Cs4   v080
	BYTE	W12
	BYTE		N36     Cn4 
	BYTE	W36
	BYTE		N24     Fn3   v064
	BYTE	W24
// 134   ----------------------------------------
	BYTE		N72     As3   v080
	BYTE	W72
	BYTE		N12     Cs4   v088
	BYTE	W12
	BYTE		N36     Cn4   v076
	BYTE	W12
// 135   ----------------------------------------
	BYTE	W24
	BYTE		N24     As3   v072
	BYTE	W24
	BYTE		        Gs3 
	BYTE	W24
	BYTE		N12     Ds3   v068
	BYTE	W12
	BYTE		        Ds3   v072
	BYTE	W12
// 136   ----------------------------------------
	BYTE		        Fn3   v080
	BYTE	W12
	BYTE		N60     Gs3   v088
	BYTE	W60
	BYTE		N12     Ds3   v068
	BYTE	W12
	BYTE		N24     Fn3   v080
	BYTE	W12
// 137   ----------------------------------------
	BYTE	W12
	BYTE		N48     Gs3 
	BYTE	W60
	BYTE		N24     Fn3   v072
	BYTE	W24
// 138   ----------------------------------------
	BYTE	PATT
	 POIN2	disillusion_1_050
// 139   ----------------------------------------
	BYTE		N24     Cn4   v076
	BYTE	W24
	BYTE		        Gs3   v068
	BYTE	W24
	BYTE		        Fn3   v072
	BYTE	W24
	BYTE		        Cn4   v088
	BYTE	W24
// 140   ----------------------------------------
	BYTE		TIE     As3   v076
	BYTE	W60
	BYTE		N36     Cn2   v068
	BYTE		N36     Ds2 
	BYTE	W36
// 141   ----------------------------------------
	BYTE		N96     As1   v072
	BYTE		N96     Dn2 
	BYTE	W96
	BYTE		EOT     As3 
// 142   ----------------------------------------
	BYTE	W96
// 143   ----------------------------------------
	BYTE	W96
// 144   ----------------------------------------
	BYTE	W96
// 145   ----------------------------------------
	BYTE	W96
// 146   ----------------------------------------
	BYTE	W96
// 147   ----------------------------------------
	BYTE	W96
// 148   ----------------------------------------
	BYTE	W96
// 149   ----------------------------------------
	BYTE	W96
// 150   ----------------------------------------
	BYTE	W96
// 151   ----------------------------------------
	BYTE	W96
// 152   ----------------------------------------
	BYTE	W48
	BYTE	GoTo
	 POIN2	disillusion_1_B1
disillusion_1_B2:
	BYTE	FINE

//**************** Track 2 (Midi-Chn.2) ****************//

disillusion_2:
	BYTE	KEYSH   disillusion_key+0
disillusion_2_B1:
// 000   ----------------------------------------
	BYTE		VOICE   0
	BYTE		VOL     60*disillusion_mvl/mxv
	BYTE	W96
// 001   ----------------------------------------
	BYTE	W96
// 002   ----------------------------------------
	BYTE		N12     Fn2   v072
	BYTE	W12
	BYTE		        Gn2   v080
	BYTE	W12
	BYTE		        Gs2   v072
	BYTE	W12
	BYTE		N24     Ds3   v092
	BYTE	W24
	BYTE		N12     Gn2   v068
	BYTE	W12
	BYTE		        Gs2   v076
	BYTE		N12     Cn3   v072
	BYTE		N72     Fn3 
	BYTE		N72     Gs3 
	BYTE	W12
	BYTE		N12     Cn3   v084
	BYTE	W12
// 003   ----------------------------------------
	BYTE		        As2   v076
	BYTE	W12
	BYTE		        Cn3   v080
	BYTE	W12
	BYTE		        Gs2   v076
	BYTE	W12
	BYTE		        As2 
	BYTE	W12
	BYTE		        Gn2   v072
	BYTE	W12
	BYTE		        Gs2   v080
	BYTE	W12
	BYTE		        Fn2   v068
	BYTE	W12
	BYTE		        Gn2   v080
	BYTE	W12
// 004   ----------------------------------------
	BYTE		        Cn2 
	BYTE	W12
	BYTE		        Dn2   v076
	BYTE	W12
	BYTE		        Ds2 
	BYTE	W12
	BYTE		N24     As2   v084
	BYTE	W24
	BYTE		N12     Dn2   v072
	BYTE	W12
	BYTE		        Ds2   v080
	BYTE		N72     Dn3   v068
	BYTE		N72     As3 
	BYTE		N72     Dn4 
	BYTE	W12
	BYTE		N12     Gn2   v080
	BYTE	W12
// 005   ----------------------------------------
	BYTE		        Fn2   v072
	BYTE	W12
	BYTE		        Gn2   v084
	BYTE	W12
	BYTE		        Ds2   v072
	BYTE	W12
	BYTE		        Fn2   v080
	BYTE	W12
	BYTE		        Dn2   v072
	BYTE	W12
	BYTE		        Ds2   v084
	BYTE	W12
	BYTE		        Cn2   v076
	BYTE	W12
	BYTE		        Dn2   v080
	BYTE	W12
// 006   ----------------------------------------
	BYTE		        Fn2   v084
	BYTE	W12
	BYTE		        Ds2   v076
	BYTE	W12
	BYTE		        Fn2 
	BYTE		N48     Cs3   v068
	BYTE		N48     Fn3 
	BYTE		N48     Gs3 
	BYTE	W12
	BYTE		N24     Gs2   v076
	BYTE	W24
	BYTE		N12     Ds2   v072
	BYTE	W12
	BYTE		        Fn2   v080
	BYTE	W12
	BYTE		        Gs2 
	BYTE	W12
// 007   ----------------------------------------
	BYTE		        Ds2   v076
	BYTE	W12
	BYTE		        Dn2   v080
	BYTE	W12
	BYTE		        Ds2   v076
	BYTE		N48     Ds3 
	BYTE		N48     Gn3 
	BYTE		N48     As3 
	BYTE	W12
	BYTE		N24     As2   v084
	BYTE	W24
	BYTE		N12     Dn2   v068
	BYTE	W12
	BYTE		        Ds2   v080
	BYTE	W12
	BYTE		        Dn2   v076
	BYTE	W12
// 008   ----------------------------------------
	BYTE		        Fn1   v068
	BYTE	W12
	BYTE		        Gn1   v080
	BYTE	W12
	BYTE		        Gs1 
	BYTE	W12
	BYTE		TIE     Ds2   v084
	BYTE	W24
	BYTE		N12     Fn5   v072
	BYTE		N12     Gs5 
	BYTE	W12
	BYTE		        Ds5 
	BYTE		N12     Gn5 
	BYTE	W12
	BYTE		        Cn5 
	BYTE		N12     Ds5 
	BYTE	W12
// 009   ----------------------------------------
	BYTE		        Gs4   v068
	BYTE		N12     Cn5 
	BYTE	W12
	BYTE		        Gn4 
	BYTE		N12     As4 
	BYTE	W12
	BYTE		        Fn4 
	BYTE		N12     Gs4 
	BYTE	W12
	BYTE		        Ds4   v076
	BYTE		N12     Gn4 
	BYTE	W12
	BYTE		EOT     Ds2 
	BYTE		N12     Cn4   v068
	BYTE		N12     Ds4 
	BYTE	W12
	BYTE		        Gs3   v072
	BYTE		N12     Cn4 
	BYTE	W12
	BYTE		        Gn3 
	BYTE		N12     As3 
	BYTE	W12
	BYTE		        Fn3   v068
	BYTE		N12     Gs3 
	BYTE	W12
// 010   ----------------------------------------
	BYTE		        Fn2   v072
	BYTE	W12
	BYTE		        Gn2   v076
	BYTE	W12
	BYTE		        Gs2   v084
	BYTE	W12
	BYTE		N24     Ds3   v092
	BYTE	W24
	BYTE		N12     Gn2   v072
	BYTE	W12
	BYTE		        Gs2   v076
	BYTE		N12     Cn3   v072
	BYTE		N72     Fn3 
	BYTE		N72     Gs3 
	BYTE	W12
	BYTE		N12     Cn3   v088
	BYTE	W12
// 011   ----------------------------------------
	BYTE		        As2   v076
	BYTE	W12
	BYTE		        Cn3   v080
	BYTE	W12
	BYTE		        Gs2   v072
	BYTE	W12
	BYTE		        As2   v080
	BYTE	W12
	BYTE		        Gn2   v076
	BYTE	W12
	BYTE		        Gs2   v084
	BYTE	W12
	BYTE		        Fn2   v076
	BYTE	W12
	BYTE		        Gn2   v080
	BYTE	W12
// 012   ----------------------------------------
	BYTE		        Cn2   v072
	BYTE	W12
	BYTE		        Dn2   v076
	BYTE	W12
	BYTE		        Ds2   v080
	BYTE	W12
	BYTE		N24     As2   v084
	BYTE	W24
	BYTE		N12     Dn2   v072
	BYTE	W12
	BYTE		        Ds2   v080
	BYTE		N72     Dn3   v072
	BYTE		N72     As3 
	BYTE		N72     Dn4 
	BYTE	W12
	BYTE		N12     Gn2   v076
	BYTE	W12
// 013   ----------------------------------------
	BYTE		        Fn2 
	BYTE	W12
	BYTE		        Gn2   v084
	BYTE	W12
	BYTE		        Ds2   v072
	BYTE	W12
	BYTE		        Fn2   v076
	BYTE	W12
	BYTE		        Dn2 
	BYTE	W12
	BYTE		        Ds2   v080
	BYTE	W12
	BYTE		        Cn2   v072
	BYTE	W12
	BYTE		        Dn2   v080
	BYTE	W12
// 014   ----------------------------------------
	BYTE		        As1   v076
	BYTE	W12
	BYTE		        Cn2   v080
	BYTE	W12
	BYTE		        Cs2 
	BYTE		N48     As2   v068
	BYTE		N48     Cs3 
	BYTE		N48     Fn3 
	BYTE	W12
	BYTE		N24     Fn2   v080
	BYTE	W24
	BYTE		N12     Cs2   v072
	BYTE	W12
	BYTE		        Fn2   v080
	BYTE	W12
	BYTE		        Cs2   v076
	BYTE	W12
// 015   ----------------------------------------
	BYTE		        As1   v080
	BYTE	W12
	BYTE		        Cn2   v076
	BYTE	W12
	BYTE		        Ds2   v080
	BYTE		N48     Cn3   v068
	BYTE		N48     Ds3 
	BYTE		N48     Gn3 
	BYTE	W12
	BYTE		N24     Gn2   v088
	BYTE	W24
	BYTE		N12     Cn2   v068
	BYTE	W12
	BYTE		N24     Ds2   v080
	BYTE	W24
// 016   ----------------------------------------
	BYTE		        Gs2 
	BYTE	W24
	BYTE		N12     Gn2   v076
	BYTE		N48     Cn3   v068
	BYTE		N48     Fn3 
	BYTE		N48     Gs3 
	BYTE	W12
	BYTE		N24     Fn2   v072
	BYTE	W24
	BYTE		N12     Ds2   v076
	BYTE	W12
	BYTE		N24     Cn2 
	BYTE	W24
// 017   ----------------------------------------
	BYTE		N12     As1 
	BYTE	W12
	BYTE		TIE     Gs1   v072
	BYTE	W12
	BYTE		N48     Cs3 
	BYTE		N48     Fn3 
	BYTE		N48     Gs3 
	BYTE	W72
// 018   ----------------------------------------
	BYTE		N24     Fn4   v068
	BYTE		N24     Gs4 
	BYTE	W24
	BYTE		N12     Ds4 
	BYTE		N12     Gn4 
	BYTE	W12
	BYTE		N24     Cs4   v072
	BYTE		N24     Fn4 
	BYTE	W24
	BYTE		N12     Cn4   v068
	BYTE		N12     Ds4 
	BYTE	W12
	BYTE		EOT     Gs1 
	BYTE		N24     Gs3 
	BYTE		N24     Cn4 
	BYTE	W24
// 019   ----------------------------------------
	BYTE		N12     Gn3   v072
	BYTE		N12     As3 
	BYTE	W12
	BYTE		N72     Fn3 
	BYTE		N72     Gs3 
	BYTE	W84
// 020   ----------------------------------------
	BYTE		N36     Cs3 
	BYTE		N36     Fn3 
	BYTE	W36
	BYTE		        Cs3   v080
	BYTE		N36     Fn3 
	BYTE	W36
	BYTE		N24     Cs3 
	BYTE		N24     Fn3 
	BYTE	W24
// 021   ----------------------------------------
disillusion_2_021:
	BYTE		N36     Cn3   v072
	BYTE		N36     Ds3 
	BYTE	W36
	BYTE		        Cn3   v076
	BYTE		N36     Ds3 
	BYTE	W36
	BYTE		N24     Cn3 
	BYTE		N24     Ds3 
	BYTE	W24
	BYTE	PEND
// 022   ----------------------------------------
	BYTE		N36     Cs3   v084
	BYTE		N36     Fn3 
	BYTE	W36
	BYTE		N60     Cs3   v076
	BYTE		N60     Fn3 
	BYTE	W60
// 023   ----------------------------------------
	BYTE		N36     Cs3   v080
	BYTE		N12     Fn3 
	BYTE	W12
	BYTE		        Fn3   v084
	BYTE		N12     Gs3 
	BYTE	W12
	BYTE		        Fs3   v096
	BYTE		N12     As3 
	BYTE	W12
	BYTE		N60     Cs3   v080
	BYTE		N60     Fn3 
	BYTE		N36     Cs4   v108
	BYTE		N36     Fn4 
	BYTE	W36
	BYTE		N24     As3   v088
	BYTE		N24     Cs4 
	BYTE	W24
// 024   ----------------------------------------
	BYTE		N36     Fs2   v072
	BYTE		N36     As2 
	BYTE		N36     Cs3 
	BYTE		N48     Fs3 
	BYTE	W36
	BYTE		N36     Fs2   v076
	BYTE		N36     As2 
	BYTE		N12     Cs3 
	BYTE	W36
	BYTE		N24     Fs2 
	BYTE		N24     As2 
	BYTE		N24     Cs3 
	BYTE	W24
// 025   ----------------------------------------
	BYTE		N36     Fs2   v080
	BYTE		N36     As2 
	BYTE		N36     Cs3 
	BYTE	W36
	BYTE		N24     Fs2 
	BYTE		N24     As2 
	BYTE		N24     Cs3 
	BYTE	W24
	BYTE		N12     Fs2 
	BYTE		N12     As2 
	BYTE		N12     Cs3 
	BYTE	W12
	BYTE		N24     Fs2 
	BYTE		N24     As2 
	BYTE		N24     Cs3 
	BYTE	W24
// 026   ----------------------------------------
	BYTE		N36     Gs2   v072
	BYTE		N36     Cn3 
	BYTE	W36
	BYTE		        Gs2   v076
	BYTE		N36     Cn3 
	BYTE	W36
	BYTE		TIE     Gs2 
	BYTE		TIE     Cn3 
	BYTE	W24
// 027   ----------------------------------------
disillusion_2_027:
	BYTE		N48     Fs3   v072
	BYTE		N48     As3 
	BYTE	W48
	BYTE		        Fn3 
	BYTE		N48     An3 
	BYTE	W48
	BYTE	PEND
	BYTE		EOT     Gs2 
	BYTE		        Cn3 
// 028   ----------------------------------------
	BYTE		N36     Cs3   v092
	BYTE		N36     Fn3 
	BYTE		N48     Gs3   v096
	BYTE	W36
	BYTE		N24     Cs3   v084
	BYTE		N12     Fn3 
	BYTE	W24
	BYTE		        Cs3   v076
	BYTE		N12     Fn3 
	BYTE	W12
	BYTE		N24     Cs3 
	BYTE		N24     Fn3 
	BYTE	W24
// 029   ----------------------------------------
	BYTE	PATT
	 POIN2	disillusion_2_021
// 030   ----------------------------------------
	BYTE		N36     Cs3   v080
	BYTE		N36     Fn3 
	BYTE	W36
	BYTE		        Cs3 
	BYTE		N36     Fn3 
	BYTE	W36
	BYTE		N24     Cs3   v076
	BYTE		N24     Fn3 
	BYTE	W24
// 031   ----------------------------------------
disillusion_2_031:
	BYTE		N36     Cs3   v072
	BYTE		N36     Fn3 
	BYTE	W36
	BYTE		        Cs3   v076
	BYTE		N36     Fn3 
	BYTE	W36
	BYTE		N24     As2   v072
	BYTE		N24     Cs3 
	BYTE	W24
	BYTE	PEND
// 032   ----------------------------------------
	BYTE		N36     Fs2   v076
	BYTE		N36     As2 
	BYTE		N36     Cs3 
	BYTE	W36
	BYTE		        Fs2   v072
	BYTE		N36     As2 
	BYTE		N36     Cs3 
	BYTE	W36
	BYTE		N24     Fs2   v080
	BYTE		N24     As2 
	BYTE		N24     Cs3 
	BYTE	W24
// 033   ----------------------------------------
	BYTE		N36     Cn3   v088
	BYTE		N36     Ds3 
	BYTE	W36
	BYTE		        Cn3   v080
	BYTE		N36     Ds3 
	BYTE	W36
	BYTE		N24     Cn3 
	BYTE		N24     Ds3 
	BYTE	W24
// 034   ----------------------------------------
	BYTE		N36     Dn3   v084
	BYTE		N36     Fn3 
	BYTE	W36
	BYTE		TIE     Dn3 
	BYTE		TIE     Fn3 
	BYTE		TIE     As3   v088
	BYTE	W60
// 035   ----------------------------------------
	BYTE	W96
// 036   ----------------------------------------
	BYTE	W96
// 037   ----------------------------------------
	BYTE	W96
	BYTE		EOT     Dn3 
	BYTE		        Fn3 
	BYTE		        As3 
// 038   ----------------------------------------
	BYTE		TIE     As1   v072
	BYTE		TIE     Cs2 
	BYTE		TIE     Fn2 
	BYTE	W24
	BYTE		N36     As3 
	BYTE		N36     Cs4 
	BYTE	W36
	BYTE		N24     Gs3   v076
	BYTE		N24     Cn4 
	BYTE	W24
	BYTE		TIE     Fs3 
	BYTE		TIE     As3 
	BYTE	W12
// 039   ----------------------------------------
	BYTE	W96
	BYTE		EOT     As1 
	BYTE		        Cs2 
	BYTE		        Fn2 
	BYTE		        Fs3 
	BYTE		        As3 
// 040   ----------------------------------------
	BYTE		TIE     Cn2   v080
	BYTE		TIE     Fn2 
	BYTE		TIE     Gs2 
	BYTE	W24
	BYTE		N36     Gs3   v068
	BYTE		N36     Cn4 
	BYTE	W36
	BYTE		N24     Fn3   v076
	BYTE		N24     As3 
	BYTE	W24
	BYTE		TIE     Fn3   v072
	BYTE		TIE     Gs3 
	BYTE	W12
// 041   ----------------------------------------
	BYTE	W96
	BYTE		EOT     Cn2 
	BYTE		        Fn2 
	BYTE		        Gs2 
	BYTE		        Fn3 
	BYTE		        Gs3 
// 042   ----------------------------------------
	BYTE		TIE     As1 
	BYTE		TIE     Cs2 
	BYTE		TIE     Fn2 
	BYTE	W24
	BYTE		N36     As3   v068
	BYTE		N36     Cs4 
	BYTE	W36
	BYTE		N24     Gs3   v080
	BYTE		N24     Cn4 
	BYTE	W24
	BYTE		TIE     Fs3   v072
	BYTE		TIE     As3 
	BYTE	W12
// 043   ----------------------------------------
	BYTE	W96
	BYTE		EOT     As1 
	BYTE		        Cs2 
	BYTE		        Fn2 
	BYTE		        Fs3 
	BYTE		        As3 
// 044   ----------------------------------------
	BYTE		TIE     Cn2   v080
	BYTE		TIE     Fn2 
	BYTE		TIE     Gs2 
	BYTE	W24
	BYTE		N36     Gs3   v072
	BYTE		N36     Cn4 
	BYTE	W36
	BYTE		N24     Fn3   v076
	BYTE		N24     As3 
	BYTE	W24
	BYTE		TIE     Fn3 
	BYTE		TIE     Gs3 
	BYTE	W12
// 045   ----------------------------------------
	BYTE	W96
	BYTE		EOT     Cn2 
	BYTE		        Fn2 
	BYTE		        Gs2 
	BYTE		        Fn3 
	BYTE		        Gs3 
// 046   ----------------------------------------
	BYTE		TIE     Cs2   v084
	BYTE		TIE     Fn2 
	BYTE		TIE     As2 
	BYTE	W24
	BYTE		N36     As3   v068
	BYTE		N36     Cs4 
	BYTE	W36
	BYTE		N24     Gs3   v076
	BYTE		N24     Cn4 
	BYTE	W24
	BYTE		TIE     Fs3   v072
	BYTE		TIE     As3 
	BYTE	W12
// 047   ----------------------------------------
	BYTE	W96
	BYTE		EOT     Cs2 
	BYTE		        Fn2 
	BYTE		        As2 
	BYTE		        Fs3 
	BYTE		        As3 
// 048   ----------------------------------------
	BYTE		TIE     Cn2   v076
	BYTE		TIE     Fn2 
	BYTE		TIE     Gs2 
	BYTE	W24
	BYTE		N36     Gs3   v068
	BYTE		N36     Cn4 
	BYTE	W36
	BYTE		N24     Fn3   v072
	BYTE		N24     As3 
	BYTE	W24
	BYTE		TIE     Fn3 
	BYTE		TIE     Gs3 
	BYTE	W12
// 049   ----------------------------------------
	BYTE	W96
	BYTE		EOT     Cn2 
	BYTE		        Fn2 
	BYTE		        Gs2 
	BYTE		        Fn3 
	BYTE		        Gs3 
// 050   ----------------------------------------
disillusion_2_050:
	BYTE		N36     Fs2   v088
	BYTE		N36     As2 
	BYTE		N36     Cs3 
	BYTE	W24
	BYTE		        As3   v072
	BYTE		N36     Cs4 
	BYTE	W12
	BYTE		        Fs2   v084
	BYTE		N36     As2 
	BYTE		N36     Cs3 
	BYTE	W24
	BYTE		        As3   v076
	BYTE		N36     Cs4 
	BYTE	W12
	BYTE		N24     Fs2 
	BYTE		N24     As2 
	BYTE		N24     Cs3 
	BYTE	W24
	BYTE	PEND
// 051   ----------------------------------------
	BYTE		N96     Gs2   v080
	BYTE		N96     Cn3 
	BYTE		N96     Ds3 
	BYTE	W24
	BYTE		N36     Cs4 
	BYTE		N36     Fn4 
	BYTE	W36
	BYTE		        Gs4   v108
	BYTE		N36     Cn5 
	BYTE	W36
// 052   ----------------------------------------
	BYTE		TIE     As2   v084
	BYTE		TIE     Cs3 
	BYTE		TIE     Fn3 
	BYTE	W24
	BYTE		N36     Cn4 
	BYTE		N36     Ds4 
	BYTE	W36
	BYTE		        Cn4   v100
	BYTE		N36     Ds4 
	BYTE	W36
// 053   ----------------------------------------
	BYTE		N96     As3   v092
	BYTE		N96     Dn4 
	BYTE	W72
	BYTE		EOT     As2 
	BYTE		        Cs3 
	BYTE		        Fn3 
	BYTE	W24
// 054   ----------------------------------------
	BYTE		TIE     Cn3   v072
	BYTE		TIE     Ds3 
	BYTE		TIE     Gn3 
	BYTE	W24
	BYTE		N36     Dn4   v084
	BYTE		N36     Fn4 
	BYTE	W36
	BYTE		        Dn4   v092
	BYTE		N36     Fn4 
	BYTE	W36
// 055   ----------------------------------------
	BYTE		N96     Cn4   v084
	BYTE		N96     En4 
	BYTE	W72
	BYTE		EOT     Cn3 
	BYTE		        Ds3 
	BYTE		        Gn3 
	BYTE	W24
// 056   ----------------------------------------
	BYTE		TIE     Fn2   v072
	BYTE		TIE     Gs2 
	BYTE		TIE     Cn3 
	BYTE	W96
// 057   ----------------------------------------
	BYTE	W96
	BYTE		EOT     Fn2 
	BYTE		        Gs2 
	BYTE		        Cn3 
// 058   ----------------------------------------
	BYTE		TIE     Fn2   v076
	BYTE		TIE     Gs2 
	BYTE		TIE     Cn3 
	BYTE	W36
	BYTE		N60     Ds4   v084
	BYTE		N60     Gn4 
	BYTE	W60
// 059   ----------------------------------------
	BYTE	W96
	BYTE		EOT     Fn2 
	BYTE		        Gs2 
	BYTE		        Cn3 
// 060   ----------------------------------------
	BYTE		TIE     Fn2   v076
	BYTE		TIE     Gs2 
	BYTE		TIE     Cn3 
	BYTE	W36
	BYTE		N60     Ds4   v088
	BYTE		N60     Gn4 
	BYTE	W60
// 061   ----------------------------------------
	BYTE	W96
	BYTE		EOT     Fn2 
	BYTE		        Gs2 
	BYTE		        Cn3 
// 062   ----------------------------------------
	BYTE		TIE     En2   v076
	BYTE		TIE     Gs2 
	BYTE		TIE     Cn3 
	BYTE	W36
	BYTE		N60     Cs4   v080
	BYTE		N60     Fn4 
	BYTE	W60
// 063   ----------------------------------------
	BYTE	W96
	BYTE		EOT     En2 
	BYTE		        Gs2 
	BYTE		        Cn3 
// 064   ----------------------------------------
	BYTE		TIE     Cn2   v072
	BYTE		TIE     Fn2 
	BYTE		TIE     Gs2 
	BYTE	W36
	BYTE		N60     Cs4   v084
	BYTE		N60     Fn4 
	BYTE	W60
// 065   ----------------------------------------
	BYTE	W96
	BYTE		EOT     Cn2 
	BYTE		        Fn2 
	BYTE		        Gs2 
// 066   ----------------------------------------
	BYTE		TIE     Cn2   v076
	BYTE		TIE     En2 
	BYTE		TIE     Gn2 
	BYTE	W36
	BYTE		N60     Cs4   v084
	BYTE		N60     Gn4 
	BYTE	W60
// 067   ----------------------------------------
	BYTE	W96
	BYTE		EOT     Cn2 
	BYTE		        En2 
	BYTE		        Gn2 
// 068   ----------------------------------------
	BYTE		N96     Fn2   v092
	BYTE		N96     Gs2 
	BYTE		N96     Cs3 
	BYTE	W36
	BYTE		N60     Gs3   v084
	BYTE		N60     Cs4 
	BYTE	W60
// 069   ----------------------------------------
	BYTE		N96     Ds2   v076
	BYTE		N96     Gn2 
	BYTE		N96     Cn3 
	BYTE	W36
	BYTE		N60     Gn3   v080
	BYTE		N60     Cn4 
	BYTE	W60
// 070   ----------------------------------------
	BYTE		TIE     Cs2   v076
	BYTE		TIE     Fn2 
	BYTE		TIE     As2 
	BYTE	W36
	BYTE		N60     Fn3   v088
	BYTE		N60     As3 
	BYTE	W60
// 071   ----------------------------------------
	BYTE	W36
	BYTE		        Fn3   v080
	BYTE		N60     As3 
	BYTE	W60
	BYTE		EOT     Cs2 
	BYTE		        Fn2 
	BYTE		        As2 
// 072   ----------------------------------------
	BYTE		TIE     En2   v084
	BYTE		TIE     Gn2 
	BYTE		TIE     Cn3 
	BYTE	W36
	BYTE		N48     Gn3   v080
	BYTE		N48     Cn4 
	BYTE		N48     Fn4 
	BYTE	W48
	BYTE		N36     Gn3   v092
	BYTE		N36     Cn4 
	BYTE		N36     En4 
	BYTE	W12
// 073   ----------------------------------------
	BYTE	W24
	BYTE		EOT     En2 
	BYTE		        Gn2 
	BYTE		        Cn3 
	BYTE	W72
// 074   ----------------------------------------
	BYTE		N12     Fn2   v068
	BYTE	W12
	BYTE		        Gn2   v080
	BYTE	W12
	BYTE		        Gs2   v084
	BYTE	W12
	BYTE		N24     Ds3   v092
	BYTE	W24
	BYTE		N12     Gn2   v072
	BYTE	W12
	BYTE		        Gs2   v080
	BYTE		N12     Cn3   v068
	BYTE		N72     Fn3 
	BYTE		N72     Gs3 
	BYTE	W12
	BYTE		N12     Cn3   v084
	BYTE	W12
// 075   ----------------------------------------
	BYTE		        As2   v080
	BYTE	W12
	BYTE		        Cn3   v088
	BYTE	W12
	BYTE		        Gs2   v076
	BYTE	W12
	BYTE		        As2   v080
	BYTE	W12
	BYTE		        Gn2   v072
	BYTE	W12
	BYTE		        Gs2   v080
	BYTE	W12
	BYTE		        Fn2   v072
	BYTE	W12
	BYTE		        Gn2   v080
	BYTE	W12
// 076   ----------------------------------------
	BYTE		        Cn2   v072
	BYTE	W12
	BYTE		        Dn2   v076
	BYTE	W12
	BYTE		        Ds2   v080
	BYTE	W12
	BYTE		N24     As2   v088
	BYTE	W24
	BYTE		N12     Dn2   v072
	BYTE	W12
	BYTE		        Ds2 
	BYTE		N72     Dn3 
	BYTE		N72     As3 
	BYTE		N72     Dn4 
	BYTE	W12
	BYTE		N12     Gn2   v080
	BYTE	W12
// 077   ----------------------------------------
	BYTE		        Fn2   v072
	BYTE	W12
	BYTE		        Gn2   v076
	BYTE	W12
	BYTE		        Ds2 
	BYTE	W12
	BYTE		        Fn2   v080
	BYTE	W12
	BYTE		        Dn2   v076
	BYTE	W12
	BYTE		        Ds2   v080
	BYTE	W12
	BYTE		        Cn2   v072
	BYTE	W12
	BYTE		        Dn2   v084
	BYTE	W12
// 078   ----------------------------------------
	BYTE		        Fn2 
	BYTE	W12
	BYTE		        Ds2   v072
	BYTE	W12
	BYTE		        Fn2   v080
	BYTE		N48     Cs3   v072
	BYTE		N48     Fn3 
	BYTE		N48     Gs3 
	BYTE	W12
	BYTE		N24     Gs2   v084
	BYTE	W24
	BYTE		N12     Ds2   v076
	BYTE	W12
	BYTE		        Fn2   v084
	BYTE	W12
	BYTE		        Gs2   v080
	BYTE	W12
// 079   ----------------------------------------
	BYTE		        Ds2 
	BYTE	W12
	BYTE		        Dn2   v076
	BYTE	W12
	BYTE		        Ds2   v084
	BYTE		N48     Ds3   v072
	BYTE		N48     Gn3 
	BYTE		N48     As3 
	BYTE	W12
	BYTE		N24     As2   v084
	BYTE	W24
	BYTE		N12     Dn2   v068
	BYTE	W12
	BYTE		        Ds2   v080
	BYTE	W12
	BYTE		        Dn2   v076
	BYTE	W12
// 080   ----------------------------------------
	BYTE		        Fn1   v068
	BYTE	W12
	BYTE		        Gn1   v076
	BYTE	W12
	BYTE		        Gs1   v080
	BYTE	W12
	BYTE		TIE     Ds2 
	BYTE	W24
	BYTE		N12     Fn5   v072
	BYTE		N12     Gs5 
	BYTE	W12
	BYTE		        Ds5 
	BYTE		N12     Gn5 
	BYTE	W12
	BYTE		        Cn5 
	BYTE		N12     Ds5 
	BYTE	W12
// 081   ----------------------------------------
	BYTE		        Gs4   v068
	BYTE		N12     Cn5 
	BYTE	W12
	BYTE		        Gn4   v072
	BYTE		N12     As4 
	BYTE	W12
	BYTE		        Fn4 
	BYTE		N12     Gs4 
	BYTE	W12
	BYTE		        Ds4 
	BYTE		N12     Gn4 
	BYTE	W12
	BYTE		EOT     Ds2 
	BYTE		N12     Cn4   v068
	BYTE		N12     Ds4 
	BYTE	W12
	BYTE		        Gs3 
	BYTE		N12     Cn4 
	BYTE	W12
	BYTE		        Gn3   v072
	BYTE		N12     As3 
	BYTE	W12
	BYTE		        Fn3 
	BYTE		N12     Gs3 
	BYTE	W12
// 082   ----------------------------------------
	BYTE		        Fn2 
	BYTE	W12
	BYTE		        Gn2   v080
	BYTE	W12
	BYTE		        Gs2 
	BYTE	W12
	BYTE		N24     Ds3   v092
	BYTE	W24
	BYTE		N12     Gn2   v076
	BYTE	W12
	BYTE		        Gs2   v080
	BYTE		N12     Cn3   v072
	BYTE		N72     Fn3 
	BYTE		N72     Gs3 
	BYTE	W12
	BYTE		N12     Cn3   v084
	BYTE	W12
// 083   ----------------------------------------
	BYTE		        As2   v072
	BYTE	W12
	BYTE		        Cn3   v084
	BYTE	W12
	BYTE		        Gs2   v072
	BYTE	W12
	BYTE		        As2   v080
	BYTE	W12
	BYTE		        Gn2   v072
	BYTE	W12
	BYTE		        Gs2   v084
	BYTE	W12
	BYTE		        Fn2   v076
	BYTE	W12
	BYTE		        Gn2   v080
	BYTE	W12
// 084   ----------------------------------------
	BYTE		        Cn2   v072
	BYTE	W12
	BYTE		        Dn2   v080
	BYTE	W12
	BYTE		        Ds2 
	BYTE	W12
	BYTE		N24     As2   v084
	BYTE	W24
	BYTE		N12     Dn2   v072
	BYTE	W12
	BYTE		        Ds2   v084
	BYTE		N72     Dn3   v068
	BYTE		N72     As3 
	BYTE		N72     Dn4 
	BYTE	W12
	BYTE		N12     Gn2   v080
	BYTE	W12
// 085   ----------------------------------------
	BYTE		        Fn2   v072
	BYTE	W12
	BYTE		        Gn2   v080
	BYTE	W12
	BYTE		        Ds2   v072
	BYTE	W12
	BYTE		        Fn2   v080
	BYTE	W12
	BYTE		        Dn2   v072
	BYTE	W12
	BYTE		        Ds2   v076
	BYTE	W12
	BYTE		        Cn2 
	BYTE	W12
	BYTE		        Dn2   v084
	BYTE	W12
// 086   ----------------------------------------
	BYTE		        As1   v072
	BYTE	W12
	BYTE		        Cn2   v076
	BYTE	W12
	BYTE		        Cs2   v080
	BYTE		N48     As2   v068
	BYTE		N48     Cs3 
	BYTE		N48     Fn3 
	BYTE	W12
	BYTE		N24     Fn2   v084
	BYTE	W24
	BYTE		N12     Cs2   v072
	BYTE	W12
	BYTE		        Fn2   v084
	BYTE	W12
	BYTE		        Cs2   v076
	BYTE	W12
// 087   ----------------------------------------
	BYTE		        As1   v072
	BYTE	W12
	BYTE		        Cn2   v084
	BYTE	W12
	BYTE		        Ds2   v080
	BYTE		N48     Cn3   v068
	BYTE		N48     Ds3 
	BYTE		N48     Gn3 
	BYTE	W12
	BYTE		N24     Gn2   v084
	BYTE	W24
	BYTE		N12     Cn2   v072
	BYTE	W12
	BYTE		N24     Ds2   v076
	BYTE	W24
// 088   ----------------------------------------
	BYTE		        Gs2   v080
	BYTE	W24
	BYTE		N12     Gn2   v076
	BYTE		N48     Cn3 
	BYTE		N48     Fn3 
	BYTE		N48     Gs3 
	BYTE	W12
	BYTE		N24     Fn2 
	BYTE	W24
	BYTE		N12     Ds2   v072
	BYTE	W12
	BYTE		N24     Cn2   v076
	BYTE	W24
// 089   ----------------------------------------
	BYTE		N12     As1   v080
	BYTE	W12
	BYTE		TIE     Gs1   v072
	BYTE	W12
	BYTE		N48     Cs3 
	BYTE		N48     Fn3 
	BYTE		N48     Gs3 
	BYTE	W72
// 090   ----------------------------------------
	BYTE		N24     Fn4   v076
	BYTE		N24     Gs4 
	BYTE	W24
	BYTE		N12     Ds4   v072
	BYTE		N12     Gn4 
	BYTE	W12
	BYTE		N24     Cs4   v076
	BYTE		N24     Fn4 
	BYTE	W24
	BYTE		N12     Cn4 
	BYTE		N12     Ds4 
	BYTE	W12
	BYTE		EOT     Gs1 
	BYTE		N24     Gs3   v068
	BYTE		N24     Cn4 
	BYTE	W24
// 091   ----------------------------------------
	BYTE		N12     Gn3   v076
	BYTE		N12     As3 
	BYTE	W12
	BYTE		N72     Fn3 
	BYTE		N72     Gs3 
	BYTE	W84
// 092   ----------------------------------------
	BYTE		N36     Cs3   v064
	BYTE		N36     Fn3 
	BYTE	W36
	BYTE		        Cs3   v080
	BYTE		N36     Fn3 
	BYTE	W36
	BYTE		N24     Cs3   v072
	BYTE		N24     Fn3 
	BYTE	W24
// 093   ----------------------------------------
	BYTE		N36     Cn3   v076
	BYTE		N36     Ds3 
	BYTE	W36
	BYTE		        Cn3   v080
	BYTE		N36     Ds3 
	BYTE	W36
	BYTE		N24     Cn3   v076
	BYTE		N24     Ds3 
	BYTE	W24
// 094   ----------------------------------------
	BYTE		N36     Cs3   v088
	BYTE		N36     Fn3 
	BYTE	W36
	BYTE		N60     Cs3   v076
	BYTE		N60     Fn3 
	BYTE	W60
// 095   ----------------------------------------
	BYTE		N36     Cs3   v080
	BYTE		N12     Fn3 
	BYTE	W12
	BYTE		        Fn3   v088
	BYTE		N12     Gs3 
	BYTE	W12
	BYTE		        Fs3   v092
	BYTE		N12     As3 
	BYTE	W12
	BYTE		N60     Cs3   v080
	BYTE		N60     Fn3 
	BYTE		N36     Cs4   v116
	BYTE		N36     Fn4 
	BYTE	W36
	BYTE		N24     As3   v088
	BYTE		N24     Cs4 
	BYTE	W24
// 096   ----------------------------------------
	BYTE		N36     Fs2   v068
	BYTE		N36     As2 
	BYTE		N36     Cs3 
	BYTE		N48     Fs3   v076
	BYTE	W36
	BYTE		N36     Fs2   v080
	BYTE		N36     As2 
	BYTE		N12     Cs3 
	BYTE	W36
	BYTE		N24     Fs2 
	BYTE		N24     As2 
	BYTE		N24     Cs3 
	BYTE	W24
// 097   ----------------------------------------
	BYTE		N36     Fs2   v076
	BYTE		N36     As2 
	BYTE		N36     Cs3 
	BYTE	W36
	BYTE		N24     Fs2 
	BYTE		N24     As2 
	BYTE		N24     Cs3 
	BYTE	W24
	BYTE		N12     Fs2 
	BYTE		N12     As2 
	BYTE		N12     Cs3 
	BYTE	W12
	BYTE		N24     Fs2 
	BYTE		N24     As2 
	BYTE		N24     Cs3 
	BYTE	W24
// 098   ----------------------------------------
	BYTE		N36     Gs2   v080
	BYTE		N36     Cn3 
	BYTE	W36
	BYTE		        Gs2   v072
	BYTE		N36     Cn3 
	BYTE	W36
	BYTE		TIE     Gs2   v076
	BYTE		TIE     Cn3 
	BYTE	W24
// 099   ----------------------------------------
	BYTE	PATT
	 POIN2	disillusion_2_027
	BYTE		EOT     Gs2 
	BYTE		        Cn3 
// 100   ----------------------------------------
	BYTE		N36     Cs3   v088
	BYTE		N36     Fn3 
	BYTE		N48     Gs3 
	BYTE	W36
	BYTE		N24     Cs3   v080
	BYTE		N12     Fn3 
	BYTE	W24
	BYTE		        Cs3 
	BYTE		N12     Fn3 
	BYTE	W12
	BYTE		N24     Cs3 
	BYTE		N24     Fn3 
	BYTE	W24
// 101   ----------------------------------------
	BYTE		N36     Cn3   v072
	BYTE		N36     Ds3 
	BYTE	W36
	BYTE		        Cn3   v076
	BYTE		N36     Ds3 
	BYTE	W36
	BYTE		N24     Cn3   v080
	BYTE		N24     Ds3 
	BYTE	W24
// 102   ----------------------------------------
	BYTE		N36     Cs3   v084
	BYTE		N36     Fn3 
	BYTE	W36
	BYTE		        Cs3   v076
	BYTE		N36     Fn3 
	BYTE	W36
	BYTE		N24     Cs3   v080
	BYTE		N24     Fn3 
	BYTE	W24
// 103   ----------------------------------------
	BYTE	PATT
	 POIN2	disillusion_2_031
// 104   ----------------------------------------
	BYTE		N36     Fs2   v080
	BYTE		N36     As2 
	BYTE		N36     Cs3 
	BYTE	W36
	BYTE		        Fs2   v076
	BYTE		N36     As2 
	BYTE		N36     Cs3 
	BYTE	W36
	BYTE		N24     Fs2 
	BYTE		N24     As2 
	BYTE		N24     Cs3 
	BYTE	W24
// 105   ----------------------------------------
	BYTE		N36     Cn3   v084
	BYTE		N36     Ds3 
	BYTE	W36
	BYTE		        Cn3 
	BYTE		N36     Ds3 
	BYTE	W36
	BYTE		N24     Cn3   v080
	BYTE		N24     Ds3 
	BYTE	W24
// 106   ----------------------------------------
	BYTE		N36     Dn3 
	BYTE		N36     Fn3 
	BYTE	W36
	BYTE		TIE     Dn3 
	BYTE		TIE     Fn3 
	BYTE		TIE     As3   v084
	BYTE	W60
// 107   ----------------------------------------
	BYTE	W96
// 108   ----------------------------------------
	BYTE	W96
// 109   ----------------------------------------
	BYTE	W96
	BYTE		EOT     Dn3 
	BYTE		        Fn3 
	BYTE		        As3 
// 110   ----------------------------------------
	BYTE		TIE     As1   v068
	BYTE		TIE     Cs2 
	BYTE		TIE     Fn2 
	BYTE	W24
	BYTE		N36     As3   v072
	BYTE		N36     Cs4 
	BYTE	W36
	BYTE		N24     Gs3   v068
	BYTE		N24     Cn4 
	BYTE	W24
	BYTE		TIE     Fs3   v072
	BYTE		TIE     As3 
	BYTE	W12
// 111   ----------------------------------------
	BYTE	W96
	BYTE		EOT     As1 
	BYTE		        Cs2 
	BYTE		        Fn2 
	BYTE		        Fs3 
	BYTE		        As3 
// 112   ----------------------------------------
	BYTE		TIE     Cn2   v084
	BYTE		TIE     Fn2 
	BYTE		TIE     Gs2 
	BYTE	W24
	BYTE		N36     Gs3   v072
	BYTE		N36     Cn4 
	BYTE	W36
	BYTE		N24     Fn3   v076
	BYTE		N24     As3 
	BYTE	W24
	BYTE		TIE     Fn3   v072
	BYTE		TIE     Gs3 
	BYTE	W12
// 113   ----------------------------------------
	BYTE	W96
	BYTE		EOT     Cn2 
	BYTE		        Fn2 
	BYTE		        Gs2 
	BYTE		        Fn3 
	BYTE		        Gs3 
// 114   ----------------------------------------
	BYTE		TIE     As1   v076
	BYTE		TIE     Cs2 
	BYTE		TIE     Fn2 
	BYTE	W24
	BYTE		N36     As3   v072
	BYTE		N36     Cs4 
	BYTE	W36
	BYTE		N24     Gs3 
	BYTE		N24     Cn4 
	BYTE	W24
	BYTE		TIE     Fs3   v080
	BYTE		TIE     As3 
	BYTE	W12
// 115   ----------------------------------------
	BYTE	W96
	BYTE		EOT     As1 
	BYTE		        Cs2 
	BYTE		        Fn2 
	BYTE		        Fs3 
	BYTE		        As3 
// 116   ----------------------------------------
	BYTE		TIE     Cn2 
	BYTE		TIE     Fn2 
	BYTE		TIE     Gs2 
	BYTE	W24
	BYTE		N36     Gs3   v068
	BYTE		N36     Cn4 
	BYTE	W36
	BYTE		N24     Fn3 
	BYTE		N24     As3 
	BYTE	W24
	BYTE		TIE     Fn3   v076
	BYTE		TIE     Gs3 
	BYTE	W12
// 117   ----------------------------------------
	BYTE	W96
	BYTE		EOT     Cn2 
	BYTE		        Fn2 
	BYTE		        Gs2 
	BYTE		        Fn3 
	BYTE		        Gs3 
// 118   ----------------------------------------
	BYTE		TIE     Cs2 
	BYTE		TIE     Fn2 
	BYTE		TIE     As2 
	BYTE	W24
	BYTE		N36     As3   v068
	BYTE		N36     Cs4 
	BYTE	W36
	BYTE		N24     Gs3   v076
	BYTE		N24     Cn4 
	BYTE	W24
	BYTE		TIE     Fs3   v072
	BYTE		TIE     As3 
	BYTE	W12
// 119   ----------------------------------------
	BYTE	W96
	BYTE		EOT     Cs2 
	BYTE		        Fn2 
	BYTE		        As2 
	BYTE		        Fs3 
	BYTE		        As3 
// 120   ----------------------------------------
	BYTE		TIE     Cn2   v076
	BYTE		TIE     Fn2 
	BYTE		TIE     Gs2 
	BYTE	W24
	BYTE		N36     Gs3   v072
	BYTE		N36     Cn4 
	BYTE	W36
	BYTE		N24     Fn3 
	BYTE		N24     As3 
	BYTE	W24
	BYTE		TIE     Fn3 
	BYTE		TIE     Gs3 
	BYTE	W12
// 121   ----------------------------------------
	BYTE	W96
	BYTE		EOT     Cn2 
	BYTE		        Fn2 
	BYTE		        Gs2 
	BYTE		        Fn3 
	BYTE		        Gs3 
// 122   ----------------------------------------
	BYTE		N36     Fs2   v088
	BYTE		N36     As2 
	BYTE		N36     Cs3 
	BYTE	W24
	BYTE		        As3   v072
	BYTE		N36     Cs4 
	BYTE	W12
	BYTE		        Fs2   v080
	BYTE		N36     As2 
	BYTE		N36     Cs3 
	BYTE	W24
	BYTE		        As3   v076
	BYTE		N36     Cs4 
	BYTE	W12
	BYTE		N24     Fs2   v080
	BYTE		N24     As2 
	BYTE		N24     Cs3 
	BYTE	W24
// 123   ----------------------------------------
	BYTE		N96     Gs2 
	BYTE		N96     Cn3 
	BYTE		N96     Ds3 
	BYTE	W24
	BYTE		N36     Cs4   v084
	BYTE		N36     Fn4 
	BYTE	W36
	BYTE		        Gs4   v108
	BYTE		N36     Cn5 
	BYTE	W36
// 124   ----------------------------------------
disillusion_2_124:
	BYTE		TIE     As2   v084
	BYTE		TIE     Cs3 
	BYTE		TIE     Fn3 
	BYTE	W24
	BYTE		N36     Cn4   v080
	BYTE		N36     Ds4 
	BYTE	W36
	BYTE		        Cn4   v088
	BYTE		N36     Ds4 
	BYTE	W36
	BYTE	PEND
// 125   ----------------------------------------
	BYTE		N96     As3 
	BYTE		N96     Dn4 
	BYTE	W72
	BYTE		EOT     As2 
	BYTE		        Cs3 
	BYTE		        Fn3 
	BYTE	W24
// 126   ----------------------------------------
	BYTE		TIE     As1   v072
	BYTE		TIE     Cs2 
	BYTE		TIE     Fn2 
	BYTE		N48     Cs3   v056
	BYTE		N48     Fn3 
	BYTE	W48
	BYTE		        Cs3   v072
	BYTE		N48     Fn3 
	BYTE	W48
// 127   ----------------------------------------
	BYTE		        Cs3 
	BYTE		N48     Fn3 
	BYTE	W48
	BYTE		        Cs3   v076
	BYTE		N48     Fn3 
	BYTE	W48
	BYTE		EOT     As1 
	BYTE		        Cs2 
	BYTE		        Fn2 
// 128   ----------------------------------------
	BYTE		TIE     Gs1   v072
	BYTE		TIE     Cn2 
	BYTE		TIE     Ds2 
	BYTE		N48     Cn3   v076
	BYTE		N48     Fn3 
	BYTE	W48
	BYTE		        Cn3 
	BYTE		N48     Fn3 
	BYTE	W48
// 129   ----------------------------------------
	BYTE		        Cn3 
	BYTE		N48     Fn3 
	BYTE	W48
	BYTE		        Cn3   v080
	BYTE		N48     Fn3 
	BYTE	W48
	BYTE		EOT     Gs1 
	BYTE		        Cn2 
	BYTE		        Ds2 
// 130   ----------------------------------------
	BYTE		TIE     Fs2   v096
	BYTE		TIE     As2 
	BYTE		TIE     Cs3 
	BYTE		N48     Fs3   v088
	BYTE		N48     As3 
	BYTE	W48
	BYTE		        Fn3   v080
	BYTE		N48     As3 
	BYTE	W48
// 131   ----------------------------------------
	BYTE		        Fs3   v076
	BYTE		N48     As3 
	BYTE	W48
	BYTE		        Fn3   v080
	BYTE		N48     As3 
	BYTE	W48
	BYTE		EOT     Fs2 
	BYTE		        As2 
	BYTE		        Cs3 
// 132   ----------------------------------------
	BYTE		TIE     Fn2   v076
	BYTE		TIE     Gs2 
	BYTE		TIE     Cn3 
	BYTE		N48     Fn3   v072
	BYTE		N48     Gs3 
	BYTE	W48
	BYTE		        Fn3   v076
	BYTE		N48     Gs3 
	BYTE	W48
// 133   ----------------------------------------
	BYTE		        Fn3 
	BYTE		N48     Gs3 
	BYTE	W48
	BYTE		        Fn3 
	BYTE		N48     Gs3 
	BYTE	W48
	BYTE		EOT     Fn2 
	BYTE		        Gs2 
	BYTE		        Cn3 
// 134   ----------------------------------------
	BYTE		TIE     Cs2   v072
	BYTE		TIE     Fn2 
	BYTE		TIE     As2 
	BYTE	W24
	BYTE		N36     As3   v068
	BYTE		N36     Cs4 
	BYTE	W36
	BYTE		N24     Gs3   v072
	BYTE		N24     Cn4 
	BYTE	W24
	BYTE		TIE     Fs3 
	BYTE		TIE     As3 
	BYTE	W12
// 135   ----------------------------------------
	BYTE	W96
	BYTE		EOT     Cs2 
	BYTE		        Fn2 
	BYTE		        As2 
	BYTE		        Fs3 
	BYTE		        As3 
// 136   ----------------------------------------
	BYTE		TIE     Cn2 
	BYTE		TIE     Fn2 
	BYTE		TIE     Gs2 
	BYTE	W24
	BYTE		N36     Gs3   v068
	BYTE		N36     Cn4 
	BYTE	W36
	BYTE		N24     Fn3   v072
	BYTE		N24     As3 
	BYTE	W24
	BYTE		TIE     Fn3   v076
	BYTE		TIE     Gs3 
	BYTE	W12
// 137   ----------------------------------------
	BYTE	W96
	BYTE		EOT     Cn2 
	BYTE		        Fn2 
	BYTE		        Gs2 
	BYTE		        Fn3 
	BYTE		        Gs3 
// 138   ----------------------------------------
	BYTE	PATT
	 POIN2	disillusion_2_050
// 139   ----------------------------------------
	BYTE		N96     Gs2   v084
	BYTE		N96     Cn3 
	BYTE		N96     Ds3 
	BYTE	W24
	BYTE		N36     Cs4   v088
	BYTE		N36     Fn4 
	BYTE	W36
	BYTE		        Gs4   v108
	BYTE		N36     Cn5 
	BYTE	W36
// 140   ----------------------------------------
	BYTE	PATT
	 POIN2	disillusion_2_124
// 141   ----------------------------------------
	BYTE		N96     As3   v092
	BYTE		N96     Dn4 
	BYTE	W96
	BYTE		EOT     As2 
	BYTE		        Cs3 
	BYTE		        Fn3 
// 142   ----------------------------------------
	BYTE		N36     Cs2   v072
	BYTE		N36     Fn2 
	BYTE		N36     As2 
	BYTE	W36
	BYTE		N60     Cs2   v080
	BYTE		N60     Fn2 
	BYTE		N60     As2 
	BYTE	W60
// 143   ----------------------------------------
	BYTE		N36     Cs2   v076
	BYTE		N36     Fn2 
	BYTE		N36     As2 
	BYTE	W36
	BYTE		N60     Cs2   v080
	BYTE		N60     Fn2 
	BYTE		N60     As2 
	BYTE	W60
// 144   ----------------------------------------
	BYTE		N36     Cn2   v076
	BYTE		N36     Fn2 
	BYTE		N36     Gs2 
	BYTE	W36
	BYTE		N60     Cn2   v080
	BYTE		N60     Fn2 
	BYTE		N60     Gs2 
	BYTE	W60
// 145   ----------------------------------------
	BYTE		N36     Cn2   v076
	BYTE		N36     Fn2 
	BYTE		N36     Gs2 
	BYTE	W36
	BYTE		N60     Cn2 
	BYTE		N60     Fn2 
	BYTE		N60     Gs2 
	BYTE	W60
// 146   ----------------------------------------
	BYTE		N36     Cn2   v080
	BYTE		N36     Ds2 
	BYTE		N36     Fs2 
	BYTE		N36     Fs3   v076
	BYTE	W36
	BYTE		N24     Cn2 
	BYTE		N24     Fn2 
	BYTE		N24     Gs2 
	BYTE		N24     Gs3   v096
	BYTE	W60
// 147   ----------------------------------------
	BYTE		N36     Ds2   v068
	BYTE		N36     Fs2 
	BYTE		N36     As2 
	BYTE		N36     As3   v084
	BYTE	W36
	BYTE		N24     Fn2   v088
	BYTE		N24     Gs2 
	BYTE		N24     Cn3 
	BYTE		N24     Cn4   v100
	BYTE	W60
// 148   ----------------------------------------
	BYTE		N36     Ds2   v072
	BYTE		N36     Fs2 
	BYTE		N36     As2 
	BYTE		N36     As3   v084
	BYTE	W36
	BYTE		N24     Fn2   v076
	BYTE		N24     Gs2 
	BYTE		N24     Cn3 
	BYTE		N24     Cn4   v092
	BYTE	W60
// 149   ----------------------------------------
	BYTE		N36     Fn2   v068
	BYTE		N36     As2 
	BYTE		N36     Cs3 
	BYTE		N36     Cs4   v080
	BYTE	W36
	BYTE		N84     Gs2 
	BYTE		N84     Cn3 
	BYTE		N84     Ds3 
	BYTE		N84     Ds4   v096
	BYTE	W60
// 150   ----------------------------------------
	BYTE	W96
// 151   ----------------------------------------
	BYTE		N24     Fn2   v084
	BYTE		N24     As2 
	BYTE		N24     Cs3 
	BYTE		N24     Fn4   v088
	BYTE	W96
// 152   ----------------------------------------
	BYTE	W48
	BYTE	GoTo
	 POIN2	disillusion_2_B1
disillusion_2_B2:
	BYTE	FINE

//**************** Track 3 (Midi-Chn.3) ****************//

disillusion_3:
	BYTE	KEYSH   disillusion_key+0
disillusion_3_B1:
// 000   ----------------------------------------
	BYTE		VOICE   64
	BYTE		VOL     42*disillusion_mvl/mxv
	BYTE	W96
// 001   ----------------------------------------
	BYTE	W96
// 002   ----------------------------------------
	BYTE	W96
// 003   ----------------------------------------
	BYTE	W96
// 004   ----------------------------------------
	BYTE	W96
// 005   ----------------------------------------
	BYTE	W96
// 006   ----------------------------------------
	BYTE	W96
// 007   ----------------------------------------
	BYTE	W96
// 008   ----------------------------------------
	BYTE	W96
// 009   ----------------------------------------
	BYTE	W96
// 010   ----------------------------------------
	BYTE	W96
// 011   ----------------------------------------
	BYTE	W96
// 012   ----------------------------------------
	BYTE	W96
// 013   ----------------------------------------
	BYTE	W96
// 014   ----------------------------------------
	BYTE	W96
// 015   ----------------------------------------
	BYTE	W96
// 016   ----------------------------------------
	BYTE	W96
// 017   ----------------------------------------
	BYTE	W96
// 018   ----------------------------------------
	BYTE	W96
// 019   ----------------------------------------
	BYTE	W96
// 020   ----------------------------------------
	BYTE	W96
// 021   ----------------------------------------
	BYTE	W96
// 022   ----------------------------------------
	BYTE	W96
// 023   ----------------------------------------
	BYTE	W96
// 024   ----------------------------------------
	BYTE	W96
// 025   ----------------------------------------
	BYTE	W96
// 026   ----------------------------------------
	BYTE	W96
// 027   ----------------------------------------
	BYTE	W96
// 028   ----------------------------------------
	BYTE	W96
// 029   ----------------------------------------
	BYTE	W96
// 030   ----------------------------------------
	BYTE	W96
// 031   ----------------------------------------
	BYTE	W96
// 032   ----------------------------------------
	BYTE	W96
// 033   ----------------------------------------
	BYTE	W96
// 034   ----------------------------------------
	BYTE	W96
// 035   ----------------------------------------
	BYTE	W96
// 036   ----------------------------------------
	BYTE	W96
// 037   ----------------------------------------
	BYTE	W96
// 038   ----------------------------------------
	BYTE	W96
// 039   ----------------------------------------
	BYTE	W96
// 040   ----------------------------------------
	BYTE	W96
// 041   ----------------------------------------
	BYTE	W96
// 042   ----------------------------------------
	BYTE	W96
// 043   ----------------------------------------
	BYTE	W96
// 044   ----------------------------------------
	BYTE	W96
// 045   ----------------------------------------
	BYTE	W96
// 046   ----------------------------------------
	BYTE	W96
// 047   ----------------------------------------
	BYTE	W96
// 048   ----------------------------------------
	BYTE	W96
// 049   ----------------------------------------
	BYTE	W96
// 050   ----------------------------------------
	BYTE	W96
// 051   ----------------------------------------
	BYTE	W96
// 052   ----------------------------------------
	BYTE	W96
// 053   ----------------------------------------
	BYTE	W96
// 054   ----------------------------------------
	BYTE	W96
// 055   ----------------------------------------
	BYTE	W96
// 056   ----------------------------------------
	BYTE	W36
	BYTE		TIE     Gn4   v068
	BYTE	W60
// 057   ----------------------------------------
	BYTE	W96
// 058   ----------------------------------------
	BYTE	W12
	BYTE		EOT   
	BYTE		N12     Fn4   v076
	BYTE	W12
	BYTE		        Gn4   v080
	BYTE	W12
	BYTE		        Fn4 
	BYTE	W12
	BYTE		N84     Gn4 
	BYTE	W48
// 059   ----------------------------------------
	BYTE	W36
	BYTE		N12     Cn4   v068
	BYTE	W12
	BYTE		        Gn4   v092
	BYTE	W12
	BYTE		        Gs4   v084
	BYTE	W12
	BYTE		        En4   v068
	BYTE	W12
	BYTE		N48     Fn4   v080
	BYTE	W12
// 060   ----------------------------------------
	BYTE	W36
	BYTE		N12     Cn4   v064
	BYTE	W12
	BYTE		        As3   v068
	BYTE	W12
	BYTE		        Gs3   v072
	BYTE	W12
	BYTE		        As3   v080
	BYTE	W12
	BYTE		        Gs3   v072
	BYTE	W12
// 061   ----------------------------------------
	BYTE		N60     Cn4   v088
	BYTE	W60
	BYTE		N24     As3   v072
	BYTE	W24
	BYTE		N12     Gs3   v076
	BYTE	W12
// 062   ----------------------------------------
	BYTE		TIE     Gn3   v072
	BYTE	W96
// 063   ----------------------------------------
	BYTE	W60
	BYTE		EOT   
	BYTE		N06     Cn3   v068
	BYTE	W06
	BYTE		        En3   v088
	BYTE	W06
	BYTE		        Gn3   v084
	BYTE	W06
	BYTE		        Fn3   v076
	BYTE	W06
	BYTE		        En3 
	BYTE	W06
	BYTE		        Fn3   v080
	BYTE	W06
// 064   ----------------------------------------
	BYTE		N42     Gs3 
	BYTE	W42
	BYTE		N06     Fn3   v068
	BYTE	W06
	BYTE		N12     Gs3   v084
	BYTE	W12
	BYTE		        Gn3   v076
	BYTE	W12
	BYTE		        As3   v080
	BYTE	W12
	BYTE		        Gs3   v076
	BYTE	W12
// 065   ----------------------------------------
	BYTE		N24     Cn4   v088
	BYTE	W24
	BYTE		N12     As3   v076
	BYTE	W12
	BYTE		        Bn3   v080
	BYTE	W12
	BYTE		        Cn4 
	BYTE	W12
	BYTE		        Ds4 
	BYTE	W12
	BYTE		        Fn4   v084
	BYTE	W12
	BYTE		N48     Gn4   v080
	BYTE	W12
// 066   ----------------------------------------
	BYTE	W36
	BYTE		N06     Fn4   v068
	BYTE	W06
	BYTE		        Fs4   v080
	BYTE	W06
	BYTE		N12     Gn4   v076
	BYTE	W12
	BYTE		        Gs4   v084
	BYTE	W12
	BYTE		        As4 
	BYTE	W12
	BYTE		        Gs4   v072
	BYTE	W12
// 067   ----------------------------------------
	BYTE		        Cn5   v084
	BYTE	W12
	BYTE		        As4   v076
	BYTE	W12
	BYTE		        Gs4   v072
	BYTE	W12
	BYTE		N48     Gn4   v080
	BYTE	W48
	BYTE		N12   
	BYTE	W12
// 068   ----------------------------------------
	BYTE		N18     Cs4   v068
	BYTE	W18
	BYTE		        Cn4 
	BYTE	W18
	BYTE		N12     Ds4   v080
	BYTE	W12
	BYTE		N18     Cs4   v076
	BYTE	W18
	BYTE		        Fn4   v084
	BYTE	W18
	BYTE		N12     Ds4   v076
	BYTE	W12
// 069   ----------------------------------------
	BYTE		N18     Gs4   v084
	BYTE	W18
	BYTE		        Gn4   v072
	BYTE	W18
	BYTE		N12     Gs4   v080
	BYTE	W12
	BYTE		        As4   v084
	BYTE	W12
	BYTE		        Gs4   v076
	BYTE	W12
	BYTE		        As4   v084
	BYTE	W12
	BYTE		        Bn4   v076
	BYTE	W12
// 070   ----------------------------------------
	BYTE		TIE     Cn5 
	BYTE	W96
// 071   ----------------------------------------
	BYTE	W12
	BYTE		EOT   
	BYTE		N24     Cn4   v060
	BYTE	W24
	BYTE		N12     Cn4   v076
	BYTE	W12
	BYTE		        Cn5   v100
	BYTE	W12
	BYTE		        As4   v076
	BYTE	W12
	BYTE		        Gs4   v072
	BYTE	W12
	BYTE		        As4   v080
	BYTE	W12
// 072   ----------------------------------------
	BYTE		N24     Cn5   v084
	BYTE	W24
	BYTE		N12     Bn4   v076
	BYTE	W12
	BYTE		N72     Cn5   v084
	BYTE	W60
// 073   ----------------------------------------
	BYTE	W96
// 074   ----------------------------------------
	BYTE	W96
// 075   ----------------------------------------
	BYTE	W96
// 076   ----------------------------------------
	BYTE	W96
// 077   ----------------------------------------
	BYTE	W96
// 078   ----------------------------------------
	BYTE	W96
// 079   ----------------------------------------
	BYTE	W96
// 080   ----------------------------------------
	BYTE	W96
// 081   ----------------------------------------
	BYTE	W96
// 082   ----------------------------------------
	BYTE	W96
// 083   ----------------------------------------
	BYTE	W96
// 084   ----------------------------------------
	BYTE	W96
// 085   ----------------------------------------
	BYTE	W96
// 086   ----------------------------------------
	BYTE	W96
// 087   ----------------------------------------
	BYTE	W96
// 088   ----------------------------------------
	BYTE	W96
// 089   ----------------------------------------
	BYTE	W96
// 090   ----------------------------------------
	BYTE	W96
// 091   ----------------------------------------
	BYTE	W96
// 092   ----------------------------------------
	BYTE	W96
// 093   ----------------------------------------
	BYTE	W96
// 094   ----------------------------------------
	BYTE	W96
// 095   ----------------------------------------
	BYTE	W96
// 096   ----------------------------------------
	BYTE	W96
// 097   ----------------------------------------
	BYTE	W96
// 098   ----------------------------------------
	BYTE	W96
// 099   ----------------------------------------
	BYTE	W96
// 100   ----------------------------------------
	BYTE	W96
// 101   ----------------------------------------
	BYTE	W96
// 102   ----------------------------------------
	BYTE	W96
// 103   ----------------------------------------
	BYTE	W96
// 104   ----------------------------------------
	BYTE	W96
// 105   ----------------------------------------
	BYTE	W96
// 106   ----------------------------------------
	BYTE	W96
// 107   ----------------------------------------
	BYTE	W96
// 108   ----------------------------------------
	BYTE	W96
// 109   ----------------------------------------
	BYTE	W96
// 110   ----------------------------------------
	BYTE	W96
// 111   ----------------------------------------
	BYTE	W96
// 112   ----------------------------------------
	BYTE	W96
// 113   ----------------------------------------
	BYTE	W96
// 114   ----------------------------------------
	BYTE	W96
// 115   ----------------------------------------
	BYTE	W96
// 116   ----------------------------------------
	BYTE	W96
// 117   ----------------------------------------
	BYTE	W96
// 118   ----------------------------------------
	BYTE	W96
// 119   ----------------------------------------
	BYTE	W96
// 120   ----------------------------------------
	BYTE	W96
// 121   ----------------------------------------
	BYTE	W96
// 122   ----------------------------------------
	BYTE	W96
// 123   ----------------------------------------
	BYTE	W96
// 124   ----------------------------------------
	BYTE	W96
// 125   ----------------------------------------
	BYTE	W96
// 126   ----------------------------------------
	BYTE	W96
// 127   ----------------------------------------
	BYTE	W96
// 128   ----------------------------------------
	BYTE	W96
// 129   ----------------------------------------
	BYTE	W96
// 130   ----------------------------------------
	BYTE	W96
// 131   ----------------------------------------
	BYTE	W96
// 132   ----------------------------------------
	BYTE	W96
// 133   ----------------------------------------
	BYTE	W96
// 134   ----------------------------------------
	BYTE	W96
// 135   ----------------------------------------
	BYTE	W96
// 136   ----------------------------------------
	BYTE	W96
// 137   ----------------------------------------
	BYTE	W96
// 138   ----------------------------------------
	BYTE	W96
// 139   ----------------------------------------
	BYTE	W96
// 140   ----------------------------------------
	BYTE	W96
// 141   ----------------------------------------
	BYTE	W72
	BYTE		N03     Gs3   v076
	BYTE	W03
	BYTE		        As3   v084
	BYTE	W03
	BYTE		        Cn4   v080
	BYTE	W03
	BYTE		        Cs4   v084
	BYTE	W03
	BYTE		        Ds4   v080
	BYTE	W03
	BYTE		        Fn4   v084
	BYTE	W03
	BYTE		        Fs4 
	BYTE	W03
	BYTE		        Gs4 
	BYTE	W03
// 142   ----------------------------------------
	BYTE		TIE     As4 
	BYTE	W96
// 143   ----------------------------------------
	BYTE	W36
	BYTE		EOT   
	BYTE		N12     Gs4   v072
	BYTE	W12
	BYTE		        Cn5   v092
	BYTE	W12
	BYTE		        As4   v072
	BYTE	W12
	BYTE		        Gs4 
	BYTE	W12
	BYTE		        Fs4 
	BYTE	W12
// 144   ----------------------------------------
	BYTE		N24     Fn4 
	BYTE	W24
	BYTE		N12     Fs4   v084
	BYTE	W12
	BYTE		N36     Gs4   v080
	BYTE	W36
	BYTE		N18     Fs4   v072
	BYTE	W18
	BYTE		TIE     Fn4 
	BYTE	W06
// 145   ----------------------------------------
	BYTE	W96
	BYTE		EOT   
// 146   ----------------------------------------
	BYTE	W60
	BYTE		N12     As4   v076
	BYTE	W12
	BYTE		N06     Gs4   v072
	BYTE	W06
	BYTE		        Fs4   v076
	BYTE	W06
	BYTE		N24     Fn4 
	BYTE	W12
// 147   ----------------------------------------
	BYTE	W60
	BYTE		N12     Ds4   v072
	BYTE	W12
	BYTE		N06     Cs4 
	BYTE	W06
	BYTE		        Cn4 
	BYTE	W06
	BYTE		N24     As3   v076
	BYTE	W12
// 148   ----------------------------------------
	BYTE	W60
	BYTE		N06     As3   v068
	BYTE	W06
	BYTE		        Cn4   v080
	BYTE	W06
	BYTE		        Cs4   v084
	BYTE	W06
	BYTE		        Fn4 
	BYTE	W06
	BYTE		        Fs4   v080
	BYTE	W06
	BYTE		        Gs4 
	BYTE	W06
// 149   ----------------------------------------
	BYTE		N12     As4   v088
	BYTE	W12
	BYTE		N72     Gs4   v076
	BYTE	W84
// 150   ----------------------------------------
	BYTE	W96
// 151   ----------------------------------------
	BYTE	W96
// 152   ----------------------------------------
	BYTE	W48
	BYTE	GoTo
	 POIN2	disillusion_3_B1
disillusion_3_B2:
	BYTE	FINE

//**************** Track 4 (Midi-Chn.4) ****************//

disillusion_4:
	BYTE	KEYSH   disillusion_key+0
disillusion_4_B1:
// 000   ----------------------------------------
	BYTE		VOICE   56
	BYTE		VOL     62*disillusion_mvl/mxv
	BYTE	W96
// 001   ----------------------------------------
disillusion_4_001:
	BYTE	W60
	BYTE		N12     Fn3   v068
	BYTE	W12
	BYTE		        Gn3   v084
	BYTE	W12
	BYTE		        Gn3   v076
	BYTE	W12
	BYTE	PEND
// 002   ----------------------------------------
	BYTE		        Gn3   v084
	BYTE	W12
	BYTE		        Gs3   v088
	BYTE	W12
	BYTE		        Gn3   v072
	BYTE	W12
	BYTE		TIE     Cn3   v064
	BYTE	W60
// 003   ----------------------------------------
	BYTE	W48
	BYTE		EOT   
	BYTE	W12
	BYTE		N12     As2   v068
	BYTE	W12
	BYTE		        Cn3   v080
	BYTE	W12
	BYTE		N12   
	BYTE	W12
// 004   ----------------------------------------
	BYTE		        Ds3 
	BYTE	W12
	BYTE		N12   
	BYTE	W12
	BYTE		        Dn3   v068
	BYTE	W12
	BYTE		TIE     As2   v076
	BYTE	W60
// 005   ----------------------------------------
	BYTE	W48
	BYTE		EOT   
	BYTE	W48
// 006   ----------------------------------------
	BYTE		N72     Fn3   v068
	BYTE	W72
	BYTE		N24     Gs3   v084
	BYTE	W24
// 007   ----------------------------------------
	BYTE		N36     Gn3   v072
	BYTE	W36
	BYTE		        Ds3   v068
	BYTE	W36
	BYTE		N24     Cn3   v072
	BYTE	W24
// 008   ----------------------------------------
	BYTE		N12     As2   v076
	BYTE	W24
	BYTE		N12   
	BYTE	W12
	BYTE		N84     Cn3   v088
	BYTE	W60
// 009   ----------------------------------------
	BYTE	W60
	BYTE		N12     Fn3   v072
	BYTE	W12
	BYTE		        Gn3   v084
	BYTE	W12
	BYTE		        Gn3   v076
	BYTE	W12
// 010   ----------------------------------------
	BYTE		        Gn3   v080
	BYTE	W12
	BYTE		        Gs3   v084
	BYTE	W12
	BYTE		        Gn3   v072
	BYTE	W12
	BYTE		TIE     Cn3   v060
	BYTE	W60
// 011   ----------------------------------------
	BYTE	W48
	BYTE		EOT   
	BYTE	W12
	BYTE		N24     Ds3   v072
	BYTE	W24
	BYTE		        Ds3   v080
	BYTE	W12
// 012   ----------------------------------------
	BYTE	W12
	BYTE		N12     Fn3 
	BYTE	W12
	BYTE		        Ds3   v072
	BYTE	W12
	BYTE		N24     Ds3   v076
	BYTE	W24
	BYTE		N84     Dn3 
	BYTE	W36
// 013   ----------------------------------------
	BYTE	W96
// 014   ----------------------------------------
	BYTE		N72     Fn3   v072
	BYTE	W72
	BYTE		N24     Cn4   v092
	BYTE	W24
// 015   ----------------------------------------
disillusion_4_015:
	BYTE		N48     As3   v076
	BYTE	W48
	BYTE		        Gn3   v072
	BYTE	W48
	BYTE	PEND
// 016   ----------------------------------------
	BYTE		N24     Gs3   v084
	BYTE	W24
	BYTE		N12     Gn3   v072
	BYTE	W12
	BYTE		N24     Fn3 
	BYTE	W24
	BYTE		N12     Ds3   v076
	BYTE	W12
	BYTE		N24     Cn3   v068
	BYTE	W24
// 017   ----------------------------------------
	BYTE		N12     As2   v072
	BYTE	W12
	BYTE		N84     Gs2   v076
	BYTE	W84
// 018   ----------------------------------------
	BYTE	W96
// 019   ----------------------------------------
	BYTE	W96
// 020   ----------------------------------------
	BYTE		N36     As2   v080
	BYTE	W36
	BYTE		N36   
	BYTE	W36
	BYTE		N24     Fn3   v092
	BYTE	W24
// 021   ----------------------------------------
disillusion_4_021:
	BYTE		N36     Ds3   v076
	BYTE	W36
	BYTE		        Cn3   v072
	BYTE	W36
	BYTE		N24     Gs2 
	BYTE	W24
	BYTE	PEND
// 022   ----------------------------------------
	BYTE		N36     Cn3   v084
	BYTE	W36
	BYTE		        Cs3 
	BYTE	W36
	BYTE		N24     Cn3   v076
	BYTE	W24
// 023   ----------------------------------------
	BYTE		N72     Gs2   v072
	BYTE	W96
// 024   ----------------------------------------
	BYTE		N36     Fs2   v068
	BYTE	W36
	BYTE		        Cs3   v088
	BYTE	W36
	BYTE		N24     Fs2   v072
	BYTE	W24
// 025   ----------------------------------------
	BYTE		N36     Cs3   v088
	BYTE	W36
	BYTE		        Cs3   v080
	BYTE	W36
	BYTE		N24     Ds3 
	BYTE	W24
// 026   ----------------------------------------
	BYTE		N96     Cn3   v068
	BYTE	W96
// 027   ----------------------------------------
	BYTE	W96
// 028   ----------------------------------------
disillusion_4_028:
	BYTE		N36     As2   v076
	BYTE	W36
	BYTE		N36   
	BYTE	W36
	BYTE		N24     Fn3   v092
	BYTE	W24
	BYTE	PEND
// 029   ----------------------------------------
disillusion_4_029:
	BYTE		N36     Ds3   v076
	BYTE	W36
	BYTE		        Cn3   v068
	BYTE	W36
	BYTE		N24     Gs2   v072
	BYTE	W24
	BYTE	PEND
// 030   ----------------------------------------
	BYTE		N36     Cn3   v084
	BYTE	W36
	BYTE		        Cs3   v080
	BYTE	W36
	BYTE		N24     Cn3   v076
	BYTE	W24
// 031   ----------------------------------------
	BYTE		N72     Gs2   v072
	BYTE	W96
// 032   ----------------------------------------
	BYTE		        Fn3 
	BYTE	W72
	BYTE		N24     Cs3   v068
	BYTE	W24
// 033   ----------------------------------------
	BYTE		        Ds3   v080
	BYTE	W24
	BYTE		N12   
	BYTE	W12
	BYTE		N36     Gs3   v084
	BYTE	W36
	BYTE		N24     Gn3   v076
	BYTE	W24
// 034   ----------------------------------------
	BYTE		        Fn3   v072
	BYTE	W24
	BYTE		N12     Fn3   v080
	BYTE	W12
	BYTE		TIE     As3   v092
	BYTE	W60
// 035   ----------------------------------------
	BYTE	W96
// 036   ----------------------------------------
	BYTE	W96
// 037   ----------------------------------------
	BYTE	W48
	BYTE		EOT   
	BYTE	W24
	BYTE		N24     Fn3   v064
	BYTE	W24
// 038   ----------------------------------------
	BYTE		N72     As3   v088
	BYTE	W72
	BYTE		N12     Cs4   v092
	BYTE	W12
	BYTE		N36     Cn4   v072
	BYTE	W12
// 039   ----------------------------------------
	BYTE	W24
	BYTE		N24     As3 
	BYTE	W24
	BYTE		        Gs3   v076
	BYTE	W24
	BYTE		        Ds3   v068
	BYTE	W24
// 040   ----------------------------------------
	BYTE		N12     Fn3   v084
	BYTE	W12
	BYTE		TIE     Gs3   v080
	BYTE	W84
// 041   ----------------------------------------
	BYTE	W48
	BYTE		EOT   
	BYTE	W24
	BYTE		N24     Fn3   v068
	BYTE	W24
// 042   ----------------------------------------
	BYTE		N72     As3   v084
	BYTE	W72
	BYTE		N12     Cs4   v088
	BYTE	W12
	BYTE		N36     Cn4   v076
	BYTE	W12
// 043   ----------------------------------------
	BYTE	W24
	BYTE		N24     As3   v072
	BYTE	W24
	BYTE		        Gs3 
	BYTE	W24
	BYTE		N12     Ds3   v068
	BYTE	W12
	BYTE		N24     Fn3   v084
	BYTE	W12
// 044   ----------------------------------------
disillusion_4_044:
	BYTE	W12
	BYTE		N48     Gs3   v084
	BYTE	W48
	BYTE		N12     Ds3   v072
	BYTE	W12
	BYTE		        Ds3   v076
	BYTE	W12
	BYTE		N24     Fn3   v080
	BYTE	W12
	BYTE	PEND
// 045   ----------------------------------------
disillusion_4_045:
	BYTE	W12
	BYTE		N48     Gs3   v088
	BYTE	W60
	BYTE		N24     Fn3   v068
	BYTE	W24
	BYTE	PEND
// 046   ----------------------------------------
disillusion_4_046:
	BYTE		N72     As3   v084
	BYTE	W72
	BYTE		N12     Cs4 
	BYTE	W12
	BYTE		N36     Cn4   v080
	BYTE	W12
	BYTE	PEND
// 047   ----------------------------------------
	BYTE	W24
	BYTE		N24     As3   v072
	BYTE	W24
	BYTE		        Gs3 
	BYTE	W24
	BYTE		N12     Ds3   v064
	BYTE	W12
	BYTE		        Ds3   v072
	BYTE	W12
// 048   ----------------------------------------
	BYTE		        Fn3   v084
	BYTE	W12
	BYTE		N48     Gs3   v088
	BYTE	W48
	BYTE		N24     Ds3   v072
	BYTE	W24
	BYTE		        Fn3   v084
	BYTE	W12
// 049   ----------------------------------------
disillusion_4_049:
	BYTE	W12
	BYTE		N48     Gs3   v084
	BYTE	W60
	BYTE		N24     Fn3   v068
	BYTE	W24
	BYTE	PEND
// 050   ----------------------------------------
disillusion_4_050:
	BYTE		N72     As3   v084
	BYTE	W72
	BYTE		N24     Cs4   v088
	BYTE	W24
	BYTE	PEND
// 051   ----------------------------------------
	BYTE		        Cn4   v076
	BYTE	W24
	BYTE		        Cs4   v080
	BYTE	W24
	BYTE		        Ds4   v084
	BYTE	W24
	BYTE		N18     Gs3   v068
	BYTE	W18
	BYTE		TIE     As3   v076
	BYTE	W06
// 052   ----------------------------------------
	BYTE	W96
// 053   ----------------------------------------
	BYTE	W48
	BYTE		EOT   
	BYTE	W48
// 054   ----------------------------------------
	BYTE	W96
// 055   ----------------------------------------
	BYTE	W96
// 056   ----------------------------------------
	BYTE	W96
// 057   ----------------------------------------
	BYTE	W96
// 058   ----------------------------------------
	BYTE	W96
// 059   ----------------------------------------
	BYTE	W96
// 060   ----------------------------------------
	BYTE	W96
// 061   ----------------------------------------
	BYTE	W96
// 062   ----------------------------------------
	BYTE	W96
// 063   ----------------------------------------
	BYTE	W96
// 064   ----------------------------------------
	BYTE	W96
// 065   ----------------------------------------
	BYTE	W96
// 066   ----------------------------------------
	BYTE	W96
// 067   ----------------------------------------
	BYTE	W96
// 068   ----------------------------------------
	BYTE	W96
// 069   ----------------------------------------
	BYTE	W96
// 070   ----------------------------------------
	BYTE	W96
// 071   ----------------------------------------
	BYTE	W96
// 072   ----------------------------------------
	BYTE	W96
// 073   ----------------------------------------
	BYTE	W60
	BYTE		N12     Fn3   v068
	BYTE	W12
	BYTE		        Gn3   v080
	BYTE	W12
	BYTE		        Gn3   v076
	BYTE	W12
// 074   ----------------------------------------
	BYTE		        Gn3   v072
	BYTE	W12
	BYTE		        Gs3   v080
	BYTE	W12
	BYTE		        Gn3 
	BYTE	W12
	BYTE		TIE     Cn3   v064
	BYTE	W60
// 075   ----------------------------------------
	BYTE	W48
	BYTE		EOT   
	BYTE	W12
	BYTE		N12     As2   v076
	BYTE	W12
	BYTE		        Cn3   v080
	BYTE	W12
	BYTE		N12   
	BYTE	W12
// 076   ----------------------------------------
	BYTE		        Ds3   v088
	BYTE	W12
	BYTE		        Ds3   v080
	BYTE	W12
	BYTE		        Dn3   v072
	BYTE	W12
	BYTE		TIE     As2 
	BYTE	W60
// 077   ----------------------------------------
	BYTE	W48
	BYTE		EOT   
	BYTE	W48
// 078   ----------------------------------------
	BYTE		N72     Fn3   v068
	BYTE	W72
	BYTE		N24     Gs3   v080
	BYTE	W24
// 079   ----------------------------------------
	BYTE		N36     Gn3 
	BYTE	W36
	BYTE		        Ds3   v076
	BYTE	W36
	BYTE		N24     Cn3   v072
	BYTE	W24
// 080   ----------------------------------------
	BYTE		N12     As2 
	BYTE	W24
	BYTE		        As2   v076
	BYTE	W12
	BYTE		N84     Cn3   v084
	BYTE	W60
// 081   ----------------------------------------
	BYTE	PATT
	 POIN2	disillusion_4_001
// 082   ----------------------------------------
	BYTE		N12     Gn3   v080
	BYTE	W12
	BYTE		        Gs3   v076
	BYTE	W12
	BYTE		        Gn3   v072
	BYTE	W12
	BYTE		N24     Ds3   v068
	BYTE	W24
	BYTE		N84     Cn3   v072
	BYTE	W36
// 083   ----------------------------------------
	BYTE	W60
	BYTE		N24     Ds3 
	BYTE	W24
	BYTE		N12   
	BYTE	W12
// 084   ----------------------------------------
	BYTE		        Ds3   v076
	BYTE	W12
	BYTE		        Fn3   v080
	BYTE	W12
	BYTE		        Ds3   v076
	BYTE	W12
	BYTE		N24   
	BYTE	W24
	BYTE		N84     Dn3 
	BYTE	W36
// 085   ----------------------------------------
	BYTE	W96
// 086   ----------------------------------------
	BYTE		N72     Fn3   v068
	BYTE	W72
	BYTE		N24     Cn4   v092
	BYTE	W24
// 087   ----------------------------------------
	BYTE	PATT
	 POIN2	disillusion_4_015
// 088   ----------------------------------------
	BYTE		N24     Gs3   v080
	BYTE	W24
	BYTE		N12     Gn3   v076
	BYTE	W12
	BYTE		N24     Fn3   v072
	BYTE	W24
	BYTE		N12     Ds3 
	BYTE	W12
	BYTE		N24     Cn3   v068
	BYTE	W24
// 089   ----------------------------------------
	BYTE		N12     As2   v076
	BYTE	W12
	BYTE		N84     Gs2 
	BYTE	W84
// 090   ----------------------------------------
	BYTE	W96
// 091   ----------------------------------------
	BYTE	W96
// 092   ----------------------------------------
	BYTE	PATT
	 POIN2	disillusion_4_028
// 093   ----------------------------------------
	BYTE	PATT
	 POIN2	disillusion_4_021
// 094   ----------------------------------------
	BYTE		N36     Cn3   v084
	BYTE	W36
	BYTE		        Cs3 
	BYTE	W36
	BYTE		N24     Cn3   v072
	BYTE	W24
// 095   ----------------------------------------
	BYTE		N72     Gs2 
	BYTE	W96
// 096   ----------------------------------------
	BYTE		N36     Fs2   v064
	BYTE	W36
	BYTE		        Cs3   v088
	BYTE	W36
	BYTE		N24     Fs2   v076
	BYTE	W24
// 097   ----------------------------------------
	BYTE		N36     Cs3   v092
	BYTE	W36
	BYTE		        Cs3   v080
	BYTE	W36
	BYTE		N24     Ds3   v084
	BYTE	W24
// 098   ----------------------------------------
	BYTE		N96     Cn3   v068
	BYTE	W96
// 099   ----------------------------------------
	BYTE	W96
// 100   ----------------------------------------
	BYTE		N36     As2   v072
	BYTE	W36
	BYTE		N36   
	BYTE	W36
	BYTE		N24     Fn3   v092
	BYTE	W24
// 101   ----------------------------------------
	BYTE	PATT
	 POIN2	disillusion_4_029
// 102   ----------------------------------------
	BYTE		N36     Cn3   v088
	BYTE	W36
	BYTE		        Cs3   v080
	BYTE	W36
	BYTE		N24     Cn3   v076
	BYTE	W24
// 103   ----------------------------------------
	BYTE		N72     Gs2 
	BYTE	W96
// 104   ----------------------------------------
	BYTE		        Fn3 
	BYTE	W72
	BYTE		N24     Cs3   v064
	BYTE	W24
// 105   ----------------------------------------
	BYTE		        Ds3   v080
	BYTE	W24
	BYTE		N12     Ds3   v076
	BYTE	W12
	BYTE		N36     Gs3   v092
	BYTE	W36
	BYTE		N24     Gn3   v076
	BYTE	W24
// 106   ----------------------------------------
	BYTE		        Fn3   v072
	BYTE	W24
	BYTE		N12     Fn3   v080
	BYTE	W12
	BYTE		TIE     As3   v084
	BYTE	W60
// 107   ----------------------------------------
	BYTE	W96
// 108   ----------------------------------------
	BYTE	W96
// 109   ----------------------------------------
	BYTE	W48
	BYTE		EOT   
	BYTE	W24
	BYTE		N24     Fn3   v076
	BYTE	W24
// 110   ----------------------------------------
	BYTE		N72     As3   v088
	BYTE	W72
	BYTE		N12     Cs4 
	BYTE	W12
	BYTE		N36     Cn4   v072
	BYTE	W12
// 111   ----------------------------------------
	BYTE	W24
	BYTE		N24     As3 
	BYTE	W24
	BYTE		        Gs3 
	BYTE	W24
	BYTE		        Ds3   v064
	BYTE	W24
// 112   ----------------------------------------
	BYTE		N12     Fn3   v080
	BYTE	W12
	BYTE		TIE     Gs3   v092
	BYTE	W84
// 113   ----------------------------------------
	BYTE	W48
	BYTE		EOT   
	BYTE	W24
	BYTE		N24     Fn3   v068
	BYTE	W24
// 114   ----------------------------------------
	BYTE		N72     As3   v092
	BYTE	W72
	BYTE		N12     Cs4   v088
	BYTE	W12
	BYTE		N36     Cn4   v080
	BYTE	W12
// 115   ----------------------------------------
	BYTE	W24
	BYTE		N24     As3   v076
	BYTE	W24
	BYTE		        Gs3   v072
	BYTE	W24
	BYTE		N12     Ds3   v064
	BYTE	W12
	BYTE		N24     Fn3   v072
	BYTE	W12
// 116   ----------------------------------------
	BYTE	PATT
	 POIN2	disillusion_4_044
// 117   ----------------------------------------
	BYTE	W12
	BYTE		N48     Gs3   v084
	BYTE	W60
	BYTE		N24     Fn3   v072
	BYTE	W24
// 118   ----------------------------------------
	BYTE		N72     As3   v084
	BYTE	W72
	BYTE		N12     Cs4   v088
	BYTE	W12
	BYTE		N36     Cn4   v072
	BYTE	W12
// 119   ----------------------------------------
	BYTE	W24
	BYTE		N24     As3 
	BYTE	W24
	BYTE		        Gs3 
	BYTE	W24
	BYTE		N12     Ds3   v064
	BYTE	W12
	BYTE		        Ds3   v076
	BYTE	W12
// 120   ----------------------------------------
	BYTE		        Fn3   v080
	BYTE	W12
	BYTE		N48     Gs3   v084
	BYTE	W48
	BYTE		N24     Ds3   v068
	BYTE	W24
	BYTE		        Fn3   v080
	BYTE	W12
// 121   ----------------------------------------
	BYTE	PATT
	 POIN2	disillusion_4_045
// 122   ----------------------------------------
	BYTE		N72     As3   v092
	BYTE	W72
	BYTE		N24     Cs4   v084
	BYTE	W24
// 123   ----------------------------------------
	BYTE		        Cn4   v072
	BYTE	W24
	BYTE		        Cs4   v084
	BYTE	W24
	BYTE		        Ds4 
	BYTE	W24
	BYTE		N18     Gs3   v064
	BYTE	W18
	BYTE		TIE     As3   v080
	BYTE	W06
// 124   ----------------------------------------
	BYTE	W96
// 125   ----------------------------------------
	BYTE	W48
	BYTE		EOT   
	BYTE	W24
	BYTE		N24     Fn3   v068
	BYTE	W24
// 126   ----------------------------------------
	BYTE		N72     As3   v088
	BYTE	W72
	BYTE		N12     Cs4 
	BYTE	W12
	BYTE		N36     Cn4   v076
	BYTE	W12
// 127   ----------------------------------------
	BYTE	W24
	BYTE		N24     As3 
	BYTE	W24
	BYTE		        Gs3 
	BYTE	W24
	BYTE		        Ds3   v068
	BYTE	W24
// 128   ----------------------------------------
	BYTE		N12     Fn3   v080
	BYTE	W12
	BYTE		TIE     Gs3 
	BYTE	W84
// 129   ----------------------------------------
	BYTE	W48
	BYTE		EOT   
	BYTE	W24
	BYTE		N24     Fn3   v068
	BYTE	W24
// 130   ----------------------------------------
	BYTE	PATT
	 POIN2	disillusion_4_046
// 131   ----------------------------------------
	BYTE	W24
	BYTE		N24     As3   v072
	BYTE	W24
	BYTE		        Gs3 
	BYTE	W24
	BYTE		N12     Ds3   v068
	BYTE	W12
	BYTE		N24     Fn3   v076
	BYTE	W12
// 132   ----------------------------------------
	BYTE	W12
	BYTE		N72     Gs3   v088
	BYTE	W72
	BYTE		N24     Cn4 
	BYTE	W12
// 133   ----------------------------------------
	BYTE	W12
	BYTE		N12     Cn4   v076
	BYTE	W12
	BYTE		        Cs4   v084
	BYTE	W12
	BYTE		N36     Cn4   v076
	BYTE	W36
	BYTE		N24     Fn3   v064
	BYTE	W24
// 134   ----------------------------------------
	BYTE		N72     As3   v084
	BYTE	W72
	BYTE		N12     Cs4 
	BYTE	W12
	BYTE		N36     Cn4   v076
	BYTE	W12
// 135   ----------------------------------------
	BYTE	W24
	BYTE		N24     As3   v072
	BYTE	W24
	BYTE		        Gs3 
	BYTE	W24
	BYTE		N12     Ds3   v068
	BYTE	W12
	BYTE		        Ds3   v076
	BYTE	W12
// 136   ----------------------------------------
	BYTE		        Fn3   v080
	BYTE	W12
	BYTE		N60     Gs3   v084
	BYTE	W60
	BYTE		N12     Ds3   v068
	BYTE	W12
	BYTE		N24     Fn3   v080
	BYTE	W12
// 137   ----------------------------------------
	BYTE	PATT
	 POIN2	disillusion_4_049
// 138   ----------------------------------------
	BYTE	PATT
	 POIN2	disillusion_4_050
// 139   ----------------------------------------
	BYTE		N24     Cn4   v076
	BYTE	W24
	BYTE		        Gs3   v072
	BYTE	W24
	BYTE		        Fn3   v076
	BYTE	W24
	BYTE		        Cn4   v088
	BYTE	W24
// 140   ----------------------------------------
	BYTE		TIE     As3   v072
	BYTE	W96
// 141   ----------------------------------------
	BYTE	W96
	BYTE		EOT   
// 142   ----------------------------------------
	BYTE	W96
// 143   ----------------------------------------
	BYTE	W96
// 144   ----------------------------------------
	BYTE	W96
// 145   ----------------------------------------
	BYTE	W96
// 146   ----------------------------------------
	BYTE	W96
// 147   ----------------------------------------
	BYTE	W96
// 148   ----------------------------------------
	BYTE	W96
// 149   ----------------------------------------
	BYTE	W96
// 150   ----------------------------------------
	BYTE	W96
// 151   ----------------------------------------
	BYTE	W96
// 152   ----------------------------------------
	BYTE	W48
	BYTE	GoTo
	 POIN2	disillusion_4_B1
disillusion_4_B2:
	BYTE	FINE

//**************** Track 5 (Midi-Chn.5) ****************//

disillusion_5:
	BYTE	KEYSH   disillusion_key+0
disillusion_5_B1:
// 000   ----------------------------------------
	BYTE		VOICE   48
	BYTE		VOL     20*disillusion_mvl/mxv
	BYTE	W96
// 001   ----------------------------------------
	BYTE	W60
	BYTE		N12     Fn3   v068
	BYTE	W12
	BYTE		        Gn3   v084
	BYTE	W12
	BYTE		N12   
	BYTE	W12
// 002   ----------------------------------------
	BYTE		        Gn3   v080
	BYTE	W12
	BYTE		        Gs3   v088
	BYTE	W12
	BYTE		        Gn3   v076
	BYTE	W12
	BYTE		TIE     Cn3   v064
	BYTE	W60
// 003   ----------------------------------------
	BYTE	W48
	BYTE		EOT   
	BYTE	W12
	BYTE		N12     As2   v072
	BYTE	W12
	BYTE		        Cn3   v084
	BYTE	W12
	BYTE		N12   
	BYTE	W12
// 004   ----------------------------------------
	BYTE		        Ds3   v080
	BYTE	W12
	BYTE		N12   
	BYTE	W12
	BYTE		        Dn3   v072
	BYTE	W12
	BYTE		TIE     As2   v068
	BYTE	W60
// 005   ----------------------------------------
	BYTE	W48
	BYTE		EOT   
	BYTE	W48
// 006   ----------------------------------------
	BYTE		N72     Fn3   v072
	BYTE	W72
	BYTE		N24     Gs3   v088
	BYTE	W24
// 007   ----------------------------------------
	BYTE		N36     Gn3   v076
	BYTE	W36
	BYTE		        Ds3   v072
	BYTE	W36
	BYTE		N24     Cn3   v068
	BYTE	W24
// 008   ----------------------------------------
	BYTE		N12     As2   v076
	BYTE	W24
	BYTE		N12   
	BYTE	W12
	BYTE		N84     Cn3   v084
	BYTE	W60
// 009   ----------------------------------------
	BYTE	W60
	BYTE		N12     Fn3   v072
	BYTE	W12
	BYTE		        Gn3   v088
	BYTE	W12
	BYTE		        Gn3   v080
	BYTE	W12
// 010   ----------------------------------------
	BYTE		        Gn3   v084
	BYTE	W12
	BYTE		        Gs3   v076
	BYTE	W12
	BYTE		        Gn3   v072
	BYTE	W12
	BYTE		TIE     Cn3   v064
	BYTE	W60
// 011   ----------------------------------------
	BYTE	W48
	BYTE		EOT   
	BYTE	W12
	BYTE		N24     Ds3   v072
	BYTE	W24
	BYTE		        Ds3   v080
	BYTE	W12
// 012   ----------------------------------------
	BYTE	W12
	BYTE		N12     Fn3 
	BYTE	W12
	BYTE		        Ds3   v072
	BYTE	W12
	BYTE		N24     Ds3   v076
	BYTE	W24
	BYTE		N84     Dn3 
	BYTE	W36
// 013   ----------------------------------------
	BYTE	W96
// 014   ----------------------------------------
	BYTE		N72     Fn3   v072
	BYTE	W72
	BYTE		N24     Cn4   v092
	BYTE	W24
// 015   ----------------------------------------
disillusion_5_015:
	BYTE		N48     As3   v076
	BYTE	W48
	BYTE		        Gn3   v068
	BYTE	W48
	BYTE	PEND
// 016   ----------------------------------------
	BYTE		N24     Gs3   v084
	BYTE	W24
	BYTE		N12     Gn3   v076
	BYTE	W12
	BYTE		N24     Fn3 
	BYTE	W24
	BYTE		N12     Ds3 
	BYTE	W12
	BYTE		N24     Cn3   v072
	BYTE	W24
// 017   ----------------------------------------
	BYTE		N12     As2 
	BYTE	W12
	BYTE		N84     Gs2   v080
	BYTE	W84
// 018   ----------------------------------------
	BYTE	W96
// 019   ----------------------------------------
	BYTE	W96
// 020   ----------------------------------------
	BYTE		N36     As3   v104
	BYTE	W36
	BYTE		        As3   v080
	BYTE	W36
	BYTE		N24     Fn4   v092
	BYTE	W24
// 021   ----------------------------------------
disillusion_5_021:
	BYTE		N36     Ds4   v076
	BYTE	W36
	BYTE		        Cn4 
	BYTE	W36
	BYTE		N24     Gs3   v068
	BYTE	W24
	BYTE	PEND
// 022   ----------------------------------------
	BYTE		N36     Cn4   v084
	BYTE	W36
	BYTE		        Cs4   v080
	BYTE	W36
	BYTE		N24     Cn4   v076
	BYTE	W24
// 023   ----------------------------------------
	BYTE		N72     Gs3   v068
	BYTE	W96
// 024   ----------------------------------------
	BYTE		N36     Fs3 
	BYTE	W36
	BYTE		        Cs4   v088
	BYTE	W36
	BYTE		N24     Fs3   v064
	BYTE	W24
// 025   ----------------------------------------
	BYTE		N36     Cs4   v088
	BYTE	W36
	BYTE		        Cs4   v080
	BYTE	W36
	BYTE		N24     Ds4 
	BYTE	W24
// 026   ----------------------------------------
	BYTE		N96     Cn4   v068
	BYTE	W96
// 027   ----------------------------------------
	BYTE	W96
// 028   ----------------------------------------
	BYTE		N36     As3   v072
	BYTE	W36
	BYTE		        As3   v080
	BYTE	W36
	BYTE		N24     Fn4   v096
	BYTE	W24
// 029   ----------------------------------------
	BYTE		N36     Ds4   v076
	BYTE	W36
	BYTE		        Cn4   v072
	BYTE	W36
	BYTE		N24     Gs3   v068
	BYTE	W24
// 030   ----------------------------------------
	BYTE		N36     Cn4   v084
	BYTE	W36
	BYTE		        Cs4 
	BYTE	W36
	BYTE		N24     Cn4   v076
	BYTE	W24
// 031   ----------------------------------------
	BYTE		N72     Gs3   v068
	BYTE	W96
// 032   ----------------------------------------
	BYTE		        Fn4   v072
	BYTE	W72
	BYTE		N24     Cs4   v064
	BYTE	W24
// 033   ----------------------------------------
	BYTE		        Ds4   v080
	BYTE	W24
	BYTE		N12     Ds4   v076
	BYTE	W12
	BYTE		N36     Gs4   v088
	BYTE	W36
	BYTE		N24     Gn4   v080
	BYTE	W24
// 034   ----------------------------------------
	BYTE		        Fn4   v076
	BYTE	W24
	BYTE		N12   
	BYTE	W12
	BYTE		TIE     As4   v092
	BYTE	W60
// 035   ----------------------------------------
	BYTE	W96
// 036   ----------------------------------------
	BYTE	W96
	BYTE		EOT   
// 037   ----------------------------------------
	BYTE		N06     Fn3   v056
	BYTE	W06
	BYTE		        Fs3   v080
	BYTE	W06
	BYTE		        Gs3   v084
	BYTE	W06
	BYTE		        As3 
	BYTE	W06
	BYTE		        Fs3   v068
	BYTE	W06
	BYTE		        Gs3   v084
	BYTE	W06
	BYTE		        As3 
	BYTE	W06
	BYTE		        Cn4 
	BYTE	W06
	BYTE		        Gs3   v072
	BYTE	W06
	BYTE		        As3   v080
	BYTE	W06
	BYTE		        Cn4 
	BYTE	W06
	BYTE		        Cs4 
	BYTE	W06
	BYTE		        As3   v072
	BYTE	W06
	BYTE		        Cn4   v080
	BYTE	W06
	BYTE		        Cs4 
	BYTE	W06
	BYTE		        Ds4   v084
	BYTE	W06
// 038   ----------------------------------------
	BYTE		N72     As3   v068
	BYTE	W72
	BYTE		N12     Cs4   v080
	BYTE	W12
	BYTE		N36     Cn4   v076
	BYTE	W12
// 039   ----------------------------------------
	BYTE	W24
	BYTE		N24     As3   v072
	BYTE	W24
	BYTE		        Gs3   v068
	BYTE	W24
	BYTE		        Ds3 
	BYTE	W24
// 040   ----------------------------------------
	BYTE		N12     Fn3   v076
	BYTE	W12
	BYTE		TIE     Gs3   v084
	BYTE	W84
// 041   ----------------------------------------
	BYTE	W48
	BYTE		EOT   
	BYTE	W24
	BYTE		N24     Fn3   v072
	BYTE	W24
// 042   ----------------------------------------
	BYTE		N72     As3   v088
	BYTE	W72
	BYTE		N12     Cs4 
	BYTE	W12
	BYTE		N36     Cn4   v076
	BYTE	W12
// 043   ----------------------------------------
	BYTE	W24
	BYTE		N24     As3   v072
	BYTE	W24
	BYTE		        Gs3   v076
	BYTE	W24
	BYTE		N12     Ds3   v064
	BYTE	W12
	BYTE		N24     Fn3   v084
	BYTE	W12
// 044   ----------------------------------------
	BYTE	W12
	BYTE		N48     Gs3 
	BYTE	W48
	BYTE		N12     Ds3   v068
	BYTE	W12
	BYTE		        Ds3   v076
	BYTE	W12
	BYTE		N24     Fn3   v080
	BYTE	W12
// 045   ----------------------------------------
disillusion_5_045:
	BYTE	W12
	BYTE		N48     Gs3   v084
	BYTE	W60
	BYTE		N24     Fn3   v072
	BYTE	W24
	BYTE	PEND
// 046   ----------------------------------------
disillusion_5_046:
	BYTE		N72     As3   v088
	BYTE	W72
	BYTE		N12     Cs4   v084
	BYTE	W12
	BYTE		N36     Cn4   v076
	BYTE	W12
	BYTE	PEND
// 047   ----------------------------------------
	BYTE	W24
	BYTE		N24     As3   v080
	BYTE	W24
	BYTE		        Gs3   v076
	BYTE	W24
	BYTE		N12     Ds3   v068
	BYTE	W12
	BYTE		        Ds3   v080
	BYTE	W12
// 048   ----------------------------------------
	BYTE		        Fn3   v084
	BYTE	W12
	BYTE		N48     Gs3   v080
	BYTE	W48
	BYTE		N24     Ds3   v072
	BYTE	W24
	BYTE		        Fn3   v084
	BYTE	W12
// 049   ----------------------------------------
	BYTE	W12
	BYTE		N48     Gs3   v080
	BYTE	W60
	BYTE		N24     Fn3   v076
	BYTE	W24
// 050   ----------------------------------------
disillusion_5_050:
	BYTE		N72     As3   v084
	BYTE	W72
	BYTE		N24     Cs4 
	BYTE	W24
	BYTE	PEND
// 051   ----------------------------------------
	BYTE		        Cn4   v072
	BYTE	W24
	BYTE		        Cs4   v080
	BYTE	W24
	BYTE		        Ds4   v084
	BYTE	W24
	BYTE		N18     Gs3   v068
	BYTE	W18
	BYTE		TIE     As3   v080
	BYTE	W06
// 052   ----------------------------------------
	BYTE	W96
// 053   ----------------------------------------
	BYTE	W48
	BYTE		EOT   
	BYTE	W24
	BYTE		N03     As3   v068
	BYTE	W03
	BYTE		        Cn4   v080
	BYTE	W03
	BYTE		        Dn4   v088
	BYTE	W03
	BYTE		        Ds4   v084
	BYTE	W03
	BYTE		        Fn4 
	BYTE	W03
	BYTE		        Gn4   v080
	BYTE	W03
	BYTE		        Gs4   v084
	BYTE	W03
	BYTE		        As4   v088
	BYTE	W03
// 054   ----------------------------------------
	BYTE		TIE     Cn5   v076
	BYTE	W96
// 055   ----------------------------------------
	BYTE	W24
	BYTE		EOT   
	BYTE		N06     Cn5   v080
	BYTE	W06
	BYTE		        As4   v076
	BYTE	W06
	BYTE		        Gs4   v072
	BYTE	W06
	BYTE		        Cn4   v068
	BYTE	W06
	BYTE		        As4   v092
	BYTE	W06
	BYTE		        Gs4   v080
	BYTE	W06
	BYTE		        Gn4   v072
	BYTE	W06
	BYTE		        Cn4   v060
	BYTE	W06
	BYTE		        Gs4   v088
	BYTE	W06
	BYTE		        Gn4   v080
	BYTE	W06
	BYTE		        Fn4   v072
	BYTE	W06
	BYTE		        Cs4 
	BYTE	W06
// 056   ----------------------------------------
	BYTE	W36
	BYTE		TIE     Gn4   v068
	BYTE	W60
// 057   ----------------------------------------
	BYTE	W96
// 058   ----------------------------------------
	BYTE	W12
	BYTE		EOT   
	BYTE		N12     Fn4   v072
	BYTE	W12
	BYTE		        Gn4   v084
	BYTE	W12
	BYTE		        Fn4   v076
	BYTE	W12
	BYTE		N84     Gn4   v080
	BYTE	W48
// 059   ----------------------------------------
	BYTE	W36
	BYTE		N12     Cn4   v064
	BYTE	W12
	BYTE		        Gn4   v088
	BYTE	W12
	BYTE		        Gs4   v084
	BYTE	W12
	BYTE		        En4   v072
	BYTE	W12
	BYTE		N48     Fn4   v076
	BYTE	W12
// 060   ----------------------------------------
	BYTE	W36
	BYTE		N12     Cn4   v068
	BYTE	W12
	BYTE		        As3   v072
	BYTE	W12
	BYTE		        Gs3   v064
	BYTE	W12
	BYTE		        As3   v084
	BYTE	W12
	BYTE		        Gs3   v068
	BYTE	W12
// 061   ----------------------------------------
	BYTE		N60     Cn4   v080
	BYTE	W60
	BYTE		N24     As3   v068
	BYTE	W24
	BYTE		N12     Gs3 
	BYTE	W12
// 062   ----------------------------------------
	BYTE		TIE     Gn3   v076
	BYTE	W96
// 063   ----------------------------------------
	BYTE	W60
	BYTE		EOT   
	BYTE		N06     Cn3   v064
	BYTE	W06
	BYTE		        En3   v084
	BYTE	W06
	BYTE		        Gn3   v088
	BYTE	W06
	BYTE		        Fn3   v068
	BYTE	W06
	BYTE		        En3   v072
	BYTE	W06
	BYTE		        Fn3   v080
	BYTE	W06
// 064   ----------------------------------------
	BYTE		N42     Gs3   v088
	BYTE	W42
	BYTE		N06     Fn3   v072
	BYTE	W06
	BYTE		N12     Gs3   v088
	BYTE	W12
	BYTE		        Gn3   v072
	BYTE	W12
	BYTE		        As3   v088
	BYTE	W12
	BYTE		        Gs3   v072
	BYTE	W12
// 065   ----------------------------------------
	BYTE		N24     Cn4   v080
	BYTE	W24
	BYTE		N12     As3   v076
	BYTE	W12
	BYTE		        Bn3   v080
	BYTE	W12
	BYTE		        Cn4 
	BYTE	W12
	BYTE		        Ds4   v088
	BYTE	W12
	BYTE		        Fn4   v084
	BYTE	W12
	BYTE		N48     Gn4   v088
	BYTE	W12
// 066   ----------------------------------------
	BYTE	W36
	BYTE		N06     Fn4   v072
	BYTE	W06
	BYTE		        Fs4   v080
	BYTE	W06
	BYTE		N12     Gn4   v084
	BYTE	W12
	BYTE		        Gs4   v080
	BYTE	W12
	BYTE		        As4 
	BYTE	W12
	BYTE		        Gs4   v072
	BYTE	W12
// 067   ----------------------------------------
	BYTE		        Cn5   v084
	BYTE	W12
	BYTE		        As4   v076
	BYTE	W12
	BYTE		        Gs4 
	BYTE	W12
	BYTE		N48     Gn4 
	BYTE	W48
	BYTE		N12   
	BYTE	W12
// 068   ----------------------------------------
	BYTE		N18     Cs4   v064
	BYTE	W18
	BYTE		        Cn4   v076
	BYTE	W18
	BYTE		N12     Ds4   v084
	BYTE	W12
	BYTE		N18     Cs4   v072
	BYTE	W18
	BYTE		        Fn4   v084
	BYTE	W18
	BYTE		N12     Ds4   v076
	BYTE	W12
// 069   ----------------------------------------
	BYTE		N18     Gs4   v092
	BYTE	W18
	BYTE		        Gn4   v072
	BYTE	W18
	BYTE		N12     Gs4   v084
	BYTE	W12
	BYTE		        As4 
	BYTE	W12
	BYTE		        Gs4   v076
	BYTE	W12
	BYTE		        As4   v080
	BYTE	W12
	BYTE		        Bn4 
	BYTE	W12
// 070   ----------------------------------------
	BYTE		TIE     Cn5   v084
	BYTE	W96
// 071   ----------------------------------------
	BYTE	W12
	BYTE		EOT   
	BYTE		N24     Cn4   v060
	BYTE	W24
	BYTE		N12     Cn4   v076
	BYTE	W12
	BYTE		        Cn5   v100
	BYTE	W12
	BYTE		        As4   v072
	BYTE	W12
	BYTE		        Gs4   v068
	BYTE	W12
	BYTE		        As4   v080
	BYTE	W12
// 072   ----------------------------------------
	BYTE		N24     Cn5   v092
	BYTE	W24
	BYTE		N12     Bn4   v076
	BYTE	W12
	BYTE		N72     Cn5   v084
	BYTE	W60
// 073   ----------------------------------------
	BYTE	W60
	BYTE		N12     Fn3   v068
	BYTE	W12
	BYTE		        Gn3   v080
	BYTE	W12
	BYTE		N12   
	BYTE	W12
// 074   ----------------------------------------
	BYTE		N12   
	BYTE	W12
	BYTE		        Gs3   v084
	BYTE	W12
	BYTE		        Gn3   v072
	BYTE	W12
	BYTE		TIE     Cn3 
	BYTE	W60
// 075   ----------------------------------------
	BYTE	W48
	BYTE		EOT   
	BYTE	W12
	BYTE		N12     As2   v076
	BYTE	W12
	BYTE		        Cn3 
	BYTE	W12
	BYTE		        Cn3   v080
	BYTE	W12
// 076   ----------------------------------------
	BYTE		        Ds3 
	BYTE	W12
	BYTE		        Ds3   v076
	BYTE	W12
	BYTE		        Dn3 
	BYTE	W12
	BYTE		TIE     As2 
	BYTE	W60
// 077   ----------------------------------------
	BYTE	W48
	BYTE		EOT   
	BYTE	W48
// 078   ----------------------------------------
	BYTE		N72     Fn3   v072
	BYTE	W72
	BYTE		N24     Gs3   v084
	BYTE	W24
// 079   ----------------------------------------
	BYTE		N36     Gn3   v072
	BYTE	W36
	BYTE		        Ds3 
	BYTE	W36
	BYTE		N24     Cn3 
	BYTE	W24
// 080   ----------------------------------------
	BYTE		N12     As2   v080
	BYTE	W24
	BYTE		        As2   v076
	BYTE	W12
	BYTE		N84     Cn3   v080
	BYTE	W60
// 081   ----------------------------------------
	BYTE	W60
	BYTE		N12     Fn3   v068
	BYTE	W12
	BYTE		        Gn3   v084
	BYTE	W12
	BYTE		        Gn3   v080
	BYTE	W12
// 082   ----------------------------------------
	BYTE		N12   
	BYTE	W12
	BYTE		        Gs3   v076
	BYTE	W12
	BYTE		        Gn3 
	BYTE	W12
	BYTE		N24     Ds3   v068
	BYTE	W24
	BYTE		N84     Cn3   v072
	BYTE	W36
// 083   ----------------------------------------
	BYTE	W60
	BYTE		N24     Ds3   v068
	BYTE	W24
	BYTE		N12     Ds3   v080
	BYTE	W12
// 084   ----------------------------------------
	BYTE		        Ds3   v076
	BYTE	W12
	BYTE		        Fn3   v084
	BYTE	W12
	BYTE		        Ds3   v072
	BYTE	W12
	BYTE		N24     Ds3   v080
	BYTE	W24
	BYTE		N84     Dn3   v072
	BYTE	W36
// 085   ----------------------------------------
	BYTE	W96
// 086   ----------------------------------------
	BYTE		N72     Fn3   v068
	BYTE	W72
	BYTE		N24     Cn4   v088
	BYTE	W24
// 087   ----------------------------------------
	BYTE	PATT
	 POIN2	disillusion_5_015
// 088   ----------------------------------------
	BYTE		N24     Gs3   v076
	BYTE	W24
	BYTE		N12     Gn3   v072
	BYTE	W12
	BYTE		N24     Fn3   v068
	BYTE	W24
	BYTE		N12     Ds3   v076
	BYTE	W12
	BYTE		N24     Cn3   v072
	BYTE	W24
// 089   ----------------------------------------
	BYTE		N12     As2   v080
	BYTE	W12
	BYTE		N84     Gs2   v076
	BYTE	W84
// 090   ----------------------------------------
	BYTE	W96
// 091   ----------------------------------------
	BYTE	W96
// 092   ----------------------------------------
	BYTE		N36     As3   v104
	BYTE	W36
	BYTE		        As3   v088
	BYTE	W36
	BYTE		N24     Fn4   v092
	BYTE	W24
// 093   ----------------------------------------
	BYTE	PATT
	 POIN2	disillusion_5_021
// 094   ----------------------------------------
	BYTE		N36     Cn4   v088
	BYTE	W36
	BYTE		        Cs4   v084
	BYTE	W36
	BYTE		N24     Cn4   v072
	BYTE	W24
// 095   ----------------------------------------
	BYTE		N72     Gs3 
	BYTE	W96
// 096   ----------------------------------------
	BYTE		N36     Fs3   v064
	BYTE	W36
	BYTE		        Cs4   v092
	BYTE	W36
	BYTE		N24     Fs3   v060
	BYTE	W24
// 097   ----------------------------------------
	BYTE		N36     Cs4   v088
	BYTE	W36
	BYTE		        Cs4   v080
	BYTE	W36
	BYTE		N24     Ds4   v084
	BYTE	W24
// 098   ----------------------------------------
	BYTE		N96     Cn4   v068
	BYTE	W96
// 099   ----------------------------------------
	BYTE	W96
// 100   ----------------------------------------
	BYTE		N36     As3   v072
	BYTE	W36
	BYTE		        As3   v080
	BYTE	W36
	BYTE		N24     Fn4   v092
	BYTE	W24
// 101   ----------------------------------------
	BYTE		N36     Ds4   v080
	BYTE	W36
	BYTE		        Cn4   v068
	BYTE	W36
	BYTE		N24     Gs3 
	BYTE	W24
// 102   ----------------------------------------
	BYTE		N36     Cn4   v084
	BYTE	W36
	BYTE		        Cs4   v088
	BYTE	W36
	BYTE		N24     Cn4   v072
	BYTE	W24
// 103   ----------------------------------------
	BYTE		N72     Gs3 
	BYTE	W96
// 104   ----------------------------------------
	BYTE		        Fn4   v068
	BYTE	W72
	BYTE		N24     Cs4 
	BYTE	W24
// 105   ----------------------------------------
	BYTE		        Ds4   v080
	BYTE	W24
	BYTE		N12   
	BYTE	W12
	BYTE		N36     Gs4   v088
	BYTE	W36
	BYTE		N24     Gn4   v080
	BYTE	W24
// 106   ----------------------------------------
	BYTE		        Fn4   v076
	BYTE	W24
	BYTE		N12   
	BYTE	W12
	BYTE		TIE     As4   v088
	BYTE	W60
// 107   ----------------------------------------
	BYTE	W96
// 108   ----------------------------------------
	BYTE	W96
	BYTE		EOT   
// 109   ----------------------------------------
	BYTE		N06     Fn3   v052
	BYTE	W06
	BYTE		        Fs3   v076
	BYTE	W06
	BYTE		        Gs3   v084
	BYTE	W06
	BYTE		        As3   v088
	BYTE	W06
	BYTE		        Fs3   v068
	BYTE	W06
	BYTE		        Gs3   v080
	BYTE	W06
	BYTE		        As3   v084
	BYTE	W06
	BYTE		        Cn4 
	BYTE	W06
	BYTE		        Gs3   v072
	BYTE	W06
	BYTE		        As3   v084
	BYTE	W06
	BYTE		        Cn4   v076
	BYTE	W06
	BYTE		        Cs4   v080
	BYTE	W06
	BYTE		        As3   v072
	BYTE	W06
	BYTE		        Cn4   v084
	BYTE	W06
	BYTE		        Cs4 
	BYTE	W06
	BYTE		        Ds4 
	BYTE	W06
// 110   ----------------------------------------
	BYTE		N72     As3   v068
	BYTE	W72
	BYTE		N12     Cs4   v084
	BYTE	W12
	BYTE		N36     Cn4   v080
	BYTE	W12
// 111   ----------------------------------------
	BYTE	W24
	BYTE		N24     As3   v076
	BYTE	W24
	BYTE		        Gs3   v072
	BYTE	W24
	BYTE		        Ds3   v064
	BYTE	W24
// 112   ----------------------------------------
	BYTE		N12     Fn3   v080
	BYTE	W12
	BYTE		TIE     Gs3   v084
	BYTE	W84
// 113   ----------------------------------------
	BYTE	W48
	BYTE		EOT   
	BYTE	W24
	BYTE		N24     Fn3   v072
	BYTE	W24
// 114   ----------------------------------------
	BYTE	PATT
	 POIN2	disillusion_5_046
// 115   ----------------------------------------
	BYTE	W24
	BYTE		N24     As3   v076
	BYTE	W24
	BYTE		        Gs3   v072
	BYTE	W24
	BYTE		N12     Ds3 
	BYTE	W12
	BYTE		N24     Fn3   v084
	BYTE	W12
// 116   ----------------------------------------
	BYTE	W12
	BYTE		N48     Gs3   v088
	BYTE	W48
	BYTE		N12     Ds3   v068
	BYTE	W12
	BYTE		        Ds3   v076
	BYTE	W12
	BYTE		N24     Fn3   v080
	BYTE	W12
// 117   ----------------------------------------
	BYTE	W12
	BYTE		N48     Gs3 
	BYTE	W60
	BYTE		N24     Fn3   v068
	BYTE	W24
// 118   ----------------------------------------
	BYTE		N72     As3   v084
	BYTE	W72
	BYTE		N12     Cs4   v088
	BYTE	W12
	BYTE		N36     Cn4   v076
	BYTE	W12
// 119   ----------------------------------------
	BYTE	W24
	BYTE		N24     As3   v072
	BYTE	W24
	BYTE		        Gs3 
	BYTE	W24
	BYTE		N12     Ds3   v064
	BYTE	W12
	BYTE		        Ds3   v072
	BYTE	W12
// 120   ----------------------------------------
	BYTE		        Fn3   v080
	BYTE	W12
	BYTE		N48     Gs3   v084
	BYTE	W48
	BYTE		N24     Ds3   v068
	BYTE	W24
	BYTE		        Fn3   v080
	BYTE	W12
// 121   ----------------------------------------
	BYTE	PATT
	 POIN2	disillusion_5_045
// 122   ----------------------------------------
	BYTE		N72     As3   v088
	BYTE	W72
	BYTE		N24     Cs4 
	BYTE	W24
// 123   ----------------------------------------
	BYTE		        Cn4   v072
	BYTE	W24
	BYTE		        Cs4   v084
	BYTE	W24
	BYTE		        Ds4   v088
	BYTE	W24
	BYTE		N18     Gs3   v068
	BYTE	W18
	BYTE		TIE     As3   v080
	BYTE	W06
// 124   ----------------------------------------
	BYTE	W96
// 125   ----------------------------------------
	BYTE	W48
	BYTE		EOT   
	BYTE	W48
// 126   ----------------------------------------
	BYTE	W96
// 127   ----------------------------------------
	BYTE	W96
// 128   ----------------------------------------
	BYTE	W96
// 129   ----------------------------------------
	BYTE	W96
// 130   ----------------------------------------
	BYTE	W96
// 131   ----------------------------------------
	BYTE	W96
// 132   ----------------------------------------
	BYTE	W96
// 133   ----------------------------------------
	BYTE	W24
	BYTE		N06     Fn2   v076
	BYTE	W06
	BYTE		        Fs2   v096
	BYTE	W06
	BYTE		        Gs2   v100
	BYTE	W06
	BYTE		        Cn3   v104
	BYTE	W06
	BYTE		        Fn3 
	BYTE	W06
	BYTE		        Fs3   v096
	BYTE	W06
	BYTE		        Gs3 
	BYTE	W06
	BYTE		        Cn4   v100
	BYTE	W06
	BYTE		        Fn4   v108
	BYTE	W06
	BYTE		        Fs4   v100
	BYTE	W06
	BYTE		        Gs4   v096
	BYTE	W06
	BYTE		        Cn5   v100
	BYTE	W06
// 134   ----------------------------------------
	BYTE		N72     As3   v052
	BYTE	W72
	BYTE		N12     Cs4   v080
	BYTE	W12
	BYTE		N36     Cn4   v072
	BYTE	W12
// 135   ----------------------------------------
	BYTE	W24
	BYTE		N24     As3   v068
	BYTE	W24
	BYTE		        Gs3   v072
	BYTE	W24
	BYTE		N12     Ds3   v068
	BYTE	W12
	BYTE		        Ds3   v080
	BYTE	W12
// 136   ----------------------------------------
	BYTE		        Fn3   v084
	BYTE	W12
	BYTE		N60     Gs3   v088
	BYTE	W60
	BYTE		N12     Ds3   v068
	BYTE	W12
	BYTE		N24     Fn3   v076
	BYTE	W12
// 137   ----------------------------------------
	BYTE	W12
	BYTE		N48     Gs3   v088
	BYTE	W60
	BYTE		N24     Fn3   v072
	BYTE	W24
// 138   ----------------------------------------
	BYTE	PATT
	 POIN2	disillusion_5_050
// 139   ----------------------------------------
	BYTE		N24     Cn4   v076
	BYTE	W24
	BYTE		        Gs3   v068
	BYTE	W24
	BYTE		        Fn3 
	BYTE	W24
	BYTE		        Cn4   v088
	BYTE	W24
// 140   ----------------------------------------
	BYTE		TIE     As3   v072
	BYTE	W96
// 141   ----------------------------------------
	BYTE	W72
	BYTE		EOT   
	BYTE		N03     Gs2   v084
	BYTE	W03
	BYTE		        As2   v096
	BYTE	W03
	BYTE		        Cn3   v108
	BYTE	W03
	BYTE		        Cs3 
	BYTE	W03
	BYTE		        Ds3 
	BYTE	W03
	BYTE		        Fn3 
	BYTE	W03
	BYTE		        Fs3 
	BYTE	W03
	BYTE		        Gs3 
	BYTE	W03
// 142   ----------------------------------------
	BYTE		TIE     As3 
	BYTE	W96
// 143   ----------------------------------------
	BYTE	W36
	BYTE		EOT   
	BYTE		N12     Gs3   v092
	BYTE	W12
	BYTE		        Cn4   v108
	BYTE	W12
	BYTE		        As3   v092
	BYTE	W12
	BYTE		        Gs3 
	BYTE	W12
	BYTE		        Fs3   v088
	BYTE	W12
// 144   ----------------------------------------
	BYTE		N24     Fn3   v092
	BYTE	W24
	BYTE		N12     Fs3   v104
	BYTE	W12
	BYTE		N36     Gs3 
	BYTE	W36
	BYTE		N18     Fs3   v096
	BYTE	W18
	BYTE		N78     Fn3   v100
	BYTE	W06
// 145   ----------------------------------------
	BYTE	W72
	BYTE		N03     As3   v127
	BYTE	W03
	BYTE		        Gs3   v116
	BYTE	W03
	BYTE		        Fs3   v112
	BYTE	W03
	BYTE		        Fn3 
	BYTE	W03
	BYTE		        Ds3 
	BYTE	W03
	BYTE		        Cs3 
	BYTE	W03
	BYTE		        Cn3 
	BYTE	W03
	BYTE		        As2 
	BYTE	W03
// 146   ----------------------------------------
	BYTE	W60
	BYTE		N12     As3   v088
	BYTE	W12
	BYTE		N06     Gs3   v092
	BYTE	W06
	BYTE		        Fs3   v096
	BYTE	W06
	BYTE		N24     Fn3 
	BYTE	W12
// 147   ----------------------------------------
	BYTE	W60
	BYTE		N12     Ds3   v092
	BYTE	W12
	BYTE		N06     Cs3   v096
	BYTE	W06
	BYTE		        Cn3   v092
	BYTE	W06
	BYTE		N24     As2 
	BYTE	W12
// 148   ----------------------------------------
	BYTE	W60
	BYTE		N06     As2   v088
	BYTE	W06
	BYTE		        Cn3   v104
	BYTE	W06
	BYTE		        Cs3 
	BYTE	W06
	BYTE		        Fn3   v108
	BYTE	W06
	BYTE		        Fs3   v104
	BYTE	W06
	BYTE		        Gs3   v108
	BYTE	W06
// 149   ----------------------------------------
	BYTE		N12     As3   v104
	BYTE	W12
	BYTE		N72     Gs3   v092
	BYTE	W84
// 150   ----------------------------------------
	BYTE	W96
// 151   ----------------------------------------
	BYTE	W96
// 152   ----------------------------------------
	BYTE	W48
	BYTE	GoTo
	 POIN2	disillusion_5_B1
disillusion_5_B2:
	BYTE	FINE

//**************** Track 6 (Midi-Chn.6) ****************//

disillusion_6:
	BYTE	KEYSH   disillusion_key+0
disillusion_6_B1:
// 000   ----------------------------------------
	BYTE		VOICE   48
	BYTE		VOL     17*disillusion_mvl/mxv
	BYTE		TIE     Fn2   v068
	BYTE	W96
// 001   ----------------------------------------
	BYTE	W72
	BYTE		EOT   
	BYTE	W24
// 002   ----------------------------------------
disillusion_6_002:
	BYTE		N30     Ds2   v072
	BYTE	W36
	BYTE		TIE     Ds2   v068
	BYTE	W60
	BYTE	PEND
// 003   ----------------------------------------
	BYTE	W96
	BYTE		EOT   
// 004   ----------------------------------------
	BYTE		N30     Gn2   v084
	BYTE	W36
	BYTE		TIE     Gn2   v064
	BYTE	W60
// 005   ----------------------------------------
	BYTE	W96
	BYTE		EOT   
// 006   ----------------------------------------
	BYTE		N30     Cs3   v092
	BYTE	W36
	BYTE		N60     Cs3   v064
	BYTE	W60
// 007   ----------------------------------------
	BYTE		N30     Cn3   v072
	BYTE	W36
	BYTE		N60     Cn3   v068
	BYTE	W60
// 008   ----------------------------------------
	BYTE		N30     Gs2 
	BYTE	W36
	BYTE		TIE     Gs2   v072
	BYTE	W60
// 009   ----------------------------------------
	BYTE	W96
	BYTE		EOT   
// 010   ----------------------------------------
	BYTE		N30     Ds2 
	BYTE	W36
	BYTE		TIE     Ds2   v064
	BYTE	W60
// 011   ----------------------------------------
	BYTE	W96
	BYTE		EOT   
// 012   ----------------------------------------
	BYTE		N30     Gn2   v084
	BYTE	W36
	BYTE		TIE     Gn2   v072
	BYTE	W60
// 013   ----------------------------------------
	BYTE	W96
	BYTE		EOT   
// 014   ----------------------------------------
	BYTE		N30     Cs2   v068
	BYTE	W36
	BYTE		N60     Cs2   v072
	BYTE	W60
// 015   ----------------------------------------
	BYTE		N30     Ds2   v080
	BYTE	W36
	BYTE		N60     Ds2   v072
	BYTE	W60
// 016   ----------------------------------------
	BYTE		N30     Fn2   v080
	BYTE	W36
	BYTE		TIE     Fn2   v068
	BYTE	W60
// 017   ----------------------------------------
	BYTE	W96
// 018   ----------------------------------------
	BYTE	W96
// 019   ----------------------------------------
	BYTE	W96
	BYTE		EOT   
// 020   ----------------------------------------
	BYTE		N36     Cs3   v092
	BYTE	W36
	BYTE		N60     Fn3   v084
	BYTE	W60
// 021   ----------------------------------------
	BYTE		N36     Ds3   v068
	BYTE	W36
	BYTE		N60     Gn3   v088
	BYTE	W60
// 022   ----------------------------------------
	BYTE		TIE     Cs3   v064
	BYTE	W96
// 023   ----------------------------------------
	BYTE	W96
	BYTE		EOT   
// 024   ----------------------------------------
	BYTE		N96     Fs2   v068
	BYTE	W96
// 025   ----------------------------------------
	BYTE		        Cs3   v092
	BYTE	W96
// 026   ----------------------------------------
	BYTE		        Gs2   v076
	BYTE	W96
// 027   ----------------------------------------
	BYTE		N48     As2   v080
	BYTE	W48
	BYTE		        An2   v076
	BYTE	W48
// 028   ----------------------------------------
	BYTE		N96     Cs3   v088
	BYTE	W96
// 029   ----------------------------------------
	BYTE		        Gn3   v092
	BYTE	W96
// 030   ----------------------------------------
	BYTE		TIE     Cs3   v068
	BYTE	W96
// 031   ----------------------------------------
	BYTE	W96
	BYTE		EOT   
// 032   ----------------------------------------
	BYTE		N96     Cs3   v080
	BYTE	W96
// 033   ----------------------------------------
	BYTE		        Ds3   v076
	BYTE	W96
// 034   ----------------------------------------
	BYTE		TIE     Dn3 
	BYTE	W96
// 035   ----------------------------------------
	BYTE	W96
// 036   ----------------------------------------
	BYTE	W96
// 037   ----------------------------------------
	BYTE	W96
	BYTE		EOT   
// 038   ----------------------------------------
	BYTE		TIE     Fn4   v104
	BYTE	W96
// 039   ----------------------------------------
	BYTE	W96
	BYTE		EOT   
// 040   ----------------------------------------
	BYTE		TIE     Fn4   v076
	BYTE	W96
// 041   ----------------------------------------
	BYTE	W24
	BYTE		EOT   
	BYTE		N24     Cs4   v072
	BYTE	W24
	BYTE		        Gs4   v096
	BYTE	W24
	BYTE		        Fn4   v072
	BYTE	W24
// 042   ----------------------------------------
	BYTE		TIE     Fn4   v076
	BYTE	W96
// 043   ----------------------------------------
	BYTE	W96
	BYTE		EOT   
// 044   ----------------------------------------
	BYTE		TIE   
	BYTE	W96
// 045   ----------------------------------------
	BYTE	W24
	BYTE		EOT   
	BYTE		N24     Ds4   v072
	BYTE	W24
	BYTE		        Dn4   v080
	BYTE	W24
	BYTE		        Gs3   v068
	BYTE	W24
// 046   ----------------------------------------
	BYTE		TIE     As3   v076
	BYTE	W96
// 047   ----------------------------------------
	BYTE	W24
	BYTE		EOT   
	BYTE		N24     Gs3   v072
	BYTE	W24
	BYTE		        As3   v088
	BYTE	W24
	BYTE		        Cs4   v084
	BYTE	W24
// 048   ----------------------------------------
	BYTE		TIE     Fn4   v088
	BYTE	W96
// 049   ----------------------------------------
	BYTE	W24
	BYTE		EOT   
	BYTE		N24     Cs4   v068
	BYTE	W24
	BYTE		        Gs4   v088
	BYTE	W24
	BYTE		        Fn4   v076
	BYTE	W24
// 050   ----------------------------------------
	BYTE		N96     Fs4   v080
	BYTE	W96
// 051   ----------------------------------------
	BYTE		        Fn4   v072
	BYTE	W96
// 052   ----------------------------------------
	BYTE		TIE     Fn4   v076
	BYTE	W96
// 053   ----------------------------------------
	BYTE	W72
	BYTE		EOT   
	BYTE	W24
// 054   ----------------------------------------
	BYTE	W96
// 055   ----------------------------------------
	BYTE	W96
// 056   ----------------------------------------
	BYTE	W96
// 057   ----------------------------------------
	BYTE	W96
// 058   ----------------------------------------
	BYTE	W96
// 059   ----------------------------------------
	BYTE	W96
// 060   ----------------------------------------
	BYTE	W96
// 061   ----------------------------------------
	BYTE	W96
// 062   ----------------------------------------
	BYTE	W96
// 063   ----------------------------------------
	BYTE	W96
// 064   ----------------------------------------
	BYTE	W96
// 065   ----------------------------------------
	BYTE	W96
// 066   ----------------------------------------
	BYTE	W96
// 067   ----------------------------------------
	BYTE	W96
// 068   ----------------------------------------
	BYTE	W96
// 069   ----------------------------------------
	BYTE	W96
// 070   ----------------------------------------
	BYTE	W96
// 071   ----------------------------------------
	BYTE	W96
// 072   ----------------------------------------
	BYTE	W96
// 073   ----------------------------------------
	BYTE	W96
// 074   ----------------------------------------
	BYTE	PATT
	 POIN2	disillusion_6_002
// 075   ----------------------------------------
	BYTE	W96
	BYTE		EOT     Ds2 
// 076   ----------------------------------------
	BYTE		N30     Gn2   v080
	BYTE	W36
	BYTE		TIE     Gn2   v068
	BYTE	W60
// 077   ----------------------------------------
	BYTE	W96
	BYTE		EOT   
// 078   ----------------------------------------
	BYTE		N30     Cs3   v088
	BYTE	W36
	BYTE		N60     Cs3   v068
	BYTE	W60
// 079   ----------------------------------------
	BYTE		N30     Cn3   v076
	BYTE	W36
	BYTE		N60     Cn3   v072
	BYTE	W60
// 080   ----------------------------------------
	BYTE		N30     Gs2   v076
	BYTE	W36
	BYTE		TIE   
	BYTE	W60
// 081   ----------------------------------------
	BYTE	W96
	BYTE		EOT   
// 082   ----------------------------------------
	BYTE		N30     Ds2   v072
	BYTE	W36
	BYTE		TIE   
	BYTE	W60
// 083   ----------------------------------------
	BYTE	W96
	BYTE		EOT   
// 084   ----------------------------------------
	BYTE		N30     Gn2   v080
	BYTE	W36
	BYTE		TIE     Gn2   v076
	BYTE	W60
// 085   ----------------------------------------
	BYTE	W96
	BYTE		EOT   
// 086   ----------------------------------------
	BYTE		N30     Cs2   v068
	BYTE	W36
	BYTE		N60   
	BYTE	W60
// 087   ----------------------------------------
	BYTE		N30     Ds2   v076
	BYTE	W36
	BYTE		N60     Ds2   v072
	BYTE	W60
// 088   ----------------------------------------
	BYTE		N30     Fn2   v080
	BYTE	W36
	BYTE		TIE     Fn2   v064
	BYTE	W60
// 089   ----------------------------------------
	BYTE	W96
// 090   ----------------------------------------
	BYTE	W96
// 091   ----------------------------------------
	BYTE	W96
	BYTE		EOT   
// 092   ----------------------------------------
	BYTE		N36     Cs3   v092
	BYTE	W36
	BYTE		N60     Fn3   v088
	BYTE	W60
// 093   ----------------------------------------
	BYTE		N36     Ds3   v072
	BYTE	W36
	BYTE		N60     Gn3   v088
	BYTE	W60
// 094   ----------------------------------------
	BYTE		TIE     Cs3   v064
	BYTE	W96
// 095   ----------------------------------------
	BYTE	W96
	BYTE		EOT   
// 096   ----------------------------------------
	BYTE		N96     Fs2   v068
	BYTE	W96
// 097   ----------------------------------------
	BYTE		        Cs3   v092
	BYTE	W96
// 098   ----------------------------------------
	BYTE		        Gs2   v076
	BYTE	W96
// 099   ----------------------------------------
	BYTE		N48     As2   v084
	BYTE	W48
	BYTE		        An2   v076
	BYTE	W48
// 100   ----------------------------------------
	BYTE		N96     Cs3   v084
	BYTE	W96
// 101   ----------------------------------------
	BYTE		        Gn3   v088
	BYTE	W96
// 102   ----------------------------------------
	BYTE		TIE     Cs3   v072
	BYTE	W96
// 103   ----------------------------------------
	BYTE	W96
	BYTE		EOT   
// 104   ----------------------------------------
	BYTE		N96     Cs3   v076
	BYTE	W96
// 105   ----------------------------------------
	BYTE		        Ds3   v080
	BYTE	W96
// 106   ----------------------------------------
	BYTE		TIE     Dn3   v076
	BYTE	W96
// 107   ----------------------------------------
	BYTE	W96
// 108   ----------------------------------------
	BYTE	W96
// 109   ----------------------------------------
	BYTE	W96
	BYTE		EOT   
// 110   ----------------------------------------
	BYTE		TIE     Fn4   v096
	BYTE	W96
// 111   ----------------------------------------
	BYTE	W96
	BYTE		EOT   
// 112   ----------------------------------------
	BYTE		TIE     Fn4   v076
	BYTE	W96
// 113   ----------------------------------------
	BYTE	W24
	BYTE		EOT   
	BYTE		N24     Cs4   v072
	BYTE	W24
	BYTE		        Gs4   v092
	BYTE	W24
	BYTE		        Fn4   v076
	BYTE	W24
// 114   ----------------------------------------
	BYTE		TIE   
	BYTE	W96
// 115   ----------------------------------------
	BYTE	W96
	BYTE		EOT   
// 116   ----------------------------------------
	BYTE		TIE   
	BYTE	W96
// 117   ----------------------------------------
	BYTE	W24
	BYTE		EOT   
	BYTE		N24     Ds4   v072
	BYTE	W24
	BYTE		        Dn4   v076
	BYTE	W24
	BYTE		        Gs3   v064
	BYTE	W24
// 118   ----------------------------------------
	BYTE		TIE     As3   v080
	BYTE	W96
// 119   ----------------------------------------
	BYTE	W24
	BYTE		EOT   
	BYTE		N24     Gs3   v076
	BYTE	W24
	BYTE		        As3   v084
	BYTE	W24
	BYTE		        Cs4   v076
	BYTE	W24
// 120   ----------------------------------------
	BYTE		TIE     Fn4   v092
	BYTE	W96
// 121   ----------------------------------------
	BYTE	W24
	BYTE		EOT   
	BYTE		N24     Cs4   v068
	BYTE	W24
	BYTE		        Gs4   v092
	BYTE	W24
	BYTE		        Fn4   v072
	BYTE	W24
// 122   ----------------------------------------
	BYTE		N96     Fs4   v076
	BYTE	W96
// 123   ----------------------------------------
	BYTE		        Fn4 
	BYTE	W96
// 124   ----------------------------------------
	BYTE		TIE   
	BYTE	W96
// 125   ----------------------------------------
	BYTE	W72
	BYTE		EOT   
	BYTE	W24
// 126   ----------------------------------------
	BYTE		TIE     Cs3   v068
	BYTE	W96
// 127   ----------------------------------------
	BYTE	W96
	BYTE		EOT   
// 128   ----------------------------------------
	BYTE		TIE     Cn3   v072
	BYTE	W96
// 129   ----------------------------------------
	BYTE	W96
	BYTE		EOT   
// 130   ----------------------------------------
	BYTE		TIE     As3   v096
	BYTE	W96
// 131   ----------------------------------------
	BYTE	W96
	BYTE		EOT   
// 132   ----------------------------------------
	BYTE		TIE     Gs3   v072
	BYTE	W96
// 133   ----------------------------------------
	BYTE	W96
	BYTE		EOT   
// 134   ----------------------------------------
	BYTE		TIE     As3   v080
	BYTE	W96
// 135   ----------------------------------------
	BYTE	W24
	BYTE		EOT   
	BYTE		N24     Gs3   v072
	BYTE	W24
	BYTE		        As3   v084
	BYTE	W24
	BYTE		        Cs4 
	BYTE	W24
// 136   ----------------------------------------
	BYTE		TIE     Fn4 
	BYTE	W96
// 137   ----------------------------------------
	BYTE	W24
	BYTE		EOT   
	BYTE		N24     Cs4   v068
	BYTE	W24
	BYTE		        Gs4   v092
	BYTE	W24
	BYTE		        Fn4   v076
	BYTE	W24
// 138   ----------------------------------------
	BYTE		N96     Fs4   v080
	BYTE	W96
// 139   ----------------------------------------
	BYTE		        Fn4   v084
	BYTE	W96
// 140   ----------------------------------------
	BYTE		TIE     Fn4   v076
	BYTE	W96
// 141   ----------------------------------------
	BYTE	W96
	BYTE		EOT   
// 142   ----------------------------------------
	BYTE		TIE     Cs3   v064
	BYTE	W96
// 143   ----------------------------------------
	BYTE	W96
	BYTE		EOT   
// 144   ----------------------------------------
	BYTE		TIE     Cn3   v084
	BYTE	W96
// 145   ----------------------------------------
	BYTE	W96
	BYTE		EOT   
// 146   ----------------------------------------
	BYTE		N36     Ds3 
	BYTE	W36
	BYTE		N24     Fn3 
	BYTE	W60
// 147   ----------------------------------------
	BYTE		N36     Fs3   v076
	BYTE	W36
	BYTE		N24     Gs3   v080
	BYTE	W60
// 148   ----------------------------------------
	BYTE		N36     Fs3   v072
	BYTE	W36
	BYTE		N24     Gs3   v080
	BYTE	W60
// 149   ----------------------------------------
	BYTE		N36     As3   v072
	BYTE	W36
	BYTE		N84     Cn4   v080
	BYTE	W60
// 150   ----------------------------------------
	BYTE	W96
// 151   ----------------------------------------
	BYTE		N24     As2   v084
	BYTE	W96
// 152   ----------------------------------------
	BYTE	W48
	BYTE	GoTo
	 POIN2	disillusion_6_B1
disillusion_6_B2:
	BYTE	FINE

//**************** Track 7 (Midi-Chn.7) ****************//

disillusion_7:
	BYTE	KEYSH   disillusion_key+0
disillusion_7_B1:
// 000   ----------------------------------------
	BYTE		VOICE   48
	BYTE		VOL     17*disillusion_mvl/mxv
	BYTE	W96
// 001   ----------------------------------------
	BYTE	W96
// 002   ----------------------------------------
	BYTE		N30     Cn2   v072
	BYTE	W36
	BYTE		TIE   
	BYTE	W60
// 003   ----------------------------------------
	BYTE	W96
	BYTE		EOT   
// 004   ----------------------------------------
	BYTE		N30     Ds2   v084
	BYTE	W36
	BYTE		TIE     Ds2   v068
	BYTE	W60
// 005   ----------------------------------------
	BYTE	W96
	BYTE		EOT   
// 006   ----------------------------------------
disillusion_7_006:
	BYTE		N30     As2   v084
	BYTE	W36
	BYTE		N60     As2   v072
	BYTE	W60
	BYTE	PEND
// 007   ----------------------------------------
disillusion_7_007:
	BYTE		N30     Gs2   v076
	BYTE	W36
	BYTE		N60     Gs2   v068
	BYTE	W60
	BYTE	PEND
// 008   ----------------------------------------
	BYTE		N30     Fn2   v072
	BYTE	W36
	BYTE		TIE   
	BYTE	W60
// 009   ----------------------------------------
	BYTE	W96
	BYTE		EOT   
// 010   ----------------------------------------
	BYTE		N30     Cn2   v076
	BYTE	W36
	BYTE		TIE     Cn2   v068
	BYTE	W60
// 011   ----------------------------------------
	BYTE	W96
	BYTE		EOT   
// 012   ----------------------------------------
	BYTE		N30     Ds2   v084
	BYTE	W36
	BYTE		TIE     Ds2   v072
	BYTE	W60
// 013   ----------------------------------------
	BYTE	W96
	BYTE		EOT   
// 014   ----------------------------------------
disillusion_7_014:
	BYTE		N30     As1   v072
	BYTE	W36
	BYTE		N60     As1   v068
	BYTE	W60
	BYTE	PEND
// 015   ----------------------------------------
disillusion_7_015:
	BYTE		N30     Cn2   v080
	BYTE	W36
	BYTE		N60     Cn2   v068
	BYTE	W60
	BYTE	PEND
// 016   ----------------------------------------
	BYTE		N30     Cs2   v076
	BYTE	W36
	BYTE		TIE     Cs2   v072
	BYTE	W60
// 017   ----------------------------------------
	BYTE	W96
// 018   ----------------------------------------
	BYTE	W96
// 019   ----------------------------------------
	BYTE	W96
	BYTE		EOT   
// 020   ----------------------------------------
	BYTE		N36     As2   v088
	BYTE	W36
	BYTE		N60     Cs3 
	BYTE	W60
// 021   ----------------------------------------
	BYTE		N36     Cn3   v076
	BYTE	W36
	BYTE		N60     Ds3   v084
	BYTE	W60
// 022   ----------------------------------------
	BYTE		TIE     As2   v072
	BYTE	W96
// 023   ----------------------------------------
	BYTE	W96
	BYTE		EOT   
// 024   ----------------------------------------
	BYTE		N96     Ds2   v064
	BYTE	W96
// 025   ----------------------------------------
	BYTE		        Fs2   v084
	BYTE	W96
// 026   ----------------------------------------
	BYTE		        Fn2   v076
	BYTE	W96
// 027   ----------------------------------------
	BYTE		N48     Fs2   v080
	BYTE	W48
	BYTE		        Fn2   v076
	BYTE	W48
// 028   ----------------------------------------
	BYTE		N96     As2   v080
	BYTE	W96
// 029   ----------------------------------------
	BYTE		        Ds3   v088
	BYTE	W96
// 030   ----------------------------------------
	BYTE		TIE     As2   v072
	BYTE	W96
// 031   ----------------------------------------
	BYTE	W96
	BYTE		EOT   
// 032   ----------------------------------------
	BYTE		N96     As2   v076
	BYTE	W96
// 033   ----------------------------------------
	BYTE		        Cn3   v084
	BYTE	W96
// 034   ----------------------------------------
	BYTE		TIE     As2   v072
	BYTE	W96
// 035   ----------------------------------------
	BYTE	W96
// 036   ----------------------------------------
	BYTE	W96
// 037   ----------------------------------------
	BYTE	W96
	BYTE		EOT   
// 038   ----------------------------------------
	BYTE		TIE   
	BYTE	W96
// 039   ----------------------------------------
	BYTE	W96
	BYTE		EOT   
// 040   ----------------------------------------
	BYTE		TIE     Cn3   v084
	BYTE	W96
// 041   ----------------------------------------
	BYTE	W96
	BYTE		EOT   
// 042   ----------------------------------------
	BYTE		TIE     Cs3   v080
	BYTE	W96
// 043   ----------------------------------------
	BYTE	W96
	BYTE		EOT   
// 044   ----------------------------------------
	BYTE		TIE     Cn3   v076
	BYTE	W96
// 045   ----------------------------------------
	BYTE	W96
	BYTE		EOT   
// 046   ----------------------------------------
	BYTE		TIE     Fn2   v072
	BYTE	W96
// 047   ----------------------------------------
	BYTE	W96
	BYTE		EOT   
// 048   ----------------------------------------
	BYTE		TIE     Cn3   v092
	BYTE	W96
// 049   ----------------------------------------
	BYTE	W96
	BYTE		EOT   
// 050   ----------------------------------------
	BYTE		N96     Cs3   v084
	BYTE	W96
// 051   ----------------------------------------
	BYTE		        Cn3   v076
	BYTE	W96
// 052   ----------------------------------------
	BYTE	W24
	BYTE		N36     As2   v092
	BYTE	W36
	BYTE		        Ds3   v104
	BYTE	W36
// 053   ----------------------------------------
	BYTE		N96     Dn3   v088
	BYTE	W96
// 054   ----------------------------------------
	BYTE	W24
	BYTE		N36     Cn3   v068
	BYTE	W36
	BYTE		        Fn3   v084
	BYTE	W36
// 055   ----------------------------------------
	BYTE		N96     En3   v080
	BYTE	W96
// 056   ----------------------------------------
	BYTE		N24     Fn3 
	BYTE	W96
// 057   ----------------------------------------
	BYTE	W96
// 058   ----------------------------------------
	BYTE	W96
// 059   ----------------------------------------
	BYTE	W96
// 060   ----------------------------------------
	BYTE	W96
// 061   ----------------------------------------
	BYTE	W96
// 062   ----------------------------------------
	BYTE	W96
// 063   ----------------------------------------
	BYTE	W96
// 064   ----------------------------------------
	BYTE	W96
// 065   ----------------------------------------
	BYTE	W96
// 066   ----------------------------------------
	BYTE	W96
// 067   ----------------------------------------
	BYTE	W96
// 068   ----------------------------------------
	BYTE	W96
// 069   ----------------------------------------
	BYTE	W96
// 070   ----------------------------------------
	BYTE	W96
// 071   ----------------------------------------
	BYTE	W96
// 072   ----------------------------------------
	BYTE	W96
// 073   ----------------------------------------
	BYTE	W96
// 074   ----------------------------------------
disillusion_7_074:
	BYTE		N30     Cn2   v072
	BYTE	W36
	BYTE		TIE     Cn2   v068
	BYTE	W60
	BYTE	PEND
// 075   ----------------------------------------
	BYTE	W96
	BYTE		EOT   
// 076   ----------------------------------------
disillusion_7_076:
	BYTE		N30     Ds2   v080
	BYTE	W36
	BYTE		TIE     Ds2   v072
	BYTE	W60
	BYTE	PEND
// 077   ----------------------------------------
	BYTE	W96
	BYTE		EOT   
// 078   ----------------------------------------
	BYTE	PATT
	 POIN2	disillusion_7_006
// 079   ----------------------------------------
	BYTE	PATT
	 POIN2	disillusion_7_007
// 080   ----------------------------------------
	BYTE		N30     Fn2   v072
	BYTE	W36
	BYTE		TIE     Fn2   v068
	BYTE	W60
// 081   ----------------------------------------
	BYTE	W96
	BYTE		EOT   
// 082   ----------------------------------------
	BYTE	PATT
	 POIN2	disillusion_7_074
// 083   ----------------------------------------
	BYTE	W96
	BYTE		EOT     Cn2 
// 084   ----------------------------------------
	BYTE	PATT
	 POIN2	disillusion_7_076
// 085   ----------------------------------------
	BYTE	W96
	BYTE		EOT     Ds2 
// 086   ----------------------------------------
	BYTE	PATT
	 POIN2	disillusion_7_014
// 087   ----------------------------------------
	BYTE	PATT
	 POIN2	disillusion_7_015
// 088   ----------------------------------------
	BYTE		N30     Cs2   v080
	BYTE	W36
	BYTE		TIE     Cs2   v068
	BYTE	W60
// 089   ----------------------------------------
	BYTE	W96
// 090   ----------------------------------------
	BYTE	W96
// 091   ----------------------------------------
	BYTE	W96
	BYTE		EOT   
// 092   ----------------------------------------
	BYTE		N36     As2   v084
	BYTE	W36
	BYTE		N60     Cs3 
	BYTE	W60
// 093   ----------------------------------------
	BYTE		N36     Cn3   v072
	BYTE	W36
	BYTE		N60     Ds3   v080
	BYTE	W60
// 094   ----------------------------------------
	BYTE		TIE     As2   v072
	BYTE	W96
// 095   ----------------------------------------
	BYTE	W96
	BYTE		EOT   
// 096   ----------------------------------------
	BYTE		N96     Ds2 
	BYTE	W96
// 097   ----------------------------------------
	BYTE		        Fs2   v080
	BYTE	W96
// 098   ----------------------------------------
	BYTE		        Fn2   v076
	BYTE	W96
// 099   ----------------------------------------
	BYTE		N48     Fs2   v080
	BYTE	W48
	BYTE		        Fn2 
	BYTE	W48
// 100   ----------------------------------------
	BYTE		N96     As2   v084
	BYTE	W96
// 101   ----------------------------------------
	BYTE		        Ds3   v088
	BYTE	W96
// 102   ----------------------------------------
	BYTE		TIE     As2   v072
	BYTE	W96
// 103   ----------------------------------------
	BYTE	W96
	BYTE		EOT   
// 104   ----------------------------------------
	BYTE		N96     As2   v084
	BYTE	W96
// 105   ----------------------------------------
	BYTE		        Cn3   v080
	BYTE	W96
// 106   ----------------------------------------
	BYTE		TIE     As2   v072
	BYTE	W96
// 107   ----------------------------------------
	BYTE	W96
// 108   ----------------------------------------
	BYTE	W96
// 109   ----------------------------------------
	BYTE	W96
	BYTE		EOT   
// 110   ----------------------------------------
	BYTE		TIE     As2   v076
	BYTE	W96
// 111   ----------------------------------------
	BYTE	W96
	BYTE		EOT   
// 112   ----------------------------------------
	BYTE		TIE     Cn3   v084
	BYTE	W96
// 113   ----------------------------------------
	BYTE	W96
	BYTE		EOT   
// 114   ----------------------------------------
	BYTE		TIE     Cs3   v076
	BYTE	W96
// 115   ----------------------------------------
	BYTE	W96
	BYTE		EOT   
// 116   ----------------------------------------
	BYTE		TIE     Cn3 
	BYTE	W96
// 117   ----------------------------------------
	BYTE	W96
	BYTE		EOT   
// 118   ----------------------------------------
	BYTE		TIE     Fn2   v072
	BYTE	W96
// 119   ----------------------------------------
	BYTE	W96
	BYTE		EOT   
// 120   ----------------------------------------
	BYTE		TIE     Cn3   v088
	BYTE	W96
// 121   ----------------------------------------
	BYTE	W96
	BYTE		EOT   
// 122   ----------------------------------------
	BYTE		N96     Cs3   v080
	BYTE	W96
// 123   ----------------------------------------
	BYTE		        Cn3   v072
	BYTE	W96
// 124   ----------------------------------------
	BYTE	W24
	BYTE		N36     As2   v088
	BYTE	W36
	BYTE		        Ds3   v108
	BYTE	W36
// 125   ----------------------------------------
	BYTE		N96     Dn3   v088
	BYTE	W96
// 126   ----------------------------------------
	BYTE		TIE     As2   v076
	BYTE	W96
// 127   ----------------------------------------
	BYTE	W96
	BYTE		EOT   
// 128   ----------------------------------------
	BYTE		N96     Gs2   v080
	BYTE	W96
// 129   ----------------------------------------
	BYTE		        Fn2   v076
	BYTE	W96
// 130   ----------------------------------------
	BYTE		N48     As2   v084
	BYTE	W48
	BYTE		        Gs2   v068
	BYTE	W48
// 131   ----------------------------------------
	BYTE		        Fs2   v076
	BYTE	W48
	BYTE		        Fn2   v080
	BYTE	W48
// 132   ----------------------------------------
	BYTE		TIE     Fn2   v076
	BYTE	W96
// 133   ----------------------------------------
	BYTE	W96
	BYTE		EOT   
// 134   ----------------------------------------
	BYTE		TIE   
	BYTE	W96
// 135   ----------------------------------------
	BYTE	W96
	BYTE		EOT   
// 136   ----------------------------------------
	BYTE		TIE     Cn3   v092
	BYTE	W96
// 137   ----------------------------------------
	BYTE	W96
	BYTE		EOT   
// 138   ----------------------------------------
	BYTE		N96     Cs3   v080
	BYTE	W96
// 139   ----------------------------------------
	BYTE		        Cn3   v072
	BYTE	W96
// 140   ----------------------------------------
	BYTE	W24
	BYTE		N36     As2   v084
	BYTE	W36
	BYTE		        Ds3   v104
	BYTE	W36
// 141   ----------------------------------------
	BYTE		N96     Dn3   v092
	BYTE	W96
// 142   ----------------------------------------
	BYTE		TIE     Fn2   v084
	BYTE	W96
// 143   ----------------------------------------
	BYTE	W96
	BYTE		EOT   
// 144   ----------------------------------------
	BYTE		TIE     Fn2   v088
	BYTE	W96
// 145   ----------------------------------------
	BYTE	W96
	BYTE		EOT   
// 146   ----------------------------------------
	BYTE		N96     Fs2   v080
	BYTE	W96
// 147   ----------------------------------------
	BYTE		        Gs2 
	BYTE	W96
// 148   ----------------------------------------
	BYTE		        As2 
	BYTE	W96
// 149   ----------------------------------------
	BYTE		        Cn3 
	BYTE	W96
// 150   ----------------------------------------
	BYTE	W24
	BYTE		N72     Fn2   v068
	BYTE	W72
// 151   ----------------------------------------
	BYTE		N24     Fn2   v092
	BYTE	W96
// 152   ----------------------------------------
	BYTE	W48
	BYTE	GoTo
	 POIN2	disillusion_7_B1
disillusion_7_B2:
	BYTE	FINE

//**************** Track 8 (Midi-Chn.8) ****************//

disillusion_8:
	BYTE	KEYSH   disillusion_key+0
disillusion_8_B1:
// 000   ----------------------------------------
	BYTE		VOICE   48
	BYTE		VOL     31*disillusion_mvl/mxv
	BYTE	W96
// 001   ----------------------------------------
	BYTE	W96
// 002   ----------------------------------------
	BYTE	W96
// 003   ----------------------------------------
	BYTE	W96
// 004   ----------------------------------------
	BYTE	W96
// 005   ----------------------------------------
	BYTE	W96
// 006   ----------------------------------------
	BYTE	W96
// 007   ----------------------------------------
	BYTE	W96
// 008   ----------------------------------------
	BYTE	W96
// 009   ----------------------------------------
	BYTE	W96
// 010   ----------------------------------------
	BYTE	W96
// 011   ----------------------------------------
	BYTE	W96
// 012   ----------------------------------------
	BYTE	W96
// 013   ----------------------------------------
	BYTE	W96
// 014   ----------------------------------------
	BYTE	W96
// 015   ----------------------------------------
	BYTE	W96
// 016   ----------------------------------------
	BYTE	W96
// 017   ----------------------------------------
	BYTE	W96
// 018   ----------------------------------------
	BYTE	W96
// 019   ----------------------------------------
	BYTE	W96
// 020   ----------------------------------------
	BYTE	W96
// 021   ----------------------------------------
	BYTE	W96
// 022   ----------------------------------------
	BYTE		TIE     Fn3   v068
	BYTE	W96
// 023   ----------------------------------------
	BYTE	W96
	BYTE		EOT   
// 024   ----------------------------------------
	BYTE	W96
// 025   ----------------------------------------
	BYTE	W96
// 026   ----------------------------------------
	BYTE		N96     Cn3 
	BYTE	W96
// 027   ----------------------------------------
	BYTE	W96
// 028   ----------------------------------------
	BYTE	W96
// 029   ----------------------------------------
	BYTE	W96
// 030   ----------------------------------------
	BYTE	W96
// 031   ----------------------------------------
	BYTE	W96
// 032   ----------------------------------------
	BYTE	W96
// 033   ----------------------------------------
	BYTE	W96
// 034   ----------------------------------------
	BYTE		TIE     Fn3   v084
	BYTE	W96
// 035   ----------------------------------------
	BYTE	W96
// 036   ----------------------------------------
	BYTE	W96
	BYTE		EOT   
// 037   ----------------------------------------
	BYTE		N06     Cs3   v068
	BYTE	W06
	BYTE		        Ds3   v080
	BYTE	W06
	BYTE		        Fn3   v084
	BYTE	W06
	BYTE		        Fs3   v080
	BYTE	W06
	BYTE		        Ds3   v072
	BYTE	W06
	BYTE		        Fn3   v088
	BYTE	W06
	BYTE		        Fs3   v080
	BYTE	W06
	BYTE		        Gs3 
	BYTE	W06
	BYTE		        Fn3   v076
	BYTE	W06
	BYTE		        Fs3   v084
	BYTE	W06
	BYTE		        Gs3 
	BYTE	W06
	BYTE		        As3 
	BYTE	W06
	BYTE		        Fs3   v076
	BYTE	W06
	BYTE		        Gs3   v080
	BYTE	W06
	BYTE		        As3 
	BYTE	W06
	BYTE		        Cn4 
	BYTE	W06
// 038   ----------------------------------------
	BYTE		TIE     Cs4   v084
	BYTE	W96
// 039   ----------------------------------------
	BYTE	W96
	BYTE		EOT   
// 040   ----------------------------------------
	BYTE		TIE     Gs4   v096
	BYTE	W96
// 041   ----------------------------------------
	BYTE	W24
	BYTE		EOT   
	BYTE		N24     Fn4   v084
	BYTE	W24
	BYTE		        Cn5   v104
	BYTE	W24
	BYTE		        Gs4   v084
	BYTE	W24
// 042   ----------------------------------------
	BYTE		TIE     As4 
	BYTE	W96
// 043   ----------------------------------------
	BYTE	W96
	BYTE		EOT   
// 044   ----------------------------------------
	BYTE		TIE     Gs4   v072
	BYTE	W96
// 045   ----------------------------------------
	BYTE	W24
	BYTE		EOT   
	BYTE		N24     Gn4   v096
	BYTE	W24
	BYTE		        Fn4   v084
	BYTE	W24
	BYTE		        Cn4   v080
	BYTE	W24
// 046   ----------------------------------------
	BYTE		TIE     Cs4 
	BYTE	W96
// 047   ----------------------------------------
	BYTE	W24
	BYTE		EOT   
	BYTE		N24     Cn4   v092
	BYTE	W24
	BYTE		        Cs4   v096
	BYTE	W24
	BYTE		        Fn4   v104
	BYTE	W24
// 048   ----------------------------------------
	BYTE		TIE     Gs4   v084
	BYTE	W96
// 049   ----------------------------------------
	BYTE	W24
	BYTE		EOT   
	BYTE		N24     Fn4   v088
	BYTE	W24
	BYTE		        Cn5   v108
	BYTE	W24
	BYTE		        Gs4   v088
	BYTE	W24
// 050   ----------------------------------------
	BYTE		N96     As4   v080
	BYTE	W96
// 051   ----------------------------------------
	BYTE		        Gs4   v072
	BYTE	W96
// 052   ----------------------------------------
	BYTE		TIE     As4   v084
	BYTE	W96
// 053   ----------------------------------------
	BYTE	W72
	BYTE		EOT   
	BYTE		N03     Gn3   v060
	BYTE	W03
	BYTE		        Gs3   v076
	BYTE	W03
	BYTE		        As3   v080
	BYTE	W03
	BYTE		        Cn4 
	BYTE	W03
	BYTE		        Dn4 
	BYTE	W03
	BYTE		        Ds4   v084
	BYTE	W03
	BYTE		        Fn4   v080
	BYTE	W03
	BYTE		        Gn4 
	BYTE	W03
// 054   ----------------------------------------
	BYTE		TIE   
	BYTE	W96
// 055   ----------------------------------------
	BYTE	W24
	BYTE		EOT   
	BYTE		N06     Gs4 
	BYTE	W06
	BYTE		        Gn4   v072
	BYTE	W06
	BYTE		        Fn4 
	BYTE	W06
	BYTE		        Gs3   v064
	BYTE	W06
	BYTE		        Gn4   v092
	BYTE	W06
	BYTE		        Fn4   v080
	BYTE	W06
	BYTE		        Ds4   v072
	BYTE	W06
	BYTE		        Gs3   v064
	BYTE	W06
	BYTE		        Fn4   v092
	BYTE	W06
	BYTE		        Ds4   v072
	BYTE	W06
	BYTE		        Cs4 
	BYTE	W06
	BYTE		        As3   v068
	BYTE	W06
// 056   ----------------------------------------
	BYTE		N24     Gs3   v072
	BYTE	W96
// 057   ----------------------------------------
	BYTE	W96
// 058   ----------------------------------------
	BYTE	W96
// 059   ----------------------------------------
	BYTE	W96
// 060   ----------------------------------------
	BYTE	W96
// 061   ----------------------------------------
	BYTE	W96
// 062   ----------------------------------------
	BYTE	W96
// 063   ----------------------------------------
	BYTE	W96
// 064   ----------------------------------------
	BYTE	W96
// 065   ----------------------------------------
	BYTE	W96
// 066   ----------------------------------------
	BYTE	W96
// 067   ----------------------------------------
	BYTE	W96
// 068   ----------------------------------------
	BYTE	W96
// 069   ----------------------------------------
	BYTE	W96
// 070   ----------------------------------------
	BYTE	W96
// 071   ----------------------------------------
	BYTE	W96
// 072   ----------------------------------------
	BYTE	W96
// 073   ----------------------------------------
	BYTE	W72
	BYTE		N06     Fn3   v080
	BYTE	W06
	BYTE		        Gn3   v096
	BYTE	W06
	BYTE		        Gs3   v104
	BYTE	W06
	BYTE		        As3 
	BYTE	W06
// 074   ----------------------------------------
	BYTE		TIE     Cn4   v096
	BYTE	W96
// 075   ----------------------------------------
	BYTE	W96
	BYTE		EOT   
// 076   ----------------------------------------
	BYTE		N96     Ds4   v100
	BYTE	W96
// 077   ----------------------------------------
	BYTE		N36     Dn4   v096
	BYTE	W36
	BYTE		        As4   v112
	BYTE	W36
	BYTE		N24     Gn4   v088
	BYTE	W24
// 078   ----------------------------------------
	BYTE		N96     Fn4   v084
	BYTE	W96
// 079   ----------------------------------------
	BYTE		        Gn4   v096
	BYTE	W96
// 080   ----------------------------------------
	BYTE		TIE     Cn5   v084
	BYTE	W96
// 081   ----------------------------------------
	BYTE	W96
// 082   ----------------------------------------
	BYTE	W96
// 083   ----------------------------------------
	BYTE	W96
	BYTE		EOT   
// 084   ----------------------------------------
	BYTE		N84     As4 
	BYTE	W84
	BYTE		N36     Dn5   v100
	BYTE	W12
// 085   ----------------------------------------
	BYTE	W24
	BYTE		N24     As4   v076
	BYTE	W24
	BYTE		        Gn4   v084
	BYTE	W24
	BYTE		        Gs4   v096
	BYTE	W24
// 086   ----------------------------------------
	BYTE		N96     Fn4   v084
	BYTE	W96
// 087   ----------------------------------------
	BYTE		        Gn4   v100
	BYTE	W96
// 088   ----------------------------------------
	BYTE		N24     Gs4   v084
	BYTE	W24
	BYTE		N12     Gn4   v076
	BYTE	W12
	BYTE		N24     Fn4   v072
	BYTE	W24
	BYTE		N12     Ds4 
	BYTE	W12
	BYTE		N24     Cn4   v068
	BYTE	W24
// 089   ----------------------------------------
	BYTE		N12     As3   v072
	BYTE	W12
	BYTE		N84     Gs3   v076
	BYTE	W84
// 090   ----------------------------------------
	BYTE	W96
// 091   ----------------------------------------
	BYTE	W96
// 092   ----------------------------------------
	BYTE	W96
// 093   ----------------------------------------
	BYTE	W96
// 094   ----------------------------------------
	BYTE		TIE     Fn3 
	BYTE	W96
// 095   ----------------------------------------
	BYTE	W96
	BYTE		EOT   
// 096   ----------------------------------------
	BYTE	W96
// 097   ----------------------------------------
	BYTE	W96
// 098   ----------------------------------------
	BYTE		N96     Cn3   v068
	BYTE	W96
// 099   ----------------------------------------
	BYTE	W96
// 100   ----------------------------------------
	BYTE	W96
// 101   ----------------------------------------
	BYTE	W96
// 102   ----------------------------------------
	BYTE	W96
// 103   ----------------------------------------
	BYTE	W96
// 104   ----------------------------------------
	BYTE	W96
// 105   ----------------------------------------
	BYTE	W96
// 106   ----------------------------------------
	BYTE		TIE     Fn3   v080
	BYTE	W96
// 107   ----------------------------------------
	BYTE	W96
// 108   ----------------------------------------
	BYTE	W96
	BYTE		EOT   
// 109   ----------------------------------------
	BYTE		N06     Cs3   v068
	BYTE	W06
	BYTE		        Ds3   v076
	BYTE	W06
	BYTE		        Fn3   v084
	BYTE	W06
	BYTE		        Fs3 
	BYTE	W06
	BYTE		        Ds3   v072
	BYTE	W06
	BYTE		        Fn3   v080
	BYTE	W06
	BYTE		        Fs3   v084
	BYTE	W06
	BYTE		        Gs3   v080
	BYTE	W06
	BYTE		        Fn3   v072
	BYTE	W06
	BYTE		        Fs3   v084
	BYTE	W06
	BYTE		        Gs3 
	BYTE	W06
	BYTE		        As3   v088
	BYTE	W06
	BYTE		        Fs3   v076
	BYTE	W06
	BYTE		        Gs3   v084
	BYTE	W06
	BYTE		        As3   v080
	BYTE	W06
	BYTE		        Cn4   v084
	BYTE	W06
// 110   ----------------------------------------
	BYTE		TIE     Cs4   v080
	BYTE	W96
// 111   ----------------------------------------
	BYTE	W96
	BYTE		EOT   
// 112   ----------------------------------------
	BYTE		TIE     Gs4   v092
	BYTE	W96
// 113   ----------------------------------------
	BYTE	W24
	BYTE		EOT   
	BYTE		N24     Fn4   v084
	BYTE	W24
	BYTE		        Cn5   v108
	BYTE	W24
	BYTE		        Gs4   v084
	BYTE	W24
// 114   ----------------------------------------
	BYTE		TIE     As4   v080
	BYTE	W96
// 115   ----------------------------------------
	BYTE	W96
	BYTE		EOT   
// 116   ----------------------------------------
	BYTE		TIE     Gs4   v076
	BYTE	W96
// 117   ----------------------------------------
	BYTE	W24
	BYTE		EOT   
	BYTE		N24     Gn4   v088
	BYTE	W24
	BYTE		        Fn4 
	BYTE	W24
	BYTE		        Cn4   v080
	BYTE	W24
// 118   ----------------------------------------
	BYTE		TIE     Cs4 
	BYTE	W96
// 119   ----------------------------------------
	BYTE	W24
	BYTE		EOT   
	BYTE		N24     Cn4   v088
	BYTE	W24
	BYTE		        Cs4   v096
	BYTE	W24
	BYTE		        Fn4   v100
	BYTE	W24
// 120   ----------------------------------------
	BYTE		TIE     Gs4   v088
	BYTE	W96
// 121   ----------------------------------------
	BYTE	W24
	BYTE		EOT   
	BYTE		N24     Fn4   v084
	BYTE	W24
	BYTE		        Cn5   v108
	BYTE	W24
	BYTE		        Gs4   v088
	BYTE	W24
// 122   ----------------------------------------
	BYTE		N96     As4   v084
	BYTE	W96
// 123   ----------------------------------------
	BYTE		        Gs4   v076
	BYTE	W96
// 124   ----------------------------------------
	BYTE		TIE     As4   v080
	BYTE	W96
// 125   ----------------------------------------
	BYTE	W72
	BYTE		EOT   
	BYTE	W24
// 126   ----------------------------------------
	BYTE	W96
// 127   ----------------------------------------
	BYTE	W96
// 128   ----------------------------------------
	BYTE	W48
	BYTE		TIE     Fn3   v072
	BYTE	W48
// 129   ----------------------------------------
	BYTE		N48     Gs3   v076
	BYTE	W48
	BYTE		        Cn4   v080
	BYTE	W48
	BYTE		EOT     Fn3 
// 130   ----------------------------------------
	BYTE		N48     Fs3   v068
	BYTE	W48
	BYTE		        Fn3   v072
	BYTE	W48
// 131   ----------------------------------------
	BYTE		        Ds3   v076
	BYTE	W48
	BYTE		        Cs3 
	BYTE	W48
// 132   ----------------------------------------
	BYTE		TIE     Cn3   v072
	BYTE	W96
// 133   ----------------------------------------
	BYTE	W96
	BYTE		EOT   
// 134   ----------------------------------------
	BYTE		TIE     Cs4   v100
	BYTE	W96
// 135   ----------------------------------------
	BYTE	W24
	BYTE		EOT   
	BYTE		N24     Cn4   v096
	BYTE	W24
	BYTE		        Cs4 
	BYTE	W24
	BYTE		        Fn4   v104
	BYTE	W24
// 136   ----------------------------------------
	BYTE		TIE     Gs4   v084
	BYTE	W96
// 137   ----------------------------------------
	BYTE	W24
	BYTE		EOT   
	BYTE		N24     Fn4 
	BYTE	W24
	BYTE		        Cn5   v108
	BYTE	W24
	BYTE		        Gs4   v084
	BYTE	W24
// 138   ----------------------------------------
	BYTE		N96     As4   v080
	BYTE	W96
// 139   ----------------------------------------
	BYTE		        Gs4   v072
	BYTE	W96
// 140   ----------------------------------------
	BYTE		TIE     As4   v084
	BYTE	W96
// 141   ----------------------------------------
	BYTE	W96
	BYTE		EOT   
// 142   ----------------------------------------
	BYTE		TIE     As3   v068
	BYTE	W96
// 143   ----------------------------------------
	BYTE	W96
	BYTE		EOT   
// 144   ----------------------------------------
	BYTE		TIE     Gs3   v084
	BYTE	W96
// 145   ----------------------------------------
	BYTE		N96     Fn4   v100
	BYTE	W96
	BYTE		EOT     Gs3 
// 146   ----------------------------------------
	BYTE		N36     Fs3   v072
	BYTE	W36
	BYTE		N24     Gs3   v092
	BYTE	W60
// 147   ----------------------------------------
	BYTE		N36     As3   v080
	BYTE	W36
	BYTE		N24     Cn4   v100
	BYTE	W60
// 148   ----------------------------------------
	BYTE		N36     As3   v088
	BYTE	W36
	BYTE		N24     Cn4   v096
	BYTE	W60
// 149   ----------------------------------------
	BYTE		N36     Cs4   v088
	BYTE	W36
	BYTE		N84     Ds4   v096
	BYTE	W60
// 150   ----------------------------------------
	BYTE	W96
// 151   ----------------------------------------
	BYTE		N24     Cs4   v080
	BYTE	W96
// 152   ----------------------------------------
	BYTE	W48
	BYTE	GoTo
	 POIN2	disillusion_8_B1
disillusion_8_B2:
	BYTE	FINE

//**************** Track 9 (Midi-Chn.9) ****************//

disillusion_9:
	BYTE	KEYSH   disillusion_key+0
disillusion_9_B1:
// 000   ----------------------------------------
	BYTE		VOICE   33
	BYTE		VOL     39*disillusion_mvl/mxv
	BYTE		TIE     Fn1   v072
	BYTE	W96
// 001   ----------------------------------------
	BYTE	W72
	BYTE		EOT   
	BYTE	W24
// 002   ----------------------------------------
	BYTE		N30     Ds2   v068
	BYTE	W36
	BYTE		TIE   
	BYTE	W60
// 003   ----------------------------------------
	BYTE	W96
	BYTE		EOT   
// 004   ----------------------------------------
	BYTE		N30     Cn2   v072
	BYTE	W36
	BYTE		TIE     Cn2   v064
	BYTE	W60
// 005   ----------------------------------------
	BYTE	W96
	BYTE		EOT   
// 006   ----------------------------------------
disillusion_9_006:
	BYTE		N30     Cs2   v080
	BYTE	W36
	BYTE		N60     Cs2   v072
	BYTE	W60
	BYTE	PEND
// 007   ----------------------------------------
disillusion_9_007:
	BYTE		N30     Cn2   v076
	BYTE	W36
	BYTE		N60     Cn2   v072
	BYTE	W60
	BYTE	PEND
// 008   ----------------------------------------
disillusion_9_008:
	BYTE		N30     Gs1   v072
	BYTE	W36
	BYTE		TIE     Gs1   v068
	BYTE	W60
	BYTE	PEND
// 009   ----------------------------------------
	BYTE	W96
	BYTE		EOT   
// 010   ----------------------------------------
	BYTE		N30     Ds2   v088
	BYTE	W36
	BYTE		TIE     Ds2   v068
	BYTE	W60
// 011   ----------------------------------------
	BYTE	W96
	BYTE		EOT   
// 012   ----------------------------------------
	BYTE		N30     Cn2   v076
	BYTE	W36
	BYTE		TIE     Cn2   v064
	BYTE	W60
// 013   ----------------------------------------
	BYTE	W96
	BYTE		EOT   
// 014   ----------------------------------------
disillusion_9_014:
	BYTE		N30     As1   v076
	BYTE	W36
	BYTE		N60     As1   v072
	BYTE	W60
	BYTE	PEND
// 015   ----------------------------------------
	BYTE	PATT
	 POIN2	disillusion_9_007
// 016   ----------------------------------------
	BYTE		N30     Cs2   v080
	BYTE	W36
	BYTE		TIE     Cs2   v068
	BYTE	W60
// 017   ----------------------------------------
	BYTE	W96
// 018   ----------------------------------------
	BYTE	W96
// 019   ----------------------------------------
	BYTE	W96
	BYTE		EOT   
// 020   ----------------------------------------
	BYTE		N96     As1   v072
	BYTE	W96
// 021   ----------------------------------------
	BYTE		        Cn2   v084
	BYTE	W96
// 022   ----------------------------------------
	BYTE		TIE     Cs2   v080
	BYTE	W96
// 023   ----------------------------------------
	BYTE	W96
	BYTE		EOT   
// 024   ----------------------------------------
	BYTE		N96     Fs1   v072
	BYTE	W96
// 025   ----------------------------------------
	BYTE		        Gs1   v080
	BYTE	W96
// 026   ----------------------------------------
	BYTE		        Cn2 
	BYTE	W96
// 027   ----------------------------------------
disillusion_9_027:
	BYTE		N48     As1   v076
	BYTE	W48
	BYTE		        An1   v072
	BYTE	W48
	BYTE	PEND
// 028   ----------------------------------------
	BYTE		N96     As1   v080
	BYTE	W96
// 029   ----------------------------------------
	BYTE		        Cn2 
	BYTE	W96
// 030   ----------------------------------------
	BYTE		        Cs2   v072
	BYTE	W96
// 031   ----------------------------------------
	BYTE		        As1   v076
	BYTE	W96
// 032   ----------------------------------------
	BYTE		        Cs2   v080
	BYTE	W96
// 033   ----------------------------------------
	BYTE		        Fn2 
	BYTE	W96
// 034   ----------------------------------------
	BYTE		TIE     As1   v076
	BYTE	W96
// 035   ----------------------------------------
	BYTE	W96
// 036   ----------------------------------------
	BYTE	W96
// 037   ----------------------------------------
	BYTE	W96
	BYTE		EOT   
// 038   ----------------------------------------
	BYTE		TIE   
	BYTE	W96
// 039   ----------------------------------------
	BYTE	W96
	BYTE		EOT   
// 040   ----------------------------------------
	BYTE		TIE     Gs1   v072
	BYTE	W96
// 041   ----------------------------------------
	BYTE	W96
	BYTE		EOT   
// 042   ----------------------------------------
	BYTE		TIE     Fs1   v076
	BYTE	W96
// 043   ----------------------------------------
	BYTE	W96
	BYTE		EOT   
// 044   ----------------------------------------
	BYTE		TIE     Gs1   v080
	BYTE	W96
// 045   ----------------------------------------
	BYTE	W96
	BYTE		EOT   
// 046   ----------------------------------------
	BYTE		TIE     As1   v084
	BYTE	W96
// 047   ----------------------------------------
	BYTE	W96
	BYTE		EOT   
// 048   ----------------------------------------
	BYTE		TIE     Fn1   v080
	BYTE	W96
// 049   ----------------------------------------
	BYTE	W96
	BYTE		EOT   
// 050   ----------------------------------------
	BYTE		N96     Fs1   v076
	BYTE	W96
// 051   ----------------------------------------
	BYTE		        Gs1   v080
	BYTE	W96
// 052   ----------------------------------------
disillusion_9_052:
	BYTE		N60     As1   v080
	BYTE	W60
	BYTE		N36     Ds2   v084
	BYTE	W36
	BYTE	PEND
// 053   ----------------------------------------
	BYTE		N96     Dn2   v080
	BYTE	W96
// 054   ----------------------------------------
	BYTE		N60     Cn2   v072
	BYTE	W60
	BYTE		N36     Fn2   v080
	BYTE	W36
// 055   ----------------------------------------
	BYTE		N96     En2   v076
	BYTE	W96
// 056   ----------------------------------------
	BYTE		N24     Fn2   v080
	BYTE	W24
	BYTE		N12     Ds1   v068
	BYTE	W12
	BYTE		N24     Fn1   v080
	BYTE	W24
	BYTE		N12     Ds1   v076
	BYTE	W12
	BYTE		        Fn1   v080
	BYTE	W12
	BYTE		        Ds1 
	BYTE	W12
// 057   ----------------------------------------
	BYTE		N24     Fn1 
	BYTE	W24
	BYTE		N12     Ds1   v076
	BYTE	W12
	BYTE		N24     Fn1   v080
	BYTE	W24
	BYTE		N12     Ds1   v072
	BYTE	W12
	BYTE		        Fn1   v084
	BYTE	W12
	BYTE		        Ds1   v076
	BYTE	W12
// 058   ----------------------------------------
	BYTE		N24     Fn1 
	BYTE	W24
	BYTE		N12     Ds1 
	BYTE	W12
	BYTE		N24     Fn1   v084
	BYTE	W24
	BYTE		N12     Ds1   v076
	BYTE	W12
	BYTE		        Fn1   v080
	BYTE	W12
	BYTE		        Ds1   v076
	BYTE	W12
// 059   ----------------------------------------
	BYTE		N24     Fn1 
	BYTE	W24
	BYTE		N12     Ds1 
	BYTE	W12
	BYTE		N24     Fn1   v080
	BYTE	W24
	BYTE		N12     Ds1   v076
	BYTE	W12
	BYTE		        Fn1   v084
	BYTE	W12
	BYTE		        Ds1   v076
	BYTE	W12
// 060   ----------------------------------------
	BYTE		N24     Fn1 
	BYTE	W24
	BYTE		N12     Ds1   v072
	BYTE	W12
	BYTE		N24     Fn1   v080
	BYTE	W24
	BYTE		N12     Ds1   v072
	BYTE	W12
	BYTE		        Fn1   v080
	BYTE	W12
	BYTE		        Ds1   v076
	BYTE	W12
// 061   ----------------------------------------
	BYTE		N24     Fn1   v084
	BYTE	W24
	BYTE		N12     Ds1   v076
	BYTE	W12
	BYTE		N24     Gn1   v084
	BYTE	W24
	BYTE		N12     Gs1   v080
	BYTE	W12
	BYTE		        Cn2 
	BYTE	W12
	BYTE		        As1   v076
	BYTE	W12
// 062   ----------------------------------------
	BYTE		N24     Cn2   v080
	BYTE	W24
	BYTE		N12     As1   v072
	BYTE	W12
	BYTE		N24     Cn2   v080
	BYTE	W24
	BYTE		N12     As1   v076
	BYTE	W12
	BYTE		        Cn2   v080
	BYTE	W12
	BYTE		        As1   v076
	BYTE	W12
// 063   ----------------------------------------
	BYTE		N24     Cn2   v088
	BYTE	W24
	BYTE		N12     As1   v072
	BYTE	W12
	BYTE		N24     Cn2   v080
	BYTE	W24
	BYTE		N12     As1   v076
	BYTE	W12
	BYTE		        Gs1 
	BYTE	W12
	BYTE		        Gn1   v080
	BYTE	W12
// 064   ----------------------------------------
	BYTE		N24     Fn1   v076
	BYTE	W24
	BYTE		N12     Ds1   v072
	BYTE	W12
	BYTE		N24     Fn1   v076
	BYTE	W24
	BYTE		N12     Ds1   v072
	BYTE	W12
	BYTE		        Fn1   v080
	BYTE	W12
	BYTE		        Ds1   v076
	BYTE	W12
// 065   ----------------------------------------
	BYTE		N24     Fn1   v080
	BYTE	W24
	BYTE		N12     Ds1   v076
	BYTE	W12
	BYTE		N24     Fn1   v084
	BYTE	W24
	BYTE		N12     Ds1   v076
	BYTE	W12
	BYTE		        Fn1   v080
	BYTE	W12
	BYTE		        Fs1   v076
	BYTE	W12
// 066   ----------------------------------------
	BYTE		N24     Gn1   v080
	BYTE	W24
	BYTE		N12     Fn1   v076
	BYTE	W12
	BYTE		N24     Gn1   v080
	BYTE	W24
	BYTE		N12     Fn1   v076
	BYTE	W12
	BYTE		        Gn1   v080
	BYTE	W12
	BYTE		        Fn1   v076
	BYTE	W12
// 067   ----------------------------------------
	BYTE		N24     Gn1   v080
	BYTE	W24
	BYTE		N12     Fn1   v076
	BYTE	W12
	BYTE		N24     Gn1 
	BYTE	W24
	BYTE		N12     Fn1   v080
	BYTE	W12
	BYTE		        Gn1   v076
	BYTE	W12
	BYTE		        Gs1   v080
	BYTE	W12
// 068   ----------------------------------------
	BYTE		N24     Cs2 
	BYTE	W24
	BYTE		N12     Cn2   v076
	BYTE	W12
	BYTE		N24     Cs2   v080
	BYTE	W24
	BYTE		N12     Cn2   v076
	BYTE	W12
	BYTE		        Cs2 
	BYTE	W12
	BYTE		        Cn2   v072
	BYTE	W12
// 069   ----------------------------------------
	BYTE		N24     Cn2   v076
	BYTE	W24
	BYTE		N12     As1 
	BYTE	W12
	BYTE		N24     Cn2   v080
	BYTE	W24
	BYTE		N12     As1   v072
	BYTE	W12
	BYTE		        Cn2   v076
	BYTE	W12
	BYTE		        As1 
	BYTE	W12
// 070   ----------------------------------------
	BYTE		N24     As1   v080
	BYTE	W24
	BYTE		N12     Gs1   v076
	BYTE	W12
	BYTE		N24     As1   v080
	BYTE	W24
	BYTE		N12     Gs1   v072
	BYTE	W12
	BYTE		        As1   v080
	BYTE	W12
	BYTE		        Gs1   v076
	BYTE	W12
// 071   ----------------------------------------
	BYTE		N24     As1   v080
	BYTE	W24
	BYTE		N12     Gs1   v076
	BYTE	W12
	BYTE		N24     As1   v080
	BYTE	W24
	BYTE		N12     Gs1   v076
	BYTE	W12
	BYTE		        As1   v080
	BYTE	W12
	BYTE		        Bn1 
	BYTE	W12
// 072   ----------------------------------------
	BYTE		N24     Cn2   v076
	BYTE	W24
	BYTE		N12     As1 
	BYTE	W12
	BYTE		N24     Cn2   v080
	BYTE	W24
	BYTE		N12     As1   v076
	BYTE	W12
	BYTE		        Cn2 
	BYTE	W12
	BYTE		N36   
	BYTE	W12
// 073   ----------------------------------------
	BYTE	W96
// 074   ----------------------------------------
	BYTE		N30     Ds2   v068
	BYTE	W36
	BYTE		TIE     Ds2   v072
	BYTE	W60
// 075   ----------------------------------------
	BYTE	W96
	BYTE		EOT   
// 076   ----------------------------------------
	BYTE		N30     Cn2   v076
	BYTE	W36
	BYTE		TIE     Cn2   v068
	BYTE	W60
// 077   ----------------------------------------
	BYTE	W96
	BYTE		EOT   
// 078   ----------------------------------------
	BYTE	PATT
	 POIN2	disillusion_9_006
// 079   ----------------------------------------
	BYTE		N30     Cn2   v076
	BYTE	W36
	BYTE		N60     Cn2   v068
	BYTE	W60
// 080   ----------------------------------------
	BYTE	PATT
	 POIN2	disillusion_9_008
// 081   ----------------------------------------
	BYTE	W96
	BYTE		EOT     Gs1 
// 082   ----------------------------------------
	BYTE		N30     Ds2   v084
	BYTE	W36
	BYTE		TIE     Ds2   v072
	BYTE	W60
// 083   ----------------------------------------
	BYTE	W96
	BYTE		EOT   
// 084   ----------------------------------------
	BYTE		N30     Cn2   v076
	BYTE	W36
	BYTE		TIE   
	BYTE	W60
// 085   ----------------------------------------
	BYTE	W96
	BYTE		EOT   
// 086   ----------------------------------------
	BYTE	PATT
	 POIN2	disillusion_9_014
// 087   ----------------------------------------
	BYTE	PATT
	 POIN2	disillusion_9_007
// 088   ----------------------------------------
	BYTE		N30     Cs2   v080
	BYTE	W36
	BYTE		TIE     Cs2   v072
	BYTE	W60
// 089   ----------------------------------------
	BYTE	W96
// 090   ----------------------------------------
	BYTE	W96
// 091   ----------------------------------------
	BYTE	W96
	BYTE		EOT   
// 092   ----------------------------------------
	BYTE		N96     As1   v076
	BYTE	W96
// 093   ----------------------------------------
	BYTE		        Cn2   v080
	BYTE	W96
// 094   ----------------------------------------
	BYTE		TIE     Cs2 
	BYTE	W96
// 095   ----------------------------------------
	BYTE	W96
	BYTE		EOT   
// 096   ----------------------------------------
	BYTE		N96     Fs1   v072
	BYTE	W96
// 097   ----------------------------------------
	BYTE		        Gs1   v080
	BYTE	W96
// 098   ----------------------------------------
	BYTE		        Cn2 
	BYTE	W96
// 099   ----------------------------------------
	BYTE	PATT
	 POIN2	disillusion_9_027
// 100   ----------------------------------------
	BYTE		N96     As1   v080
	BYTE	W96
// 101   ----------------------------------------
	BYTE		        Cn2 
	BYTE	W96
// 102   ----------------------------------------
	BYTE		        Cs2 
	BYTE	W96
// 103   ----------------------------------------
	BYTE		        As1 
	BYTE	W96
// 104   ----------------------------------------
	BYTE		        Cs2   v084
	BYTE	W96
// 105   ----------------------------------------
	BYTE		        Fn2   v080
	BYTE	W96
// 106   ----------------------------------------
	BYTE		TIE     As1   v072
	BYTE	W96
// 107   ----------------------------------------
	BYTE	W96
// 108   ----------------------------------------
	BYTE	W96
// 109   ----------------------------------------
	BYTE	W96
	BYTE		EOT   
// 110   ----------------------------------------
	BYTE		TIE     As1   v076
	BYTE	W96
// 111   ----------------------------------------
	BYTE	W96
	BYTE		EOT   
// 112   ----------------------------------------
	BYTE		TIE     Gs1   v072
	BYTE	W96
// 113   ----------------------------------------
	BYTE	W96
	BYTE		EOT   
// 114   ----------------------------------------
	BYTE		TIE     Fs1   v076
	BYTE	W96
// 115   ----------------------------------------
	BYTE	W96
	BYTE		EOT   
// 116   ----------------------------------------
	BYTE		TIE     Gs1   v080
	BYTE	W96
// 117   ----------------------------------------
	BYTE	W96
	BYTE		EOT   
// 118   ----------------------------------------
	BYTE		TIE     As1 
	BYTE	W96
// 119   ----------------------------------------
	BYTE	W96
	BYTE		EOT   
// 120   ----------------------------------------
	BYTE		TIE     Fn1   v076
	BYTE	W96
// 121   ----------------------------------------
	BYTE	W96
	BYTE		EOT   
// 122   ----------------------------------------
	BYTE		N96     Fs1   v080
	BYTE	W96
// 123   ----------------------------------------
	BYTE		        Gs1 
	BYTE	W96
// 124   ----------------------------------------
	BYTE	PATT
	 POIN2	disillusion_9_052
// 125   ----------------------------------------
	BYTE		N96     Dn2   v076
	BYTE	W96
// 126   ----------------------------------------
	BYTE		TIE     As1 
	BYTE	W96
// 127   ----------------------------------------
	BYTE	W96
	BYTE		EOT   
// 128   ----------------------------------------
	BYTE		N96     Gs1 
	BYTE	W96
// 129   ----------------------------------------
	BYTE		        Fn1 
	BYTE	W96
// 130   ----------------------------------------
	BYTE		TIE     Fs1   v080
	BYTE	W96
// 131   ----------------------------------------
	BYTE	W96
	BYTE		EOT   
// 132   ----------------------------------------
	BYTE		TIE     Fn1   v076
	BYTE	W96
// 133   ----------------------------------------
	BYTE	W96
	BYTE		EOT   
// 134   ----------------------------------------
	BYTE		TIE     As1   v080
	BYTE	W96
// 135   ----------------------------------------
	BYTE	W96
	BYTE		EOT   
// 136   ----------------------------------------
	BYTE		TIE     Fn1   v072
	BYTE	W96
// 137   ----------------------------------------
	BYTE	W96
	BYTE		EOT   
// 138   ----------------------------------------
	BYTE		N96     Fs1   v080
	BYTE	W96
// 139   ----------------------------------------
	BYTE		        Gs1 
	BYTE	W96
// 140   ----------------------------------------
	BYTE	PATT
	 POIN2	disillusion_9_052
// 141   ----------------------------------------
	BYTE		N96     Dn2   v076
	BYTE	W96
// 142   ----------------------------------------
	BYTE		TIE     As1   v072
	BYTE	W96
// 143   ----------------------------------------
	BYTE	W96
	BYTE		EOT   
// 144   ----------------------------------------
	BYTE		TIE     Gs1   v076
	BYTE	W96
// 145   ----------------------------------------
	BYTE	W96
	BYTE		EOT   
// 146   ----------------------------------------
	BYTE		N96     Fs1   v072
	BYTE	W96
// 147   ----------------------------------------
	BYTE		        Gs1   v084
	BYTE	W96
// 148   ----------------------------------------
	BYTE		        As1   v080
	BYTE	W96
// 149   ----------------------------------------
	BYTE		        Cn2   v084
	BYTE	W96
// 150   ----------------------------------------
	BYTE	W96
// 151   ----------------------------------------
	BYTE		N24     Fn2   v100
	BYTE	W96
// 152   ----------------------------------------
	BYTE	W48
	BYTE	GoTo
	 POIN2	disillusion_9_B1
disillusion_9_B2:
	BYTE	FINE

//**************** Track 10 (Midi-Chn.10) ****************//

disillusion_10:
	BYTE	KEYSH   disillusion_key+0
disillusion_10_B1:
// 000   ----------------------------------------
	BYTE		VOICE   0
	BYTE		VOL     35*disillusion_mvl/mxv
	BYTE		N12     Cs2   v036
	BYTE	W12
	BYTE		        Cs2   v040
	BYTE	W12
	BYTE		N12   
	BYTE	W12
	BYTE		N12   
	BYTE	W12
	BYTE		N12   
	BYTE	W12
	BYTE		N12   
	BYTE	W12
	BYTE		N12   
	BYTE	W12
	BYTE		        Cs2   v044
	BYTE	W12
// 001   ----------------------------------------
	BYTE		        Cs2   v040
	BYTE	W12
	BYTE		        Cs2   v044
	BYTE	W12
	BYTE		N12   
	BYTE	W12
	BYTE		        Cs2   v040
	BYTE	W12
	BYTE		N12   
	BYTE	W12
	BYTE		        Fn1   v068
	BYTE		N12     Cs2   v040
	BYTE	W12
	BYTE		        Fn1   v076
	BYTE		N12     Cs2   v040
	BYTE	W12
	BYTE		        Fn1   v080
	BYTE		N12     Cs2   v040
	BYTE	W12
// 002   ----------------------------------------
	BYTE		N36     An1   v112
	BYTE		N36     Cs2   v072
	BYTE	W36
	BYTE		        An1   v104
	BYTE		N36     Cs2   v080
	BYTE	W36
	BYTE		N12     Gn1   v096
	BYTE	W12
	BYTE		        Fn1   v092
	BYTE	W12
// 003   ----------------------------------------
	BYTE		        Gn1   v100
	BYTE	W12
	BYTE		N24     Cn1   v088
	BYTE	W24
	BYTE		N12     Gn1   v108
	BYTE	W12
	BYTE		N24     Cn1   v092
	BYTE	W24
	BYTE		N12     Dn1   v116
	BYTE	W12
	BYTE		        Cn1   v080
	BYTE	W12
// 004   ----------------------------------------
	BYTE		N36     An1   v112
	BYTE		N36     Cs2   v064
	BYTE	W36
	BYTE		        An1   v100
	BYTE		N36     Cs2   v076
	BYTE	W36
	BYTE		N12     Gn1   v092
	BYTE	W12
	BYTE		        Fn1   v088
	BYTE	W12
// 005   ----------------------------------------
	BYTE		        Gn1   v108
	BYTE	W12
	BYTE		N24     Cn1   v088
	BYTE	W24
	BYTE		N12     Gn1   v108
	BYTE	W12
	BYTE		N24     Cn1   v092
	BYTE	W24
	BYTE		N12     Dn1   v112
	BYTE	W12
	BYTE		        Cn1   v084
	BYTE	W12
// 006   ----------------------------------------
	BYTE		        Gn1   v108
	BYTE	W12
	BYTE		N24     Cn1   v092
	BYTE	W24
	BYTE		N12     Gn1   v104
	BYTE	W12
	BYTE		N24     Cn1   v088
	BYTE	W24
	BYTE		N12     Dn1   v116
	BYTE	W12
	BYTE		        Cn1   v084
	BYTE	W12
// 007   ----------------------------------------
	BYTE		        Gn1   v108
	BYTE	W12
	BYTE		N24     Cn1   v096
	BYTE	W24
	BYTE		N12     Gn1   v108
	BYTE	W12
	BYTE		N24     Cn1   v092
	BYTE	W24
	BYTE		N12     Dn1   v116
	BYTE	W12
	BYTE		        Cn1   v084
	BYTE	W12
// 008   ----------------------------------------
	BYTE		N36     An1   v108
	BYTE		N36     Cs2   v068
	BYTE	W36
	BYTE		        An1   v104
	BYTE		N36     Cs2   v076
	BYTE	W36
	BYTE		N12     Gn1   v092
	BYTE	W12
	BYTE		        Fn1 
	BYTE	W12
// 009   ----------------------------------------
	BYTE		        Gn1   v100
	BYTE	W12
	BYTE		N24     Cn1   v092
	BYTE	W24
	BYTE		N12     Gn1   v108
	BYTE	W12
	BYTE		N24     Cn1   v096
	BYTE	W24
	BYTE		N12     Dn1   v116
	BYTE	W12
	BYTE		        Cn1   v080
	BYTE	W12
// 010   ----------------------------------------
	BYTE		N36     An1   v112
	BYTE		N36     Cs2   v064
	BYTE	W36
	BYTE		        An1   v104
	BYTE		N36     Cs2   v080
	BYTE	W36
	BYTE		N12     Gn1   v092
	BYTE	W12
	BYTE		        Fn1   v096
	BYTE	W12
// 011   ----------------------------------------
	BYTE		        Gn1   v104
	BYTE	W12
	BYTE		N24     Cn1   v092
	BYTE	W24
	BYTE		N12     Gn1   v108
	BYTE	W12
	BYTE		N24     Cn1   v088
	BYTE	W24
	BYTE		N12     Dn1   v112
	BYTE	W12
	BYTE		        Cn1   v084
	BYTE	W12
// 012   ----------------------------------------
	BYTE		N36     An1   v108
	BYTE		N36     Cs2   v064
	BYTE	W36
	BYTE		        An1   v100
	BYTE		N36     Cs2   v080
	BYTE	W36
	BYTE		N12     Gn1   v088
	BYTE	W12
	BYTE		        Fn1   v092
	BYTE	W12
// 013   ----------------------------------------
	BYTE		        Gn1   v104
	BYTE	W12
	BYTE		N24     Cn1   v092
	BYTE	W24
	BYTE		N12     Gn1   v112
	BYTE	W12
	BYTE		N24     Cn1   v088
	BYTE	W24
	BYTE		N12     Dn1   v116
	BYTE	W12
	BYTE		        Cn1   v080
	BYTE	W12
// 014   ----------------------------------------
	BYTE		N36     An1   v112
	BYTE		N36     Cs2   v072
	BYTE	W36
	BYTE		        An1   v104
	BYTE		N36     Cs2   v072
	BYTE	W36
	BYTE		N12     Gn1   v092
	BYTE	W12
	BYTE		        Fn1   v096
	BYTE	W12
// 015   ----------------------------------------
	BYTE		        Gn1   v104
	BYTE	W12
	BYTE		N24     Cn1   v088
	BYTE	W24
	BYTE		N12     Gn1   v116
	BYTE	W12
	BYTE		N24     Cn1   v092
	BYTE	W24
	BYTE		N12     Dn1   v116
	BYTE		N24     Cs2   v044
	BYTE	W12
	BYTE		N12     Cn1   v084
	BYTE	W12
// 016   ----------------------------------------
	BYTE		N36     An1   v108
	BYTE		N36     Cs2   v072
	BYTE	W36
	BYTE		        An1   v104
	BYTE		N36     Cs2   v076
	BYTE	W36
	BYTE		N12     Gn1   v092
	BYTE	W12
	BYTE		        Fn1   v096
	BYTE	W12
// 017   ----------------------------------------
	BYTE		        Dn1   v112
	BYTE	W12
	BYTE		N24     Fn1   v088
	BYTE	W24
	BYTE		N12     Gn1   v104
	BYTE	W12
	BYTE		N12   
	BYTE	W12
	BYTE		        Gn1   v100
	BYTE	W12
	BYTE		N24     Dn1   v108
	BYTE	W24
// 018   ----------------------------------------
	BYTE		N12     Gn1   v088
	BYTE		N24     Cs2   v116
	BYTE	W12
	BYTE		        Cn1   v096
	BYTE	W24
	BYTE		N12     Gn1   v108
	BYTE		N24     Cs2 
	BYTE	W12
	BYTE		        Cn1   v088
	BYTE	W24
	BYTE		N12     Dn1   v116
	BYTE		N24     Cs2   v108
	BYTE	W12
	BYTE		N12     Cn1   v088
	BYTE	W12
// 019   ----------------------------------------
	BYTE		        An1   v112
	BYTE	W12
	BYTE		N24     Dn1   v104
	BYTE		N48     Cs2 
	BYTE	W24
	BYTE		N06     Dn1 
	BYTE	W06
	BYTE		        Dn1   v100
	BYTE	W06
	BYTE		N12   
	BYTE	W12
	BYTE		        An1   v096
	BYTE	W12
	BYTE		        Gn1   v092
	BYTE	W12
	BYTE		        Fn1   v100
	BYTE	W12
// 020   ----------------------------------------
	BYTE		N36     Gn1   v108
	BYTE		N12     Cs2 
	BYTE	W12
	BYTE		        Cs2   v044
	BYTE	W12
	BYTE		        Cs2   v040
	BYTE	W12
	BYTE		N36     Gn1   v096
	BYTE		N12     Cs2   v040
	BYTE	W12
	BYTE		N06   
	BYTE	W12
	BYTE		N06   
	BYTE	W12
	BYTE		N24     Dn1   v108
	BYTE		N06     Cs2   v040
	BYTE	W12
	BYTE		        Cs2   v044
	BYTE	W12
// 021   ----------------------------------------
	BYTE		N36     Gn1   v092
	BYTE		N06     Cs2   v044
	BYTE	W12
	BYTE		        Cs2   v040
	BYTE	W12
	BYTE		N06   
	BYTE	W12
	BYTE		N36     Gn1   v100
	BYTE		N06     Cs2   v040
	BYTE	W12
	BYTE		N06   
	BYTE	W12
	BYTE		N06   
	BYTE	W12
	BYTE		N24     Dn1   v108
	BYTE		N06     Cs2   v040
	BYTE	W12
	BYTE		        Cs2   v044
	BYTE	W12
// 022   ----------------------------------------
	BYTE		N36     Gn1   v096
	BYTE		N06     Cs2   v040
	BYTE	W12
	BYTE		N06   
	BYTE	W12
	BYTE		N06   
	BYTE	W12
	BYTE		N36     Gn1   v096
	BYTE		N06     Cs2   v036
	BYTE	W12
	BYTE		        Cs2   v040
	BYTE	W12
	BYTE		        Cs2   v044
	BYTE	W12
	BYTE		N24     Dn1   v104
	BYTE		N06     Cs2   v040
	BYTE	W12
	BYTE		        Cs2   v044
	BYTE	W12
// 023   ----------------------------------------
	BYTE		N36     Gn1   v092
	BYTE		N06     Cs2   v040
	BYTE	W12
	BYTE		        Cs2   v044
	BYTE	W12
	BYTE		        Cs2   v040
	BYTE	W12
	BYTE		N36     Gn1   v096
	BYTE		N06     Cs2   v036
	BYTE	W12
	BYTE		        Cs2   v040
	BYTE	W12
	BYTE		        Cs2   v036
	BYTE	W12
	BYTE		N24     Dn1   v112
	BYTE		N06     Cs2   v040
	BYTE	W12
	BYTE		        Cs2   v036
	BYTE	W12
// 024   ----------------------------------------
	BYTE		N36     Gn1   v096
	BYTE		N06     Cs2   v040
	BYTE	W12
	BYTE		N06   
	BYTE	W12
	BYTE		N06   
	BYTE	W12
	BYTE		N36     Gn1   v096
	BYTE		N06     Cs2   v040
	BYTE	W12
	BYTE		N06   
	BYTE	W12
	BYTE		N06   
	BYTE	W12
	BYTE		N24     Dn1   v104
	BYTE		N06     Cs2   v036
	BYTE	W12
	BYTE		        Cs2   v044
	BYTE	W12
// 025   ----------------------------------------
	BYTE		N36     Gn1   v096
	BYTE		N06     Cs2   v044
	BYTE	W12
	BYTE		        Cs2   v040
	BYTE	W12
	BYTE		N06   
	BYTE	W12
	BYTE		N36     Gn1   v096
	BYTE		N06     Cs2   v044
	BYTE	W12
	BYTE		        Cs2   v040
	BYTE	W12
	BYTE		        Cs2   v044
	BYTE	W12
	BYTE		N24     Dn1   v112
	BYTE		N06     Cs2   v040
	BYTE	W12
	BYTE		        Cs2   v044
	BYTE	W12
// 026   ----------------------------------------
	BYTE		N36     Gn1   v092
	BYTE		N06     Cs2   v036
	BYTE	W12
	BYTE		        Cs2   v044
	BYTE	W12
	BYTE		        Cs2   v040
	BYTE	W12
	BYTE		N36     Gn1   v096
	BYTE		N06     Cs2   v040
	BYTE	W12
	BYTE		N06   
	BYTE	W12
	BYTE		        Cs2   v036
	BYTE	W12
	BYTE		N24     Dn1   v108
	BYTE		N06     Cs2   v040
	BYTE	W12
	BYTE		        Cs2   v044
	BYTE	W12
// 027   ----------------------------------------
	BYTE		N36     Gn1   v096
	BYTE		N06     Cs2   v040
	BYTE	W12
	BYTE		N06   
	BYTE	W12
	BYTE		N06   
	BYTE	W12
	BYTE		N36     Gn1   v100
	BYTE		N06     Cs2   v044
	BYTE	W12
	BYTE		N06   
	BYTE	W12
	BYTE		N06   
	BYTE	W12
	BYTE		N24     Dn1   v108
	BYTE		N06     Cs2   v044
	BYTE	W12
	BYTE		        Cs2   v040
	BYTE	W12
// 028   ----------------------------------------
	BYTE		N36     Gn1   v092
	BYTE		N06     Cs2   v036
	BYTE	W12
	BYTE		        Cs2   v044
	BYTE	W12
	BYTE		        Cs2   v040
	BYTE	W12
	BYTE		N36     Gn1   v096
	BYTE		N06     Cs2   v044
	BYTE	W12
	BYTE		        Cs2   v040
	BYTE	W12
	BYTE		N06   
	BYTE	W12
	BYTE		N24     Dn1   v108
	BYTE		N06     Cs2   v044
	BYTE	W12
	BYTE		N06   
	BYTE	W12
// 029   ----------------------------------------
	BYTE		N36     Gn1   v092
	BYTE		N06     Cs2   v040
	BYTE	W12
	BYTE		N06   
	BYTE	W12
	BYTE		N06   
	BYTE	W12
	BYTE		N36     Gn1   v096
	BYTE		N06     Cs2   v040
	BYTE	W12
	BYTE		        Cs2   v044
	BYTE	W12
	BYTE		        Cs2   v032
	BYTE	W12
	BYTE		N24     Dn1   v108
	BYTE		N06     Cs2   v044
	BYTE	W12
	BYTE		N06   
	BYTE	W12
// 030   ----------------------------------------
	BYTE		N36     Gn1   v092
	BYTE		N06     Cs2   v040
	BYTE	W12
	BYTE		N06   
	BYTE	W12
	BYTE		        Cs2   v036
	BYTE	W12
	BYTE		N36     Gn1   v100
	BYTE		N06     Cs2   v048
	BYTE	W12
	BYTE		        Cs2   v040
	BYTE	W12
	BYTE		N06   
	BYTE	W12
	BYTE		N24     Dn1   v112
	BYTE		N06     Cs2   v040
	BYTE	W12
	BYTE		N06   
	BYTE	W12
// 031   ----------------------------------------
	BYTE		N36     Gn1   v088
	BYTE		N06     Cs2   v036
	BYTE	W12
	BYTE		        Cs2   v044
	BYTE	W12
	BYTE		        Cs2   v040
	BYTE	W12
	BYTE		N36     Gn1   v100
	BYTE		N06     Cs2   v044
	BYTE	W12
	BYTE		        Cs2   v040
	BYTE	W12
	BYTE		N06   
	BYTE	W12
	BYTE		N24     Dn1   v112
	BYTE		N06     Cs2   v044
	BYTE	W12
	BYTE		N06   
	BYTE	W12
// 032   ----------------------------------------
	BYTE		N36     Gn1   v092
	BYTE		N06     Cs2   v040
	BYTE	W12
	BYTE		N06   
	BYTE	W12
	BYTE		N06   
	BYTE	W12
	BYTE		N36     Gn1   v100
	BYTE		N06     Cs2   v044
	BYTE	W12
	BYTE		N06   
	BYTE	W12
	BYTE		N06   
	BYTE	W12
	BYTE		N24     Dn1   v112
	BYTE		N06     Cs2   v036
	BYTE	W12
	BYTE		        Cs2   v044
	BYTE	W12
// 033   ----------------------------------------
	BYTE		N36     Gn1   v088
	BYTE		N06     Cs2   v044
	BYTE	W12
	BYTE		N06   
	BYTE	W12
	BYTE		        Cs2   v040
	BYTE	W12
	BYTE		N36     Gn1   v096
	BYTE		N06     Cs2   v044
	BYTE	W12
	BYTE		        Cs2   v036
	BYTE	W12
	BYTE		        Cs2   v040
	BYTE	W12
	BYTE		N24     Dn1   v108
	BYTE		N06     Cs2   v044
	BYTE	W12
	BYTE		        Cs2   v040
	BYTE	W12
// 034   ----------------------------------------
	BYTE		N36     Gn1   v092
	BYTE		N06     Cs2   v044
	BYTE	W12
	BYTE		        Cs2   v048
	BYTE	W12
	BYTE		        Cs2   v044
	BYTE	W12
	BYTE		N36     Gn1   v100
	BYTE		N06     Cs2   v040
	BYTE	W12
	BYTE		N06   
	BYTE	W12
	BYTE		N06   
	BYTE	W12
	BYTE		N24     Dn1   v104
	BYTE		N06     Cs2   v044
	BYTE	W12
	BYTE		        Cs2   v040
	BYTE	W12
// 035   ----------------------------------------
	BYTE		N36     Gn1   v092
	BYTE		N06     Cs2   v044
	BYTE	W12
	BYTE		        Cs2   v040
	BYTE	W12
	BYTE		N06   
	BYTE	W12
	BYTE		N36     Gn1   v096
	BYTE		N06     Cs2   v040
	BYTE	W12
	BYTE		N06   
	BYTE	W12
	BYTE		N06   
	BYTE	W12
	BYTE		N24     Dn1   v108
	BYTE		N06     Cs2   v036
	BYTE	W12
	BYTE		N06   
	BYTE	W12
// 036   ----------------------------------------
	BYTE		N36     Gn1   v092
	BYTE		N24     Cs2   v040
	BYTE	W24
	BYTE		N36     Cs2   v104
	BYTE	W12
	BYTE		        Gn1 
	BYTE	W24
	BYTE		        Cs2   v116
	BYTE	W12
	BYTE		N24     Dn1   v108
	BYTE	W24
// 037   ----------------------------------------
	BYTE		N48     Cs2   v120
	BYTE		N06     Dn2   v112
	BYTE	W06
	BYTE		        Dn2   v104
	BYTE	W06
	BYTE		        Dn2   v100
	BYTE	W06
	BYTE		        Bn1   v088
	BYTE	W06
	BYTE		        Bn1   v096
	BYTE	W06
	BYTE		        Bn1   v100
	BYTE	W06
	BYTE		        Bn1   v096
	BYTE	W06
	BYTE		        An1   v092
	BYTE	W06
	BYTE		        An1   v100
	BYTE	W06
	BYTE		N06   
	BYTE	W06
	BYTE		N06   
	BYTE	W06
	BYTE		        Gn1   v096
	BYTE	W06
	BYTE		        Gn1   v104
	BYTE	W06
	BYTE		        Gn1   v100
	BYTE	W06
	BYTE		N06   
	BYTE	W06
	BYTE		        Fn1   v092
	BYTE	W06
// 038   ----------------------------------------
	BYTE		N12     Cs2   v036
	BYTE	W24
	BYTE		        Dn1   v088
	BYTE		N06     Cs2   v044
	BYTE	W12
	BYTE		N24     An1   v092
	BYTE		N06     Cs2   v044
	BYTE	W12
	BYTE		        Cs2   v040
	BYTE	W12
	BYTE		N12     An1   v100
	BYTE		N06     Cs2   v040
	BYTE	W12
	BYTE		N12     Dn1   v108
	BYTE		N06     Cs2   v040
	BYTE	W12
	BYTE		N12     An1   v096
	BYTE		N06     Cs2   v044
	BYTE	W12
// 039   ----------------------------------------
	BYTE		N12     Cs2   v040
	BYTE	W24
	BYTE		        Dn1   v092
	BYTE		N06     Cs2   v040
	BYTE	W12
	BYTE		N24     An1   v092
	BYTE		N06     Cs2   v044
	BYTE	W12
	BYTE		        Cs2   v040
	BYTE	W12
	BYTE		N12     An1   v100
	BYTE		N06     Cs2   v036
	BYTE	W12
	BYTE		N12     Dn1   v104
	BYTE		N06     Cs2   v040
	BYTE	W12
	BYTE		N12     An1   v096
	BYTE		N06     Cs2   v044
	BYTE	W12
// 040   ----------------------------------------
	BYTE		N12     Cs2   v040
	BYTE	W24
	BYTE		        Dn1   v088
	BYTE		N06     Cs2   v036
	BYTE	W12
	BYTE		N24     An1   v092
	BYTE		N06     Cs2   v040
	BYTE	W12
	BYTE		N06   
	BYTE	W12
	BYTE		N12     An1   v096
	BYTE		N06     Cs2   v044
	BYTE	W12
	BYTE		N12     Dn1   v104
	BYTE		N06     Cs2   v044
	BYTE	W12
	BYTE		N12     An1   v096
	BYTE		N06     Cs2   v040
	BYTE	W12
// 041   ----------------------------------------
	BYTE		N12     Cs2   v036
	BYTE	W24
	BYTE		        Dn1   v092
	BYTE		N06     Cs2   v036
	BYTE	W12
	BYTE		N24     An1   v096
	BYTE		N06     Cs2   v044
	BYTE	W12
	BYTE		        Cs2   v032
	BYTE	W12
	BYTE		N12     An1   v100
	BYTE		N06     Cs2   v040
	BYTE	W12
	BYTE		N12     Dn1   v100
	BYTE		N06     Cs2   v040
	BYTE	W12
	BYTE		N12     An1   v096
	BYTE		N06     Cs2   v040
	BYTE	W12
// 042   ----------------------------------------
	BYTE		N12   
	BYTE	W24
	BYTE		        Dn1   v088
	BYTE		N06     Cs2   v044
	BYTE	W12
	BYTE		N24     An1   v092
	BYTE		N06     Cs2   v040
	BYTE	W12
	BYTE		N06   
	BYTE	W12
	BYTE		N12     An1   v100
	BYTE		N06     Cs2   v040
	BYTE	W12
	BYTE		N12     Dn1   v104
	BYTE		N06     Cs2   v040
	BYTE	W12
	BYTE		N12     An1   v096
	BYTE		N06     Cs2   v036
	BYTE	W12
// 043   ----------------------------------------
	BYTE		N12     Cs2   v044
	BYTE	W24
	BYTE		        Dn1   v088
	BYTE		N06     Cs2   v040
	BYTE	W12
	BYTE		N24     An1   v092
	BYTE		N06     Cs2   v044
	BYTE	W12
	BYTE		N06   
	BYTE	W12
	BYTE		N12     An1   v100
	BYTE		N06     Cs2   v044
	BYTE	W12
	BYTE		N12     Dn1   v108
	BYTE		N06     Cs2   v036
	BYTE	W12
	BYTE		N12     An1   v096
	BYTE		N06     Cs2   v048
	BYTE	W12
// 044   ----------------------------------------
	BYTE		N12     Cs2   v040
	BYTE	W24
	BYTE		        Dn1   v096
	BYTE		N06     Cs2   v036
	BYTE	W12
	BYTE		N24     An1   v092
	BYTE		N06     Cs2   v036
	BYTE	W12
	BYTE		        Cs2   v040
	BYTE	W12
	BYTE		N12     An1   v096
	BYTE		N06     Cs2   v040
	BYTE	W12
	BYTE		N12     Dn1   v108
	BYTE		N06     Cs2   v040
	BYTE	W12
	BYTE		N12     An1   v096
	BYTE		N06     Cs2   v040
	BYTE	W12
// 045   ----------------------------------------
	BYTE		N24     Cs2   v088
	BYTE	W24
	BYTE		N07     Bn1   v092
	BYTE		N12     Cs2   v036
	BYTE	W07
	BYTE		N08     Bn1   v096
	BYTE	W05
	BYTE		N12     Cs2   v040
	BYTE	W03
	BYTE		N08     Bn1   v100
	BYTE	W09
	BYTE		N07     An1   v092
	BYTE		N06     Cs2   v040
	BYTE	W07
	BYTE		N08     An1   v100
	BYTE	W05
	BYTE		N06     Cs2   v036
	BYTE	W03
	BYTE		N08     An1   v100
	BYTE	W09
	BYTE		N07     Gn1   v092
	BYTE		N06     Cs2   v044
	BYTE	W07
	BYTE		N08     Gn1   v096
	BYTE	W05
	BYTE		N06     Cs2   v044
	BYTE	W03
	BYTE		N08     Gn1   v100
	BYTE	W09
// 046   ----------------------------------------
	BYTE		N12     Cs2   v040
	BYTE	W24
	BYTE		        Dn1   v092
	BYTE		N06     Cs2   v044
	BYTE	W12
	BYTE		N24     An1   v092
	BYTE		N06     Cs2   v044
	BYTE	W12
	BYTE		        Cs2   v040
	BYTE	W12
	BYTE		N12     An1   v096
	BYTE		N06     Cs2   v040
	BYTE	W12
	BYTE		N12     Dn1   v100
	BYTE		N06     Cs2   v040
	BYTE	W12
	BYTE		N12     An1   v096
	BYTE		N06     Cs2   v048
	BYTE	W12
// 047   ----------------------------------------
	BYTE		N12     Cs2   v036
	BYTE	W24
	BYTE		        Dn1   v092
	BYTE		N06     Cs2   v040
	BYTE	W12
	BYTE		N24     An1   v096
	BYTE		N06     Cs2   v044
	BYTE	W12
	BYTE		N06   
	BYTE	W12
	BYTE		N12     An1   v100
	BYTE		N06     Cs2   v044
	BYTE	W12
	BYTE		N12     Dn1   v108
	BYTE		N06     Cs2   v040
	BYTE	W12
	BYTE		N12     An1   v096
	BYTE		N06     Cs2   v040
	BYTE	W12
// 048   ----------------------------------------
	BYTE		N12   
	BYTE	W24
	BYTE		        Dn1   v088
	BYTE		N06     Cs2   v036
	BYTE	W12
	BYTE		N24     An1   v092
	BYTE		N06     Cs2   v044
	BYTE	W12
	BYTE		        Cs2   v036
	BYTE	W12
	BYTE		N12     An1   v104
	BYTE		N06     Cs2   v040
	BYTE	W12
	BYTE		N12     Dn1   v100
	BYTE		N06     Cs2   v040
	BYTE	W12
	BYTE		N12     An1   v096
	BYTE		N06     Cs2   v036
	BYTE	W12
// 049   ----------------------------------------
	BYTE		N12     Cs2   v048
	BYTE	W24
	BYTE		        Dn1   v088
	BYTE		N06     Cs2   v040
	BYTE	W12
	BYTE		N24     An1   v092
	BYTE		N06     Cs2   v036
	BYTE	W12
	BYTE		        Cs2   v048
	BYTE	W12
	BYTE		N12     An1   v104
	BYTE		N06     Cs2   v040
	BYTE	W12
	BYTE		N12     Dn1   v100
	BYTE		N06     Cs2   v040
	BYTE	W12
	BYTE		N12     An1   v088
	BYTE		N06     Cs2   v032
	BYTE	W12
// 050   ----------------------------------------
	BYTE		N12     Cs2   v040
	BYTE	W24
	BYTE		        Dn1   v088
	BYTE		N06     Cs2   v044
	BYTE	W12
	BYTE		N24     An1   v092
	BYTE		N06     Cs2   v044
	BYTE	W12
	BYTE		        Cs2   v040
	BYTE	W12
	BYTE		N12     An1   v096
	BYTE		N06     Cs2   v040
	BYTE	W12
	BYTE		N12     Dn1   v100
	BYTE		N06     Cs2   v040
	BYTE	W12
	BYTE		N12     An1   v100
	BYTE		N06     Cs2   v044
	BYTE	W12
// 051   ----------------------------------------
	BYTE		N12     Cs2   v040
	BYTE	W24
	BYTE		        Dn1   v088
	BYTE		N06     Cs2   v040
	BYTE	W12
	BYTE		N24     An1   v092
	BYTE		N06     Cs2   v040
	BYTE	W12
	BYTE		N06   
	BYTE	W12
	BYTE		N12     An1   v100
	BYTE		N06     Cs2   v040
	BYTE	W12
	BYTE		N12     Dn1   v104
	BYTE		N06     Cs2   v048
	BYTE	W12
	BYTE		N12     An1   v100
	BYTE		N06     Cs2   v040
	BYTE	W12
// 052   ----------------------------------------
	BYTE		N12     Cs2   v036
	BYTE	W24
	BYTE		        Dn1   v088
	BYTE		N06     Cs2   v040
	BYTE	W12
	BYTE		N24     An1   v088
	BYTE		N06     Cs2   v040
	BYTE	W12
	BYTE		N06   
	BYTE	W12
	BYTE		N12     An1   v100
	BYTE		N06     Cs2   v040
	BYTE	W12
	BYTE		N12     Dn1   v104
	BYTE		N06     Cs2   v044
	BYTE	W12
	BYTE		N12     An1   v096
	BYTE		N06     Cs2   v036
	BYTE	W12
// 053   ----------------------------------------
	BYTE		N12     Cs2   v040
	BYTE	W24
	BYTE		        Dn1   v092
	BYTE		N06     Cs2   v044
	BYTE	W12
	BYTE		N24     An1   v096
	BYTE		N06     Cs2   v048
	BYTE	W12
	BYTE		        Cs2   v032
	BYTE	W12
	BYTE		N12     An1   v096
	BYTE		N06     Cs2   v040
	BYTE	W12
	BYTE		N12     Dn1   v108
	BYTE		N06     Cs2   v040
	BYTE	W12
	BYTE		N12     An1   v100
	BYTE		N06     Cs2   v044
	BYTE	W12
// 054   ----------------------------------------
	BYTE		N24     Cs2   v104
	BYTE	W24
	BYTE		N12     Dn1   v092
	BYTE		N12     Cs2   v040
	BYTE	W12
	BYTE		N24     An1   v092
	BYTE		N12     Cs2   v044
	BYTE	W12
	BYTE		N12   
	BYTE	W12
	BYTE		        An1   v096
	BYTE		N12     Cs2   v044
	BYTE	W12
	BYTE		        Dn1   v104
	BYTE		N12     Cs2   v044
	BYTE	W12
	BYTE		        An1   v096
	BYTE		N12     Cs2   v040
	BYTE	W12
// 055   ----------------------------------------
	BYTE		        Bn1   v116
	BYTE		N12     Cs2   v040
	BYTE	W12
	BYTE		        Bn1   v096
	BYTE	W12
	BYTE		        Dn1   v092
	BYTE		N06     Cs2   v044
	BYTE	W12
	BYTE		N12     Dn1   v096
	BYTE		N06     Cs2   v044
	BYTE	W12
	BYTE		N12     Dn1   v096
	BYTE		N06     Cs2   v040
	BYTE	W12
	BYTE		N12     Dn1   v100
	BYTE		N06     Cs2   v036
	BYTE	W12
	BYTE		N12     Dn1   v100
	BYTE		N06     Cs2   v044
	BYTE	W12
	BYTE		N12     Dn1   v100
	BYTE		N06     Cs2   v044
	BYTE	W12
// 056   ----------------------------------------
	BYTE		N12     An1   v092
	BYTE		N48     Cs2   v120
	BYTE	W12
	BYTE		N12     Fn1   v084
	BYTE	W12
	BYTE		        Fn1   v100
	BYTE	W12
	BYTE		        An1   v112
	BYTE	W12
	BYTE		        Fn1   v092
	BYTE	W12
	BYTE		        Fn1   v096
	BYTE	W12
	BYTE		        An1   v108
	BYTE	W12
	BYTE		        Fn1   v092
	BYTE	W12
// 057   ----------------------------------------
	BYTE		        An1   v112
	BYTE	W12
	BYTE		        Fn1   v088
	BYTE	W12
	BYTE		        Fn1   v100
	BYTE	W12
	BYTE		        An1   v112
	BYTE	W12
	BYTE		        Fn1   v088
	BYTE	W12
	BYTE		        Fn1   v096
	BYTE	W12
	BYTE		        An1   v108
	BYTE	W12
	BYTE		        Fn1   v088
	BYTE	W12
// 058   ----------------------------------------
	BYTE		        An1   v104
	BYTE	W12
	BYTE		        Fn1   v088
	BYTE	W12
	BYTE		        Fn1   v100
	BYTE	W12
	BYTE		        An1   v108
	BYTE	W12
	BYTE		        Fn1   v092
	BYTE	W12
	BYTE		        Fn1   v096
	BYTE	W12
	BYTE		        An1   v108
	BYTE	W12
	BYTE		        Fn1   v092
	BYTE	W12
// 059   ----------------------------------------
	BYTE		        An1   v108
	BYTE	W12
	BYTE		        Fn1   v084
	BYTE	W12
	BYTE		        Fn1   v096
	BYTE	W12
	BYTE		        An1   v112
	BYTE	W12
	BYTE		        Fn1   v092
	BYTE	W12
	BYTE		        Fn1   v096
	BYTE	W12
	BYTE		        An1   v112
	BYTE	W12
	BYTE		        Fn1   v092
	BYTE	W12
// 060   ----------------------------------------
	BYTE		        An1   v108
	BYTE	W12
	BYTE		        Fn1   v088
	BYTE	W12
	BYTE		        Fn1   v100
	BYTE	W12
	BYTE		        An1   v108
	BYTE	W12
	BYTE		        Fn1   v088
	BYTE	W12
	BYTE		        Fn1   v092
	BYTE	W12
	BYTE		        An1   v112
	BYTE	W12
	BYTE		        Fn1   v088
	BYTE	W12
// 061   ----------------------------------------
	BYTE		        An1   v112
	BYTE	W12
	BYTE		        Fn1   v092
	BYTE	W12
	BYTE		        Fn1   v100
	BYTE	W12
	BYTE		        An1   v116
	BYTE	W12
	BYTE		        Fn1   v088
	BYTE	W12
	BYTE		        Fn1   v096
	BYTE	W12
	BYTE		        An1   v112
	BYTE	W12
	BYTE		        Fn1   v096
	BYTE	W12
// 062   ----------------------------------------
	BYTE		        An1   v104
	BYTE	W12
	BYTE		        Fn1   v088
	BYTE	W12
	BYTE		        Fn1   v096
	BYTE	W12
	BYTE		        An1   v112
	BYTE	W12
	BYTE		        Fn1   v092
	BYTE	W12
	BYTE		        Fn1   v100
	BYTE	W12
	BYTE		        An1   v112
	BYTE	W12
	BYTE		        Fn1   v088
	BYTE	W12
// 063   ----------------------------------------
	BYTE		        An1   v108
	BYTE	W12
	BYTE		        Fn1   v088
	BYTE	W12
	BYTE		        Fn1   v100
	BYTE	W12
	BYTE		        An1   v112
	BYTE	W12
	BYTE		        Fn1   v092
	BYTE	W12
	BYTE		        Fn1   v100
	BYTE	W12
	BYTE		        An1   v108
	BYTE	W12
	BYTE		        Fn1   v084
	BYTE	W12
// 064   ----------------------------------------
	BYTE		        An1   v112
	BYTE	W12
	BYTE		        Fn1   v084
	BYTE	W12
	BYTE		        Fn1   v096
	BYTE	W12
	BYTE		        An1   v112
	BYTE	W12
	BYTE		        Fn1   v088
	BYTE	W12
	BYTE		        Fn1   v096
	BYTE	W12
	BYTE		        An1   v108
	BYTE	W12
	BYTE		        Fn1   v088
	BYTE	W12
// 065   ----------------------------------------
	BYTE		        An1   v108
	BYTE	W12
	BYTE		        Fn1   v088
	BYTE	W12
	BYTE		        Fn1   v096
	BYTE	W12
	BYTE		        An1   v108
	BYTE	W12
	BYTE		        Fn1   v088
	BYTE	W12
	BYTE		        Fn1   v100
	BYTE	W12
	BYTE		        An1   v108
	BYTE	W12
	BYTE		        Fn1   v092
	BYTE	W12
// 066   ----------------------------------------
	BYTE		        An1   v112
	BYTE	W12
	BYTE		        Fn1   v092
	BYTE	W12
	BYTE		        Fn1   v096
	BYTE	W12
	BYTE		        An1   v112
	BYTE	W12
	BYTE		        Fn1   v092
	BYTE	W12
	BYTE		        Fn1   v100
	BYTE	W12
	BYTE		        An1   v108
	BYTE	W12
	BYTE		        Fn1   v092
	BYTE	W12
// 067   ----------------------------------------
	BYTE		        An1   v108
	BYTE	W12
	BYTE		        Fn1   v092
	BYTE	W12
	BYTE		        Fn1   v096
	BYTE	W12
	BYTE		        An1   v104
	BYTE	W12
	BYTE		        Fn1   v092
	BYTE	W12
	BYTE		        Fn1   v100
	BYTE	W12
	BYTE		        An1   v112
	BYTE	W12
	BYTE		        Fn1   v088
	BYTE	W12
// 068   ----------------------------------------
	BYTE		        An1   v108
	BYTE	W12
	BYTE		        Fn1   v092
	BYTE	W12
	BYTE		        Fn1   v096
	BYTE	W12
	BYTE		        An1   v108
	BYTE	W12
	BYTE		        Fn1   v088
	BYTE	W12
	BYTE		        Fn1   v096
	BYTE	W12
	BYTE		        An1   v112
	BYTE	W12
	BYTE		        Fn1   v088
	BYTE	W12
// 069   ----------------------------------------
	BYTE		        An1   v108
	BYTE	W12
	BYTE		        Fn1   v092
	BYTE	W12
	BYTE		        Fn1   v096
	BYTE	W12
	BYTE		        An1   v112
	BYTE	W12
	BYTE		        Fn1   v096
	BYTE	W12
	BYTE		N12   
	BYTE	W12
	BYTE		        An1   v108
	BYTE	W12
	BYTE		        Fn1   v084
	BYTE	W12
// 070   ----------------------------------------
	BYTE		        An1   v108
	BYTE	W12
	BYTE		        Fn1   v092
	BYTE	W12
	BYTE		        Fn1   v100
	BYTE	W12
	BYTE		        An1   v108
	BYTE	W12
	BYTE		        Fn1   v088
	BYTE	W12
	BYTE		        Fn1   v100
	BYTE	W12
	BYTE		        An1   v112
	BYTE	W12
	BYTE		        Fn1   v088
	BYTE	W12
// 071   ----------------------------------------
	BYTE		        An1   v112
	BYTE	W12
	BYTE		        Fn1   v088
	BYTE	W12
	BYTE		        Fn1   v100
	BYTE	W12
	BYTE		        An1   v112
	BYTE	W12
	BYTE		        Fn1   v092
	BYTE	W12
	BYTE		        Fn1   v096
	BYTE	W12
	BYTE		        An1   v108
	BYTE	W12
	BYTE		        Fn1   v092
	BYTE	W12
// 072   ----------------------------------------
	BYTE		        An1   v104
	BYTE	W12
	BYTE		        Fn1   v092
	BYTE	W12
	BYTE		        Fn1   v096
	BYTE	W12
	BYTE		        An1   v104
	BYTE	W12
	BYTE		        Fn1   v088
	BYTE	W12
	BYTE		        Fn1   v100
	BYTE	W12
	BYTE		        An1   v112
	BYTE	W12
	BYTE		        Fn1   v088
	BYTE	W12
// 073   ----------------------------------------
	BYTE		N24     Dn1   v112
	BYTE		N48     Cs2   v108
	BYTE	W60
	BYTE		N12     Fn1   v088
	BYTE	W12
	BYTE		        Fn1   v096
	BYTE	W12
	BYTE		        Fn1   v100
	BYTE	W12
// 074   ----------------------------------------
	BYTE		N36     An1   v112
	BYTE		N36     Cs2   v092
	BYTE	W36
	BYTE		        An1   v104
	BYTE		N36     Cs2   v092
	BYTE	W36
	BYTE		N12     Gn1   v100
	BYTE	W12
	BYTE		        Fn1   v092
	BYTE	W12
// 075   ----------------------------------------
	BYTE		        Gn1   v104
	BYTE	W12
	BYTE		N24     Cn1   v092
	BYTE	W24
	BYTE		N12     Gn1   v108
	BYTE	W12
	BYTE		N24     Cn1   v088
	BYTE	W24
	BYTE		N12     Dn1   v120
	BYTE	W12
	BYTE		        Cn1   v084
	BYTE	W12
// 076   ----------------------------------------
	BYTE		N36     An1   v108
	BYTE		N36     Cs2   v092
	BYTE	W36
	BYTE		        An1   v104
	BYTE		N36     Cs2   v092
	BYTE	W36
	BYTE		N12     Gn1 
	BYTE	W12
	BYTE		        Fn1 
	BYTE	W12
// 077   ----------------------------------------
	BYTE		        Gn1   v104
	BYTE	W12
	BYTE		N24     Cn1   v088
	BYTE	W24
	BYTE		N12     Gn1   v104
	BYTE	W12
	BYTE		N24     Cn1   v092
	BYTE	W24
	BYTE		N12     Dn1   v112
	BYTE	W12
	BYTE		        Cn1   v080
	BYTE	W12
// 078   ----------------------------------------
	BYTE		        Gn1   v112
	BYTE	W12
	BYTE		N24     Cn1   v096
	BYTE	W24
	BYTE		N12     Gn1   v108
	BYTE	W12
	BYTE		N24     Cn1   v092
	BYTE	W24
	BYTE		N12     Dn1   v116
	BYTE	W12
	BYTE		        Cn1   v084
	BYTE	W12
// 079   ----------------------------------------
	BYTE		        Gn1   v108
	BYTE	W12
	BYTE		N24     Cn1   v092
	BYTE	W24
	BYTE		N12     Gn1   v112
	BYTE	W12
	BYTE		N24     Cn1   v092
	BYTE	W24
	BYTE		N12     Dn1   v116
	BYTE	W12
	BYTE		        Cn1   v080
	BYTE	W12
// 080   ----------------------------------------
	BYTE		N36     An1   v112
	BYTE		N36     Cs2   v088
	BYTE	W36
	BYTE		        An1   v100
	BYTE		N36     Cs2 
	BYTE	W36
	BYTE		N12     Gn1   v092
	BYTE	W12
	BYTE		        Fn1 
	BYTE	W12
// 081   ----------------------------------------
	BYTE		        Gn1   v104
	BYTE	W12
	BYTE		N24     Cn1   v088
	BYTE	W24
	BYTE		N12     Gn1   v104
	BYTE	W12
	BYTE		N24     Cn1   v088
	BYTE	W24
	BYTE		N12     Dn1   v116
	BYTE	W12
	BYTE		        Cn1   v088
	BYTE	W12
// 082   ----------------------------------------
	BYTE		N36     An1   v112
	BYTE		N36     Cs2   v088
	BYTE	W36
	BYTE		        An1   v104
	BYTE		N36     Cs2   v100
	BYTE	W36
	BYTE		N12     Gn1   v092
	BYTE	W12
	BYTE		        Fn1   v088
	BYTE	W12
// 083   ----------------------------------------
	BYTE		        Gn1   v100
	BYTE	W12
	BYTE		N24     Cn1   v088
	BYTE	W24
	BYTE		N12     Gn1   v112
	BYTE	W12
	BYTE		N24     Cn1   v088
	BYTE	W24
	BYTE		N12     Dn1   v116
	BYTE	W12
	BYTE		        Cn1   v088
	BYTE	W12
// 084   ----------------------------------------
	BYTE		N36     An1   v108
	BYTE		N36     Cs2   v092
	BYTE	W36
	BYTE		        An1   v108
	BYTE		N36     Cs2   v100
	BYTE	W36
	BYTE		N12     Gn1   v092
	BYTE	W12
	BYTE		        Fn1 
	BYTE	W12
// 085   ----------------------------------------
	BYTE		        Gn1   v108
	BYTE	W12
	BYTE		N24     Cn1   v088
	BYTE	W24
	BYTE		N12     Gn1   v108
	BYTE	W12
	BYTE		N24     Cn1   v092
	BYTE	W24
	BYTE		N12     Dn1   v116
	BYTE	W12
	BYTE		        Cn1   v076
	BYTE	W12
// 086   ----------------------------------------
	BYTE		N36     An1   v120
	BYTE		N36     Cs2   v088
	BYTE	W36
	BYTE		        An1   v100
	BYTE		N36     Cs2   v092
	BYTE	W36
	BYTE		N12     Gn1 
	BYTE	W12
	BYTE		        Fn1 
	BYTE	W12
// 087   ----------------------------------------
	BYTE		        Gn1   v100
	BYTE	W12
	BYTE		N24     Cn1   v088
	BYTE	W24
	BYTE		N12     Gn1   v108
	BYTE	W12
	BYTE		N24     Cn1   v088
	BYTE	W24
	BYTE		N12     Dn1   v112
	BYTE		N24     Cs2   v104
	BYTE	W12
	BYTE		N12     Cn1   v084
	BYTE	W12
// 088   ----------------------------------------
	BYTE		N36     An1   v112
	BYTE		N36     Cs2   v092
	BYTE	W36
	BYTE		        An1   v100
	BYTE		N36     Cs2   v096
	BYTE	W36
	BYTE		N12     Gn1   v092
	BYTE	W12
	BYTE		        Fn1 
	BYTE	W12
// 089   ----------------------------------------
	BYTE		        Dn1   v116
	BYTE	W12
	BYTE		N24     Fn1   v096
	BYTE	W24
	BYTE		N12     Gn1   v104
	BYTE	W12
	BYTE		        Gn1   v100
	BYTE	W12
	BYTE		        Gn1   v096
	BYTE	W12
	BYTE		N24     Dn1   v108
	BYTE	W24
// 090   ----------------------------------------
	BYTE		N12     Gn1   v092
	BYTE		N24     Cs2   v116
	BYTE	W12
	BYTE		        Cn1   v088
	BYTE	W24
	BYTE		N12     Gn1   v112
	BYTE		N24     Cs2   v108
	BYTE	W12
	BYTE		        Cn1   v088
	BYTE	W24
	BYTE		N12     Dn1   v116
	BYTE		N24     Cs2   v112
	BYTE	W12
	BYTE		N12     Cn1   v084
	BYTE	W12
// 091   ----------------------------------------
	BYTE		        An1   v112
	BYTE	W12
	BYTE		N24     Dn1   v104
	BYTE		N48     Cs2 
	BYTE	W24
	BYTE		N06     Dn1   v100
	BYTE	W06
	BYTE		        Dn1   v096
	BYTE	W06
	BYTE		N12   
	BYTE	W12
	BYTE		        An1   v092
	BYTE	W12
	BYTE		        Gn1 
	BYTE	W12
	BYTE		        Fn1 
	BYTE	W12
// 092   ----------------------------------------
	BYTE		N36     Gn1   v108
	BYTE		N12     Cs2   v104
	BYTE	W12
	BYTE		        Cs2   v044
	BYTE	W12
	BYTE		        Cs2   v040
	BYTE	W12
	BYTE		N36     Gn1   v092
	BYTE		N12     Cs2   v036
	BYTE	W12
	BYTE		N06     Cs2   v040
	BYTE	W12
	BYTE		        Cs2   v044
	BYTE	W12
	BYTE		N24     Dn1   v112
	BYTE		N06     Cs2   v040
	BYTE	W12
	BYTE		        Cs2   v044
	BYTE	W12
// 093   ----------------------------------------
	BYTE		N36     Gn1   v092
	BYTE		N06     Cs2   v040
	BYTE	W12
	BYTE		N06   
	BYTE	W12
	BYTE		N06   
	BYTE	W12
	BYTE		N36     Gn1   v092
	BYTE		N06     Cs2   v040
	BYTE	W12
	BYTE		        Cs2   v036
	BYTE	W12
	BYTE		        Cs2   v040
	BYTE	W12
	BYTE		N24     Dn1   v112
	BYTE		N06     Cs2   v044
	BYTE	W12
	BYTE		N06   
	BYTE	W12
// 094   ----------------------------------------
	BYTE		N36     Gn1   v092
	BYTE		N06     Cs2   v044
	BYTE	W12
	BYTE		N06   
	BYTE	W12
	BYTE		        Cs2   v040
	BYTE	W12
	BYTE		N36     Gn1   v096
	BYTE		N06     Cs2   v044
	BYTE	W12
	BYTE		        Cs2   v040
	BYTE	W12
	BYTE		N06   
	BYTE	W12
	BYTE		N24     Dn1   v108
	BYTE		N06     Cs2   v044
	BYTE	W12
	BYTE		        Cs2   v040
	BYTE	W12
// 095   ----------------------------------------
	BYTE		N36     Gn1   v092
	BYTE		N06     Cs2   v036
	BYTE	W12
	BYTE		        Cs2   v040
	BYTE	W12
	BYTE		        Cs2   v036
	BYTE	W12
	BYTE		N36     Gn1   v096
	BYTE		N06     Cs2   v044
	BYTE	W12
	BYTE		N06   
	BYTE	W12
	BYTE		        Cs2   v040
	BYTE	W12
	BYTE		N24     Dn1   v104
	BYTE		N06     Cs2   v040
	BYTE	W12
	BYTE		        Cs2   v044
	BYTE	W12
// 096   ----------------------------------------
	BYTE		N36     Gn1   v096
	BYTE		N06     Cs2   v040
	BYTE	W12
	BYTE		        Cs2   v036
	BYTE	W12
	BYTE		        Cs2   v044
	BYTE	W12
	BYTE		N36     Gn1   v096
	BYTE		N06     Cs2   v040
	BYTE	W12
	BYTE		N06   
	BYTE	W12
	BYTE		        Cs2   v036
	BYTE	W12
	BYTE		N24     Dn1   v108
	BYTE		N06     Cs2   v040
	BYTE	W12
	BYTE		N06   
	BYTE	W12
// 097   ----------------------------------------
	BYTE		N36     Gn1   v092
	BYTE		N06     Cs2   v040
	BYTE	W12
	BYTE		N06   
	BYTE	W12
	BYTE		N06   
	BYTE	W12
	BYTE		N36     Gn1   v096
	BYTE		N06     Cs2   v040
	BYTE	W12
	BYTE		        Cs2   v044
	BYTE	W12
	BYTE		        Cs2   v040
	BYTE	W12
	BYTE		N24     Dn1   v104
	BYTE		N06     Cs2   v040
	BYTE	W12
	BYTE		        Cs2   v044
	BYTE	W12
// 098   ----------------------------------------
	BYTE		N36     Gn1   v092
	BYTE		N06     Cs2   v040
	BYTE	W12
	BYTE		N06   
	BYTE	W12
	BYTE		N06   
	BYTE	W12
	BYTE		N36     Gn1   v108
	BYTE		N06     Cs2   v040
	BYTE	W12
	BYTE		        Cs2   v044
	BYTE	W12
	BYTE		        Cs2   v036
	BYTE	W12
	BYTE		N24     Dn1   v112
	BYTE		N06     Cs2   v040
	BYTE	W12
	BYTE		        Cs2   v044
	BYTE	W12
// 099   ----------------------------------------
	BYTE		N36     Gn1   v088
	BYTE		N06     Cs2   v040
	BYTE	W12
	BYTE		N06   
	BYTE	W12
	BYTE		N06   
	BYTE	W12
	BYTE		N36     Gn1   v100
	BYTE		N06     Cs2   v040
	BYTE	W12
	BYTE		N06   
	BYTE	W12
	BYTE		N06   
	BYTE	W12
	BYTE		N24     Dn1   v108
	BYTE		N06     Cs2   v044
	BYTE	W12
	BYTE		        Cs2   v040
	BYTE	W12
// 100   ----------------------------------------
	BYTE		N36     Gn1   v096
	BYTE		N06     Cs2   v040
	BYTE	W12
	BYTE		N06   
	BYTE	W12
	BYTE		        Cs2   v032
	BYTE	W12
	BYTE		N36     Gn1   v100
	BYTE		N06     Cs2   v040
	BYTE	W12
	BYTE		N06   
	BYTE	W12
	BYTE		N06   
	BYTE	W12
	BYTE		N24     Dn1   v108
	BYTE		N06     Cs2   v040
	BYTE	W12
	BYTE		        Cs2   v044
	BYTE	W12
// 101   ----------------------------------------
	BYTE		N36     Gn1   v092
	BYTE		N06     Cs2   v036
	BYTE	W12
	BYTE		        Cs2   v040
	BYTE	W12
	BYTE		        Cs2   v036
	BYTE	W12
	BYTE		N36     Gn1   v100
	BYTE		N06     Cs2   v040
	BYTE	W12
	BYTE		N06   
	BYTE	W12
	BYTE		N06   
	BYTE	W12
	BYTE		N24     Dn1   v108
	BYTE		N06     Cs2   v044
	BYTE	W12
	BYTE		        Cs2   v040
	BYTE	W12
// 102   ----------------------------------------
	BYTE		N36     Gn1   v092
	BYTE		N06     Cs2   v040
	BYTE	W12
	BYTE		N06   
	BYTE	W12
	BYTE		N06   
	BYTE	W12
	BYTE		N36     Gn1   v096
	BYTE		N06     Cs2   v036
	BYTE	W12
	BYTE		        Cs2   v040
	BYTE	W12
	BYTE		N06   
	BYTE	W12
	BYTE		N24     Dn1   v108
	BYTE		N06     Cs2   v040
	BYTE	W12
	BYTE		N06   
	BYTE	W12
// 103   ----------------------------------------
	BYTE		N36     Gn1   v092
	BYTE		N06     Cs2   v036
	BYTE	W12
	BYTE		        Cs2   v040
	BYTE	W12
	BYTE		        Cs2   v044
	BYTE	W12
	BYTE		N36     Gn1   v092
	BYTE		N06     Cs2   v036
	BYTE	W12
	BYTE		N06   
	BYTE	W12
	BYTE		        Cs2   v040
	BYTE	W12
	BYTE		N24     Dn1   v108
	BYTE		N06     Cs2   v040
	BYTE	W12
	BYTE		        Cs2   v044
	BYTE	W12
// 104   ----------------------------------------
	BYTE		N36     Gn1   v092
	BYTE		N06     Cs2   v040
	BYTE	W12
	BYTE		        Cs2   v044
	BYTE	W12
	BYTE		N06   
	BYTE	W12
	BYTE		N36     Gn1   v096
	BYTE		N06     Cs2   v040
	BYTE	W12
	BYTE		        Cs2   v044
	BYTE	W12
	BYTE		        Cs2   v040
	BYTE	W12
	BYTE		N24     Dn1   v104
	BYTE		N06     Cs2   v040
	BYTE	W12
	BYTE		N06   
	BYTE	W12
// 105   ----------------------------------------
	BYTE		N36     Gn1   v096
	BYTE		N06     Cs2   v040
	BYTE	W12
	BYTE		N06   
	BYTE	W12
	BYTE		N06   
	BYTE	W12
	BYTE		N36     Gn1   v100
	BYTE		N06     Cs2   v040
	BYTE	W12
	BYTE		N06   
	BYTE	W12
	BYTE		        Cs2   v044
	BYTE	W12
	BYTE		N24     Dn1   v108
	BYTE		N06     Cs2   v044
	BYTE	W12
	BYTE		        Cs2   v040
	BYTE	W12
// 106   ----------------------------------------
	BYTE		N36     Gn1   v088
	BYTE		N06     Cs2   v044
	BYTE	W12
	BYTE		        Cs2   v040
	BYTE	W12
	BYTE		        Cs2   v044
	BYTE	W12
	BYTE		N36     Gn1   v100
	BYTE		N06     Cs2   v044
	BYTE	W12
	BYTE		N06   
	BYTE	W12
	BYTE		        Cs2   v036
	BYTE	W12
	BYTE		N24     Dn1   v108
	BYTE		N06     Cs2   v040
	BYTE	W12
	BYTE		        Cs2   v044
	BYTE	W12
// 107   ----------------------------------------
	BYTE		N36     Gn1   v096
	BYTE		N06     Cs2   v040
	BYTE	W12
	BYTE		N06   
	BYTE	W12
	BYTE		N06   
	BYTE	W12
	BYTE		N36     Gn1   v096
	BYTE		N06     Cs2   v040
	BYTE	W12
	BYTE		        Cs2   v044
	BYTE	W12
	BYTE		N06   
	BYTE	W12
	BYTE		N24     Dn1   v108
	BYTE		N06     Cs2   v040
	BYTE	W12
	BYTE		        Cs2   v048
	BYTE	W12
// 108   ----------------------------------------
	BYTE		N36     Gn1   v092
	BYTE		N24     Cs2   v040
	BYTE	W24
	BYTE		N36     Cs2   v108
	BYTE	W12
	BYTE		        Gn1   v100
	BYTE	W24
	BYTE		        Cs2   v116
	BYTE	W12
	BYTE		N24     Dn1   v108
	BYTE	W24
// 109   ----------------------------------------
	BYTE		N48     Cs2   v116
	BYTE		N06     Dn2   v112
	BYTE	W06
	BYTE		        Dn2   v100
	BYTE	W06
	BYTE		        Dn2   v096
	BYTE	W06
	BYTE		        Bn1   v092
	BYTE	W06
	BYTE		        Bn1   v096
	BYTE	W06
	BYTE		        Bn1   v100
	BYTE	W06
	BYTE		N06   
	BYTE	W06
	BYTE		        An1   v088
	BYTE	W06
	BYTE		        An1   v096
	BYTE	W06
	BYTE		N06   
	BYTE	W06
	BYTE		N06   
	BYTE	W06
	BYTE		        Gn1   v092
	BYTE	W06
	BYTE		        Gn1   v096
	BYTE	W06
	BYTE		        Gn1   v100
	BYTE	W06
	BYTE		        Gn1   v104
	BYTE	W06
	BYTE		        Fn1   v096
	BYTE	W06
// 110   ----------------------------------------
	BYTE		N12     Cs2   v040
	BYTE	W24
	BYTE		        Dn1   v092
	BYTE		N06     Cs2   v040
	BYTE	W12
	BYTE		N24     An1   v092
	BYTE		N06     Cs2   v040
	BYTE	W12
	BYTE		N06   
	BYTE	W12
	BYTE		N12     An1   v100
	BYTE		N06     Cs2   v044
	BYTE	W12
	BYTE		N12     Dn1   v104
	BYTE		N06     Cs2   v040
	BYTE	W12
	BYTE		N12     An1   v096
	BYTE		N06     Cs2   v040
	BYTE	W12
// 111   ----------------------------------------
	BYTE		N12   
	BYTE	W24
	BYTE		        Dn1   v084
	BYTE		N06     Cs2   v040
	BYTE	W12
	BYTE		N24     An1   v088
	BYTE		N06     Cs2   v040
	BYTE	W12
	BYTE		        Cs2   v036
	BYTE	W12
	BYTE		N12     An1   v100
	BYTE		N06     Cs2   v044
	BYTE	W12
	BYTE		N12     Dn1   v104
	BYTE		N06     Cs2   v040
	BYTE	W12
	BYTE		N12     An1   v092
	BYTE		N06     Cs2   v040
	BYTE	W12
// 112   ----------------------------------------
	BYTE		N12     Cs2   v044
	BYTE	W24
	BYTE		        Dn1   v088
	BYTE		N06     Cs2   v040
	BYTE	W12
	BYTE		N24     An1   v096
	BYTE		N06     Cs2   v040
	BYTE	W12
	BYTE		N06   
	BYTE	W12
	BYTE		N12     An1   v100
	BYTE		N06     Cs2   v040
	BYTE	W12
	BYTE		N12     Dn1   v108
	BYTE		N06     Cs2   v044
	BYTE	W12
	BYTE		N12     An1   v088
	BYTE		N06     Cs2   v044
	BYTE	W12
// 113   ----------------------------------------
	BYTE		N12     Cs2   v040
	BYTE	W24
	BYTE		        Dn1   v088
	BYTE		N06     Cs2   v044
	BYTE	W12
	BYTE		N24     An1   v096
	BYTE		N06     Cs2   v044
	BYTE	W12
	BYTE		        Cs2   v040
	BYTE	W12
	BYTE		N12     An1   v104
	BYTE		N06     Cs2   v036
	BYTE	W12
	BYTE		N12     Dn1   v104
	BYTE		N06     Cs2   v040
	BYTE	W12
	BYTE		N12     An1   v092
	BYTE		N06     Cs2   v040
	BYTE	W12
// 114   ----------------------------------------
	BYTE		N12     Cs2   v036
	BYTE	W24
	BYTE		        Dn1   v088
	BYTE		N06     Cs2   v040
	BYTE	W12
	BYTE		N24     An1   v092
	BYTE		N06     Cs2   v044
	BYTE	W12
	BYTE		N06   
	BYTE	W12
	BYTE		N12     An1   v100
	BYTE		N06     Cs2   v040
	BYTE	W12
	BYTE		N12     Dn1   v108
	BYTE		N06     Cs2   v044
	BYTE	W12
	BYTE		N12     An1   v096
	BYTE		N06     Cs2   v040
	BYTE	W12
// 115   ----------------------------------------
	BYTE		N12   
	BYTE	W24
	BYTE		        Dn1   v092
	BYTE		N06     Cs2   v040
	BYTE	W12
	BYTE		N24     An1   v096
	BYTE		N06     Cs2   v040
	BYTE	W12
	BYTE		        Cs2   v044
	BYTE	W12
	BYTE		N12     An1   v096
	BYTE		N06     Cs2   v036
	BYTE	W12
	BYTE		N12     Dn1   v104
	BYTE		N06     Cs2   v048
	BYTE	W12
	BYTE		N12     An1   v096
	BYTE		N06     Cs2   v040
	BYTE	W12
// 116   ----------------------------------------
	BYTE		N12     Cs2   v044
	BYTE	W24
	BYTE		        Dn1   v088
	BYTE		N06     Cs2   v040
	BYTE	W12
	BYTE		N24     An1   v092
	BYTE		N06     Cs2   v040
	BYTE	W12
	BYTE		N06   
	BYTE	W12
	BYTE		N12     An1   v104
	BYTE		N06     Cs2   v040
	BYTE	W12
	BYTE		N12     Dn1   v104
	BYTE		N06     Cs2   v044
	BYTE	W12
	BYTE		N12     An1   v096
	BYTE		N06     Cs2   v032
	BYTE	W12
// 117   ----------------------------------------
	BYTE		N24     Cs2   v088
	BYTE	W24
	BYTE		N07     Bn1 
	BYTE		N12     Cs2   v040
	BYTE	W07
	BYTE		N08     Bn1   v096
	BYTE	W05
	BYTE		N12     Cs2   v044
	BYTE	W03
	BYTE		N08     Bn1   v100
	BYTE	W09
	BYTE		N07     An1   v092
	BYTE		N06     Cs2   v040
	BYTE	W07
	BYTE		N08     An1   v100
	BYTE	W05
	BYTE		N06     Cs2   v040
	BYTE	W03
	BYTE		N08     An1   v100
	BYTE	W09
	BYTE		N07     Gn1   v096
	BYTE		N06     Cs2   v044
	BYTE	W07
	BYTE		N08     Gn1   v104
	BYTE	W05
	BYTE		N06     Cs2   v044
	BYTE	W03
	BYTE		N08     Gn1   v100
	BYTE	W09
// 118   ----------------------------------------
	BYTE		N12     Cs2   v044
	BYTE	W24
	BYTE		        Dn1   v088
	BYTE		N06     Cs2   v040
	BYTE	W12
	BYTE		N24     An1   v092
	BYTE		N06     Cs2   v040
	BYTE	W12
	BYTE		        Cs2   v036
	BYTE	W12
	BYTE		N12     An1   v104
	BYTE		N06     Cs2   v040
	BYTE	W12
	BYTE		N12     Dn1   v104
	BYTE		N06     Cs2   v032
	BYTE	W12
	BYTE		N12     An1   v096
	BYTE		N06     Cs2   v040
	BYTE	W12
// 119   ----------------------------------------
	BYTE		N12     Cs2   v036
	BYTE	W24
	BYTE		        Dn1   v088
	BYTE		N06     Cs2   v044
	BYTE	W12
	BYTE		N24     An1   v096
	BYTE		N06     Cs2   v040
	BYTE	W12
	BYTE		        Cs2   v044
	BYTE	W12
	BYTE		N12     An1   v096
	BYTE		N06     Cs2   v040
	BYTE	W12
	BYTE		N12     Dn1   v100
	BYTE		N06     Cs2   v040
	BYTE	W12
	BYTE		N12     An1   v096
	BYTE		N06     Cs2   v044
	BYTE	W12
// 120   ----------------------------------------
	BYTE		N12     Cs2   v040
	BYTE	W24
	BYTE		        Dn1   v092
	BYTE		N06     Cs2   v040
	BYTE	W12
	BYTE		N24     An1   v092
	BYTE		N06     Cs2   v040
	BYTE	W12
	BYTE		        Cs2   v036
	BYTE	W12
	BYTE		N12     An1   v100
	BYTE		N06     Cs2   v044
	BYTE	W12
	BYTE		N12     Dn1   v104
	BYTE		N06     Cs2   v040
	BYTE	W12
	BYTE		N12     An1   v096
	BYTE		N06     Cs2   v040
	BYTE	W12
// 121   ----------------------------------------
	BYTE		N12     Cs2   v044
	BYTE	W24
	BYTE		        Dn1   v092
	BYTE		N06     Cs2   v044
	BYTE	W12
	BYTE		N24     An1   v092
	BYTE		N06     Cs2   v044
	BYTE	W12
	BYTE		N06   
	BYTE	W12
	BYTE		N12     An1   v100
	BYTE		N06     Cs2   v040
	BYTE	W12
	BYTE		N12     Dn1   v100
	BYTE		N06     Cs2   v040
	BYTE	W12
	BYTE		N12     An1   v088
	BYTE		N06     Cs2   v044
	BYTE	W12
// 122   ----------------------------------------
	BYTE		N12     Cs2   v036
	BYTE	W24
	BYTE		        Dn1   v092
	BYTE		N06     Cs2   v044
	BYTE	W12
	BYTE		N24     An1   v092
	BYTE		N06     Cs2   v044
	BYTE	W12
	BYTE		        Cs2   v036
	BYTE	W12
	BYTE		N12     An1   v096
	BYTE		N06     Cs2   v040
	BYTE	W12
	BYTE		N12     Dn1   v104
	BYTE		N06     Cs2   v036
	BYTE	W12
	BYTE		N12     An1   v092
	BYTE		N06     Cs2   v044
	BYTE	W12
// 123   ----------------------------------------
	BYTE		N12     Cs2   v040
	BYTE	W24
	BYTE		        Dn1   v092
	BYTE		N06     Cs2   v040
	BYTE	W12
	BYTE		N24     An1   v092
	BYTE		N06     Cs2   v040
	BYTE	W12
	BYTE		N06   
	BYTE	W12
	BYTE		N12     An1   v100
	BYTE		N06     Cs2   v036
	BYTE	W12
	BYTE		N12     Dn1   v108
	BYTE		N06     Cs2   v036
	BYTE	W12
	BYTE		N12     An1   v092
	BYTE		N06     Cs2   v040
	BYTE	W12
// 124   ----------------------------------------
	BYTE		N12     Cs2   v036
	BYTE	W24
	BYTE		        Dn1   v088
	BYTE		N06     Cs2   v044
	BYTE	W12
	BYTE		N24     An1   v096
	BYTE		N06     Cs2   v040
	BYTE	W12
	BYTE		        Cs2   v044
	BYTE	W12
	BYTE		N12     An1   v100
	BYTE		N06     Cs2   v044
	BYTE	W12
	BYTE		N12     Dn1   v108
	BYTE		N06     Cs2   v044
	BYTE	W12
	BYTE		N12     An1   v096
	BYTE		N06     Cs2   v036
	BYTE	W12
// 125   ----------------------------------------
	BYTE		N12     Fn1   v088
	BYTE	W12
	BYTE		        Fn1   v096
	BYTE	W12
	BYTE		        Fn1   v100
	BYTE	W12
	BYTE		        Fn1   v104
	BYTE	W12
	BYTE		        Fn1   v100
	BYTE	W12
	BYTE		N12   
	BYTE	W12
	BYTE		        Fn1   v092
	BYTE	W12
	BYTE		        Fn1   v100
	BYTE	W12
// 126   ----------------------------------------
	BYTE		N12   
	BYTE	W12
	BYTE		N12   
	BYTE	W12
	BYTE		        Fn1   v096
	BYTE	W12
	BYTE		N12   
	BYTE	W12
	BYTE		        Fn1   v100
	BYTE	W12
	BYTE		        Fn1   v104
	BYTE	W12
	BYTE		        Fn1   v096
	BYTE	W12
	BYTE		N12   
	BYTE	W12
// 127   ----------------------------------------
	BYTE		        Fn1   v100
	BYTE	W12
	BYTE		N12   
	BYTE	W12
	BYTE		N12   
	BYTE	W12
	BYTE		        Fn1   v104
	BYTE	W12
	BYTE		N12   
	BYTE	W12
	BYTE		        Fn1   v100
	BYTE	W12
	BYTE		N12   
	BYTE	W12
	BYTE		        Fn1   v096
	BYTE	W12
// 128   ----------------------------------------
	BYTE		        Fn1   v100
	BYTE	W12
	BYTE		N12   
	BYTE	W12
	BYTE		N12   
	BYTE	W12
	BYTE		N12   
	BYTE	W12
	BYTE		N12   
	BYTE	W12
	BYTE		N12   
	BYTE	W12
	BYTE		        Fn1   v096
	BYTE	W12
	BYTE		        Fn1   v100
	BYTE	W12
// 129   ----------------------------------------
	BYTE		N12   
	BYTE	W12
	BYTE		N12   
	BYTE	W12
	BYTE		        Fn1   v096
	BYTE	W12
	BYTE		        Fn1   v100
	BYTE	W12
	BYTE		N12   
	BYTE	W12
	BYTE		        Fn1   v096
	BYTE	W12
	BYTE		        Fn1   v100
	BYTE	W12
	BYTE		N12   
	BYTE	W12
// 130   ----------------------------------------
	BYTE		N12   
	BYTE	W12
	BYTE		N12   
	BYTE	W12
	BYTE		N12   
	BYTE	W12
	BYTE		        Fn1   v096
	BYTE	W12
	BYTE		N12   
	BYTE	W12
	BYTE		        Fn1   v100
	BYTE	W12
	BYTE		N12   
	BYTE	W12
	BYTE		N12   
	BYTE	W12
// 131   ----------------------------------------
	BYTE		        Fn1   v104
	BYTE	W12
	BYTE		        Fn1   v096
	BYTE	W12
	BYTE		N12   
	BYTE	W12
	BYTE		N12   
	BYTE	W12
	BYTE		        Fn1   v100
	BYTE	W12
	BYTE		N12   
	BYTE	W12
	BYTE		N12   
	BYTE	W12
	BYTE		N12   
	BYTE	W12
// 132   ----------------------------------------
	BYTE		        Fn1   v096
	BYTE	W12
	BYTE		        Fn1   v100
	BYTE	W12
	BYTE		N12   
	BYTE	W12
	BYTE		N12   
	BYTE	W12
	BYTE		        Fn1   v096
	BYTE	W12
	BYTE		        Fn1   v100
	BYTE	W12
	BYTE		        Fn1   v104
	BYTE	W12
	BYTE		        Fn1   v100
	BYTE	W12
// 133   ----------------------------------------
	BYTE		N06     Dn2   v127
	BYTE	W06
	BYTE		        Dn2   v100
	BYTE	W06
	BYTE		N06   
	BYTE	W06
	BYTE		        Bn1   v096
	BYTE	W06
	BYTE		        Bn1   v104
	BYTE	W06
	BYTE		        Bn1   v100
	BYTE	W06
	BYTE		N06   
	BYTE	W06
	BYTE		        An1   v092
	BYTE	W06
	BYTE		        An1   v096
	BYTE	W06
	BYTE		        An1   v104
	BYTE	W06
	BYTE		        An1   v100
	BYTE	W06
	BYTE		        Gn1   v096
	BYTE	W06
	BYTE		N06   
	BYTE	W06
	BYTE		N06   
	BYTE	W06
	BYTE		N06   
	BYTE	W06
	BYTE		        Fn1   v092
	BYTE	W06
// 134   ----------------------------------------
	BYTE		N24     Cs2 
	BYTE	W24
	BYTE		N12     Dn1   v088
	BYTE		N12     Cs2   v040
	BYTE	W12
	BYTE		N24     An1   v092
	BYTE		N12     Cs2   v036
	BYTE	W12
	BYTE		N06     Cs2   v044
	BYTE	W12
	BYTE		N12     An1   v100
	BYTE		N06     Cs2   v044
	BYTE	W12
	BYTE		N12     Dn1   v100
	BYTE		N06     Cs2   v036
	BYTE	W12
	BYTE		N12     An1   v092
	BYTE		N06     Cs2   v040
	BYTE	W12
// 135   ----------------------------------------
	BYTE		N12     Cs2   v044
	BYTE	W24
	BYTE		        Dn1   v088
	BYTE		N06     Cs2   v036
	BYTE	W12
	BYTE		N24     An1   v096
	BYTE		N06     Cs2   v040
	BYTE	W12
	BYTE		N06   
	BYTE	W12
	BYTE		N12     An1   v096
	BYTE		N06     Cs2   v040
	BYTE	W12
	BYTE		N12     Dn1   v108
	BYTE		N06     Cs2   v040
	BYTE	W12
	BYTE		N12     An1   v096
	BYTE		N06     Cs2   v040
	BYTE	W12
// 136   ----------------------------------------
	BYTE		N12   
	BYTE	W24
	BYTE		        Dn1   v092
	BYTE		N06     Cs2   v044
	BYTE	W12
	BYTE		N24     An1   v092
	BYTE		N06     Cs2   v040
	BYTE	W12
	BYTE		N06   
	BYTE	W12
	BYTE		N12     An1   v096
	BYTE		N06     Cs2   v036
	BYTE	W12
	BYTE		N12     Dn1   v104
	BYTE		N06     Cs2   v044
	BYTE	W12
	BYTE		N12     An1   v092
	BYTE		N06     Cs2   v040
	BYTE	W12
// 137   ----------------------------------------
	BYTE		N12   
	BYTE	W24
	BYTE		        Dn1   v088
	BYTE		N06     Cs2   v044
	BYTE	W12
	BYTE		N24     An1   v096
	BYTE		N06     Cs2   v040
	BYTE	W12
	BYTE		        Cs2   v048
	BYTE	W12
	BYTE		N12     An1   v100
	BYTE		N06     Cs2   v040
	BYTE	W12
	BYTE		N12     Dn1   v108
	BYTE		N12     Cs2   v088
	BYTE	W12
	BYTE		        An1   v096
	BYTE		N12     Cs2   v036
	BYTE	W12
// 138   ----------------------------------------
	BYTE		N24     Cs2   v100
	BYTE	W24
	BYTE		N12     Dn1   v084
	BYTE		N12     Cs2   v040
	BYTE	W12
	BYTE		N24     An1   v096
	BYTE		N12     Cs2   v040
	BYTE	W12
	BYTE		        Cs2   v044
	BYTE	W12
	BYTE		        An1   v100
	BYTE		N12     Cs2   v036
	BYTE	W12
	BYTE		        Dn1   v104
	BYTE		N12     Cs2   v100
	BYTE	W12
	BYTE		        An1   v092
	BYTE		N12     Cs2   v040
	BYTE	W12
// 139   ----------------------------------------
	BYTE		N24     Cs2   v100
	BYTE	W24
	BYTE		N12     Dn1   v088
	BYTE		N12     Cs2   v040
	BYTE	W12
	BYTE		N24     An1   v096
	BYTE		N12     Cs2   v036
	BYTE	W12
	BYTE		        Cs2   v040
	BYTE	W12
	BYTE		        An1   v100
	BYTE		N12     Cs2   v040
	BYTE	W12
	BYTE		        Dn1   v104
	BYTE		N12     Cs2   v040
	BYTE	W12
	BYTE		        An1   v100
	BYTE		N12     Cs2   v044
	BYTE	W12
// 140   ----------------------------------------
	BYTE		N24     Cs2   v100
	BYTE	W24
	BYTE		N12     Dn1   v088
	BYTE		N12     Cs2   v040
	BYTE	W12
	BYTE		N24     An1   v092
	BYTE		N12     Cs2   v044
	BYTE	W12
	BYTE		        Cs2   v040
	BYTE	W12
	BYTE		        An1   v096
	BYTE		N12     Cs2   v044
	BYTE	W12
	BYTE		        Dn1   v104
	BYTE		N12     Cs2   v036
	BYTE	W12
	BYTE		        An1   v100
	BYTE		N12     Cs2   v040
	BYTE	W12
// 141   ----------------------------------------
	BYTE		N24     Cs2   v100
	BYTE	W12
	BYTE		N12     Bn1   v088
	BYTE	W12
	BYTE		        An1 
	BYTE		N12     Cs2   v040
	BYTE	W12
	BYTE		        An1   v096
	BYTE		N12     Cs2   v040
	BYTE	W12
	BYTE		        Gn1   v092
	BYTE		N12     Cs2   v044
	BYTE	W12
	BYTE		        Gn1   v096
	BYTE		N12     Cs2   v040
	BYTE	W12
	BYTE		        Fn1   v096
	BYTE		N12     Cs2   v040
	BYTE	W12
	BYTE		        Fn1   v100
	BYTE		N12     Cs2   v044
	BYTE	W12
// 142   ----------------------------------------
	BYTE		N24   
	BYTE	W24
	BYTE		N12     Dn1   v088
	BYTE		N12     Cs2   v044
	BYTE	W12
	BYTE		N24     An1   v092
	BYTE		N24     Cs2   v040
	BYTE	W24
	BYTE		N12     An1   v096
	BYTE		N12     Cs2   v040
	BYTE	W12
	BYTE		        Dn1   v108
	BYTE		N24     Cs2   v040
	BYTE	W12
	BYTE		N12     An1   v100
	BYTE	W12
// 143   ----------------------------------------
	BYTE		N24     Cs2   v036
	BYTE	W24
	BYTE		N12     Dn1   v088
	BYTE		N12     Cs2   v044
	BYTE	W12
	BYTE		N24     An1   v096
	BYTE		N24     Cs2   v044
	BYTE	W24
	BYTE		N12     An1   v096
	BYTE		N12     Cs2   v044
	BYTE	W12
	BYTE		        Dn1   v096
	BYTE		N24     Cs2   v044
	BYTE	W12
	BYTE		N12     An1   v092
	BYTE	W12
// 144   ----------------------------------------
	BYTE		N24     Cs2   v044
	BYTE	W24
	BYTE		N12     Dn1   v084
	BYTE		N12     Cs2   v036
	BYTE	W12
	BYTE		N24     An1   v088
	BYTE		N24     Cs2   v040
	BYTE	W24
	BYTE		N12     An1   v096
	BYTE		N12     Cs2   v044
	BYTE	W12
	BYTE		        Dn1   v108
	BYTE		N24     Cs2   v040
	BYTE	W12
	BYTE		N12     An1   v096
	BYTE	W12
// 145   ----------------------------------------
	BYTE		N24   
	BYTE		N24     Cs2   v044
	BYTE	W24
	BYTE		N12     An1   v096
	BYTE		N12     Cs2   v044
	BYTE	W12
	BYTE		        An1   v100
	BYTE		N24     Cs2   v044
	BYTE	W12
	BYTE		N12     Bn1   v112
	BYTE	W12
	BYTE		        Bn1   v108
	BYTE		N12     Cs2   v044
	BYTE	W12
	BYTE		        Dn1   v092
	BYTE		N24     Cs2   v044
	BYTE	W12
	BYTE		N06     Dn1   v100
	BYTE	W06
	BYTE		        Dn1   v096
	BYTE	W06
// 146   ----------------------------------------
	BYTE		N24     Cs2   v092
	BYTE	W24
	BYTE		N12     Dn1   v088
	BYTE		N12     Cs2   v040
	BYTE	W12
	BYTE		N24     An1   v092
	BYTE		N24     Cs2   v088
	BYTE	W24
	BYTE		N12     An1   v100
	BYTE		N12     Cs2   v040
	BYTE	W12
	BYTE		        Dn1   v108
	BYTE		N24     Cs2   v044
	BYTE	W12
	BYTE		N12     An1   v092
	BYTE	W12
// 147   ----------------------------------------
	BYTE		N24     Cs2   v088
	BYTE	W24
	BYTE		N12     Dn1 
	BYTE		N12     Cs2   v044
	BYTE	W12
	BYTE		N24     An1   v096
	BYTE		N24     Cs2   v088
	BYTE	W24
	BYTE		N12     An1   v100
	BYTE		N12     Cs2   v036
	BYTE	W12
	BYTE		N03     Dn1   v100
	BYTE		N24     Cs2   v096
	BYTE	W03
	BYTE		N03     Dn1   v100
	BYTE	W03
	BYTE		N03   
	BYTE	W03
	BYTE		N03   
	BYTE	W03
	BYTE		N03   
	BYTE	W03
	BYTE		N03   
	BYTE	W03
	BYTE		        Dn1   v096
	BYTE	W03
	BYTE		N03   
	BYTE	W03
// 148   ----------------------------------------
	BYTE		N24     Cs2   v100
	BYTE	W24
	BYTE		N12     Dn1   v088
	BYTE		N12     Cs2   v040
	BYTE	W12
	BYTE		N24     An1   v096
	BYTE		N24     Cs2   v088
	BYTE	W24
	BYTE		N12     An1   v104
	BYTE		N12     Cs2   v036
	BYTE	W12
	BYTE		        Dn1   v108
	BYTE		N24     Cs2   v040
	BYTE	W12
	BYTE		N12     An1   v096
	BYTE	W12
// 149   ----------------------------------------
	BYTE		N24     Cs2   v088
	BYTE	W24
	BYTE		N12     Dn1 
	BYTE		N12     Cs2   v040
	BYTE	W12
	BYTE		N24     An1   v092
	BYTE		N24     Cs2 
	BYTE	W24
	BYTE		N12     An1   v096
	BYTE		N12     Cs2   v040
	BYTE	W12
	BYTE		        Dn1   v104
	BYTE		N24     Cs2   v092
	BYTE	W12
	BYTE		N12     An1   v096
	BYTE	W12
// 150   ----------------------------------------
	BYTE	W96
// 151   ----------------------------------------
	BYTE		N24     An1   v100
	BYTE		N24     Cs2   v036
	BYTE	W24
	BYTE		        Cs2   v044
	BYTE	W24
	BYTE		        Cs2   v040
	BYTE	W24
	BYTE		        Cs2   v044
	BYTE	W24
// 152   ----------------------------------------
	BYTE		        Cs2   v040
	BYTE	W24
	BYTE		        Cs2   v044
	BYTE	W24
	BYTE	GoTo
	 POIN2	disillusion_10_B1
disillusion_10_B2:
	BYTE	FINE

//******************************************************//
	ALIGN 4

disillusion:
	BYTE	10	// NumTrks
	BYTE	0	// NumBlks
	BYTE	disillusion_pri	// Priority
	BYTE	disillusion_rev	// Reverb.

	POIN2	disillusion_grp

	POIN2	disillusion_1
	POIN2	disillusion_2
	POIN2	disillusion_3
	POIN2	disillusion_4
	POIN2	disillusion_5
	POIN2	disillusion_6
	POIN2	disillusion_7
	POIN2	disillusion_8
	POIN2	disillusion_9
	POIN2	disillusion_10

	
