//Event file generated from Sappy .s format.
	#include "MPlayDef.event"

	#define	song6D_grp  voicegroup776
	#define	song6D_pri  10
	#define	song6D_rev  0
	#define	song6D_mvl  127
	#define	song6D_key  0
	#define	song6D_tbs  1
	#define	song6D_exg  0
	#define	song6D_cmp  1

	// .rodata
	//	song6D
	ALIGN 4


//**************** Track 1 (Midi-Chn.0) ****************//

song6D_001:
// 000   ----------------------------------------
Label_0_018DC400:
 BYTE   KEYSH   song6D_key+0
 BYTE   VOICE   127
 BYTE   VOL   50*song6D_mvl/mxv
 BYTE   MODT 0
 BYTE   CsM2
 BYTE   TEMPO   300*song6D_tbs/2
 BYTE   VOICE   127
 BYTE   VOL   50*song6D_mvl/mxv
 BYTE   MODT 0
 BYTE   CsM2
 BYTE   VOL   51*song6D_mvl/mxv
 BYTE   N24  Cn1  v064
 BYTE   N24  Fs1  v064
 BYTE   N24  Cs2  v064
 BYTE   W24
 BYTE   N12  Gs1  v064
 BYTE   W12
 BYTE   N12  Gs1  v064
 BYTE   W12
 BYTE   N24  Cn1  v064
 BYTE   N24  Fs1  v064
 BYTE   W24
 BYTE   N12  Gs1  v064
 BYTE   W12
 BYTE   N12  Gs1  v064
 BYTE   W12
// 001   ----------------------------------------
 BYTE   N24  Cn1  v064
 BYTE   N24  Fs1  v064
 BYTE   W24
 BYTE   N12  Gs1  v064
 BYTE   W12
 BYTE   N12  Gs1  v064
 BYTE   W12
 BYTE   N24  Cn1  v064
 BYTE   N24  Fs1  v064
 BYTE   W24
 BYTE   N24  Dn1  v064
 BYTE   N08  Gs1  v064
 BYTE   N24  Gn2  v064
 BYTE   W08
 BYTE   N08  Gs1  v064
 BYTE   W08
 BYTE   N08  Gs1  v064
 BYTE   W08
// 002   ----------------------------------------
 BYTE   VOICE   127
 BYTE   VOL   50*song6D_mvl/mxv
 BYTE   MODT 0
 BYTE   CsM2
 BYTE   N24  Cn1  v064
 BYTE   N24  Fs1  v064
 BYTE   W24
 BYTE   N12  Gs1  v064
 BYTE   W12
 BYTE   N12  Gs1  v064
 BYTE   W12
 BYTE   N24  Cn1  v064
 BYTE   N24  Fs1  v064
 BYTE   W24
 BYTE   N12  Gs1  v064
 BYTE   W12
 BYTE   N12  Gs1  v064
 BYTE   W12
// 003   ----------------------------------------
 BYTE   N24  Cn1  v064
 BYTE   N24  Fs1  v064
 BYTE   W24
 BYTE   N12  Gs1  v064
 BYTE   W12
 BYTE   N12  Gs1  v064
 BYTE   W12
 BYTE   N24  Cn1  v064
 BYTE   N24  Fs1  v064
 BYTE   W24
 BYTE   N24  Dn1  v064
 BYTE   N24  As1  v064
 BYTE   N24  An2  v064
 BYTE   W24
// 004   ----------------------------------------
 BYTE   VOICE   127
 BYTE   VOL   50*song6D_mvl/mxv
 BYTE   MODT 0
 BYTE   CsM2
 BYTE   N24  Cn1  v064
 BYTE   N24  Fs1  v064
 BYTE   W24
 BYTE   N12  Gs1  v064
 BYTE   W12
 BYTE   N12  Gs1  v064
 BYTE   W12
 BYTE   N24  Cn1  v064
 BYTE   N24  Fs1  v064
 BYTE   W24
 BYTE   N12  Gs1  v064
 BYTE   W12
 BYTE   N12  Gs1  v064
 BYTE   W12
// 005   ----------------------------------------
 BYTE   N24  Cn1  v064
 BYTE   N24  Fs1  v064
 BYTE   W24
 BYTE   N12  Gs1  v064
 BYTE   W12
 BYTE   N12  Dn1  v064
 BYTE   N12  Gs1  v064
 BYTE   W12
 BYTE   N12  Dn1  v064
 BYTE   N08  Fs1  v064
 BYTE   W08
 BYTE   N08  Fs1  v064
 BYTE   W04
 BYTE   N12  Dn1  v064
 BYTE   W04
 BYTE   N08  Fs1  v064
 BYTE   W08
 BYTE   N12  An1  v064
 BYTE   N24  As1  v064
 BYTE   W12
 BYTE   N12  Fn1  v064
 BYTE   W12
// 006   ----------------------------------------
 BYTE   VOICE   127
 BYTE   VOL   50*song6D_mvl/mxv
 BYTE   MODT 0
 BYTE   CsM2
 BYTE   N24  Dn1  v064
 BYTE   N12  Fs1  v064
 BYTE   W12
 BYTE   N12  Gs1  v064
 BYTE   W12
 BYTE   N08  Cn1  v064
 BYTE   N24  As1  v064
 BYTE   W08
 BYTE   N08  Cn1  v064
 BYTE   W08
 BYTE   N08  Cn1  v064
 BYTE   W08
 BYTE   N24  Cn1  v064
 BYTE   N12  Fs1  v064
 BYTE   N24  An2  v064
 BYTE   W12
 BYTE   N12  Gs1  v064
 BYTE   W12
 BYTE   N24  Dn1  v064
 BYTE   N12  Fs1  v064
 BYTE   W24
// 007   ----------------------------------------
 BYTE   N24  Dn1  v064
 BYTE   N24  As1  v064
 BYTE   W24
 BYTE   N24  Cn1  v064
 BYTE   N24  Gn1  v064
 BYTE   N24  Cs2  v064
 BYTE   W24
 BYTE   N24  Dn1  v064
 BYTE   N24  Gs1  v064
 BYTE   W24
 BYTE   N24  Dn1  v064
 BYTE   N24  As1  v064
 BYTE   W24
// 008   ----------------------------------------
 BYTE   VOICE   127
 BYTE   VOL   50*song6D_mvl/mxv
 BYTE   MODT 0
 BYTE   CsM2
 BYTE   N24  Dn1  v064
 BYTE   N24  Fs1  v064
 BYTE   N24  En2  v064
 BYTE   W24
 BYTE   N24  Gs1  v064
 BYTE   N12  Dn2  v064
 BYTE   W12
 BYTE   N12  Dn2  v064
 BYTE   W12
 BYTE   N24  Cn1  v064
 BYTE   N24  Fs1  v064
 BYTE   N12  Cn2  v064
 BYTE   W12
 BYTE   N12  Cn2  v064
 BYTE   W12
 BYTE   N24  Gs1  v064
 BYTE   N12  An1  v064
 BYTE   W12
 BYTE   N12  Dn1  v064
 BYTE   N12  Gn1  v064
 BYTE   W12
// 009   ----------------------------------------
 BYTE   N12  Dn1  v064
 BYTE   N24  Fs1  v064
 BYTE   N24  An2  v064
 BYTE   W12
 BYTE   N12  Dn1  v064
 BYTE   W12
 BYTE   N24  Gn1  v064
 BYTE   N24  As1  v064
 BYTE   W24
 BYTE   N24  Fn1  v064
 BYTE   N08  Fs1  v064
 BYTE   W08
 BYTE   N08  Fs1  v064
 BYTE   W08
 BYTE   N08  Fs1  v064
 BYTE   W08
 BYTE   N12  Dn1  v064
 BYTE   N24  As1  v064
 BYTE   W12
 BYTE   N12  Dn1  v064
 BYTE   W12
// 010   ----------------------------------------
 BYTE   VOICE   127
 BYTE   VOL   50*song6D_mvl/mxv
 BYTE   MODT 0
 BYTE   CsM2
 BYTE   N24  Cn1  v064
 BYTE   N24  Fs1  v064
 BYTE   N24  Cs2  v064
 BYTE   W24
 BYTE   N12  Gs1  v064
 BYTE   W12
 BYTE   N12  Gs1  v064
 BYTE   W12
 BYTE   N24  Dn1  v064
 BYTE   N24  Fs1  v064
 BYTE   W24
 BYTE   N12  Gs1  v064
 BYTE   W12
 BYTE   N12  Gs1  v064
 BYTE   W12
// 011   ----------------------------------------
 BYTE   N24  Cn1  v064
 BYTE   N24  Fs1  v064
 BYTE   W24
 BYTE   N12  Gs1  v064
 BYTE   W12
 BYTE   N12  Gs1  v064
 BYTE   W12
 BYTE   N24  Dn1  v064
 BYTE   N24  Fs1  v064
 BYTE   W24
 BYTE   N12  Gs1  v064
 BYTE   W12
 BYTE   N12  Gs1  v064
 BYTE   W12
// 012   ----------------------------------------
 BYTE   VOICE   127
 BYTE   VOL   50*song6D_mvl/mxv
 BYTE   MODT 0
 BYTE   CsM2
 BYTE   N24  Cn1  v064
 BYTE   N24  Fs1  v064
 BYTE   W24
 BYTE   N12  Gs1  v064
 BYTE   W12
 BYTE   N12  Gs1  v064
 BYTE   W12
 BYTE   N24  Dn1  v064
 BYTE   N24  Fs1  v064
 BYTE   W24
 BYTE   N12  Gs1  v064
 BYTE   W12
 BYTE   N12  Gs1  v064
 BYTE   W12
// 013   ----------------------------------------
 BYTE   N24  Cn1  v064
 BYTE   N24  Fs1  v064
 BYTE   W24
 BYTE   N12  Gs1  v064
 BYTE   W12
 BYTE   N12  Gs1  v064
 BYTE   W12
 BYTE   N24  Dn1  v064
 BYTE   N24  Fs1  v064
 BYTE   W24
 BYTE   N12  Gs1  v064
 BYTE   W12
 BYTE   N12  Gs1  v064
 BYTE   W12
// 014   ----------------------------------------
 BYTE   VOICE   127
 BYTE   VOL   50*song6D_mvl/mxv
 BYTE   MODT 0
 BYTE   CsM2
 BYTE   N24  Cn1  v064
 BYTE   N24  Fs1  v064
 BYTE   W24
 BYTE   N12  Gs1  v064
 BYTE   W12
 BYTE   N12  Gs1  v064
 BYTE   W12
 BYTE   N24  Dn1  v064
 BYTE   N24  Fs1  v064
 BYTE   W24
 BYTE   N12  Gs1  v064
 BYTE   W12
 BYTE   N12  Gs1  v064
 BYTE   W12
// 015   ----------------------------------------
 BYTE   N24  Cn1  v064
 BYTE   N24  Fs1  v064
 BYTE   W24
 BYTE   N12  Gs1  v064
 BYTE   W12
 BYTE   N12  Gs1  v064
 BYTE   W12
 BYTE   N24  Dn1  v064
 BYTE   N24  Fs1  v064
 BYTE   W24
 BYTE   N12  Gs1  v064
 BYTE   W12
 BYTE   N12  Gs1  v064
 BYTE   W12
// 016   ----------------------------------------
 BYTE   VOICE   127
 BYTE   VOL   50*song6D_mvl/mxv
 BYTE   MODT 0
 BYTE   CsM2
 BYTE   N24  Cn1  v064
 BYTE   N24  Fs1  v064
 BYTE   W24
 BYTE   N12  Gs1  v064
 BYTE   W12
 BYTE   N12  Gs1  v064
 BYTE   W12
 BYTE   N24  Dn1  v064
 BYTE   N24  Fs1  v064
 BYTE   W24
 BYTE   N12  Gs1  v064
 BYTE   W12
 BYTE   N12  Gs1  v064
 BYTE   W12
// 017   ----------------------------------------
 BYTE   N24  Cn1  v064
 BYTE   N24  Fs1  v064
 BYTE   W24
 BYTE   N12  Gs1  v064
 BYTE   W12
 BYTE   N12  Gs1  v064
 BYTE   W12
 BYTE   N24  Dn1  v064
 BYTE   N24  Fs1  v064
 BYTE   W24
 BYTE   N24  As1  v064
 BYTE   W24
// 018   ----------------------------------------
 BYTE   VOICE   127
 BYTE   VOL   50*song6D_mvl/mxv
 BYTE   MODT 0
 BYTE   CsM2
 BYTE   N24  Cn1  v064
 BYTE   N24  Fs1  v064
 BYTE   W24
 BYTE   N12  Gs1  v064
 BYTE   W12
 BYTE   N12  Gs1  v064
 BYTE   W12
 BYTE   N24  Dn1  v064
 BYTE   N24  Fs1  v064
 BYTE   W24
 BYTE   N12  Gs1  v064
 BYTE   W12
 BYTE   N12  Gs1  v064
 BYTE   W12
// 019   ----------------------------------------
 BYTE   N24  Cn1  v064
 BYTE   N24  Fs1  v064
 BYTE   W24
 BYTE   N12  Gs1  v064
 BYTE   W12
 BYTE   N12  Gs1  v064
 BYTE   W12
 BYTE   N24  Dn1  v064
 BYTE   N24  Fs1  v064
 BYTE   W24
 BYTE   N12  Gs1  v064
 BYTE   W12
 BYTE   N12  Gs1  v064
 BYTE   W12
// 020   ----------------------------------------
 BYTE   VOICE   127
 BYTE   VOL   50*song6D_mvl/mxv
 BYTE   MODT 0
 BYTE   CsM2
 BYTE   N24  Cn1  v064
 BYTE   N24  Fs1  v064
 BYTE   W24
 BYTE   N12  Gs1  v064
 BYTE   W12
 BYTE   N12  Gs1  v064
 BYTE   W12
 BYTE   N24  Dn1  v064
 BYTE   N24  Fs1  v064
 BYTE   W24
 BYTE   N12  Gs1  v064
 BYTE   W12
 BYTE   N12  Gs1  v064
 BYTE   W12
// 021   ----------------------------------------
 BYTE   N24  Cn1  v064
 BYTE   N24  Fs1  v064
 BYTE   W24
 BYTE   N12  Gs1  v064
 BYTE   W12
 BYTE   N12  Gs1  v064
 BYTE   W12
 BYTE   N24  Dn1  v064
 BYTE   N24  Fs1  v064
 BYTE   W24
 BYTE   N12  Gs1  v064
 BYTE   W12
 BYTE   N12  Gs1  v064
 BYTE   W12
// 022   ----------------------------------------
 BYTE   VOICE   127
 BYTE   VOL   50*song6D_mvl/mxv
 BYTE   MODT 0
 BYTE   CsM2
 BYTE   N24  Cn1  v064
 BYTE   N12  Fs1  v064
 BYTE   N24  An2  v064
 BYTE   W12
 BYTE   N12  Fs1  v064
 BYTE   W12
 BYTE   N24  As1  v064
 BYTE   W12
 BYTE   N12  Dn1  v064
 BYTE   W12
 BYTE   N12  Dn1  v064
 BYTE   N24  Gs1  v064
 BYTE   W12
 BYTE   N12  Dn1  v064
 BYTE   W12
 BYTE   N12  Fs1  v064
 BYTE   N24  Gn1  v064
 BYTE   W12
 BYTE   N12  Gs1  v064
 BYTE   W12
// 023   ----------------------------------------
 BYTE   N24  Cn1  v064
 BYTE   N12  Fs1  v064
 BYTE   N24  Gn2  v064
 BYTE   W12
 BYTE   N12  Fs1  v064
 BYTE   W12
 BYTE   N24  As1  v064
 BYTE   W12
 BYTE   N12  Dn1  v064
 BYTE   W12
 BYTE   N12  Dn1  v064
 BYTE   N24  Gs1  v064
 BYTE   W12
 BYTE   N12  An1  v064
 BYTE   W12
 BYTE   N12  Fs1  v064
 BYTE   N12  Gn1  v064
 BYTE   W12
 BYTE   N12  Fn1  v064
 BYTE   N12  Gs1  v064
 BYTE   W12
// 024   ----------------------------------------
 BYTE   VOICE   127
 BYTE   VOL   50*song6D_mvl/mxv
 BYTE   MODT 0
 BYTE   CsM2
 BYTE   N24  Cn1  v064
 BYTE   N24  As1  v052
 BYTE   N24  Cs2  v064
 BYTE   W24
 BYTE   N12  Dn1  v064
 BYTE   W12
 BYTE   N12  Dn1  v064
 BYTE   W12
 BYTE   N24  Dn1  v064
 BYTE   N24  As1  v060
 BYTE   N24  En2  v064
 BYTE   W24
 BYTE   N24  Cn1  v064
 BYTE   N24  Dn1  v064
 BYTE   N24  An2  v064
 BYTE   W24
// 025   ----------------------------------------
 BYTE   N24  As1  v064
 BYTE   W24
 BYTE   N12  Dn1  v064
 BYTE   W12
 BYTE   N12  Dn1  v064
 BYTE   W12
 BYTE   N12  Dn1  v064
 BYTE   N08  Fs1  v064
 BYTE   W08
 BYTE   N08  Fs1  v064
 BYTE   W04
 BYTE   N12  Cn2  v064
 BYTE   W04
 BYTE   N08  Fs1  v064
 BYTE   W08
 BYTE   N24  As1  v064
 BYTE   N12  Bn1  v064
 BYTE   W12
 BYTE   N12  An1  v064
 BYTE   W12
// 026   ----------------------------------------
 BYTE   VOICE   127
 BYTE   VOL   50*song6D_mvl/mxv
 BYTE   MODT 0
 BYTE   CsM2
 BYTE   N24  Cn1  v064
 BYTE   N24  Fs1  v064
 BYTE   N24  Cs2  v064
 BYTE   W24
 BYTE   N12  Gs1  v064
 BYTE   W12
 BYTE   N12  Gs1  v064
 BYTE   W12
 BYTE   N24  Dn1  v064
 BYTE   N24  Fs1  v064
 BYTE   W24
 BYTE   N12  Gs1  v064
 BYTE   W12
 BYTE   N12  Gs1  v064
 BYTE   W12
// 027   ----------------------------------------
 BYTE   N24  Cn1  v064
 BYTE   N24  Fs1  v064
 BYTE   W24
 BYTE   N12  Gs1  v064
 BYTE   W12
 BYTE   N12  Gs1  v064
 BYTE   W12
 BYTE   N24  Dn1  v064
 BYTE   N24  Fs1  v064
 BYTE   W24
 BYTE   N12  Gs1  v064
 BYTE   W12
 BYTE   N12  Gs1  v064
 BYTE   W12
// 028   ----------------------------------------
 BYTE   VOICE   127
 BYTE   VOL   50*song6D_mvl/mxv
 BYTE   MODT 0
 BYTE   CsM2
 BYTE   N24  Cn1  v064
 BYTE   N24  Fs1  v064
 BYTE   W24
 BYTE   N12  Gs1  v064
 BYTE   W12
 BYTE   N12  Gs1  v064
 BYTE   W12
 BYTE   N24  Dn1  v064
 BYTE   N24  Fs1  v064
 BYTE   W24
 BYTE   N12  Gs1  v064
 BYTE   W12
 BYTE   N12  Gs1  v064
 BYTE   W12
// 029   ----------------------------------------
 BYTE   N24  Cn1  v064
 BYTE   N24  Fs1  v064
 BYTE   W24
 BYTE   N12  Gs1  v064
 BYTE   W12
 BYTE   N12  Gs1  v064
 BYTE   W12
 BYTE   N24  Dn1  v064
 BYTE   N24  Fs1  v064
 BYTE   W24
 BYTE   N12  Gs1  v064
 BYTE   W12
 BYTE   N12  Gs1  v064
 BYTE   W12
// 030   ----------------------------------------
 BYTE   VOICE   127
 BYTE   VOL   50*song6D_mvl/mxv
 BYTE   MODT 0
 BYTE   CsM2
 BYTE   N24  Cn1  v064
 BYTE   N24  Fs1  v064
 BYTE   W24
 BYTE   N12  Gs1  v064
 BYTE   W12
 BYTE   N12  Gs1  v064
 BYTE   W12
 BYTE   N24  Dn1  v064
 BYTE   N24  Fs1  v064
 BYTE   W24
 BYTE   N12  Gs1  v064
 BYTE   W12
 BYTE   N12  Gs1  v064
 BYTE   W12
// 031   ----------------------------------------
 BYTE   N24  Cn1  v064
 BYTE   N24  Fs1  v064
 BYTE   W24
 BYTE   N12  Gs1  v064
 BYTE   W12
 BYTE   N12  Gs1  v064
 BYTE   W12
 BYTE   N24  Dn1  v064
 BYTE   N24  Fs1  v064
 BYTE   W24
 BYTE   N12  Gs1  v064
 BYTE   W12
 BYTE   N12  Gs1  v064
 BYTE   W12
// 032   ----------------------------------------
 BYTE   VOICE   127
 BYTE   VOL   50*song6D_mvl/mxv
 BYTE   MODT 0
 BYTE   CsM2
 BYTE   N24  Cn1  v064
 BYTE   N24  Fs1  v064
 BYTE   W24
 BYTE   N12  Gs1  v064
 BYTE   W12
 BYTE   N12  Gs1  v064
 BYTE   W12
 BYTE   N24  Dn1  v064
 BYTE   N24  Fs1  v064
 BYTE   W24
 BYTE   N12  Gs1  v064
 BYTE   W12
 BYTE   N12  Gs1  v064
 BYTE   W12
// 033   ----------------------------------------
 BYTE   N24  Cn1  v064
 BYTE   N24  Fs1  v064
 BYTE   W24
 BYTE   N12  Gs1  v064
 BYTE   W12
 BYTE   N12  Gs1  v064
 BYTE   W12
 BYTE   N24  Dn1  v064
 BYTE   N24  Fs1  v064
 BYTE   W24
 BYTE   N24  As1  v064
 BYTE   W24
// 034   ----------------------------------------
 BYTE   VOICE   127
 BYTE   VOL   50*song6D_mvl/mxv
 BYTE   MODT 0
 BYTE   CsM2
 BYTE   N24  Cn1  v064
 BYTE   N24  Fs1  v064
 BYTE   W24
 BYTE   N12  Gs1  v064
 BYTE   W12
 BYTE   N12  Gs1  v064
 BYTE   W12
 BYTE   N24  Dn1  v064
 BYTE   N24  Fs1  v064
 BYTE   W24
 BYTE   N12  Gs1  v064
 BYTE   W12
 BYTE   N12  Gs1  v064
 BYTE   W12
// 035   ----------------------------------------
 BYTE   N24  Cn1  v064
 BYTE   N24  Fs1  v064
 BYTE   W24
 BYTE   N12  Gs1  v064
 BYTE   W12
 BYTE   N12  Gs1  v064
 BYTE   W12
 BYTE   N24  Dn1  v064
 BYTE   N24  Fs1  v064
 BYTE   W24
 BYTE   N12  Gs1  v064
 BYTE   W12
 BYTE   N12  Gs1  v064
 BYTE   W12
// 036   ----------------------------------------
 BYTE   VOICE   127
 BYTE   VOL   50*song6D_mvl/mxv
 BYTE   MODT 0
 BYTE   CsM2
 BYTE   N24  Cn1  v064
 BYTE   N24  Fs1  v064
 BYTE   W24
 BYTE   N12  Gs1  v064
 BYTE   W12
 BYTE   N12  Gs1  v064
 BYTE   W12
 BYTE   N24  Dn1  v064
 BYTE   N24  Fs1  v064
 BYTE   W24
 BYTE   N12  Gs1  v064
 BYTE   W12
 BYTE   N12  Gs1  v064
 BYTE   W12
// 037   ----------------------------------------
 BYTE   N24  Cn1  v064
 BYTE   N24  Fs1  v064
 BYTE   W24
 BYTE   N12  Gs1  v064
 BYTE   W12
 BYTE   N12  Gs1  v064
 BYTE   W12
 BYTE   N24  Dn1  v064
 BYTE   N24  Fs1  v064
 BYTE   W24
 BYTE   N12  Gs1  v064
 BYTE   W12
 BYTE   N12  Gs1  v064
 BYTE   W12
// 038   ----------------------------------------
 BYTE   VOICE   127
 BYTE   VOL   50*song6D_mvl/mxv
 BYTE   MODT 0
 BYTE   CsM2
 BYTE   N24  Cn1  v064
 BYTE   N12  Fs1  v064
 BYTE   N24  An2  v064
 BYTE   W12
 BYTE   N12  Fs1  v064
 BYTE   W12
 BYTE   N12  Dn1  v064
 BYTE   N24  As1  v064
 BYTE   W12
 BYTE   N12  Dn1  v064
 BYTE   W12
 BYTE   N12  Dn1  v064
 BYTE   N24  Gs1  v064
 BYTE   W12
 BYTE   N24  Gn1  v064
 BYTE   W12
 BYTE   N12  Fs1  v064
 BYTE   W12
 BYTE   N24  Fn1  v064
 BYTE   N12  Gs1  v064
 BYTE   W12
// 039   ----------------------------------------
 BYTE   N24  Cn1  v064
 BYTE   N12  Fs1  v064
 BYTE   N24  Gn2  v064
 BYTE   W12
 BYTE   N12  Fs1  v064
 BYTE   W12
 BYTE   N24  As1  v064
 BYTE   W12
 BYTE   N12  Dn1  v064
 BYTE   W12
 BYTE   N12  Dn1  v064
 BYTE   N24  Gs1  v064
 BYTE   W24
 BYTE   N12  Dn1  v064
 BYTE   N12  Fs1  v064
 BYTE   W12
 BYTE   N12  Dn1  v064
 BYTE   N12  Gs1  v064
 BYTE   W12
// 040   ----------------------------------------
 BYTE   VOICE   127
 BYTE   VOL   50*song6D_mvl/mxv
 BYTE   MODT 0
 BYTE   CsM2
 BYTE   N24  Cn1  v064
 BYTE   N24  As1  v052
 BYTE   N24  Cs2  v064
 BYTE   W24
 BYTE   N12  Dn1  v064
 BYTE   W12
 BYTE   N12  Dn1  v064
 BYTE   W12
 BYTE   N24  Dn1  v064
 BYTE   N24  As1  v060
 BYTE   N24  En2  v064
 BYTE   W12
 BYTE   N24  Gn1  v064
 BYTE   W12
 BYTE   N24  Cn1  v064
 BYTE   N24  An2  v064
 BYTE   W24
// 041   ----------------------------------------
 BYTE   N24  As1  v064
 BYTE   W24
 BYTE   N24  Cn1  v064
 BYTE   N24  Cs2  v064
 BYTE   W24
 BYTE   N08  Fs1  v064
 BYTE   W08
 BYTE   N08  Fs1  v064
 BYTE   W04
 BYTE   N24  Cn1  v064
 BYTE   N24  An2  v064
 BYTE   W04
 BYTE   N08  Fs1  v064
 BYTE   W08
 BYTE   N24  As1  v064
 BYTE   W24
// 042   ----------------------------------------
 BYTE   VOICE   127
 BYTE   VOL   50*song6D_mvl/mxv
 BYTE   MODT 0
 BYTE   CsM2
 BYTE   N24  Bn0  v064
 BYTE   N24  Fs1  v064
 BYTE   N24  Cs2  v064
 BYTE   W24
 BYTE   N12  Gs1  v064
 BYTE   W12
 BYTE   N12  Gs1  v064
 BYTE   W12
 BYTE   N24  Dn1  v064
 BYTE   N24  Fs1  v064
 BYTE   W24
 BYTE   N12  Gs1  v064
 BYTE   W12
 BYTE   N12  Gs1  v064
 BYTE   W12
// 043   ----------------------------------------
 BYTE   N24  Bn0  v064
 BYTE   N24  Fs1  v064
 BYTE   W24
 BYTE   N12  Gs1  v064
 BYTE   W12
 BYTE   N12  Gs1  v064
 BYTE   W12
 BYTE   N24  Dn1  v064
 BYTE   N24  Fs1  v064
 BYTE   W24
 BYTE   N12  Gs1  v064
 BYTE   W12
 BYTE   N12  Gs1  v064
 BYTE   W12
// 044   ----------------------------------------
 BYTE   VOICE   127
 BYTE   VOL   50*song6D_mvl/mxv
 BYTE   MODT 0
 BYTE   CsM2
 BYTE   N24  Bn0  v064
 BYTE   N24  Fs1  v064
 BYTE   W24
 BYTE   N12  Gs1  v064
 BYTE   W12
 BYTE   N12  Gs1  v064
 BYTE   W12
 BYTE   N24  Dn1  v064
 BYTE   N24  Fs1  v064
 BYTE   W24
 BYTE   N12  Gs1  v064
 BYTE   W12
 BYTE   N12  Gs1  v064
 BYTE   W12
// 045   ----------------------------------------
 BYTE   N24  Bn0  v064
 BYTE   N24  Fs1  v064
 BYTE   W24
 BYTE   N12  Gs1  v064
 BYTE   W12
 BYTE   N12  Gs1  v064
 BYTE   W12
 BYTE   N24  Dn1  v064
 BYTE   N24  Fs1  v064
 BYTE   W24
 BYTE   N12  Gs1  v064
 BYTE   W12
 BYTE   N12  Gs1  v064
 BYTE   W12
// 046   ----------------------------------------
 BYTE   VOICE   127
 BYTE   VOL   50*song6D_mvl/mxv
 BYTE   MODT 0
 BYTE   CsM2
 BYTE   N24  Bn0  v064
 BYTE   N24  Fs1  v064
 BYTE   W24
 BYTE   N12  Gs1  v064
 BYTE   W12
 BYTE   N12  Gs1  v064
 BYTE   W12
 BYTE   N24  Dn1  v064
 BYTE   N24  Fs1  v064
 BYTE   W24
 BYTE   N12  Gs1  v064
 BYTE   W12
 BYTE   N12  Gs1  v064
 BYTE   W12
// 047   ----------------------------------------
 BYTE   N24  Bn0  v064
 BYTE   N24  Fs1  v064
 BYTE   W24
 BYTE   N12  Gs1  v064
 BYTE   W12
 BYTE   N12  Gs1  v064
 BYTE   W12
 BYTE   N24  Dn1  v064
 BYTE   N24  Fs1  v064
 BYTE   W24
 BYTE   N12  Gs1  v064
 BYTE   W12
 BYTE   N12  Gs1  v064
 BYTE   W12
// 048   ----------------------------------------
 BYTE   VOICE   127
 BYTE   VOL   50*song6D_mvl/mxv
 BYTE   MODT 0
 BYTE   CsM2
 BYTE   N24  Bn0  v064
 BYTE   N24  Fs1  v064
 BYTE   W24
 BYTE   N12  Gs1  v064
 BYTE   W12
 BYTE   N12  Gs1  v064
 BYTE   W12
 BYTE   N24  Dn1  v064
 BYTE   N24  Fs1  v064
 BYTE   W24
 BYTE   N12  Gs1  v064
 BYTE   W12
 BYTE   N12  Gs1  v064
 BYTE   W12
// 049   ----------------------------------------
 BYTE   N24  Bn0  v064
 BYTE   N24  Fs1  v064
 BYTE   W24
 BYTE   N24  Bn0  v064
 BYTE   N12  Gs1  v064
 BYTE   W12
 BYTE   N12  Gs1  v064
 BYTE   W12
 BYTE   N24  Dn1  v064
 BYTE   N24  Fs1  v064
 BYTE   W24
 BYTE   N12  Dn1  v064
 BYTE   N24  As1  v064
 BYTE   W12
 BYTE   N12  Dn1  v064
 BYTE   W12
// 050   ----------------------------------------
 BYTE   VOICE   127
 BYTE   VOL   50*song6D_mvl/mxv
 BYTE   MODT 0
 BYTE   CsM2
 BYTE   N24  Bn0  v064
 BYTE   N24  Fs1  v064
 BYTE   N24  An2  v064
 BYTE   W24
 BYTE   N12  Gs1  v064
 BYTE   W12
 BYTE   N12  Gs1  v064
 BYTE   W12
 BYTE   N24  Dn1  v064
 BYTE   N24  Fs1  v064
 BYTE   W24
 BYTE   N12  Gs1  v064
 BYTE   W12
 BYTE   N12  Gs1  v064
 BYTE   W12
// 051   ----------------------------------------
 BYTE   N24  Bn0  v064
 BYTE   N24  Fs1  v064
 BYTE   W24
 BYTE   N12  Gs1  v064
 BYTE   W12
 BYTE   N12  Gs1  v064
 BYTE   W12
 BYTE   N24  Dn1  v064
 BYTE   N24  Fs1  v064
 BYTE   W24
 BYTE   N12  Gs1  v064
 BYTE   W12
 BYTE   N12  Gs1  v064
 BYTE   W12
// 052   ----------------------------------------
 BYTE   VOICE   127
 BYTE   VOL   50*song6D_mvl/mxv
 BYTE   MODT 0
 BYTE   CsM2
 BYTE   N24  Bn0  v064
 BYTE   N24  Fs1  v064
 BYTE   W24
 BYTE   N12  Gs1  v064
 BYTE   W12
 BYTE   N12  Gs1  v064
 BYTE   W12
 BYTE   N24  Dn1  v064
 BYTE   N24  Fs1  v064
 BYTE   W24
 BYTE   N12  Gs1  v064
 BYTE   W12
 BYTE   N12  Gs1  v064
 BYTE   W12
// 053   ----------------------------------------
 BYTE   N24  Bn0  v064
 BYTE   N24  Fs1  v064
 BYTE   W24
 BYTE   N12  Gs1  v064
 BYTE   W12
 BYTE   N12  Gs1  v064
 BYTE   W12
 BYTE   N24  Dn1  v064
 BYTE   N24  Fs1  v064
 BYTE   W24
 BYTE   N12  Gs1  v064
 BYTE   W12
 BYTE   N12  Gs1  v064
 BYTE   W12
// 054   ----------------------------------------
 BYTE   VOICE   127
 BYTE   VOL   50*song6D_mvl/mxv
 BYTE   MODT 0
 BYTE   CsM2
 BYTE   N24  Bn0  v064
 BYTE   N24  Fs1  v064
 BYTE   W24
 BYTE   N12  Gs1  v064
 BYTE   W12
 BYTE   N12  Gs1  v064
 BYTE   W12
 BYTE   N24  Dn1  v064
 BYTE   N24  Fs1  v064
 BYTE   W24
 BYTE   N12  Gs1  v064
 BYTE   W12
 BYTE   N12  Gs1  v064
 BYTE   W12
// 055   ----------------------------------------
 BYTE   N24  Bn0  v064
 BYTE   N24  Fs1  v064
 BYTE   W24
 BYTE   N12  Gs1  v064
 BYTE   W12
 BYTE   N12  Gs1  v064
 BYTE   W12
 BYTE   N24  Dn1  v064
 BYTE   N24  Fs1  v064
 BYTE   W24
 BYTE   N12  Gs1  v064
 BYTE   W12
 BYTE   N12  Gs1  v064
 BYTE   W12
// 056   ----------------------------------------
 BYTE   VOICE   127
 BYTE   VOL   50*song6D_mvl/mxv
 BYTE   MODT 0
 BYTE   CsM2
 BYTE   N24  Bn0  v064
 BYTE   N24  Fs1  v064
 BYTE   W24
 BYTE   N12  Gs1  v064
 BYTE   W12
 BYTE   N12  Gs1  v064
 BYTE   W12
 BYTE   N24  Dn1  v064
 BYTE   N24  Fs1  v064
 BYTE   W24
 BYTE   N12  Gs1  v064
 BYTE   W12
 BYTE   N12  Gs1  v064
 BYTE   W12
// 057   ----------------------------------------
 BYTE   N24  Bn0  v064
 BYTE   N24  Fs1  v064
 BYTE   W24
 BYTE   N24  Bn0  v064
 BYTE   N12  Gs1  v064
 BYTE   W12
 BYTE   N12  Gs1  v064
 BYTE   W12
 BYTE   N12  Dn1  v064
 BYTE   N24  Fs1  v064
 BYTE   W12
 BYTE   N12  Dn1  v064
 BYTE   W12
 BYTE   N12  Dn1  v064
 BYTE   N24  As1  v064
 BYTE   W24
// 058   ----------------------------------------
 BYTE   VOICE   127
 BYTE   VOL   50*song6D_mvl/mxv
 BYTE   MODT 0
 BYTE   CsM2
 BYTE   N24  Bn0  v064
 BYTE   N24  Fs1  v064
 BYTE   N24  An2  v064
 BYTE   W24
 BYTE   N12  Gs1  v064
 BYTE   W12
 BYTE   N12  Gs1  v064
 BYTE   W12
 BYTE   N24  Dn1  v064
 BYTE   N24  Fs1  v064
 BYTE   W24
 BYTE   N12  Gs1  v064
 BYTE   W12
 BYTE   N12  Gs1  v064
 BYTE   W12
// 059   ----------------------------------------
 BYTE   N24  Bn0  v064
 BYTE   N24  Fs1  v064
 BYTE   W24
 BYTE   N24  Bn0  v064
 BYTE   N12  Gs1  v064
 BYTE   W12
 BYTE   N12  Gs1  v064
 BYTE   W12
 BYTE   N24  Dn1  v064
 BYTE   N24  Fs1  v064
 BYTE   W24
 BYTE   N12  Gs1  v064
 BYTE   W12
 BYTE   N12  Gs1  v064
 BYTE   W12
// 060   ----------------------------------------
 BYTE   VOICE   127
 BYTE   VOL   50*song6D_mvl/mxv
 BYTE   MODT 0
 BYTE   CsM2
 BYTE   N24  Bn0  v064
 BYTE   N24  Fs1  v064
 BYTE   W24
 BYTE   N12  Gs1  v064
 BYTE   W12
 BYTE   N12  Gs1  v064
 BYTE   W12
 BYTE   N24  Dn1  v064
 BYTE   N24  Fs1  v064
 BYTE   W24
 BYTE   N12  Gs1  v064
 BYTE   W12
 BYTE   N12  Gs1  v064
 BYTE   W12
// 061   ----------------------------------------
 BYTE   N24  Bn0  v064
 BYTE   N24  Fs1  v064
 BYTE   W24
 BYTE   N24  Bn0  v064
 BYTE   N12  Gs1  v064
 BYTE   W12
 BYTE   N12  Gs1  v064
 BYTE   W12
 BYTE   N24  Dn1  v064
 BYTE   N12  Fs1  v064
 BYTE   W12
 BYTE   N12  Gs1  v064
 BYTE   W12
 BYTE   N24  As1  v064
 BYTE   W24
// 062   ----------------------------------------
 BYTE   VOICE   127
 BYTE   VOL   50*song6D_mvl/mxv
 BYTE   MODT 0
 BYTE   CsM2
 BYTE   N24  Bn0  v064
 BYTE   N24  Fs1  v064
 BYTE   N24  An2  v064
 BYTE   W24
 BYTE   N12  Gs1  v064
 BYTE   W12
 BYTE   N12  Gs1  v064
 BYTE   W12
 BYTE   N24  Dn1  v064
 BYTE   N24  Fs1  v064
 BYTE   W24
 BYTE   N12  Gs1  v064
 BYTE   W12
 BYTE   N12  Gs1  v064
 BYTE   W12
// 063   ----------------------------------------
 BYTE   N24  Bn0  v064
 BYTE   N24  Fs1  v064
 BYTE   W24
 BYTE   N24  Bn0  v064
 BYTE   N12  Gs1  v064
 BYTE   W12
 BYTE   N12  Gs1  v064
 BYTE   W12
 BYTE   N24  Dn1  v064
 BYTE   N24  Fs1  v064
 BYTE   W24
 BYTE   N12  Gs1  v064
 BYTE   W12
 BYTE   N12  Gs1  v064
 BYTE   W12
// 064   ----------------------------------------
 BYTE   VOICE   127
 BYTE   VOL   50*song6D_mvl/mxv
 BYTE   MODT 0
 BYTE   CsM2
 BYTE   N24  Bn0  v064
 BYTE   N24  Fs1  v064
 BYTE   W24
 BYTE   N12  Gs1  v064
 BYTE   W12
 BYTE   N12  Gs1  v064
 BYTE   W12
 BYTE   N24  Dn1  v064
 BYTE   N24  Fs1  v064
 BYTE   W24
 BYTE   N12  Gs1  v064
 BYTE   W12
 BYTE   N12  Gs1  v064
 BYTE   W12
// 065   ----------------------------------------
 BYTE   N24  Bn0  v064
 BYTE   N24  Fs1  v064
 BYTE   W24
 BYTE   N24  Bn0  v064
 BYTE   N12  Gs1  v064
 BYTE   W12
 BYTE   N12  Gs1  v064
 BYTE   W12
 BYTE   N12  Dn1  v064
 BYTE   N08  Fs1  v064
 BYTE   W08
 BYTE   N01  Fs1  v064
 BYTE   W04
 BYTE   N12  Dn1  v064
 BYTE   W04
 BYTE   N08  Fs1  v064
 BYTE   W08
 BYTE   N12  Dn1  v064
 BYTE   N24  As1  v064
 BYTE   W12
 BYTE   N12  Dn1  v064
 BYTE   W12
// 066   ----------------------------------------
 BYTE   VOICE   127
 BYTE   VOL   50*song6D_mvl/mxv
 BYTE   MODT 0
 BYTE   CsM2
 BYTE   N24  Cn1  v064
 BYTE   N24  Fs1  v064
 BYTE   N24  Cs2  v064
 BYTE   W24
 BYTE   N12  Gs1  v064
 BYTE   W12
 BYTE   N12  Gs1  v064
 BYTE   W12
 BYTE   N24  Cn1  v064
 BYTE   N24  Fs1  v064
 BYTE   W24
 BYTE   N12  Gs1  v064
 BYTE   W12
 BYTE   N12  Gs1  v064
 BYTE   W12
// 067   ----------------------------------------
 BYTE   N24  Cn1  v064
 BYTE   N24  Fs1  v064
 BYTE   W24
 BYTE   N12  Gs1  v064
 BYTE   W12
 BYTE   N12  Gs1  v064
 BYTE   W12
 BYTE   N24  Cn1  v064
 BYTE   N24  Fs1  v064
 BYTE   W24
 BYTE   N24  Dn1  v064
 BYTE   N08  Gs1  v064
 BYTE   N24  Gn2  v064
 BYTE   W08
 BYTE   N08  Gs1  v064
 BYTE   W08
 BYTE   N08  Gs1  v064
 BYTE   W08
// 068   ----------------------------------------
 BYTE   VOICE   127
 BYTE   VOL   50*song6D_mvl/mxv
 BYTE   MODT 0
 BYTE   CsM2
 BYTE   N24  Cn1  v064
 BYTE   N24  Fs1  v064
 BYTE   W24
 BYTE   N12  Gs1  v064
 BYTE   W12
 BYTE   N12  Gs1  v064
 BYTE   W12
 BYTE   N24  Cn1  v064
 BYTE   N24  Fs1  v064
 BYTE   W24
 BYTE   N12  Gs1  v064
 BYTE   W12
 BYTE   N12  Gs1  v064
 BYTE   W12
// 069   ----------------------------------------
 BYTE   N24  Cn1  v064
 BYTE   N24  Fs1  v064
 BYTE   W24
 BYTE   N12  Gs1  v064
 BYTE   W12
 BYTE   N12  Gs1  v064
 BYTE   W12
 BYTE   N24  Cn1  v064
 BYTE   N24  Fs1  v064
 BYTE   W24
 BYTE   N24  Dn1  v064
 BYTE   N24  As1  v064
 BYTE   N24  An2  v064
 BYTE   W24
// 070   ----------------------------------------
 BYTE   VOICE   127
 BYTE   VOL   50*song6D_mvl/mxv
 BYTE   MODT 0
 BYTE   CsM2
 BYTE   N24  Cn1  v064
 BYTE   N24  Fs1  v064
 BYTE   W24
 BYTE   N12  Gs1  v064
 BYTE   W12
 BYTE   N12  Gs1  v064
 BYTE   W12
 BYTE   N24  Cn1  v064
 BYTE   N24  Fs1  v064
 BYTE   W24
 BYTE   N12  Gs1  v064
 BYTE   W12
 BYTE   N12  Gs1  v064
 BYTE   W12
// 071   ----------------------------------------
 BYTE   N24  Cn1  v064
 BYTE   N24  Fs1  v064
 BYTE   W24
 BYTE   N12  Gs1  v064
 BYTE   W12
 BYTE   N12  Dn1  v064
 BYTE   N12  Gs1  v064
 BYTE   W12
 BYTE   N12  Dn1  v064
 BYTE   N08  Fs1  v064
 BYTE   W08
 BYTE   N08  Fs1  v064
 BYTE   W04
 BYTE   N12  Dn1  v064
 BYTE   W04
 BYTE   N08  Fs1  v064
 BYTE   W08
 BYTE   N12  An1  v064
 BYTE   N24  As1  v064
 BYTE   W12
 BYTE   N12  Fn1  v064
 BYTE   W12
// 072   ----------------------------------------
 BYTE   VOICE   127
 BYTE   VOL   50*song6D_mvl/mxv
 BYTE   MODT 0
 BYTE   CsM2
 BYTE   N24  Dn1  v064
 BYTE   N12  Fs1  v064
 BYTE   W12
 BYTE   N12  Gs1  v064
 BYTE   W12
 BYTE   N08  Cn1  v064
 BYTE   N24  As1  v064
 BYTE   W08
 BYTE   N08  Cn1  v064
 BYTE   W08
 BYTE   N08  Cn1  v064
 BYTE   W08
 BYTE   N24  Cn1  v064
 BYTE   N12  Fs1  v064
 BYTE   N24  An2  v064
 BYTE   W12
 BYTE   N12  Gs1  v064
 BYTE   W12
 BYTE   N24  Dn1  v064
 BYTE   N12  Fs1  v064
 BYTE   W24
// 073   ----------------------------------------
 BYTE   N24  Dn1  v064
 BYTE   N24  As1  v064
 BYTE   W24
 BYTE   N24  Cn1  v064
 BYTE   N24  Gn1  v064
 BYTE   N24  Cs2  v064
 BYTE   W24
 BYTE   N24  Dn1  v064
 BYTE   N24  Gs1  v064
 BYTE   W24
 BYTE   N24  Dn1  v064
 BYTE   N24  As1  v064
 BYTE   W24
// 074   ----------------------------------------
 BYTE   VOICE   127
 BYTE   VOL   50*song6D_mvl/mxv
 BYTE   MODT 0
 BYTE   CsM2
 BYTE   N24  Dn1  v064
 BYTE   N24  Fs1  v064
 BYTE   N24  En2  v064
 BYTE   W24
 BYTE   N24  Gs1  v064
 BYTE   N12  Dn2  v064
 BYTE   W12
 BYTE   N12  Dn2  v064
 BYTE   W12
 BYTE   N24  Cn1  v064
 BYTE   N24  Fs1  v064
 BYTE   N12  Cn2  v064
 BYTE   W12
 BYTE   N12  Cn2  v064
 BYTE   W12
 BYTE   N24  Gs1  v064
 BYTE   N12  An1  v064
 BYTE   W12
 BYTE   N12  Dn1  v064
 BYTE   N12  Gn1  v064
 BYTE   W12
// 075   ----------------------------------------
 BYTE   N12  Dn1  v064
 BYTE   N24  Fs1  v064
 BYTE   N24  An2  v064
 BYTE   W12
 BYTE   N12  Dn1  v064
 BYTE   W12
 BYTE   N24  Gn1  v064
 BYTE   N24  As1  v064
 BYTE   W24
 BYTE   N24  Fn1  v064
 BYTE   N08  Fs1  v064
 BYTE   W08
 BYTE   N08  Fs1  v064
 BYTE   W08
 BYTE   N08  Fs1  v064
 BYTE   W08
 BYTE   N12  Dn1  v064
 BYTE   N24  As1  v064
 BYTE   W12
 BYTE   N12  Dn1  v064
 BYTE   W12
// 076   ----------------------------------------
 BYTE   VOICE   127
 BYTE   VOL   50*song6D_mvl/mxv
 BYTE   MODT 0
 BYTE   CsM2
 BYTE   N24  Cn1  v064
 BYTE   N24  Fs1  v064
 BYTE   N24  Cs2  v064
 BYTE   W24
 BYTE   N12  Gs1  v064
 BYTE   W12
 BYTE   N12  Gs1  v064
 BYTE   W12
 BYTE   N24  Dn1  v064
 BYTE   N24  Fs1  v064
 BYTE   W24
 BYTE   N12  Gs1  v064
 BYTE   W12
 BYTE   N12  Gs1  v064
 BYTE   W12
// 077   ----------------------------------------
 BYTE   N24  Cn1  v064
 BYTE   N24  Fs1  v064
 BYTE   W24
 BYTE   N12  Gs1  v064
 BYTE   W12
 BYTE   N12  Gs1  v064
 BYTE   W12
 BYTE   N24  Dn1  v064
 BYTE   N24  Fs1  v064
 BYTE   W24
 BYTE   N12  Gs1  v064
 BYTE   W12
 BYTE   N12  Gs1  v064
 BYTE   W12
// 078   ----------------------------------------
 BYTE   VOICE   127
 BYTE   VOL   50*song6D_mvl/mxv
 BYTE   MODT 0
 BYTE   CsM2
 BYTE   N24  Cn1  v064
 BYTE   N24  Fs1  v064
 BYTE   W24
 BYTE   N12  Gs1  v064
 BYTE   W12
 BYTE   N12  Gs1  v064
 BYTE   W12
 BYTE   N24  Dn1  v064
 BYTE   N24  Fs1  v064
 BYTE   W24
 BYTE   N12  Gs1  v064
 BYTE   W12
 BYTE   N12  Gs1  v064
 BYTE   W12
// 079   ----------------------------------------
 BYTE   N24  Cn1  v064
 BYTE   N24  Fs1  v064
 BYTE   W24
 BYTE   N12  Gs1  v064
 BYTE   W12
 BYTE   N12  Gs1  v064
 BYTE   W12
 BYTE   N24  Dn1  v064
 BYTE   N24  Fs1  v064
 BYTE   W24
 BYTE   N12  Gs1  v064
 BYTE   W12
 BYTE   N12  Gs1  v064
 BYTE   W12
// 080   ----------------------------------------
 BYTE   VOICE   127
 BYTE   VOL   50*song6D_mvl/mxv
 BYTE   MODT 0
 BYTE   CsM2
 BYTE   N24  Cn1  v064
 BYTE   N24  Fs1  v064
 BYTE   W24
 BYTE   N12  Gs1  v064
 BYTE   W12
 BYTE   N12  Gs1  v064
 BYTE   W12
 BYTE   N24  Dn1  v064
 BYTE   N24  Fs1  v064
 BYTE   W24
 BYTE   N12  Gs1  v064
 BYTE   W12
 BYTE   N12  Gs1  v064
 BYTE   W12
// 081   ----------------------------------------
 BYTE   N24  Cn1  v064
 BYTE   N24  Fs1  v064
 BYTE   W24
 BYTE   N12  Gs1  v064
 BYTE   W12
 BYTE   N12  Gs1  v064
 BYTE   W12
 BYTE   N24  Dn1  v064
 BYTE   N24  Fs1  v064
 BYTE   W24
 BYTE   N12  Gs1  v064
 BYTE   W12
 BYTE   N12  Gs1  v064
 BYTE   W12
// 082   ----------------------------------------
 BYTE   VOICE   127
 BYTE   VOL   50*song6D_mvl/mxv
 BYTE   MODT 0
 BYTE   CsM2
 BYTE   N24  Cn1  v064
 BYTE   N24  Fs1  v064
 BYTE   W24
 BYTE   N12  Gs1  v064
 BYTE   W12
 BYTE   N12  Gs1  v064
 BYTE   W12
 BYTE   N24  Dn1  v064
 BYTE   N24  Fs1  v064
 BYTE   W24
 BYTE   N12  Gs1  v064
 BYTE   W12
 BYTE   N12  Gs1  v064
 BYTE   W12
// 083   ----------------------------------------
 BYTE   N24  Cn1  v064
 BYTE   N24  Fs1  v064
 BYTE   W24
 BYTE   N12  Gs1  v064
 BYTE   W12
 BYTE   N12  Gs1  v064
 BYTE   W12
 BYTE   N24  Dn1  v064
 BYTE   N24  Fs1  v064
 BYTE   W24
 BYTE   N24  As1  v064
 BYTE   W24
// 084   ----------------------------------------
 BYTE   VOICE   127
 BYTE   VOL   50*song6D_mvl/mxv
 BYTE   MODT 0
 BYTE   CsM2
 BYTE   N24  Cn1  v064
 BYTE   N24  Fs1  v064
 BYTE   W24
 BYTE   N12  Gs1  v064
 BYTE   W12
 BYTE   N12  Gs1  v064
 BYTE   W12
 BYTE   N24  Dn1  v064
 BYTE   N24  Fs1  v064
 BYTE   W24
 BYTE   N12  Gs1  v064
 BYTE   W12
 BYTE   N12  Gs1  v064
 BYTE   W12
// 085   ----------------------------------------
 BYTE   N24  Cn1  v064
 BYTE   N24  Fs1  v064
 BYTE   W24
 BYTE   N12  Gs1  v064
 BYTE   W12
 BYTE   N12  Gs1  v064
 BYTE   W12
 BYTE   N24  Dn1  v064
 BYTE   N24  Fs1  v064
 BYTE   W24
 BYTE   N12  Gs1  v064
 BYTE   W12
 BYTE   N12  Gs1  v064
 BYTE   W12
// 086   ----------------------------------------
 BYTE   VOICE   127
 BYTE   VOL   50*song6D_mvl/mxv
 BYTE   MODT 0
 BYTE   CsM2
 BYTE   N24  Cn1  v064
 BYTE   N24  Fs1  v064
 BYTE   W24
 BYTE   N12  Gs1  v064
 BYTE   W12
 BYTE   N12  Gs1  v064
 BYTE   W12
 BYTE   N24  Dn1  v064
 BYTE   N24  Fs1  v064
 BYTE   W24
 BYTE   N12  Gs1  v064
 BYTE   W12
 BYTE   N12  Gs1  v064
 BYTE   W12
// 087   ----------------------------------------
 BYTE   N24  Cn1  v064
 BYTE   N24  Fs1  v064
 BYTE   W24
 BYTE   N12  Gs1  v064
 BYTE   W12
 BYTE   N12  Gs1  v064
 BYTE   W12
 BYTE   N24  Dn1  v064
 BYTE   N24  Fs1  v064
 BYTE   W24
 BYTE   N12  Gs1  v064
 BYTE   W12
 BYTE   N12  Gs1  v064
 BYTE   W12
// 088   ----------------------------------------
 BYTE   VOICE   127
 BYTE   VOL   50*song6D_mvl/mxv
 BYTE   MODT 0
 BYTE   CsM2
 BYTE   N24  Cn1  v064
 BYTE   N12  Fs1  v064
 BYTE   N24  An2  v064
 BYTE   W12
 BYTE   N12  Fs1  v064
 BYTE   W12
 BYTE   N24  As1  v064
 BYTE   W12
 BYTE   N12  Dn1  v064
 BYTE   W12
 BYTE   N12  Dn1  v064
 BYTE   N24  Gs1  v064
 BYTE   W12
 BYTE   N12  Dn1  v064
 BYTE   W12
 BYTE   N12  Fs1  v064
 BYTE   N24  Gn1  v064
 BYTE   W12
 BYTE   N12  Gs1  v064
 BYTE   W12
// 089   ----------------------------------------
 BYTE   N24  Cn1  v064
 BYTE   N12  Fs1  v064
 BYTE   N24  Gn2  v064
 BYTE   W12
 BYTE   N12  Fs1  v064
 BYTE   W12
 BYTE   N24  As1  v064
 BYTE   W12
 BYTE   N12  Dn1  v064
 BYTE   W12
 BYTE   N12  Dn1  v064
 BYTE   N24  Gs1  v064
 BYTE   W12
 BYTE   N12  An1  v064
 BYTE   W12
 BYTE   N12  Fs1  v064
 BYTE   N12  Gn1  v064
 BYTE   W12
 BYTE   N12  Fn1  v064
 BYTE   N12  Gs1  v064
 BYTE   W12
// 090   ----------------------------------------
 BYTE   VOICE   127
 BYTE   VOL   50*song6D_mvl/mxv
 BYTE   MODT 0
 BYTE   CsM2
 BYTE   N24  Cn1  v064
 BYTE   N24  As1  v052
 BYTE   N24  Cs2  v064
 BYTE   W24
 BYTE   N12  Dn1  v064
 BYTE   W12
 BYTE   N12  Dn1  v064
 BYTE   W12
 BYTE   N24  Dn1  v064
 BYTE   N24  As1  v060
 BYTE   N24  En2  v064
 BYTE   W24
 BYTE   N24  Cn1  v064
 BYTE   N24  Dn1  v064
 BYTE   N24  An2  v064
 BYTE   W24
// 091   ----------------------------------------
 BYTE   N24  As1  v064
 BYTE   W24
 BYTE   N12  Dn1  v064
 BYTE   W12
 BYTE   N12  Dn1  v064
 BYTE   W12
 BYTE   N12  Dn1  v064
 BYTE   N08  Fs1  v064
 BYTE   W08
 BYTE   N08  Fs1  v064
 BYTE   W04
 BYTE   N12  Cn2  v064
 BYTE   W04
 BYTE   N08  Fs1  v064
 BYTE   W08
 BYTE   N24  As1  v064
 BYTE   N12  Bn1  v064
 BYTE   W12
 BYTE   N12  An1  v064
 BYTE   W12
// 092   ----------------------------------------
 BYTE   VOICE   127
 BYTE   VOL   50*song6D_mvl/mxv
 BYTE   MODT 0
 BYTE   CsM2
 BYTE   N24  Cn1  v064
 BYTE   N24  Fs1  v064
 BYTE   N24  Cs2  v064
 BYTE   W24
 BYTE   N12  Gs1  v064
 BYTE   W12
 BYTE   N12  Gs1  v064
 BYTE   W12
 BYTE   N24  Dn1  v064
 BYTE   N24  Fs1  v064
 BYTE   W24
 BYTE   N12  Gs1  v064
 BYTE   W12
 BYTE   N12  Gs1  v064
 BYTE   W12
// 093   ----------------------------------------
 BYTE   N24  Cn1  v064
 BYTE   N24  Fs1  v064
 BYTE   W24
 BYTE   N12  Gs1  v064
 BYTE   W12
 BYTE   N12  Gs1  v064
 BYTE   W12
 BYTE   N24  Dn1  v064
 BYTE   N24  Fs1  v064
 BYTE   W24
 BYTE   N12  Gs1  v064
 BYTE   W12
 BYTE   N12  Gs1  v064
 BYTE   W12
// 094   ----------------------------------------
 BYTE   VOICE   127
 BYTE   VOL   50*song6D_mvl/mxv
 BYTE   MODT 0
 BYTE   CsM2
 BYTE   N24  Cn1  v064
 BYTE   N24  Fs1  v064
 BYTE   W24
 BYTE   N12  Gs1  v064
 BYTE   W12
 BYTE   N12  Gs1  v064
 BYTE   W12
 BYTE   N24  Dn1  v064
 BYTE   N24  Fs1  v064
 BYTE   W24
 BYTE   N12  Gs1  v064
 BYTE   W12
 BYTE   N12  Gs1  v064
 BYTE   W12
// 095   ----------------------------------------
 BYTE   N24  Cn1  v064
 BYTE   N24  Fs1  v064
 BYTE   W24
 BYTE   N12  Gs1  v064
 BYTE   W12
 BYTE   N12  Gs1  v064
 BYTE   W12
 BYTE   N24  Dn1  v064
 BYTE   N24  Fs1  v064
 BYTE   W24
 BYTE   N12  Gs1  v064
 BYTE   W12
 BYTE   N12  Gs1  v064
 BYTE   W12
// 096   ----------------------------------------
 BYTE   VOICE   127
 BYTE   VOL   50*song6D_mvl/mxv
 BYTE   MODT 0
 BYTE   CsM2
 BYTE   N24  Cn1  v064
 BYTE   N24  Fs1  v064
 BYTE   W24
 BYTE   N12  Gs1  v064
 BYTE   W12
 BYTE   N12  Gs1  v064
 BYTE   W12
 BYTE   N24  Dn1  v064
 BYTE   N24  Fs1  v064
 BYTE   W24
 BYTE   N12  Gs1  v064
 BYTE   W12
 BYTE   N12  Gs1  v064
 BYTE   W12
// 097   ----------------------------------------
 BYTE   N24  Cn1  v064
 BYTE   N24  Fs1  v064
 BYTE   W24
 BYTE   N12  Gs1  v064
 BYTE   W12
 BYTE   N12  Gs1  v064
 BYTE   W12
 BYTE   N24  Dn1  v064
 BYTE   N24  Fs1  v064
 BYTE   W24
 BYTE   N12  Gs1  v064
 BYTE   W12
 BYTE   N12  Gs1  v064
 BYTE   W12
// 098   ----------------------------------------
 BYTE   VOICE   127
 BYTE   VOL   50*song6D_mvl/mxv
 BYTE   MODT 0
 BYTE   CsM2
 BYTE   N24  Cn1  v064
 BYTE   N24  Fs1  v064
 BYTE   W24
 BYTE   N12  Gs1  v064
 BYTE   W12
 BYTE   N12  Gs1  v064
 BYTE   W12
 BYTE   N24  Dn1  v064
 BYTE   N24  Fs1  v064
 BYTE   W24
 BYTE   N12  Gs1  v064
 BYTE   W12
 BYTE   N12  Gs1  v064
 BYTE   W12
// 099   ----------------------------------------
 BYTE   N24  Cn1  v064
 BYTE   N24  Fs1  v064
 BYTE   W24
 BYTE   N12  Gs1  v064
 BYTE   W12
 BYTE   N12  Gs1  v064
 BYTE   W12
 BYTE   N24  Dn1  v064
 BYTE   N24  Fs1  v064
 BYTE   W24
 BYTE   N24  As1  v064
 BYTE   W24
// 100   ----------------------------------------
 BYTE   VOICE   127
 BYTE   VOL   50*song6D_mvl/mxv
 BYTE   MODT 0
 BYTE   CsM2
 BYTE   N24  Cn1  v064
 BYTE   N24  Fs1  v064
 BYTE   W24
 BYTE   N12  Gs1  v064
 BYTE   W12
 BYTE   N12  Gs1  v064
 BYTE   W12
 BYTE   N24  Dn1  v064
 BYTE   N24  Fs1  v064
 BYTE   W24
 BYTE   N12  Gs1  v064
 BYTE   W12
 BYTE   N12  Gs1  v064
 BYTE   W12
// 101   ----------------------------------------
 BYTE   N24  Cn1  v064
 BYTE   N24  Fs1  v064
 BYTE   W24
 BYTE   N12  Gs1  v064
 BYTE   W12
 BYTE   N12  Gs1  v064
 BYTE   W12
 BYTE   N24  Dn1  v064
 BYTE   N24  Fs1  v064
 BYTE   W24
 BYTE   N12  Gs1  v064
 BYTE   W12
 BYTE   N12  Gs1  v064
 BYTE   W12
// 102   ----------------------------------------
 BYTE   VOICE   127
 BYTE   VOL   50*song6D_mvl/mxv
 BYTE   MODT 0
 BYTE   CsM2
 BYTE   N24  Cn1  v064
 BYTE   N24  Fs1  v064
 BYTE   W24
 BYTE   N12  Gs1  v064
 BYTE   W12
 BYTE   N12  Gs1  v064
 BYTE   W12
 BYTE   N24  Dn1  v064
 BYTE   N24  Fs1  v064
 BYTE   W24
 BYTE   N12  Gs1  v064
 BYTE   W12
 BYTE   N12  Gs1  v064
 BYTE   W12
// 103   ----------------------------------------
 BYTE   N24  Cn1  v064
 BYTE   N24  Fs1  v064
 BYTE   W24
 BYTE   N12  Gs1  v064
 BYTE   W12
 BYTE   N12  Gs1  v064
 BYTE   W12
 BYTE   N24  Dn1  v064
 BYTE   N24  Fs1  v064
 BYTE   W24
 BYTE   N12  Gs1  v064
 BYTE   W12
 BYTE   N12  Gs1  v064
 BYTE   W12
// 104   ----------------------------------------
 BYTE   VOICE   127
 BYTE   VOL   50*song6D_mvl/mxv
 BYTE   MODT 0
 BYTE   CsM2
 BYTE   N24  Cn1  v064
 BYTE   N12  Fs1  v064
 BYTE   N24  An2  v064
 BYTE   W12
 BYTE   N12  Fs1  v064
 BYTE   W12
 BYTE   N12  Dn1  v064
 BYTE   N24  As1  v064
 BYTE   W12
 BYTE   N12  Dn1  v064
 BYTE   W12
 BYTE   N12  Dn1  v064
 BYTE   N24  Gs1  v064
 BYTE   W12
 BYTE   N24  Gn1  v064
 BYTE   W12
 BYTE   N12  Fs1  v064
 BYTE   W12
 BYTE   N24  Fn1  v064
 BYTE   N12  Gs1  v064
 BYTE   W12
// 105   ----------------------------------------
 BYTE   N24  Cn1  v064
 BYTE   N12  Fs1  v064
 BYTE   N24  Gn2  v064
 BYTE   W12
 BYTE   N12  Fs1  v064
 BYTE   W12
 BYTE   N24  As1  v064
 BYTE   W12
 BYTE   N12  Dn1  v064
 BYTE   W12
 BYTE   N12  Dn1  v064
 BYTE   N24  Gs1  v064
 BYTE   W24
 BYTE   N12  Dn1  v064
 BYTE   N12  Fs1  v064
 BYTE   W12
 BYTE   N12  Dn1  v064
 BYTE   N12  Gs1  v064
 BYTE   W12
// 106   ----------------------------------------
 BYTE   VOICE   127
 BYTE   VOL   50*song6D_mvl/mxv
 BYTE   MODT 0
 BYTE   CsM2
 BYTE   N24  Cn1  v064
 BYTE   N24  As1  v052
 BYTE   N24  Cs2  v064
 BYTE   W24
 BYTE   N12  Dn1  v064
 BYTE   W12
 BYTE   N12  Dn1  v064
 BYTE   W12
 BYTE   N24  Dn1  v064
 BYTE   N24  As1  v060
 BYTE   N24  En2  v064
 BYTE   W12
 BYTE   N24  Gn1  v064
 BYTE   W12
 BYTE   N24  Cn1  v064
 BYTE   N24  An2  v064
 BYTE   W24
// 107   ----------------------------------------
 BYTE   N24  As1  v064
 BYTE   W24
 BYTE   N24  Cn1  v064
 BYTE   N24  Cs2  v064
 BYTE   W24
 BYTE   N08  Fs1  v064
 BYTE   W08
 BYTE   N08  Fs1  v064
 BYTE   W04
 BYTE   N24  Cn1  v064
 BYTE   N24  An2  v064
 BYTE   W04
 BYTE   N08  Fs1  v064
 BYTE   W08
 BYTE   N24  As1  v064
 BYTE   W24
// 108   ----------------------------------------
 BYTE   VOICE   127
 BYTE   VOL   50*song6D_mvl/mxv
 BYTE   MODT 0
 BYTE   CsM2
 BYTE   N24  Bn0  v064
 BYTE   N24  Fs1  v064
 BYTE   N24  Cs2  v064
 BYTE   W24
 BYTE   N12  Gs1  v064
 BYTE   W12
 BYTE   N12  Gs1  v064
 BYTE   W12
 BYTE   N24  Dn1  v064
 BYTE   N24  Fs1  v064
 BYTE   W24
 BYTE   N12  Gs1  v064
 BYTE   W12
 BYTE   N12  Gs1  v064
 BYTE   W12
// 109   ----------------------------------------
 BYTE   N24  Bn0  v064
 BYTE   N24  Fs1  v064
 BYTE   W24
 BYTE   N12  Gs1  v064
 BYTE   W12
 BYTE   N12  Gs1  v064
 BYTE   W12
 BYTE   N24  Dn1  v064
 BYTE   N24  Fs1  v064
 BYTE   W24
 BYTE   N12  Gs1  v064
 BYTE   W12
 BYTE   N12  Gs1  v064
 BYTE   W12
// 110   ----------------------------------------
 BYTE   VOICE   127
 BYTE   VOL   50*song6D_mvl/mxv
 BYTE   MODT 0
 BYTE   CsM2
 BYTE   N24  Bn0  v064
 BYTE   N24  Fs1  v064
 BYTE   W24
 BYTE   N12  Gs1  v064
 BYTE   W12
 BYTE   N12  Gs1  v064
 BYTE   W12
 BYTE   N24  Dn1  v064
 BYTE   N24  Fs1  v064
 BYTE   W24
 BYTE   N12  Gs1  v064
 BYTE   W12
 BYTE   N12  Gs1  v064
 BYTE   W12
// 111   ----------------------------------------
 BYTE   N24  Bn0  v064
 BYTE   N24  Fs1  v064
 BYTE   W24
 BYTE   N12  Gs1  v064
 BYTE   W12
 BYTE   N12  Gs1  v064
 BYTE   W12
 BYTE   N24  Dn1  v064
 BYTE   N24  Fs1  v064
 BYTE   W24
 BYTE   N12  Gs1  v064
 BYTE   W12
 BYTE   N12  Gs1  v064
 BYTE   W12
// 112   ----------------------------------------
 BYTE   VOICE   127
 BYTE   VOL   50*song6D_mvl/mxv
 BYTE   MODT 0
 BYTE   CsM2
 BYTE   N24  Bn0  v064
 BYTE   N24  Fs1  v064
 BYTE   W24
 BYTE   N12  Gs1  v064
 BYTE   W12
 BYTE   N12  Gs1  v064
 BYTE   W12
 BYTE   N24  Dn1  v064
 BYTE   N24  Fs1  v064
 BYTE   W24
 BYTE   N12  Gs1  v064
 BYTE   W12
 BYTE   N12  Gs1  v064
 BYTE   W12
// 113   ----------------------------------------
 BYTE   N24  Bn0  v064
 BYTE   N24  Fs1  v064
 BYTE   W24
 BYTE   N12  Gs1  v064
 BYTE   W12
 BYTE   N12  Gs1  v064
 BYTE   W12
 BYTE   N24  Dn1  v064
 BYTE   N24  Fs1  v064
 BYTE   W24
 BYTE   N12  Gs1  v064
 BYTE   W12
 BYTE   N12  Gs1  v064
 BYTE   W12
// 114   ----------------------------------------
 BYTE   VOICE   127
 BYTE   VOL   50*song6D_mvl/mxv
 BYTE   MODT 0
 BYTE   CsM2
 BYTE   N24  Bn0  v064
 BYTE   N24  Fs1  v064
 BYTE   W24
 BYTE   N12  Gs1  v064
 BYTE   W12
 BYTE   N12  Gs1  v064
 BYTE   W12
 BYTE   N24  Dn1  v064
 BYTE   N24  Fs1  v064
 BYTE   W24
 BYTE   N12  Gs1  v064
 BYTE   W12
 BYTE   N12  Gs1  v064
 BYTE   W12
// 115   ----------------------------------------
 BYTE   N24  Bn0  v064
 BYTE   N24  Fs1  v064
 BYTE   W24
 BYTE   N24  Bn0  v064
 BYTE   N12  Gs1  v064
 BYTE   W12
 BYTE   N12  Gs1  v064
 BYTE   W12
 BYTE   N24  Dn1  v064
 BYTE   N24  Fs1  v064
 BYTE   W24
 BYTE   N12  Dn1  v064
 BYTE   N24  As1  v064
 BYTE   W12
 BYTE   N12  Dn1  v064
 BYTE   W12
// 116   ----------------------------------------
 BYTE   VOICE   127
 BYTE   VOL   50*song6D_mvl/mxv
 BYTE   MODT 0
 BYTE   CsM2
 BYTE   N24  Bn0  v064
 BYTE   N24  Fs1  v064
 BYTE   N24  An2  v064
 BYTE   W24
 BYTE   N12  Gs1  v064
 BYTE   W12
 BYTE   N12  Gs1  v064
 BYTE   W12
 BYTE   N24  Dn1  v064
 BYTE   N24  Fs1  v064
 BYTE   W24
 BYTE   N12  Gs1  v064
 BYTE   W12
 BYTE   N12  Gs1  v064
 BYTE   W12
// 117   ----------------------------------------
 BYTE   N24  Bn0  v064
 BYTE   N24  Fs1  v064
 BYTE   W24
 BYTE   N12  Gs1  v064
 BYTE   W12
 BYTE   N12  Gs1  v064
 BYTE   W12
 BYTE   N24  Dn1  v064
 BYTE   N24  Fs1  v064
 BYTE   W24
 BYTE   N12  Gs1  v064
 BYTE   W12
 BYTE   N12  Gs1  v064
 BYTE   W12
// 118   ----------------------------------------
 BYTE   VOICE   127
 BYTE   VOL   50*song6D_mvl/mxv
 BYTE   MODT 0
 BYTE   CsM2
 BYTE   N24  Bn0  v064
 BYTE   N24  Fs1  v064
 BYTE   W24
 BYTE   N12  Gs1  v064
 BYTE   W12
 BYTE   N12  Gs1  v064
 BYTE   W12
 BYTE   N24  Dn1  v064
 BYTE   N24  Fs1  v064
 BYTE   W24
 BYTE   N12  Gs1  v064
 BYTE   W12
 BYTE   N12  Gs1  v064
 BYTE   W12
// 119   ----------------------------------------
 BYTE   N24  Bn0  v064
 BYTE   N24  Fs1  v064
 BYTE   W24
 BYTE   N12  Gs1  v064
 BYTE   W12
 BYTE   N12  Gs1  v064
 BYTE   W12
 BYTE   N24  Dn1  v064
 BYTE   N24  Fs1  v064
 BYTE   W24
 BYTE   N12  Gs1  v064
 BYTE   W12
 BYTE   N12  Gs1  v064
 BYTE   W12
// 120   ----------------------------------------
 BYTE   VOICE   127
 BYTE   VOL   50*song6D_mvl/mxv
 BYTE   MODT 0
 BYTE   CsM2
 BYTE   N24  Bn0  v064
 BYTE   N24  Fs1  v064
 BYTE   W24
 BYTE   N12  Gs1  v064
 BYTE   W12
 BYTE   N12  Gs1  v064
 BYTE   W12
 BYTE   N24  Dn1  v064
 BYTE   N24  Fs1  v064
 BYTE   W24
 BYTE   N12  Gs1  v064
 BYTE   W12
 BYTE   N12  Gs1  v064
 BYTE   W12
// 121   ----------------------------------------
 BYTE   N24  Bn0  v064
 BYTE   N24  Fs1  v064
 BYTE   W24
 BYTE   N12  Gs1  v064
 BYTE   W12
 BYTE   N12  Gs1  v064
 BYTE   W12
 BYTE   N24  Dn1  v064
 BYTE   N24  Fs1  v064
 BYTE   W24
 BYTE   N12  Gs1  v064
 BYTE   W12
 BYTE   N12  Gs1  v064
 BYTE   W12
// 122   ----------------------------------------
 BYTE   VOICE   127
 BYTE   VOL   50*song6D_mvl/mxv
 BYTE   MODT 0
 BYTE   CsM2
 BYTE   N24  Bn0  v064
 BYTE   N24  Fs1  v064
 BYTE   W24
 BYTE   N12  Gs1  v064
 BYTE   W12
 BYTE   N12  Gs1  v064
 BYTE   W12
 BYTE   N24  Dn1  v064
 BYTE   N24  Fs1  v064
 BYTE   W24
 BYTE   N12  Gs1  v064
 BYTE   W12
 BYTE   N12  Gs1  v064
 BYTE   W12
// 123   ----------------------------------------
 BYTE   N24  Bn0  v064
 BYTE   N24  Fs1  v064
 BYTE   W24
 BYTE   N24  Bn0  v064
 BYTE   N12  Gs1  v064
 BYTE   W12
 BYTE   N12  Gs1  v064
 BYTE   W12
 BYTE   N12  Dn1  v064
 BYTE   N24  Fs1  v064
 BYTE   W12
 BYTE   N12  Dn1  v064
 BYTE   W12
 BYTE   N12  Dn1  v064
 BYTE   N24  As1  v064
 BYTE   W24
// 124   ----------------------------------------
 BYTE   VOICE   127
 BYTE   VOL   50*song6D_mvl/mxv
 BYTE   MODT 0
 BYTE   CsM2
 BYTE   N24  Bn0  v064
 BYTE   N24  Fs1  v064
 BYTE   N24  An2  v064
 BYTE   W24
 BYTE   N12  Gs1  v064
 BYTE   W12
 BYTE   N12  Gs1  v064
 BYTE   W12
 BYTE   N24  Dn1  v064
 BYTE   N24  Fs1  v064
 BYTE   W24
 BYTE   N12  Gs1  v064
 BYTE   W12
 BYTE   N12  Gs1  v064
 BYTE   W12
// 125   ----------------------------------------
 BYTE   N24  Bn0  v064
 BYTE   N24  Fs1  v064
 BYTE   W24
 BYTE   N24  Bn0  v064
 BYTE   N12  Gs1  v064
 BYTE   W12
 BYTE   N12  Gs1  v064
 BYTE   W12
 BYTE   N24  Dn1  v064
 BYTE   N24  Fs1  v064
 BYTE   W24
 BYTE   N12  Gs1  v064
 BYTE   W12
 BYTE   N12  Gs1  v064
 BYTE   W12
// 126   ----------------------------------------
 BYTE   VOICE   127
 BYTE   VOL   50*song6D_mvl/mxv
 BYTE   MODT 0
 BYTE   CsM2
 BYTE   N24  Bn0  v064
 BYTE   N24  Fs1  v064
 BYTE   W24
 BYTE   N12  Gs1  v064
 BYTE   W12
 BYTE   N12  Gs1  v064
 BYTE   W12
 BYTE   N24  Dn1  v064
 BYTE   N24  Fs1  v064
 BYTE   W24
 BYTE   N12  Gs1  v064
 BYTE   W12
 BYTE   N12  Gs1  v064
 BYTE   W12
// 127   ----------------------------------------
 BYTE   N24  Bn0  v064
 BYTE   N24  Fs1  v064
 BYTE   W24
 BYTE   N24  Bn0  v064
 BYTE   N12  Gs1  v064
 BYTE   W12
 BYTE   N12  Gs1  v064
 BYTE   W12
 BYTE   N24  Dn1  v064
 BYTE   N12  Fs1  v064
 BYTE   W12
 BYTE   N12  Gs1  v064
 BYTE   W12
 BYTE   N24  As1  v064
 BYTE   W24
// 128   ----------------------------------------
 BYTE   VOICE   127
 BYTE   VOL   50*song6D_mvl/mxv
 BYTE   MODT 0
 BYTE   CsM2
 BYTE   N24  Bn0  v064
 BYTE   N24  Fs1  v064
 BYTE   N24  An2  v064
 BYTE   W24
 BYTE   N12  Gs1  v064
 BYTE   W12
 BYTE   N12  Gs1  v064
 BYTE   W12
 BYTE   N24  Dn1  v064
 BYTE   N24  Fs1  v064
 BYTE   W24
 BYTE   N12  Gs1  v064
 BYTE   W12
 BYTE   N12  Gs1  v064
 BYTE   W12
// 129   ----------------------------------------
 BYTE   N24  Bn0  v064
 BYTE   N24  Fs1  v064
 BYTE   W24
 BYTE   N24  Bn0  v064
 BYTE   N12  Gs1  v064
 BYTE   W12
 BYTE   N12  Gs1  v064
 BYTE   W12
 BYTE   N24  Dn1  v064
 BYTE   N24  Fs1  v064
 BYTE   W24
 BYTE   N12  Gs1  v064
 BYTE   W12
 BYTE   N12  Gs1  v064
 BYTE   W12
// 130   ----------------------------------------
 BYTE   VOICE   127
 BYTE   VOL   50*song6D_mvl/mxv
 BYTE   MODT 0
 BYTE   CsM2
 BYTE   N24  Bn0  v064
 BYTE   N24  Fs1  v064
 BYTE   W24
 BYTE   N12  Gs1  v064
 BYTE   W12
 BYTE   N12  Gs1  v064
 BYTE   W12
 BYTE   N24  Dn1  v064
 BYTE   N24  Fs1  v064
 BYTE   W24
 BYTE   N12  Gs1  v064
 BYTE   W12
 BYTE   N12  Gs1  v064
 BYTE   W12
// 131   ----------------------------------------
 BYTE   N24  Bn0  v064
 BYTE   N24  Fs1  v064
 BYTE   W24
 BYTE   N24  Bn0  v064
 BYTE   N12  Gs1  v064
 BYTE   W12
 BYTE   N12  Gs1  v064
 BYTE   W12
 BYTE   N12  Dn1  v064
 BYTE   N08  Fs1  v064
 BYTE   W08
 BYTE   N01  Fs1  v064
 BYTE   W04
 BYTE   N12  Dn1  v064
 BYTE   W04
 BYTE   N08  Fs1  v064
 BYTE   W08
 BYTE   N12  Dn1  v064
 BYTE   N24  As1  v064
 BYTE   W12
 BYTE   N12  Dn1  v064
 BYTE   W12
// 132   ----------------------------------------
 BYTE   VOICE   127
 BYTE   VOL   50*song6D_mvl/mxv
 BYTE   MODT 0
 BYTE   CsM2
 BYTE   N24  Cn1  v064
 BYTE   N24  Fs1  v064
 BYTE   N24  Cs2  v064
 BYTE   W24
 BYTE   N12  Gs1  v064
 BYTE   W12
 BYTE   N12  Gs1  v064
 BYTE   W12
 BYTE   N24  Cn1  v064
 BYTE   N24  Fs1  v064
 BYTE   W24
 BYTE   N12  Gs1  v064
 BYTE   W12
 BYTE   N12  Gs1  v064
 BYTE   W12
// 133   ----------------------------------------
 BYTE   N24  Cn1  v064
 BYTE   N24  Fs1  v064
 BYTE   W24
 BYTE   N12  Gs1  v064
 BYTE   W12
 BYTE   N12  Gs1  v064
 BYTE   W12
 BYTE   N24  Cn1  v064
 BYTE   N24  Fs1  v064
 BYTE   W24
 BYTE   N24  Dn1  v064
 BYTE   N08  Gs1  v064
 BYTE   N24  Gn2  v064
 BYTE   W08
 BYTE   N08  Gs1  v064
 BYTE   W08
 BYTE   N08  Gs1  v064
 BYTE   W08
// 134   ----------------------------------------
 BYTE   VOICE   127
 BYTE   VOL   50*song6D_mvl/mxv
 BYTE   MODT 0
 BYTE   CsM2
 BYTE   N24  Cn1  v064
 BYTE   N24  Fs1  v064
 BYTE   W24
 BYTE   N12  Gs1  v064
 BYTE   W12
 BYTE   N12  Gs1  v064
 BYTE   W12
 BYTE   N24  Cn1  v064
 BYTE   N24  Fs1  v064
 BYTE   W24
 BYTE   N12  Gs1  v064
 BYTE   W12
 BYTE   N12  Gs1  v064
 BYTE   W12
// 135   ----------------------------------------
 BYTE   N24  Cn1  v064
 BYTE   N24  Fs1  v064
 BYTE   W24
 BYTE   N12  Gs1  v064
 BYTE   W12
 BYTE   N12  Gs1  v064
 BYTE   W12
 BYTE   N24  Cn1  v064
 BYTE   N24  Fs1  v064
 BYTE   W24
 BYTE   N24  Dn1  v064
 BYTE   N24  As1  v064
 BYTE   N24  An2  v064
 BYTE   W24
// 136   ----------------------------------------
 BYTE   VOICE   127
 BYTE   VOL   50*song6D_mvl/mxv
 BYTE   MODT 0
 BYTE   CsM2
 BYTE   N24  Cn1  v064
 BYTE   N24  Fs1  v064
 BYTE   W24
 BYTE   N12  Gs1  v064
 BYTE   W12
 BYTE   N12  Gs1  v064
 BYTE   W12
 BYTE   N24  Cn1  v064
 BYTE   N24  Fs1  v064
 BYTE   W24
 BYTE   N12  Gs1  v064
 BYTE   W12
 BYTE   N12  Gs1  v064
 BYTE   W12
// 137   ----------------------------------------
 BYTE   N24  Cn1  v064
 BYTE   N24  Fs1  v064
 BYTE   W24
 BYTE   N12  Gs1  v064
 BYTE   W12
 BYTE   N12  Dn1  v064
 BYTE   N12  Gs1  v064
 BYTE   W12
 BYTE   N12  Dn1  v064
 BYTE   N08  Fs1  v064
 BYTE   W08
 BYTE   N08  Fs1  v064
 BYTE   W04
 BYTE   N12  Dn1  v064
 BYTE   W04
 BYTE   N08  Fs1  v064
 BYTE   W08
 BYTE   N12  An1  v064
 BYTE   N24  As1  v064
 BYTE   W12
 BYTE   N12  Fn1  v064
 BYTE   W12
// 138   ----------------------------------------
 BYTE   VOICE   127
 BYTE   VOL   50*song6D_mvl/mxv
 BYTE   MODT 0
 BYTE   CsM2
 BYTE   N24  Dn1  v064
 BYTE   N12  Fs1  v064
 BYTE   W12
 BYTE   N12  Gs1  v064
 BYTE   W12
 BYTE   N08  Cn1  v064
 BYTE   N24  As1  v064
 BYTE   W08
 BYTE   N08  Cn1  v064
 BYTE   W08
 BYTE   N08  Cn1  v064
 BYTE   W08
 BYTE   N24  Cn1  v064
 BYTE   N12  Fs1  v064
 BYTE   N24  An2  v064
 BYTE   W12
 BYTE   N12  Gs1  v064
 BYTE   W12
 BYTE   N24  Dn1  v064
 BYTE   N12  Fs1  v064
 BYTE   W24
// 139   ----------------------------------------
 BYTE   N24  Dn1  v064
 BYTE   N24  As1  v064
 BYTE   W24
 BYTE   N24  Cn1  v064
 BYTE   N24  Gn1  v064
 BYTE   N24  Cs2  v064
 BYTE   W24
 BYTE   N24  Dn1  v064
 BYTE   N24  Gs1  v064
 BYTE   W24
 BYTE   N24  Dn1  v064
 BYTE   N24  As1  v064
 BYTE   W24
// 140   ----------------------------------------
 BYTE   VOICE   127
 BYTE   VOL   50*song6D_mvl/mxv
 BYTE   MODT 0
 BYTE   CsM2
 BYTE   N24  Dn1  v064
 BYTE   N24  Fs1  v064
 BYTE   N24  En2  v064
 BYTE   W24
 BYTE   N24  Gs1  v064
 BYTE   N12  Dn2  v064
 BYTE   W12
 BYTE   N12  Dn2  v064
 BYTE   W12
 BYTE   N24  Cn1  v064
 BYTE   N24  Fs1  v064
 BYTE   N12  Cn2  v064
 BYTE   W12
 BYTE   N12  Cn2  v064
 BYTE   W12
 BYTE   N24  Gs1  v064
 BYTE   N12  An1  v064
 BYTE   W12
 BYTE   N12  Dn1  v064
 BYTE   N12  Gn1  v064
 BYTE   W12
// 141   ----------------------------------------
 BYTE   N12  Dn1  v064
 BYTE   N24  Fs1  v064
 BYTE   N24  An2  v064
 BYTE   W12
 BYTE   N12  Dn1  v064
 BYTE   W12
 BYTE   N24  Gn1  v064
 BYTE   N24  As1  v064
 BYTE   W24
 BYTE   N24  Fn1  v064
 BYTE   N08  Fs1  v064
 BYTE   W08
 BYTE   N08  Fs1  v064
 BYTE   W08
 BYTE   N08  Fs1  v064
 BYTE   W08
 BYTE   N12  Dn1  v064
 BYTE   N24  As1  v064
 BYTE   W12
 BYTE   N12  Dn1  v064
 BYTE   W12
// 142   ----------------------------------------
 BYTE   VOICE   127
 BYTE   VOL   50*song6D_mvl/mxv
 BYTE   MODT 0
 BYTE   CsM2
 BYTE   N12  Cn1  v064
 BYTE   N24  Cs2  v064
 BYTE   W36
 BYTE   N24  Dn1  v064
 BYTE   N24  An2  v064
 BYTE   W24
 BYTE   GoTo
  POIN2 Label_0_018DC400
 BYTE   FINE

//**************** Track 2 (Midi-Chn.1) ****************//

song6D_002:
// 000   ----------------------------------------
Label_1_018DFA81:
 BYTE   KEYSH   song6D_key+0
 BYTE   VOICE   100
 BYTE   VOL   50*song6D_mvl/mxv
 BYTE   MODT 0
 BYTE   CsM2
 BYTE   VOL   47*song6D_mvl/mxv
 BYTE   W96
// 001   ----------------------------------------
 BYTE   W96
// 002   ----------------------------------------
 BYTE   W96
// 003   ----------------------------------------
 BYTE   W96
// 004   ----------------------------------------
 BYTE   W96
// 005   ----------------------------------------
 BYTE   W96
// 006   ----------------------------------------
 BYTE   W48
 BYTE   N72  An3  v064
 BYTE   N72  Cn4  v064
 BYTE   W72
// 007   ----------------------------------------
 BYTE   N72  Gn3  v064
 BYTE   N72  Bn3  v064
 BYTE   W72
 BYTE   N72  Fn3  v064
 BYTE   N72  An3  v064
 BYTE   W92
// 008   ----------------------------------------
 BYTE   W01
 BYTE   N84  En4  v064
 BYTE   W03
 BYTE   N84  Bn4  v064
 BYTE   W03
 BYTE   N84  En5  v064
 BYTE   W92
// 009   ----------------------------------------
 BYTE   W01
 BYTE   VOICE   81
 BYTE   VOL   82*song6D_mvl/mxv
 BYTE   MODT 0
 BYTE   CsM2
 BYTE   VOL   83*song6D_mvl/mxv
 BYTE   N96  En3  v080
 BYTE   W96
// 010   ----------------------------------------
 BYTE   N24  Cn3  v080
 BYTE   W24
 BYTE   N24  Dn3  v080
 BYTE   W24
 BYTE   N24  En3  v080
 BYTE   W24
 BYTE   N72  Dn3  v080
 BYTE   W24
// 011   ----------------------------------------
 BYTE   W48
 BYTE   N24  Dn3  v080
 BYTE   W24
 BYTE   N24  Gn3  v080
 BYTE   W48
// 012   ----------------------------------------
 BYTE   N24  Dn3  v080
 BYTE   W48
 BYTE   N96  Cn3  v080
 BYTE   W24
 BYTE   W72
// 013   ----------------------------------------
 BYTE   N12  Bn2  v080
 BYTE   W12
 BYTE   N12  Cn3  v080
 BYTE   W12
 BYTE   N24  Dn3  v080
 BYTE   W24
 BYTE   N48  Gn3  v080
 BYTE   W48
// 014   ----------------------------------------
 BYTE   TIE  En3  v080
 BYTE   W24
 BYTE   W96
// 015   ----------------------------------------
 BYTE   W96
// 016   ----------------------------------------
 BYTE   EOT
 BYTE   En3
 BYTE   TIE  An3  v080
 BYTE   W96
// 017   ----------------------------------------
 BYTE   W24
 BYTE   EOT
 BYTE   An3
 BYTE   N24  Fn3  v080
 BYTE   W24
 BYTE   N24  Gn3  v080
 BYTE   W24
 BYTE   N24  An3  v080
 BYTE   W24
// 018   ----------------------------------------
 BYTE   N48  Bn3  v080
 BYTE   W48
 BYTE   N24  Fs3  v080
 BYTE   W24
 BYTE   N24  Bn3  v080
 BYTE   W48
// 019   ----------------------------------------
 BYTE   N24  An3  v080
 BYTE   W48
 BYTE   N96  Gs3  v080
 BYTE   W24
 BYTE   W72
// 020   ----------------------------------------
 BYTE   N12  Gs3  v080
 BYTE   W12
 BYTE   N12  An3  v080
 BYTE   W12
 BYTE   N72  Bn3  v080
 BYTE   W72
// 021   ----------------------------------------
 BYTE   N12  Cn4  v080
 BYTE   W12
 BYTE   N12  Dn4  v080
 BYTE   W12
 BYTE   TIE  En4  v080
 BYTE   W96
// 022   ----------------------------------------
 BYTE   W96
// 023   ----------------------------------------
 BYTE   EOT
 BYTE   En4
 BYTE   N96  En3  v080
 BYTE   W96
// 024   ----------------------------------------
 BYTE   N24  Cn3  v080
 BYTE   W24
 BYTE   N24  Dn3  v080
 BYTE   W24
 BYTE   N24  En3  v080
 BYTE   W24
 BYTE   N72  Dn3  v080
 BYTE   W24
// 025   ----------------------------------------
 BYTE   W48
 BYTE   N24  Dn3  v080
 BYTE   W24
 BYTE   N24  Gn3  v080
 BYTE   W48
// 026   ----------------------------------------
 BYTE   N24  Dn3  v080
 BYTE   W48
 BYTE   N96  Cn3  v080
 BYTE   W24
 BYTE   W72
// 027   ----------------------------------------
 BYTE   N12  Bn2  v080
 BYTE   W12
 BYTE   N12  Cn3  v080
 BYTE   W12
 BYTE   N24  Dn3  v080
 BYTE   W24
 BYTE   N48  Gn3  v080
 BYTE   W48
// 028   ----------------------------------------
 BYTE   TIE  En3  v080
 BYTE   W24
 BYTE   W96
// 029   ----------------------------------------
 BYTE   W48
 BYTE   EOT
 BYTE   En3
 BYTE   N24  En4  v064
 BYTE   W24
 BYTE   N24  En4  v064
 BYTE   W24
// 030   ----------------------------------------
 BYTE   N48  Dn4  v064
 BYTE   W48
 BYTE   N24  En4  v064
 BYTE   W24
 BYTE   N24  Fn4  v064
 BYTE   W24
// 031   ----------------------------------------
 BYTE   N24  En4  v064
 BYTE   W24
 BYTE   N36  Dn4  v064
 BYTE   W48
 BYTE   N12  An3  v064
 BYTE   W12
 BYTE   N12  Bn3  v064
 BYTE   W12
// 032   ----------------------------------------
 BYTE   N48  Cn4  v064
 BYTE   W48
 BYTE   N24  Dn4  v064
 BYTE   W24
 BYTE   N24  En4  v064
 BYTE   W24
// 033   ----------------------------------------
 BYTE   N24  Dn4  v064
 BYTE   W24
 BYTE   N48  Cn4  v064
 BYTE   W48
 BYTE   N24  An3  v064
 BYTE   W24
// 034   ----------------------------------------
 BYTE   N12  Bn3  v064
 BYTE   W24
 BYTE   N12  Bn3  v064
 BYTE   W12
 BYTE   N12  Bn3  v064
 BYTE   W24
 BYTE   N12  Bn3  v064
 BYTE   W24
 BYTE   N12  Bn3  v064
 BYTE   W12
// 035   ----------------------------------------
 BYTE   N36  Bn3  v064
 BYTE   W36
 BYTE   N36  Cn4  v064
 BYTE   W36
 BYTE   N24  Dn4  v064
 BYTE   W24
// 036   ----------------------------------------
 BYTE   N36  Bn3  v064
 BYTE   W36
 BYTE   TIE  An3  v064
 BYTE   W96
// 037   ----------------------------------------
 BYTE   W60
 BYTE   EOT
 BYTE   An3
 BYTE   N48  En3  v080
 BYTE   W48
// 038   ----------------------------------------
 BYTE   N48  Cn3  v080
 BYTE   W48
 BYTE   N36  An2  v080
 BYTE   W36
 BYTE   N36  Bn2  v080
 BYTE   W36
// 039   ----------------------------------------
 BYTE   N24  Cn3  v080
 BYTE   W24
 BYTE   TIE  Dn3  v080
 BYTE   W96
// 040   ----------------------------------------
 BYTE   W24
 BYTE   EOT
 BYTE   Dn3
 BYTE   N24  Cn3  v080
 BYTE   W24
 BYTE   N24  Bn2  v080
 BYTE   W24
 BYTE   N24  Cn3  v080
 BYTE   W24
// 041   ----------------------------------------
 BYTE   N48  Dn3  v080
 BYTE   W48
 BYTE   N48  Bn2  v080
 BYTE   W48
// 042   ----------------------------------------
 BYTE   N36  Gn2  v080
 BYTE   W36
 BYTE   N36  An2  v080
 BYTE   W36
 BYTE   N24  Bn2  v080
 BYTE   W24
// 043   ----------------------------------------
 BYTE   TIE  Cn3  v080
 BYTE   W96
// 044   ----------------------------------------
 BYTE   W24
 BYTE   EOT
 BYTE   Cn3
 BYTE   N24  An2  v080
 BYTE   W24
 BYTE   N24  Bn2  v080
 BYTE   W24
 BYTE   N24  Cn3  v080
 BYTE   W24
// 045   ----------------------------------------
 BYTE   N48  En3  v080
 BYTE   W48
 BYTE   N48  Cn3  v080
 BYTE   W48
// 046   ----------------------------------------
 BYTE   N36  An2  v080
 BYTE   W36
 BYTE   N36  Bn2  v080
 BYTE   W36
 BYTE   N24  Cn3  v080
 BYTE   W24
// 047   ----------------------------------------
 BYTE   TIE  Dn3  v080
 BYTE   W96
// 048   ----------------------------------------
 BYTE   W24
 BYTE   EOT
 BYTE   Dn3
 BYTE   N24  Cn3  v080
 BYTE   W24
 BYTE   N24  Bn2  v080
 BYTE   W24
 BYTE   N24  Cn3  v080
 BYTE   W24
// 049   ----------------------------------------
 BYTE   N48  Dn3  v080
 BYTE   W44
 BYTE   W03
 BYTE   W01
 BYTE   N48  Gn2  v080
 BYTE   W48
// 050   ----------------------------------------
 BYTE   N36  Bn2  v080
 BYTE   W36
 BYTE   N36  Dn3  v080
 BYTE   W36
 BYTE   N24  Gn3  v080
 BYTE   W12
 BYTE   W12
// 051   ----------------------------------------
 BYTE   N24  An3  v080
 BYTE   W11
 BYTE   W01
 BYTE   W12
 BYTE   N24  En3  v080
 BYTE   W11
 BYTE   W13
 BYTE   N48  Dn3  v080
 BYTE   W48
// 052   ----------------------------------------
 BYTE   N24  Cn3  v080
 BYTE   W24
 BYTE   N24  Bn2  v080
 BYTE   W24
 BYTE   N24  Cn3  v080
 BYTE   W24
 BYTE   N24  Dn3  v080
 BYTE   W24
// 053   ----------------------------------------
 BYTE   N96  En3  v080
 BYTE   W96
// 054   ----------------------------------------
 BYTE   N36  Cn3  v080
 BYTE   W36
 BYTE   N36  Dn3  v080
 BYTE   W36
 BYTE   N24  Cn3  v080
 BYTE   W24
// 055   ----------------------------------------
 BYTE   N96  Bn2  v080
 BYTE   W96
// 056   ----------------------------------------
 BYTE   N96  Gs2  v080
 BYTE   W96
// 057   ----------------------------------------
 BYTE   TIE  An2  v080
 BYTE   TIE  Cn3  v080
 BYTE   W96
// 058   ----------------------------------------
 BYTE   W96
// 059   ----------------------------------------
 BYTE   EOT
 BYTE   An2
 BYTE   EOT
 BYTE   Cn3
 BYTE   TIE  Bn2  v080
 BYTE   TIE  Dn3  v080
 BYTE   W96
// 060   ----------------------------------------
 BYTE   W96
// 061   ----------------------------------------
 BYTE   EOT
 BYTE   Bn2
 BYTE   EOT
 BYTE   Dn3
 BYTE   VOL   48*song6D_mvl/mxv
 BYTE   TIE  Cn3  v064
 BYTE   TIE  En3  v064
 BYTE   W96
// 062   ----------------------------------------
 BYTE   W96
// 063   ----------------------------------------
 BYTE   EOT
 BYTE   Cn3
 BYTE   EOT
 BYTE   En3
 BYTE   N96  Bn2  v064
 BYTE   N96  En3  v064
 BYTE   W96
// 064   ----------------------------------------
 BYTE   N48  Bn2  v064
 BYTE   N48  Dn3  v064
 BYTE   W48
 BYTE   N24  Bn2  v064
 BYTE   N24  En3  v064
 BYTE   W24
 BYTE   TIE  An2  v064
 BYTE   TIE  Cn3  v064
 BYTE   W24
// 065   ----------------------------------------
 BYTE   W96
// 066   ----------------------------------------
 BYTE   W48
 BYTE   VOICE   100
 BYTE   VOL   50*song6D_mvl/mxv
 BYTE   MODT 0
 BYTE   CsM2
 BYTE   W48
// 067   ----------------------------------------
 BYTE   EOT
 BYTE   An2
 BYTE   EOT
 BYTE   Cn3
 BYTE   W48
 BYTE   N72  An3  v064
 BYTE   N72  Cn4  v064
 BYTE   W72
// 068   ----------------------------------------
 BYTE   N72  Gn3  v064
 BYTE   N72  Bn3  v064
 BYTE   W72
 BYTE   N72  Fn3  v064
 BYTE   N72  An3  v064
 BYTE   W92
// 069   ----------------------------------------
 BYTE   W01
 BYTE   N84  En4  v064
 BYTE   W03
 BYTE   N84  Bn4  v064
 BYTE   W03
 BYTE   N84  En5  v064
 BYTE   W92
// 070   ----------------------------------------
 BYTE   W01
 BYTE   VOICE   81
 BYTE   VOL   50*song6D_mvl/mxv
 BYTE   MODT 0
 BYTE   CsM2
 BYTE   VOL   51*song6D_mvl/mxv
 BYTE   N96  En3  v080
 BYTE   W96
// 071   ----------------------------------------
 BYTE   N24  Cn3  v080
 BYTE   W24
 BYTE   N24  Dn3  v080
 BYTE   W24
 BYTE   N24  En3  v080
 BYTE   W24
 BYTE   N72  Dn3  v080
 BYTE   W24
// 072   ----------------------------------------
 BYTE   W48
 BYTE   N24  Dn3  v080
 BYTE   W24
 BYTE   N24  Gn3  v080
 BYTE   W48
// 073   ----------------------------------------
 BYTE   N24  Dn3  v080
 BYTE   W48
 BYTE   N96  Cn3  v080
 BYTE   W24
 BYTE   W72
// 074   ----------------------------------------
 BYTE   N12  Bn2  v080
 BYTE   W12
 BYTE   N12  Cn3  v080
 BYTE   W12
 BYTE   N24  Dn3  v080
 BYTE   W24
 BYTE   N48  Gn3  v080
 BYTE   W48
// 075   ----------------------------------------
 BYTE   TIE  En3  v080
 BYTE   W24
 BYTE   W96
// 076   ----------------------------------------
 BYTE   W96
// 077   ----------------------------------------
 BYTE   EOT
 BYTE   En3
 BYTE   TIE  An3  v080
 BYTE   W96
// 078   ----------------------------------------
 BYTE   W24
 BYTE   EOT
 BYTE   An3
 BYTE   N24  Fn3  v080
 BYTE   W24
 BYTE   N24  Gn3  v080
 BYTE   W24
 BYTE   N24  An3  v080
 BYTE   W24
// 079   ----------------------------------------
 BYTE   N48  Bn3  v080
 BYTE   W48
 BYTE   N24  Fs3  v080
 BYTE   W24
 BYTE   N24  Bn3  v080
 BYTE   W48
// 080   ----------------------------------------
 BYTE   N24  An3  v080
 BYTE   W48
 BYTE   N96  Gs3  v080
 BYTE   W24
 BYTE   W72
// 081   ----------------------------------------
 BYTE   N12  Gs3  v080
 BYTE   W12
 BYTE   N12  An3  v080
 BYTE   W12
 BYTE   N72  Bn3  v080
 BYTE   W72
// 082   ----------------------------------------
 BYTE   N12  Cn4  v080
 BYTE   W12
 BYTE   N12  Dn4  v080
 BYTE   W12
 BYTE   TIE  En4  v080
 BYTE   W96
// 083   ----------------------------------------
 BYTE   W96
// 084   ----------------------------------------
 BYTE   EOT
 BYTE   En4
 BYTE   N96  En3  v080
 BYTE   W96
// 085   ----------------------------------------
 BYTE   N24  Cn3  v080
 BYTE   W24
 BYTE   N24  Dn3  v080
 BYTE   W24
 BYTE   N24  En3  v080
 BYTE   W24
 BYTE   N72  Dn3  v080
 BYTE   W24
// 086   ----------------------------------------
 BYTE   W48
 BYTE   N24  Dn3  v080
 BYTE   W24
 BYTE   N24  Gn3  v080
 BYTE   W48
// 087   ----------------------------------------
 BYTE   N24  Dn3  v080
 BYTE   W48
 BYTE   N96  Cn3  v080
 BYTE   W24
 BYTE   W72
// 088   ----------------------------------------
 BYTE   N12  Bn2  v080
 BYTE   W12
 BYTE   N12  Cn3  v080
 BYTE   W12
 BYTE   N24  Dn3  v080
 BYTE   W24
 BYTE   N48  Gn3  v080
 BYTE   W48
// 089   ----------------------------------------
 BYTE   TIE  En3  v080
 BYTE   W24
 BYTE   W96
// 090   ----------------------------------------
 BYTE   W48
 BYTE   EOT
 BYTE   En3
 BYTE   N24  En4  v080
 BYTE   W24
 BYTE   N24  En4  v080
 BYTE   W24
// 091   ----------------------------------------
 BYTE   N48  Dn4  v080
 BYTE   W48
 BYTE   N24  En4  v080
 BYTE   W24
 BYTE   N24  Fn4  v080
 BYTE   W24
// 092   ----------------------------------------
 BYTE   N24  En4  v080
 BYTE   W24
 BYTE   N36  Dn4  v080
 BYTE   W48
 BYTE   N12  An3  v080
 BYTE   W12
 BYTE   N12  Bn3  v080
 BYTE   W12
// 093   ----------------------------------------
 BYTE   N48  Cn4  v080
 BYTE   W48
 BYTE   N24  Dn4  v080
 BYTE   W24
 BYTE   N24  En4  v080
 BYTE   W24
// 094   ----------------------------------------
 BYTE   N24  Dn4  v080
 BYTE   W24
 BYTE   N48  Cn4  v080
 BYTE   W48
 BYTE   N24  An3  v080
 BYTE   W24
// 095   ----------------------------------------
 BYTE   N12  Bn3  v080
 BYTE   W24
 BYTE   N12  Bn3  v080
 BYTE   W12
 BYTE   N12  Bn3  v080
 BYTE   W24
 BYTE   N12  Bn3  v080
 BYTE   W24
 BYTE   N12  Bn3  v080
 BYTE   W12
// 096   ----------------------------------------
 BYTE   N36  Bn3  v080
 BYTE   W36
 BYTE   N36  Cn4  v080
 BYTE   W36
 BYTE   N24  Dn4  v080
 BYTE   W24
// 097   ----------------------------------------
 BYTE   N36  Bn3  v080
 BYTE   W36
 BYTE   TIE  An3  v080
 BYTE   W96
// 098   ----------------------------------------
 BYTE   W60
 BYTE   EOT
 BYTE   An3
 BYTE   N48  En4  v080
 BYTE   W48
// 099   ----------------------------------------
 BYTE   N48  Cn4  v080
 BYTE   W48
 BYTE   N36  An3  v080
 BYTE   W36
 BYTE   N36  Bn3  v080
 BYTE   W36
// 100   ----------------------------------------
 BYTE   N24  Cn4  v080
 BYTE   W24
 BYTE   TIE  Dn4  v080
 BYTE   W96
// 101   ----------------------------------------
 BYTE   W24
 BYTE   EOT
 BYTE   Dn4
 BYTE   N24  Cn4  v080
 BYTE   W24
 BYTE   N24  Bn3  v080
 BYTE   W24
 BYTE   N24  Cn4  v080
 BYTE   W24
// 102   ----------------------------------------
 BYTE   N48  Dn4  v080
 BYTE   W48
 BYTE   N48  Bn3  v080
 BYTE   W48
// 103   ----------------------------------------
 BYTE   N36  Gn3  v080
 BYTE   W36
 BYTE   N36  An3  v080
 BYTE   W36
 BYTE   N24  Bn3  v080
 BYTE   W24
// 104   ----------------------------------------
 BYTE   TIE  Cn4  v080
 BYTE   W96
// 105   ----------------------------------------
 BYTE   W24
 BYTE   EOT
 BYTE   Cn4
 BYTE   N24  An3  v080
 BYTE   W24
 BYTE   N24  Bn3  v080
 BYTE   W24
 BYTE   N24  Cn4  v080
 BYTE   W24
// 106   ----------------------------------------
 BYTE   N48  En4  v080
 BYTE   W48
 BYTE   N48  Cn4  v080
 BYTE   W48
// 107   ----------------------------------------
 BYTE   N36  An3  v080
 BYTE   W36
 BYTE   N36  Bn3  v080
 BYTE   W36
 BYTE   N24  Cn4  v080
 BYTE   W24
// 108   ----------------------------------------
 BYTE   TIE  Dn4  v080
 BYTE   W96
// 109   ----------------------------------------
 BYTE   W24
 BYTE   EOT
 BYTE   Dn4
 BYTE   N24  Cn4  v080
 BYTE   W24
 BYTE   N24  Bn3  v080
 BYTE   W24
 BYTE   N24  Cn4  v080
 BYTE   W24
// 110   ----------------------------------------
 BYTE   N48  Dn4  v080
 BYTE   W44
 BYTE   W03
 BYTE   W01
 BYTE   N48  Gs3  v080
 BYTE   W48
// 111   ----------------------------------------
 BYTE   N36  Bn3  v080
 BYTE   W36
 BYTE   N36  Dn4  v080
 BYTE   W36
 BYTE   N24  Gs4  v080
 BYTE   W12
 BYTE   W12
// 112   ----------------------------------------
 BYTE   N24  An4  v080
 BYTE   W11
 BYTE   W01
 BYTE   W12
 BYTE   N24  En4  v080
 BYTE   W11
 BYTE   W13
 BYTE   N48  Dn4  v080
 BYTE   W48
// 113   ----------------------------------------
 BYTE   N24  Cn4  v080
 BYTE   W24
 BYTE   N24  Bn3  v080
 BYTE   W24
 BYTE   N24  Cn4  v080
 BYTE   W24
 BYTE   N24  Dn4  v080
 BYTE   W24
// 114   ----------------------------------------
 BYTE   N96  En4  v080
 BYTE   W96
// 115   ----------------------------------------
 BYTE   N36  Cn4  v080
 BYTE   W36
 BYTE   N36  Dn4  v080
 BYTE   W36
 BYTE   N24  Cn4  v080
 BYTE   W24
// 116   ----------------------------------------
 BYTE   N96  Bn3  v080
 BYTE   W96
// 117   ----------------------------------------
 BYTE   N96  Gs3  v080
 BYTE   W96
// 118   ----------------------------------------
 BYTE   TIE  An3  v080
 BYTE   TIE  Cn4  v080
 BYTE   W96
// 119   ----------------------------------------
 BYTE   W96
// 120   ----------------------------------------
 BYTE   EOT
 BYTE   An3
 BYTE   EOT
 BYTE   Cn4
 BYTE   TIE  Bn3  v080
 BYTE   TIE  Dn4  v080
 BYTE   W96
// 121   ----------------------------------------
 BYTE   W96
// 122   ----------------------------------------
 BYTE   EOT
 BYTE   Bn3
 BYTE   EOT
 BYTE   Dn4
 BYTE   VOICE   100
 BYTE   VOL   50*song6D_mvl/mxv
 BYTE   MODT 0
 BYTE   CsM2
 BYTE   VOL   47*song6D_mvl/mxv
 BYTE   TIE  En3  v064
 BYTE   TIE  An3  v064
 BYTE   TIE  Cn4  v064
 BYTE   W96
// 123   ----------------------------------------
 BYTE   W72
 BYTE   EOT
 BYTE   En3
 BYTE   EOT
 BYTE   An3
 BYTE   EOT
 BYTE   Cn4
 BYTE   TIE  Dn3  v064
 BYTE   TIE  Gn3  v064
 BYTE   TIE  Bn3  v064
 BYTE   W24
// 124   ----------------------------------------
 BYTE   W96
// 125   ----------------------------------------
 BYTE   W72
 BYTE   EOT
 BYTE   Dn3
 BYTE   EOT
 BYTE   Gn3
 BYTE   EOT
 BYTE   Bn3
 BYTE   TIE  Cn3  v064
 BYTE   TIE  Fn3  v064
 BYTE   TIE  An3  v064
 BYTE   W24
// 126   ----------------------------------------
 BYTE   W96
// 127   ----------------------------------------
 BYTE   W96
// 128   ----------------------------------------
 BYTE   W24
 BYTE   EOT
 BYTE   Cn3
 BYTE   EOT
 BYTE   Fn3
 BYTE   EOT
 BYTE   An3
 BYTE   W24
 BYTE   N72  Cn4  v064
 BYTE   N72  An4  v064
 BYTE   W72
// 129   ----------------------------------------
 BYTE   N72  Bn3  v064
 BYTE   N72  Gn4  v064
 BYTE   W72
 BYTE   N72  An3  v064
 BYTE   N72  Fn4  v064
 BYTE   W92
// 130   ----------------------------------------
 BYTE   W01
 BYTE   N84  En4  v064
 BYTE   W03
 BYTE   N84  Bn4  v064
 BYTE   W03
 BYTE   N84  En5  v064
 BYTE   W92
// 131   ----------------------------------------
 BYTE   W01
 BYTE   N24  En3  v064
 BYTE   N24  An3  v064
 BYTE   N24  Cn4  v064
 BYTE   W36
 BYTE   N12  En3  v064
 BYTE   N12  An3  v064
 BYTE   N12  Cn4  v064
 BYTE   W24
 BYTE   GoTo
  POIN2 Label_1_018DFA81
 BYTE   FINE

//**************** Track 3 (Midi-Chn.2) ****************//

song6D_003:
// 000   ----------------------------------------
Label_2_018DF340:
 BYTE   KEYSH   song6D_key+0
 BYTE   VOICE   80
 BYTE   VOL   50*song6D_mvl/mxv
 BYTE   MODT 0
 BYTE   CsM2
 BYTE   VOL   48*song6D_mvl/mxv
 BYTE   TIE  En3  v064
 BYTE   W96
// 001   ----------------------------------------
 BYTE   W96
// 002   ----------------------------------------
 BYTE   EOT
 BYTE   En3
 BYTE   N96  En3  v064
 BYTE   W96
// 003   ----------------------------------------
 BYTE   N48  Dn3  v064
 BYTE   W48
 BYTE   N24  En3  v064
 BYTE   W24
 BYTE   TIE  Cn3  v064
 BYTE   W24
// 004   ----------------------------------------
 BYTE   W96
// 005   ----------------------------------------
 BYTE   W96
// 006   ----------------------------------------
 BYTE   EOT
 BYTE   Cn3
 BYTE   VOICE   18
 BYTE   VOL   50*song6D_mvl/mxv
 BYTE   MODT 0
 BYTE   CsM2
 BYTE   VOL   31*song6D_mvl/mxv
 BYTE   N24  Fn3  v080
 BYTE   N24  An3  v080
 BYTE   N24  Fn4  v080
 BYTE   N24  An4  v080
 BYTE   W24
 BYTE   N24  Gn3  v080
 BYTE   N24  Bn3  v080
 BYTE   N24  Gn4  v080
 BYTE   N24  Bn4  v080
 BYTE   W24
 BYTE   N24  An3  v092
 BYTE   N24  Cn4  v092
 BYTE   N24  An4  v092
 BYTE   N24  Cn5  v092
 BYTE   W24
 BYTE   N24  An3  v080
 BYTE   N24  Cn4  v080
 BYTE   N24  An4  v080
 BYTE   N24  Cn5  v080
 BYTE   W24
// 007   ----------------------------------------
 BYTE   N24  An3  v080
 BYTE   N24  Cn4  v080
 BYTE   N24  An4  v080
 BYTE   N24  Cn5  v080
 BYTE   W24
 BYTE   N24  Gn3  v092
 BYTE   N24  Bn3  v092
 BYTE   N24  Gn4  v092
 BYTE   N24  Bn4  v092
 BYTE   W24
 BYTE   N24  Gn3  v080
 BYTE   N24  Bn3  v080
 BYTE   N24  Gn4  v080
 BYTE   N24  Bn4  v080
 BYTE   W24
 BYTE   N24  En3  v080
 BYTE   N24  Gn3  v080
 BYTE   N24  En4  v080
 BYTE   N24  Gn4  v080
 BYTE   W24
// 008   ----------------------------------------
 BYTE   VOL   30*song6D_mvl/mxv
 BYTE   N24  Fn3  v092
 BYTE   N24  An3  v092
 BYTE   N24  Fn4  v092
 BYTE   N24  An4  v092
 BYTE   W06
 BYTE   VOL   30*song6D_mvl/mxv
 BYTE   W07
 BYTE   VOL   30*song6D_mvl/mxv
 BYTE   W07
 BYTE   VOL   31*song6D_mvl/mxv
 BYTE   W04
 BYTE   N12  En3  v068
 BYTE   N12  En4  v068
 BYTE   W03
 BYTE   VOL   31*song6D_mvl/mxv
 BYTE   W06
 BYTE   VOL   32*song6D_mvl/mxv
 BYTE   W03
 BYTE   N12  En3  v072
 BYTE   N12  En4  v072
 BYTE   W04
 BYTE   VOL   32*song6D_mvl/mxv
 BYTE   W07
 BYTE   VOL   33*song6D_mvl/mxv
 BYTE   W01
 BYTE   N12  En3  v076
 BYTE   N12  En4  v076
 BYTE   W06
 BYTE   VOL   33*song6D_mvl/mxv
 BYTE   W06
 BYTE   VOL   34*song6D_mvl/mxv
 BYTE   N12  En3  v076
 BYTE   N12  En4  v076
 BYTE   W07
 BYTE   VOL   34*song6D_mvl/mxv
 BYTE   W05
 BYTE   N12  En3  v080
 BYTE   N12  En4  v080
 BYTE   W02
 BYTE   VOL   34*song6D_mvl/mxv
 BYTE   W07
 BYTE   VOL   35*song6D_mvl/mxv
 BYTE   W03
 BYTE   N12  En3  v084
 BYTE   N12  En4  v084
 BYTE   W03
 BYTE   VOL   35*song6D_mvl/mxv
 BYTE   W07
 BYTE   VOL   36*song6D_mvl/mxv
 BYTE   W02
// 009   ----------------------------------------
 BYTE   N96  Gs3  v092
 BYTE   N96  En4  v092
 BYTE   N96  Gs4  v092
 BYTE   N96  En5  v092
 BYTE   W05
 BYTE   VOL   36*song6D_mvl/mxv
 BYTE   W06
 BYTE   VOL   37*song6D_mvl/mxv
 BYTE   W84
 BYTE   W01
// 010   ----------------------------------------
 BYTE   VOL   51*song6D_mvl/mxv
 BYTE   N96  Cn4  v080
 BYTE   W96
// 011   ----------------------------------------
 BYTE   N24  An3  v080
 BYTE   W24
 BYTE   N24  Bn3  v080
 BYTE   W24
 BYTE   N24  Cn4  v080
 BYTE   W24
 BYTE   N72  Bn3  v080
 BYTE   W24
// 012   ----------------------------------------
 BYTE   W48
 BYTE   N24  Bn3  v080
 BYTE   W24
 BYTE   N24  En4  v080
 BYTE   W48
// 013   ----------------------------------------
 BYTE   N24  Bn3  v080
 BYTE   W48
 BYTE   N96  An3  v080
 BYTE   W24
 BYTE   W72
// 014   ----------------------------------------
 BYTE   N12  Gn3  v080
 BYTE   W12
 BYTE   N12  An3  v080
 BYTE   W12
 BYTE   N24  Bn3  v080
 BYTE   W24
 BYTE   N24  En4  v080
 BYTE   W24
 BYTE   N24  Dn4  v080
 BYTE   W24
// 015   ----------------------------------------
 BYTE   TIE  Cn4  v080
 BYTE   W24
 BYTE   W96
// 016   ----------------------------------------
 BYTE   W96
// 017   ----------------------------------------
 BYTE   EOT
 BYTE   Cn4
 BYTE   TIE  Fn4  v080
 BYTE   W96
// 018   ----------------------------------------
 BYTE   W24
 BYTE   EOT
 BYTE   Fn4
 BYTE   N24  Dn4  v080
 BYTE   W24
 BYTE   N24  En4  v080
 BYTE   W24
 BYTE   N24  Fn4  v080
 BYTE   W24
// 019   ----------------------------------------
 BYTE   N48  Fs4  v080
 BYTE   W48
 BYTE   N24  Ds4  v080
 BYTE   W24
 BYTE   N24  Fs4  v080
 BYTE   W48
// 020   ----------------------------------------
 BYTE   N24  Bn4  v080
 BYTE   W48
 BYTE   N24  Fs4  v084
 BYTE   W24
 BYTE   N96  En4  v080
 BYTE   N96  Gs4  v080
 BYTE   W96
// 021   ----------------------------------------
 BYTE   N96  Fn4  v080
 BYTE   N96  An4  v080
 BYTE   W96
// 022   ----------------------------------------
 BYTE   TIE  Gs4  v080
 BYTE   TIE  Bn4  v080
 BYTE   W96
// 023   ----------------------------------------
 BYTE   W96
// 024   ----------------------------------------
 BYTE   EOT
 BYTE   Gs4
 BYTE   EOT
 BYTE   Bn4
 BYTE   N96  Cn4  v080
 BYTE   W96
// 025   ----------------------------------------
 BYTE   N24  An3  v080
 BYTE   W24
 BYTE   N24  Bn3  v080
 BYTE   W24
 BYTE   N24  Cn4  v080
 BYTE   W24
 BYTE   N72  Bn3  v080
 BYTE   W24
// 026   ----------------------------------------
 BYTE   W48
 BYTE   N24  Bn3  v080
 BYTE   W24
 BYTE   N24  En4  v080
 BYTE   W48
// 027   ----------------------------------------
 BYTE   N24  Bn3  v080
 BYTE   W48
 BYTE   N96  An3  v080
 BYTE   W24
 BYTE   W72
// 028   ----------------------------------------
 BYTE   N12  Gn3  v080
 BYTE   W12
 BYTE   N12  An3  v080
 BYTE   W12
 BYTE   N24  Bn3  v080
 BYTE   W24
 BYTE   N24  En4  v080
 BYTE   W24
 BYTE   N24  Dn4  v080
 BYTE   W24
// 029   ----------------------------------------
 BYTE   TIE  Cn4  v080
 BYTE   W24
 BYTE   W96
// 030   ----------------------------------------
 BYTE   W48
 BYTE   EOT
 BYTE   Cn4
 BYTE   N24  Cn5  v064
 BYTE   W24
 BYTE   N24  Cn5  v064
 BYTE   W24
// 031   ----------------------------------------
 BYTE   N48  As4  v064
 BYTE   W48
 BYTE   N24  Cn5  v064
 BYTE   W24
 BYTE   N24  Dn5  v064
 BYTE   W24
// 032   ----------------------------------------
 BYTE   N24  Cn5  v064
 BYTE   W24
 BYTE   N36  As4  v064
 BYTE   W48
 BYTE   N12  Fn4  v064
 BYTE   W12
 BYTE   N12  Gn4  v064
 BYTE   W12
// 033   ----------------------------------------
 BYTE   N48  An4  v064
 BYTE   W48
 BYTE   N24  Bn4  v064
 BYTE   W24
 BYTE   N24  Cn5  v064
 BYTE   W24
// 034   ----------------------------------------
 BYTE   N24  Bn4  v064
 BYTE   W24
 BYTE   N48  An4  v064
 BYTE   W48
 BYTE   N24  Fn4  v064
 BYTE   W24
// 035   ----------------------------------------
 BYTE   N12  Gn4  v064
 BYTE   W24
 BYTE   N12  Gn4  v064
 BYTE   W12
 BYTE   N12  Gn4  v064
 BYTE   W24
 BYTE   N12  Gn4  v064
 BYTE   W24
 BYTE   N12  Gn4  v064
 BYTE   W12
// 036   ----------------------------------------
 BYTE   N36  Gs4  v064
 BYTE   W36
 BYTE   N36  An4  v064
 BYTE   W36
 BYTE   N24  Bn4  v064
 BYTE   W24
// 037   ----------------------------------------
 BYTE   N36  Dn5  v064
 BYTE   W36
 BYTE   TIE  Cn5  v064
 BYTE   W96
// 038   ----------------------------------------
 BYTE   W60
 BYTE   EOT
 BYTE   Cn5
 BYTE   N48  Cn5  v064
 BYTE   W48
// 039   ----------------------------------------
 BYTE   N48  An4  v064
 BYTE   W48
 BYTE   N36  Fn4  v064
 BYTE   W36
 BYTE   N36  Fn4  v064
 BYTE   W36
// 040   ----------------------------------------
 BYTE   N24  An4  v064
 BYTE   W24
 BYTE   N48  Bn4  v064
 BYTE   W48
 BYTE   N48  Gn4  v064
 BYTE   W48
// 041   ----------------------------------------
 BYTE   N36  Dn4  v064
 BYTE   W36
 BYTE   N36  Gn4  v064
 BYTE   W36
 BYTE   N24  An4  v064
 BYTE   W24
// 042   ----------------------------------------
 BYTE   N48  Bn4  v064
 BYTE   W48
 BYTE   N48  Gn4  v064
 BYTE   W48
// 043   ----------------------------------------
 BYTE   N36  En4  v064
 BYTE   W36
 BYTE   N36  En4  v064
 BYTE   W36
 BYTE   N24  Gn4  v064
 BYTE   W24
// 044   ----------------------------------------
 BYTE   N48  An4  v064
 BYTE   W48
 BYTE   N48  En4  v064
 BYTE   W48
// 045   ----------------------------------------
 BYTE   N36  Cn4  v064
 BYTE   W36
 BYTE   N36  En4  v064
 BYTE   W36
 BYTE   N24  Gn4  v064
 BYTE   W24
// 046   ----------------------------------------
 BYTE   N48  Cn5  v064
 BYTE   W48
 BYTE   N48  An4  v064
 BYTE   W48
// 047   ----------------------------------------
 BYTE   N36  Fn4  v064
 BYTE   W36
 BYTE   N36  Fn4  v064
 BYTE   W36
 BYTE   N24  An4  v064
 BYTE   W24
// 048   ----------------------------------------
 BYTE   N48  Bn4  v064
 BYTE   W48
 BYTE   N48  Gn4  v064
 BYTE   W48
// 049   ----------------------------------------
 BYTE   N36  Dn4  v064
 BYTE   W36
 BYTE   N36  Gn4  v064
 BYTE   W36
 BYTE   N24  An4  v064
 BYTE   W24
// 050   ----------------------------------------
 BYTE   N48  Bn4  v064
 BYTE   W48
 BYTE   N48  Gn4  v064
 BYTE   W48
// 051   ----------------------------------------
 BYTE   N36  En4  v064
 BYTE   W36
 BYTE   N36  Gn4  v064
 BYTE   W36
 BYTE   N24  Bn4  v064
 BYTE   W24
// 052   ----------------------------------------
 BYTE   N24  Cn5  v064
 BYTE   W24
 BYTE   N24  An4  v064
 BYTE   W24
 BYTE   N48  En4  v064
 BYTE   W48
// 053   ----------------------------------------
 BYTE   N36  Cn4  v064
 BYTE   W36
 BYTE   N36  En4  v064
 BYTE   W36
 BYTE   N24  An4  v064
 BYTE   W24
// 054   ----------------------------------------
 BYTE   N96  Cn5  v064
 BYTE   W96
// 055   ----------------------------------------
 BYTE   N36  An4  v064
 BYTE   W36
 BYTE   N36  Bn4  v064
 BYTE   W36
 BYTE   N24  An4  v064
 BYTE   W24
// 056   ----------------------------------------
 BYTE   N36  Gn4  v064
 BYTE   W36
 BYTE   N36  Dn4  v064
 BYTE   W36
 BYTE   N24  Gn4  v064
 BYTE   W24
// 057   ----------------------------------------
 BYTE   N36  En4  v064
 BYTE   W36
 BYTE   N36  Bn3  v064
 BYTE   W36
 BYTE   N24  En4  v064
 BYTE   W24
// 058   ----------------------------------------
 BYTE   TIE  Cn4  v064
 BYTE   TIE  Fn4  v064
 BYTE   W96
// 059   ----------------------------------------
 BYTE   W96
// 060   ----------------------------------------
 BYTE   EOT
 BYTE   Cn4
 BYTE   EOT
 BYTE   Fn4
 BYTE   TIE  Dn4  v064
 BYTE   TIE  Gn4  v064
 BYTE   W96
// 061   ----------------------------------------
 BYTE   W96
// 062   ----------------------------------------
 BYTE   EOT
 BYTE   Dn4
 BYTE   EOT
 BYTE   Gn4
 BYTE   W96
// 063   ----------------------------------------
 BYTE   W96
// 064   ----------------------------------------
 BYTE   W96
// 065   ----------------------------------------
 BYTE   W96
// 066   ----------------------------------------
 BYTE   W96
// 067   ----------------------------------------
 BYTE   W96
// 068   ----------------------------------------
 BYTE   VOICE   18
 BYTE   VOL   50*song6D_mvl/mxv
 BYTE   MODT 0
 BYTE   CsM2
 BYTE   VOL   37*song6D_mvl/mxv
 BYTE   N24  Fn3  v080
 BYTE   N24  An3  v080
 BYTE   N24  Fn4  v080
 BYTE   N24  An4  v080
 BYTE   W24
 BYTE   N24  Gn3  v080
 BYTE   N24  Bn3  v080
 BYTE   N24  Gn4  v080
 BYTE   N24  Bn4  v080
 BYTE   W24
 BYTE   N24  An3  v092
 BYTE   N24  Cn4  v092
 BYTE   N24  An4  v092
 BYTE   N24  Cn5  v092
 BYTE   W24
 BYTE   N24  An3  v080
 BYTE   N24  Cn4  v080
 BYTE   N24  An4  v080
 BYTE   N24  Cn5  v080
 BYTE   W24
// 069   ----------------------------------------
 BYTE   N24  An3  v080
 BYTE   N24  Cn4  v080
 BYTE   N24  An4  v080
 BYTE   N24  Cn5  v080
 BYTE   W24
 BYTE   N24  Gn3  v092
 BYTE   N24  Bn3  v092
 BYTE   N24  Gn4  v092
 BYTE   N24  Bn4  v092
 BYTE   W24
 BYTE   N24  Gn3  v080
 BYTE   N24  Bn3  v080
 BYTE   N24  Gn4  v080
 BYTE   N24  Bn4  v080
 BYTE   W24
 BYTE   N24  En3  v080
 BYTE   N24  Gn3  v080
 BYTE   N24  En4  v080
 BYTE   N24  Gn4  v080
 BYTE   W24
// 070   ----------------------------------------
 BYTE   VOL   35*song6D_mvl/mxv
 BYTE   N24  Fn3  v092
 BYTE   N24  An3  v092
 BYTE   N24  Fn4  v092
 BYTE   N24  An4  v092
 BYTE   W06
 BYTE   VOL   35*song6D_mvl/mxv
 BYTE   W07
 BYTE   VOL   36*song6D_mvl/mxv
 BYTE   W07
 BYTE   VOL   37*song6D_mvl/mxv
 BYTE   W04
 BYTE   N12  En3  v068
 BYTE   N12  En4  v068
 BYTE   W03
 BYTE   VOL   37*song6D_mvl/mxv
 BYTE   W06
 BYTE   VOL   38*song6D_mvl/mxv
 BYTE   W03
 BYTE   N12  En3  v072
 BYTE   N12  En4  v072
 BYTE   W04
 BYTE   VOL   38*song6D_mvl/mxv
 BYTE   W07
 BYTE   VOL   39*song6D_mvl/mxv
 BYTE   W01
 BYTE   N12  En3  v076
 BYTE   N12  En4  v076
 BYTE   W06
 BYTE   VOL   40*song6D_mvl/mxv
 BYTE   W06
 BYTE   VOL   40*song6D_mvl/mxv
 BYTE   N12  En3  v076
 BYTE   N12  En4  v076
 BYTE   W07
 BYTE   VOL   41*song6D_mvl/mxv
 BYTE   W05
 BYTE   N12  En3  v080
 BYTE   N12  En4  v080
 BYTE   W02
 BYTE   VOL   41*song6D_mvl/mxv
 BYTE   W07
 BYTE   VOL   42*song6D_mvl/mxv
 BYTE   W03
 BYTE   N12  En3  v084
 BYTE   N12  En4  v084
 BYTE   W03
 BYTE   VOL   42*song6D_mvl/mxv
 BYTE   W07
 BYTE   VOL   43*song6D_mvl/mxv
 BYTE   W02
// 071   ----------------------------------------
 BYTE   N96  Gs3  v092
 BYTE   N96  En4  v092
 BYTE   N96  Gs4  v092
 BYTE   N96  En5  v092
 BYTE   W05
 BYTE   VOL   43*song6D_mvl/mxv
 BYTE   W06
 BYTE   VOL   45*song6D_mvl/mxv
 BYTE   W84
 BYTE   W01
// 072   ----------------------------------------
 BYTE   VOL   51*song6D_mvl/mxv
 BYTE   N96  Cn4  v080
 BYTE   W96
// 073   ----------------------------------------
 BYTE   N24  An3  v080
 BYTE   W24
 BYTE   N24  Bn3  v080
 BYTE   W24
 BYTE   N24  Cn4  v080
 BYTE   W24
 BYTE   N72  Bn3  v080
 BYTE   W24
// 074   ----------------------------------------
 BYTE   W48
 BYTE   N24  Bn3  v080
 BYTE   W24
 BYTE   N24  En4  v080
 BYTE   W48
// 075   ----------------------------------------
 BYTE   N24  Bn3  v080
 BYTE   W48
 BYTE   N96  An3  v080
 BYTE   W24
 BYTE   W72
// 076   ----------------------------------------
 BYTE   N12  Gn3  v080
 BYTE   W12
 BYTE   N12  An3  v080
 BYTE   W12
 BYTE   N24  Bn3  v080
 BYTE   W24
 BYTE   N24  En4  v080
 BYTE   W24
 BYTE   N24  Dn4  v080
 BYTE   W24
// 077   ----------------------------------------
 BYTE   TIE  Cn4  v080
 BYTE   W24
 BYTE   W96
// 078   ----------------------------------------
 BYTE   W96
// 079   ----------------------------------------
 BYTE   EOT
 BYTE   Cn4
 BYTE   TIE  Fn4  v080
 BYTE   W96
// 080   ----------------------------------------
 BYTE   W24
 BYTE   EOT
 BYTE   Fn4
 BYTE   N24  Dn4  v080
 BYTE   W24
 BYTE   N24  En4  v080
 BYTE   W24
 BYTE   N24  Fn4  v080
 BYTE   W24
// 081   ----------------------------------------
 BYTE   N48  Fs4  v080
 BYTE   W48
 BYTE   N24  Ds4  v080
 BYTE   W24
 BYTE   N24  Fs4  v080
 BYTE   W48
// 082   ----------------------------------------
 BYTE   N24  Bn4  v080
 BYTE   W48
 BYTE   N24  Fs4  v084
 BYTE   W24
 BYTE   N96  En4  v080
 BYTE   N96  Gs4  v080
 BYTE   W96
// 083   ----------------------------------------
 BYTE   N96  Fn4  v080
 BYTE   N96  An4  v080
 BYTE   W96
// 084   ----------------------------------------
 BYTE   TIE  Gs4  v080
 BYTE   TIE  Bn4  v080
 BYTE   W96
// 085   ----------------------------------------
 BYTE   W96
// 086   ----------------------------------------
 BYTE   EOT
 BYTE   Gs4
 BYTE   EOT
 BYTE   Bn4
 BYTE   N96  Cn4  v080
 BYTE   W96
// 087   ----------------------------------------
 BYTE   N24  An3  v080
 BYTE   W24
 BYTE   N24  Bn3  v080
 BYTE   W24
 BYTE   N24  Cn4  v080
 BYTE   W24
 BYTE   N72  Bn3  v080
 BYTE   W24
// 088   ----------------------------------------
 BYTE   W48
 BYTE   N24  Bn3  v080
 BYTE   W24
 BYTE   N24  En4  v080
 BYTE   W48
// 089   ----------------------------------------
 BYTE   N24  Bn3  v080
 BYTE   W48
 BYTE   N96  An3  v080
 BYTE   W24
 BYTE   W72
// 090   ----------------------------------------
 BYTE   N12  Gn3  v080
 BYTE   W12
 BYTE   N12  An3  v080
 BYTE   W12
 BYTE   N24  Bn3  v080
 BYTE   W24
 BYTE   N24  En4  v080
 BYTE   W24
 BYTE   N24  Dn4  v080
 BYTE   W24
// 091   ----------------------------------------
 BYTE   TIE  Cn4  v080
 BYTE   W24
 BYTE   W96
// 092   ----------------------------------------
 BYTE   W48
 BYTE   EOT
 BYTE   Cn4
 BYTE   N24  Cn5  v064
 BYTE   W24
 BYTE   N24  Cn5  v064
 BYTE   W24
// 093   ----------------------------------------
 BYTE   N48  As4  v064
 BYTE   W48
 BYTE   N24  Cn5  v064
 BYTE   W24
 BYTE   N24  Dn5  v064
 BYTE   W24
// 094   ----------------------------------------
 BYTE   N24  Cn5  v064
 BYTE   W24
 BYTE   N36  As4  v064
 BYTE   W48
 BYTE   N12  Fn4  v064
 BYTE   W12
 BYTE   N12  Gn4  v064
 BYTE   W12
// 095   ----------------------------------------
 BYTE   N48  An4  v064
 BYTE   W48
 BYTE   N24  Bn4  v064
 BYTE   W24
 BYTE   N24  Cn5  v064
 BYTE   W24
// 096   ----------------------------------------
 BYTE   N24  Bn4  v064
 BYTE   W24
 BYTE   N48  An4  v064
 BYTE   W48
 BYTE   N24  Fn4  v064
 BYTE   W24
// 097   ----------------------------------------
 BYTE   N12  Gn4  v064
 BYTE   W24
 BYTE   N12  Gn4  v064
 BYTE   W12
 BYTE   N12  Gn4  v064
 BYTE   W24
 BYTE   N12  Gn4  v064
 BYTE   W24
 BYTE   N12  Gn4  v064
 BYTE   W12
// 098   ----------------------------------------
 BYTE   N36  Gs4  v064
 BYTE   W36
 BYTE   N36  An4  v064
 BYTE   W36
 BYTE   N24  Bn4  v064
 BYTE   W24
// 099   ----------------------------------------
 BYTE   N36  Dn5  v064
 BYTE   W36
 BYTE   TIE  Cn5  v064
 BYTE   W96
// 100   ----------------------------------------
 BYTE   W60
 BYTE   EOT
 BYTE   Cn5
 BYTE   N48  Cn5  v064
 BYTE   W48
// 101   ----------------------------------------
 BYTE   N48  An4  v064
 BYTE   W48
 BYTE   N36  Fn4  v064
 BYTE   W36
 BYTE   N36  Fn4  v064
 BYTE   W36
// 102   ----------------------------------------
 BYTE   N24  An4  v064
 BYTE   W24
 BYTE   N48  Bn4  v064
 BYTE   W48
 BYTE   N48  Gn4  v064
 BYTE   W48
// 103   ----------------------------------------
 BYTE   N36  Dn4  v064
 BYTE   W36
 BYTE   N36  Gn4  v064
 BYTE   W36
 BYTE   N24  An4  v064
 BYTE   W24
// 104   ----------------------------------------
 BYTE   N48  Bn4  v064
 BYTE   W48
 BYTE   N48  Gn4  v064
 BYTE   W48
// 105   ----------------------------------------
 BYTE   N36  En4  v064
 BYTE   W36
 BYTE   N36  En4  v064
 BYTE   W36
 BYTE   N24  Gn4  v064
 BYTE   W24
// 106   ----------------------------------------
 BYTE   N48  An4  v064
 BYTE   W48
 BYTE   N48  En4  v064
 BYTE   W48
// 107   ----------------------------------------
 BYTE   N36  Cn4  v064
 BYTE   W36
 BYTE   N36  En4  v064
 BYTE   W36
 BYTE   N24  Gn4  v064
 BYTE   W24
// 108   ----------------------------------------
 BYTE   N48  Cn5  v064
 BYTE   W48
 BYTE   N48  An4  v064
 BYTE   W48
// 109   ----------------------------------------
 BYTE   N36  Fn4  v064
 BYTE   W36
 BYTE   N36  Fn4  v064
 BYTE   W36
 BYTE   N24  An4  v064
 BYTE   W24
// 110   ----------------------------------------
 BYTE   N48  Bn4  v064
 BYTE   W48
 BYTE   N48  Gn4  v064
 BYTE   W48
// 111   ----------------------------------------
 BYTE   N36  Dn4  v064
 BYTE   W36
 BYTE   N36  Gn4  v064
 BYTE   W36
 BYTE   N24  An4  v064
 BYTE   W24
// 112   ----------------------------------------
 BYTE   N48  Bn4  v064
 BYTE   W48
 BYTE   N48  Gs4  v064
 BYTE   W48
// 113   ----------------------------------------
 BYTE   N36  En4  v064
 BYTE   W36
 BYTE   N36  Gs4  v064
 BYTE   W36
 BYTE   N24  Bn4  v064
 BYTE   W24
// 114   ----------------------------------------
 BYTE   N24  Cn5  v064
 BYTE   W24
 BYTE   N24  An4  v064
 BYTE   W24
 BYTE   N48  En4  v064
 BYTE   W48
// 115   ----------------------------------------
 BYTE   N36  Cn4  v064
 BYTE   W36
 BYTE   N36  En4  v064
 BYTE   W36
 BYTE   N24  An4  v064
 BYTE   W24
// 116   ----------------------------------------
 BYTE   N96  Cn5  v064
 BYTE   W96
// 117   ----------------------------------------
 BYTE   N36  An4  v064
 BYTE   W36
 BYTE   N36  Bn4  v064
 BYTE   W36
 BYTE   N24  An4  v064
 BYTE   W24
// 118   ----------------------------------------
 BYTE   N36  Gn4  v064
 BYTE   W36
 BYTE   N36  Dn4  v064
 BYTE   W36
 BYTE   N24  Gn4  v064
 BYTE   W24
// 119   ----------------------------------------
 BYTE   N36  En4  v064
 BYTE   W36
 BYTE   N36  Bn3  v064
 BYTE   W36
 BYTE   N24  En4  v064
 BYTE   W24
// 120   ----------------------------------------
 BYTE   TIE  Cn4  v064
 BYTE   TIE  Fn4  v064
 BYTE   W96
// 121   ----------------------------------------
 BYTE   W96
// 122   ----------------------------------------
 BYTE   EOT
 BYTE   Cn4
 BYTE   EOT
 BYTE   Fn4
 BYTE   TIE  Dn4  v064
 BYTE   TIE  Gn4  v064
 BYTE   W96
// 123   ----------------------------------------
 BYTE   W96
// 124   ----------------------------------------
 BYTE   EOT
 BYTE   Dn4
 BYTE   EOT
 BYTE   Gn4
 BYTE   VOICE   80
 BYTE   VOL   50*song6D_mvl/mxv
 BYTE   MODT 0
 BYTE   CsM2
 BYTE   VOL   48*song6D_mvl/mxv
 BYTE   TIE  En3  v064
 BYTE   W96
// 125   ----------------------------------------
 BYTE   W96
// 126   ----------------------------------------
 BYTE   EOT
 BYTE   En3
 BYTE   N96  En3  v064
 BYTE   W96
// 127   ----------------------------------------
 BYTE   N48  Dn3  v064
 BYTE   W48
 BYTE   N24  En3  v064
 BYTE   W24
 BYTE   TIE  Cn3  v064
 BYTE   W24
// 128   ----------------------------------------
 BYTE   W96
// 129   ----------------------------------------
 BYTE   W96
// 130   ----------------------------------------
 BYTE   EOT
 BYTE   Cn3
 BYTE   VOICE   18
 BYTE   VOL   50*song6D_mvl/mxv
 BYTE   MODT 0
 BYTE   CsM2
 BYTE   VOL   31*song6D_mvl/mxv
 BYTE   N24  Fn3  v080
 BYTE   N24  An3  v080
 BYTE   N24  Fn4  v080
 BYTE   N24  An4  v080
 BYTE   W24
 BYTE   N24  Gn3  v080
 BYTE   N24  Bn3  v080
 BYTE   N24  Gn4  v080
 BYTE   N24  Bn4  v080
 BYTE   W24
 BYTE   N24  An3  v092
 BYTE   N24  Cn4  v092
 BYTE   N24  An4  v092
 BYTE   N24  Cn5  v092
 BYTE   W24
 BYTE   N24  An3  v080
 BYTE   N24  Cn4  v080
 BYTE   N24  An4  v080
 BYTE   N24  Cn5  v080
 BYTE   W24
// 131   ----------------------------------------
 BYTE   N24  An3  v080
 BYTE   N24  Cn4  v080
 BYTE   N24  An4  v080
 BYTE   N24  Cn5  v080
 BYTE   W24
 BYTE   N24  Gn3  v092
 BYTE   N24  Bn3  v092
 BYTE   N24  Gn4  v092
 BYTE   N24  Bn4  v092
 BYTE   W24
 BYTE   N24  Gn3  v080
 BYTE   N24  Bn3  v080
 BYTE   N24  Gn4  v080
 BYTE   N24  Bn4  v080
 BYTE   W24
 BYTE   N24  En3  v080
 BYTE   N24  Gn3  v080
 BYTE   N24  En4  v080
 BYTE   N24  Gn4  v080
 BYTE   W24
// 132   ----------------------------------------
 BYTE   VOL   30*song6D_mvl/mxv
 BYTE   N24  Fn3  v092
 BYTE   N24  An3  v092
 BYTE   N24  Fn4  v092
 BYTE   N24  An4  v092
 BYTE   W06
 BYTE   VOL   30*song6D_mvl/mxv
 BYTE   W07
 BYTE   VOL   30*song6D_mvl/mxv
 BYTE   W07
 BYTE   VOL   31*song6D_mvl/mxv
 BYTE   W04
 BYTE   N12  En3  v068
 BYTE   N12  En4  v068
 BYTE   W03
 BYTE   VOL   31*song6D_mvl/mxv
 BYTE   W06
 BYTE   VOL   32*song6D_mvl/mxv
 BYTE   W03
 BYTE   N12  En3  v072
 BYTE   N12  En4  v072
 BYTE   W04
 BYTE   VOL   32*song6D_mvl/mxv
 BYTE   W07
 BYTE   VOL   33*song6D_mvl/mxv
 BYTE   W01
 BYTE   N12  En3  v076
 BYTE   N12  En4  v076
 BYTE   W06
 BYTE   VOL   33*song6D_mvl/mxv
 BYTE   W06
 BYTE   VOL   34*song6D_mvl/mxv
 BYTE   N12  En3  v076
 BYTE   N12  En4  v076
 BYTE   W07
 BYTE   VOL   34*song6D_mvl/mxv
 BYTE   W05
 BYTE   N12  En3  v080
 BYTE   N12  En4  v080
 BYTE   W02
 BYTE   VOL   34*song6D_mvl/mxv
 BYTE   W07
 BYTE   VOL   35*song6D_mvl/mxv
 BYTE   W03
 BYTE   N12  En3  v084
 BYTE   N12  En4  v084
 BYTE   W03
 BYTE   VOL   35*song6D_mvl/mxv
 BYTE   W07
 BYTE   VOL   36*song6D_mvl/mxv
 BYTE   W02
// 133   ----------------------------------------
 BYTE   N96  Gs3  v092
 BYTE   N96  En4  v092
 BYTE   N96  Gs4  v092
 BYTE   N96  En5  v092
 BYTE   W05
 BYTE   VOL   36*song6D_mvl/mxv
 BYTE   W06
 BYTE   VOL   37*song6D_mvl/mxv
 BYTE   W84
 BYTE   W01
// 134   ----------------------------------------
 BYTE   VOICE   81
 BYTE   VOL   50*song6D_mvl/mxv
 BYTE   MODT 0
 BYTE   CsM2
 BYTE   N24  An3  v104
 BYTE   N24  Cn4  v104
 BYTE   W36
 BYTE   N12  An3  v104
 BYTE   N12  Cn4  v104
 BYTE   W24
 BYTE   GoTo
  POIN2 Label_2_018DF340
 BYTE   FINE

//**************** Track 4 (Midi-Chn.3) ****************//

song6D_004:
// 000   ----------------------------------------
Label_3_018DE83A:
 BYTE   KEYSH   song6D_key+0
 BYTE   VOICE   2
 BYTE   VOL   50*song6D_mvl/mxv
 BYTE   MODT 0
 BYTE   CsM2
 BYTE   VOL   37*song6D_mvl/mxv
 BYTE   N96  En3  v100
 BYTE   N96  An3  v100
 BYTE   N96  Cn4  v100
 BYTE   W96
// 001   ----------------------------------------
 BYTE   N24  En3  v100
 BYTE   W24
 BYTE   N24  An3  v100
 BYTE   W24
 BYTE   N24  Cn4  v100
 BYTE   W24
 BYTE   TIE  Dn3  v100
 BYTE   TIE  Gn3  v100
 BYTE   TIE  Bn3  v100
 BYTE   W24
// 002   ----------------------------------------
 BYTE   W96
// 003   ----------------------------------------
 BYTE   EOT
 BYTE   Dn3
 BYTE   EOT
 BYTE   Gn3
 BYTE   EOT
 BYTE   Bn3
 BYTE   N24  Dn3  v100
 BYTE   W24
 BYTE   N24  Gn3  v100
 BYTE   W24
 BYTE   N24  Bn3  v100
 BYTE   W24
 BYTE   TIE  Cn3  v100
 BYTE   TIE  Fn3  v100
 BYTE   TIE  An3  v100
 BYTE   W24
// 004   ----------------------------------------
 BYTE   W96
// 005   ----------------------------------------
 BYTE   EOT
 BYTE   Cn3
 BYTE   EOT
 BYTE   Fn3
 BYTE   EOT
 BYTE   An3
 BYTE   N12  Cn3  v100
 BYTE   W12
 BYTE   N12  Fn3  v100
 BYTE   W12
 BYTE   N12  An3  v100
 BYTE   W12
 BYTE   N12  Cn4  v100
 BYTE   W12
 BYTE   N12  Fn3  v100
 BYTE   W12
 BYTE   N12  An3  v100
 BYTE   W12
 BYTE   N12  Cn4  v100
 BYTE   W12
 BYTE   N12  Fn4  v100
 BYTE   W12
// 006   ----------------------------------------
 BYTE   N24  Fn3  v108
 BYTE   N24  An3  v108
 BYTE   W24
 BYTE   N24  Gn3  v108
 BYTE   N24  Bn3  v108
 BYTE   W24
 BYTE   N24  An3  v108
 BYTE   N24  Cn4  v108
 BYTE   W24
 BYTE   N24  An3  v108
 BYTE   N24  Cn4  v108
 BYTE   W24
// 007   ----------------------------------------
 BYTE   N24  An3  v108
 BYTE   N24  Cn4  v108
 BYTE   W24
 BYTE   N24  Gn3  v108
 BYTE   N24  Bn3  v108
 BYTE   W24
 BYTE   N24  Gn3  v108
 BYTE   N24  Bn3  v108
 BYTE   W24
 BYTE   N24  En3  v108
 BYTE   N24  Gn3  v108
 BYTE   W24
// 008   ----------------------------------------
 BYTE   N24  Fn3  v108
 BYTE   N24  An3  v108
 BYTE   W96
// 009   ----------------------------------------
 BYTE   N12  En4  v100
 BYTE   W12
 BYTE   N12  Bn3  v100
 BYTE   W12
 BYTE   N12  Gs3  v100
 BYTE   W12
 BYTE   N12  En3  v100
 BYTE   W12
 BYTE   N12  Bn3  v100
 BYTE   W12
 BYTE   N12  Gs3  v100
 BYTE   W12
 BYTE   N12  En3  v100
 BYTE   W12
 BYTE   N12  Bn2  v100
 BYTE   W12
// 010   ----------------------------------------
 BYTE   TIE  Cn3  v100
 BYTE   TIE  En3  v100
 BYTE   TIE  An3  v100
 BYTE   W96
// 011   ----------------------------------------
 BYTE   W96
// 012   ----------------------------------------
 BYTE   EOT
 BYTE   Cn3
 BYTE   EOT
 BYTE   En3
 BYTE   EOT
 BYTE   An3
 BYTE   TIE  En3  v100
 BYTE   TIE  Gn3  v100
 BYTE   TIE  Bn3  v100
 BYTE   W96
// 013   ----------------------------------------
 BYTE   W96
// 014   ----------------------------------------
 BYTE   EOT
 BYTE   En3
 BYTE   EOT
 BYTE   Gn3
 BYTE   EOT
 BYTE   Bn3
 BYTE   N24  An3  v100
 BYTE   N24  Cn4  v100
 BYTE   W24
 BYTE   N24  Fn3  v100
 BYTE   W24
 BYTE   N24  Cn4  v100
 BYTE   W24
 BYTE   N48  Bn3  v100
 BYTE   N48  Dn4  v100
 BYTE   W48
// 015   ----------------------------------------
 BYTE   N24  Bn3  v100
 BYTE   W24
 BYTE   N24  Dn4  v100
 BYTE   W24
 BYTE   N48  Gn3  v100
 BYTE   N48  Cn4  v100
 BYTE   N48  En4  v100
 BYTE   W24
 BYTE   W24
// 016   ----------------------------------------
 BYTE   N24  Cn4  v100
 BYTE   W24
 BYTE   N24  Gn3  v100
 BYTE   W24
 BYTE   N24  En3  v100
 BYTE   W24
 BYTE   N12  Gn4  v100
 BYTE   W12
 BYTE   N12  En4  v100
 BYTE   W12
// 017   ----------------------------------------
 BYTE   N12  Cn4  v100
 BYTE   W12
 BYTE   N12  Gn3  v100
 BYTE   W12
 BYTE   N12  En4  v100
 BYTE   W12
 BYTE   N12  Cn4  v100
 BYTE   W12
 BYTE   N12  Gn3  v100
 BYTE   W12
 BYTE   N12  Bn3  v100
 BYTE   W12
 BYTE   TIE  Fn3  v100
 BYTE   TIE  An3  v100
 BYTE   TIE  Cn4  v100
 BYTE   W96
// 018   ----------------------------------------
 BYTE   W24
 BYTE   EOT
 BYTE   Fn3
 BYTE   EOT
 BYTE   An3
 BYTE   EOT
 BYTE   Cn4
 BYTE   N24  Fn3  v100
 BYTE   N24  An3  v100
 BYTE   W24
 BYTE   N24  Gn3  v100
 BYTE   N24  Bn3  v100
 BYTE   W24
 BYTE   N24  An3  v100
 BYTE   N24  Cn4  v100
 BYTE   W24
// 019   ----------------------------------------
 BYTE   N24  Bn3  v100
 BYTE   N24  Ds4  v100
 BYTE   W24
 BYTE   N24  Ds4  v100
 BYTE   N24  Fs4  v100
 BYTE   W24
 BYTE   N24  Fs3  v100
 BYTE   W24
 BYTE   N24  Fs3  v100
 BYTE   N24  Bn3  v100
 BYTE   W24
// 020   ----------------------------------------
 BYTE   N24  Ds3  v100
 BYTE   W24
 BYTE   N24  Ds3  v100
 BYTE   N24  Fs3  v100
 BYTE   W24
 BYTE   N24  Ds3  v100
 BYTE   W24
 BYTE   N24  Fs3  v100
 BYTE   N24  Bn3  v100
 BYTE   W24
// 021   ----------------------------------------
 BYTE   N12  En3  v100
 BYTE   W12
 BYTE   N12  Fs3  v100
 BYTE   W12
 BYTE   N48  Gs3  v100
 BYTE   W48
 BYTE   N12  Gs3  v100
 BYTE   W12
 BYTE   N12  An3  v100
 BYTE   W12
// 022   ----------------------------------------
 BYTE   N12  Gs3  v100
 BYTE   W12
 BYTE   N12  An3  v100
 BYTE   W12
 BYTE   N48  Bn3  v100
 BYTE   W48
 BYTE   N12  Cn4  v100
 BYTE   W12
 BYTE   N12  An3  v100
 BYTE   W12
// 023   ----------------------------------------
 BYTE   N12  En3  v100
 BYTE   W12
 BYTE   N12  Bn2  v100
 BYTE   W12
 BYTE   N12  En3  v100
 BYTE   W12
 BYTE   N12  Gs3  v100
 BYTE   W12
 BYTE   N12  Bn3  v100
 BYTE   W12
 BYTE   N12  Gs3  v100
 BYTE   W12
 BYTE   N12  Bn3  v100
 BYTE   W12
 BYTE   N12  En4  v100
 BYTE   W12
// 024   ----------------------------------------
 BYTE   N12  Gs4  v100
 BYTE   W12
 BYTE   N12  En4  v100
 BYTE   W12
 BYTE   N12  Bn3  v100
 BYTE   W12
 BYTE   N12  Gs3  v100
 BYTE   W12
 BYTE   N12  Bn3  v100
 BYTE   W12
 BYTE   N12  Gs3  v100
 BYTE   W12
 BYTE   N12  En3  v100
 BYTE   W12
 BYTE   N12  Gs3  v100
 BYTE   W12
// 025   ----------------------------------------
 BYTE   TIE  Cn3  v100
 BYTE   TIE  En3  v100
 BYTE   TIE  An3  v100
 BYTE   W96
// 026   ----------------------------------------
 BYTE   W96
// 027   ----------------------------------------
 BYTE   EOT
 BYTE   Cn3
 BYTE   EOT
 BYTE   En3
 BYTE   EOT
 BYTE   An3
 BYTE   TIE  En3  v100
 BYTE   TIE  Gn3  v100
 BYTE   TIE  Bn3  v100
 BYTE   W96
// 028   ----------------------------------------
 BYTE   W96
// 029   ----------------------------------------
 BYTE   EOT
 BYTE   En3
 BYTE   EOT
 BYTE   Gn3
 BYTE   EOT
 BYTE   Bn3
 BYTE   N24  An3  v100
 BYTE   N24  Cn4  v100
 BYTE   W24
 BYTE   N24  Fn3  v100
 BYTE   W24
 BYTE   N24  Cn4  v100
 BYTE   W24
 BYTE   N48  Bn3  v100
 BYTE   N48  Dn4  v100
 BYTE   W48
// 030   ----------------------------------------
 BYTE   N24  Bn3  v100
 BYTE   W24
 BYTE   N24  Dn4  v100
 BYTE   W24
 BYTE   N48  Gn3  v100
 BYTE   N48  Cn4  v100
 BYTE   N48  En4  v100
 BYTE   W24
 BYTE   W24
// 031   ----------------------------------------
 BYTE   N24  Cn4  v100
 BYTE   W24
 BYTE   N24  Gn3  v100
 BYTE   W24
 BYTE   N24  En3  v100
 BYTE   W24
 BYTE   N12  Gn4  v100
 BYTE   W12
 BYTE   N12  En4  v100
 BYTE   W12
// 032   ----------------------------------------
 BYTE   N12  Cn4  v100
 BYTE   W12
 BYTE   N12  Gn3  v100
 BYTE   W12
 BYTE   N12  En4  v100
 BYTE   W12
 BYTE   N12  Cn4  v100
 BYTE   W12
 BYTE   N12  Gn3  v100
 BYTE   W12
 BYTE   N12  Bn3  v100
 BYTE   W12
 BYTE   N24  Dn4  v100
 BYTE   W24
// 033   ----------------------------------------
 BYTE   N24  As3  v100
 BYTE   W24
 BYTE   N24  Dn4  v100
 BYTE   W24
 BYTE   N48  Fn4  v100
 BYTE   W48
// 034   ----------------------------------------
 BYTE   N24  Dn4  v100
 BYTE   W24
 BYTE   N24  As3  v100
 BYTE   W24
 BYTE   N24  Dn4  v100
 BYTE   W24
 BYTE   N24  Cn4  v100
 BYTE   W24
// 035   ----------------------------------------
 BYTE   N24  An3  v100
 BYTE   W24
 BYTE   N24  En4  v100
 BYTE   W24
 BYTE   N48  An4  v100
 BYTE   W48
// 036   ----------------------------------------
 BYTE   N24  En4  v100
 BYTE   W24
 BYTE   N24  Cn4  v100
 BYTE   W24
 BYTE   N24  En4  v100
 BYTE   W24
 BYTE   N72  Bn3  v100
 BYTE   N72  Dn4  v100
 BYTE   W72
// 037   ----------------------------------------
 BYTE   N48  Bn2  v100
 BYTE   N48  En3  v100
 BYTE   W48
 BYTE   N24  Dn3  v100
 BYTE   N24  Fs3  v100
 BYTE   W24
 BYTE   N24  En3  v100
 BYTE   N24  Gs3  v100
 BYTE   W24
// 038   ----------------------------------------
 BYTE   N24  Gs3  v100
 BYTE   N24  Bn3  v100
 BYTE   W24
 BYTE   N12  An3  v100
 BYTE   W12
 BYTE   N12  En3  v100
 BYTE   W12
 BYTE   N12  An3  v100
 BYTE   W12
 BYTE   N12  Cn4  v100
 BYTE   W12
 BYTE   N12  En4  v100
 BYTE   W12
 BYTE   N12  Cn4  v100
 BYTE   W12
// 039   ----------------------------------------
 BYTE   N12  En4  v100
 BYTE   W12
 BYTE   N12  An4  v100
 BYTE   W12
 BYTE   N12  Cn5  v100
 BYTE   W12
 BYTE   N12  An4  v100
 BYTE   W12
 BYTE   N12  En4  v100
 BYTE   W12
 BYTE   N12  Cn4  v100
 BYTE   W12
 BYTE   N12  En4  v100
 BYTE   W12
 BYTE   N12  Cn4  v100
 BYTE   W12
// 040   ----------------------------------------
 BYTE   N12  An3  v100
 BYTE   W12
 BYTE   N12  En3  v100
 BYTE   W12
 BYTE   N72  Fn3  v100
 BYTE   N72  An3  v100
 BYTE   N72  Cn4  v100
 BYTE   W72
// 041   ----------------------------------------
 BYTE   N48  An2  v100
 BYTE   W48
 BYTE   N24  Cn3  v100
 BYTE   W24
 BYTE   N24  Fn3  v100
 BYTE   W24
// 042   ----------------------------------------
 BYTE   N24  An3  v100
 BYTE   W24
 BYTE   N24  Bn3  v100
 BYTE   W24
 BYTE   N24  Gn3  v100
 BYTE   W24
 BYTE   N24  Bn3  v100
 BYTE   W24
// 043   ----------------------------------------
 BYTE   N24  Dn4  v100
 BYTE   W24
 BYTE   N24  Gn4  v100
 BYTE   W24
 BYTE   N24  Dn4  v100
 BYTE   W24
 BYTE   N24  Bn3  v100
 BYTE   W24
// 044   ----------------------------------------
 BYTE   N24  Fn3  v100
 BYTE   W24
 BYTE   N24  Dn3  v100
 BYTE   N24  Gn3  v100
 BYTE   N24  Bn3  v100
 BYTE   W24
 BYTE   N24  Gn3  v100
 BYTE   W24
 BYTE   N24  Dn4  v100
 BYTE   W24
// 045   ----------------------------------------
 BYTE   N48  Gn4  v100
 BYTE   W48
 BYTE   N24  Dn4  v100
 BYTE   W24
 BYTE   N24  Bn3  v100
 BYTE   W24
// 046   ----------------------------------------
 BYTE   N24  Dn4  v100
 BYTE   W24
 BYTE   N12  Cn4  v100
 BYTE   W12
 BYTE   N12  An3  v100
 BYTE   W12
 BYTE   N12  Cn4  v100
 BYTE   W12
 BYTE   N12  En4  v100
 BYTE   W12
 BYTE   N12  An4  v100
 BYTE   W12
 BYTE   N12  Cn4  v100
 BYTE   W12
// 047   ----------------------------------------
 BYTE   N12  En4  v100
 BYTE   W12
 BYTE   N12  An4  v100
 BYTE   W12
 BYTE   N12  Cn5  v100
 BYTE   W12
 BYTE   N12  An4  v100
 BYTE   W12
 BYTE   N12  En4  v100
 BYTE   W12
 BYTE   N12  An4  v100
 BYTE   W12
 BYTE   N12  En4  v100
 BYTE   W12
 BYTE   N12  Cn4  v100
 BYTE   W12
// 048   ----------------------------------------
 BYTE   N12  An3  v100
 BYTE   W12
 BYTE   N12  En3  v100
 BYTE   W12
 BYTE   N72  Fn3  v100
 BYTE   N72  An3  v100
 BYTE   N72  Cn4  v100
 BYTE   W72
// 049   ----------------------------------------
 BYTE   N48  An2  v100
 BYTE   W48
 BYTE   N24  Cn3  v100
 BYTE   W24
 BYTE   N24  Fn3  v100
 BYTE   W24
// 050   ----------------------------------------
 BYTE   N24  An3  v100
 BYTE   W24
 BYTE   N24  Bn3  v100
 BYTE   W24
 BYTE   N24  Gn3  v100
 BYTE   W24
 BYTE   N24  Bn3  v100
 BYTE   W24
// 051   ----------------------------------------
 BYTE   N24  Dn4  v100
 BYTE   W24
 BYTE   N24  Gn4  v100
 BYTE   W24
 BYTE   N24  Dn4  v100
 BYTE   W24
 BYTE   N24  Bn3  v100
 BYTE   W24
// 052   ----------------------------------------
 BYTE   N24  Fn3  v100
 BYTE   W24
 BYTE   N24  Dn3  v100
 BYTE   N24  Gn3  v100
 BYTE   N24  Bn3  v100
 BYTE   W24
 BYTE   N24  Gn3  v100
 BYTE   W24
 BYTE   N24  Dn4  v100
 BYTE   W24
// 053   ----------------------------------------
 BYTE   N48  Gn4  v100
 BYTE   W48
 BYTE   N24  Dn4  v100
 BYTE   W24
 BYTE   N24  Bn3  v100
 BYTE   W24
// 054   ----------------------------------------
 BYTE   N24  Dn4  v100
 BYTE   W24
 BYTE   N12  Cn5  v100
 BYTE   W12
 BYTE   N12  An4  v100
 BYTE   W12
 BYTE   N12  En4  v100
 BYTE   W12
 BYTE   N12  Cn4  v100
 BYTE   W12
 BYTE   N12  An4  v100
 BYTE   W12
 BYTE   N12  En4  v100
 BYTE   W12
// 055   ----------------------------------------
 BYTE   N12  Cn4  v100
 BYTE   W12
 BYTE   N12  En4  v100
 BYTE   W12
 BYTE   N12  An4  v100
 BYTE   W12
 BYTE   N12  En4  v100
 BYTE   W12
 BYTE   N12  Cn4  v100
 BYTE   W12
 BYTE   N12  An3  v100
 BYTE   W12
 BYTE   N12  Cn4  v100
 BYTE   W12
 BYTE   N12  An3  v100
 BYTE   W12
// 056   ----------------------------------------
 BYTE   N12  En3  v100
 BYTE   W12
 BYTE   N12  Cn3  v100
 BYTE   W12
 BYTE   N72  An3  v100
 BYTE   N72  Cn4  v100
 BYTE   W72
// 057   ----------------------------------------
 BYTE   N48  Fn3  v100
 BYTE   N48  An3  v100
 BYTE   W48
 BYTE   N24  Fn3  v100
 BYTE   N24  An3  v100
 BYTE   W24
 BYTE   N24  Gn3  v100
 BYTE   N24  Bn3  v100
 BYTE   W24
// 058   ----------------------------------------
 BYTE   N24  Fn3  v100
 BYTE   N24  An3  v100
 BYTE   W24
 BYTE   N36  Dn3  v100
 BYTE   N36  Gn3  v100
 BYTE   W36
 BYTE   N36  Bn2  v100
 BYTE   N36  Dn3  v100
 BYTE   W36
// 059   ----------------------------------------
 BYTE   N24  Dn3  v100
 BYTE   N24  Gn3  v100
 BYTE   W24
 BYTE   N36  En3  v100
 BYTE   N36  Gs3  v100
 BYTE   W36
 BYTE   N36  Bn2  v100
 BYTE   N36  En3  v100
 BYTE   W36
// 060   ----------------------------------------
 BYTE   N24  En3  v100
 BYTE   N24  Gs3  v100
 BYTE   W24
 BYTE   N12  Fn2  v100
 BYTE   W12
 BYTE   N12  An2  v100
 BYTE   W12
 BYTE   N12  Cn3  v100
 BYTE   W12
 BYTE   N12  Fn3  v100
 BYTE   W12
 BYTE   N12  An2  v100
 BYTE   W12
 BYTE   N12  Cn3  v100
 BYTE   W12
// 061   ----------------------------------------
 BYTE   N12  Fn3  v100
 BYTE   W12
 BYTE   N12  An3  v100
 BYTE   W12
 BYTE   N12  Cn4  v100
 BYTE   W12
 BYTE   N12  An3  v100
 BYTE   W12
 BYTE   N12  Fn3  v100
 BYTE   W12
 BYTE   N12  Cn3  v100
 BYTE   W12
 BYTE   N12  Fn3  v100
 BYTE   W12
 BYTE   N12  Cn3  v100
 BYTE   W12
// 062   ----------------------------------------
 BYTE   N12  An2  v100
 BYTE   W12
 BYTE   N12  Cn3  v100
 BYTE   W12
 BYTE   N12  Gn2  v100
 BYTE   W12
 BYTE   N12  Bn2  v100
 BYTE   W12
 BYTE   N12  Dn3  v100
 BYTE   W12
 BYTE   N12  Gn3  v100
 BYTE   W12
 BYTE   N12  Bn2  v100
 BYTE   W12
 BYTE   N12  Dn3  v100
 BYTE   W12
// 063   ----------------------------------------
 BYTE   N12  Gn3  v100
 BYTE   W12
 BYTE   N12  Bn3  v100
 BYTE   W12
 BYTE   N12  Dn4  v100
 BYTE   W12
 BYTE   N12  Bn3  v100
 BYTE   W12
 BYTE   N12  Gn3  v100
 BYTE   W12
 BYTE   N12  Dn3  v100
 BYTE   W12
 BYTE   N12  Gn3  v100
 BYTE   W12
 BYTE   N12  Dn3  v100
 BYTE   W12
// 064   ----------------------------------------
 BYTE   N12  Bn2  v100
 BYTE   W12
 BYTE   N12  Gn3  v100
 BYTE   W12
 BYTE   N96  En3  v100
 BYTE   N96  An3  v100
 BYTE   N96  Cn4  v100
 BYTE   W96
// 065   ----------------------------------------
 BYTE   N24  En3  v100
 BYTE   W24
 BYTE   N24  An3  v100
 BYTE   W24
 BYTE   N24  Cn4  v100
 BYTE   W24
 BYTE   TIE  Dn3  v100
 BYTE   TIE  Gn3  v100
 BYTE   TIE  Bn3  v100
 BYTE   W24
// 066   ----------------------------------------
 BYTE   W96
// 067   ----------------------------------------
 BYTE   EOT
 BYTE   Dn3
 BYTE   EOT
 BYTE   Gn3
 BYTE   EOT
 BYTE   Bn3
 BYTE   N24  Dn3  v100
 BYTE   W24
 BYTE   N24  Gn3  v100
 BYTE   W24
 BYTE   N24  Bn3  v100
 BYTE   W24
 BYTE   TIE  Cn3  v100
 BYTE   TIE  Fn3  v100
 BYTE   TIE  An3  v100
 BYTE   W24
// 068   ----------------------------------------
 BYTE   W96
// 069   ----------------------------------------
 BYTE   EOT
 BYTE   Cn3
 BYTE   EOT
 BYTE   Fn3
 BYTE   EOT
 BYTE   An3
 BYTE   N12  Cn3  v100
 BYTE   W12
 BYTE   N12  Fn3  v100
 BYTE   W12
 BYTE   N12  An3  v100
 BYTE   W12
 BYTE   N12  Cn4  v100
 BYTE   W12
 BYTE   N12  Fn3  v100
 BYTE   W12
 BYTE   N12  An3  v100
 BYTE   W12
 BYTE   N12  Cn4  v100
 BYTE   W12
 BYTE   N12  Fn4  v100
 BYTE   W12
// 070   ----------------------------------------
 BYTE   N24  Fn3  v108
 BYTE   N24  An3  v108
 BYTE   W24
 BYTE   N24  Gn3  v108
 BYTE   N24  Bn3  v108
 BYTE   W24
 BYTE   N24  An3  v108
 BYTE   N24  Cn4  v108
 BYTE   W24
 BYTE   N24  An3  v108
 BYTE   N24  Cn4  v108
 BYTE   W24
// 071   ----------------------------------------
 BYTE   N24  An3  v108
 BYTE   N24  Cn4  v108
 BYTE   W24
 BYTE   N24  Gn3  v108
 BYTE   N24  Bn3  v108
 BYTE   W24
 BYTE   N24  Gn3  v108
 BYTE   N24  Bn3  v108
 BYTE   W24
 BYTE   N24  En3  v108
 BYTE   N24  Gn3  v108
 BYTE   W24
// 072   ----------------------------------------
 BYTE   N24  Fn3  v108
 BYTE   N24  An3  v108
 BYTE   W96
// 073   ----------------------------------------
 BYTE   N12  En4  v100
 BYTE   W12
 BYTE   N12  Bn3  v100
 BYTE   W12
 BYTE   N12  Gs3  v100
 BYTE   W12
 BYTE   N12  En3  v100
 BYTE   W12
 BYTE   N12  Bn3  v100
 BYTE   W12
 BYTE   N12  Gs3  v100
 BYTE   W12
 BYTE   N12  En3  v100
 BYTE   W12
 BYTE   N12  Bn2  v100
 BYTE   W12
// 074   ----------------------------------------
 BYTE   TIE  Cn3  v100
 BYTE   TIE  En3  v100
 BYTE   TIE  An3  v100
 BYTE   W96
// 075   ----------------------------------------
 BYTE   W96
// 076   ----------------------------------------
 BYTE   EOT
 BYTE   Cn3
 BYTE   EOT
 BYTE   En3
 BYTE   EOT
 BYTE   An3
 BYTE   TIE  En3  v100
 BYTE   TIE  Gn3  v100
 BYTE   TIE  Bn3  v100
 BYTE   W96
// 077   ----------------------------------------
 BYTE   W96
// 078   ----------------------------------------
 BYTE   EOT
 BYTE   En3
 BYTE   EOT
 BYTE   Gn3
 BYTE   EOT
 BYTE   Bn3
 BYTE   N24  An3  v100
 BYTE   N24  Cn4  v100
 BYTE   W24
 BYTE   N24  Fn3  v100
 BYTE   W24
 BYTE   N24  Cn4  v100
 BYTE   W24
 BYTE   N48  Bn3  v100
 BYTE   N48  Dn4  v100
 BYTE   W48
// 079   ----------------------------------------
 BYTE   N24  Bn3  v100
 BYTE   W24
 BYTE   N24  Dn4  v100
 BYTE   W24
 BYTE   N48  Gn3  v100
 BYTE   N48  Cn4  v100
 BYTE   N48  En4  v100
 BYTE   W24
 BYTE   W24
// 080   ----------------------------------------
 BYTE   N24  Cn4  v100
 BYTE   W24
 BYTE   N24  Gn3  v100
 BYTE   W24
 BYTE   N24  En3  v100
 BYTE   W24
 BYTE   N12  Gn4  v100
 BYTE   W12
 BYTE   N12  En4  v100
 BYTE   W12
// 081   ----------------------------------------
 BYTE   N12  Cn4  v100
 BYTE   W12
 BYTE   N12  Gn3  v100
 BYTE   W12
 BYTE   N12  En4  v100
 BYTE   W12
 BYTE   N12  Cn4  v100
 BYTE   W12
 BYTE   N12  Gn3  v100
 BYTE   W12
 BYTE   N12  Bn3  v100
 BYTE   W12
 BYTE   TIE  Fn3  v100
 BYTE   TIE  An3  v100
 BYTE   TIE  Cn4  v100
 BYTE   W96
// 082   ----------------------------------------
 BYTE   W24
 BYTE   EOT
 BYTE   Fn3
 BYTE   EOT
 BYTE   An3
 BYTE   EOT
 BYTE   Cn4
 BYTE   N24  Fn3  v100
 BYTE   N24  An3  v100
 BYTE   W24
 BYTE   N24  Gn3  v100
 BYTE   N24  Bn3  v100
 BYTE   W24
 BYTE   N24  An3  v100
 BYTE   N24  Cn4  v100
 BYTE   W24
// 083   ----------------------------------------
 BYTE   N24  Bn3  v100
 BYTE   N24  Ds4  v100
 BYTE   W24
 BYTE   N24  Ds4  v100
 BYTE   N24  Fs4  v100
 BYTE   W24
 BYTE   N24  Fs3  v100
 BYTE   W24
 BYTE   N24  Fs3  v100
 BYTE   N24  Bn3  v100
 BYTE   W24
// 084   ----------------------------------------
 BYTE   N24  Ds3  v100
 BYTE   W24
 BYTE   N24  Ds3  v100
 BYTE   N24  Fs3  v100
 BYTE   W24
 BYTE   N24  Ds3  v100
 BYTE   W24
 BYTE   N24  Fs3  v100
 BYTE   N24  Bn3  v100
 BYTE   W24
// 085   ----------------------------------------
 BYTE   N12  En3  v100
 BYTE   W12
 BYTE   N12  Fs3  v100
 BYTE   W12
 BYTE   N48  Gs3  v100
 BYTE   W48
 BYTE   N12  Gs3  v100
 BYTE   W12
 BYTE   N12  An3  v100
 BYTE   W12
// 086   ----------------------------------------
 BYTE   N12  Gs3  v100
 BYTE   W12
 BYTE   N12  An3  v100
 BYTE   W12
 BYTE   N48  Bn3  v100
 BYTE   W48
 BYTE   N12  Cn4  v100
 BYTE   W12
 BYTE   N12  An3  v100
 BYTE   W12
// 087   ----------------------------------------
 BYTE   N12  En3  v100
 BYTE   W12
 BYTE   N12  Bn2  v100
 BYTE   W12
 BYTE   N12  En3  v100
 BYTE   W12
 BYTE   N12  Gs3  v100
 BYTE   W12
 BYTE   N12  Bn3  v100
 BYTE   W12
 BYTE   N12  Gs3  v100
 BYTE   W12
 BYTE   N12  Bn3  v100
 BYTE   W12
 BYTE   N12  En4  v100
 BYTE   W12
// 088   ----------------------------------------
 BYTE   N12  Gs4  v100
 BYTE   W12
 BYTE   N12  En4  v100
 BYTE   W12
 BYTE   N12  Bn3  v100
 BYTE   W12
 BYTE   N12  Gs3  v100
 BYTE   W12
 BYTE   N12  Bn3  v100
 BYTE   W12
 BYTE   N12  Gs3  v100
 BYTE   W12
 BYTE   N12  En3  v100
 BYTE   W12
 BYTE   N12  Gs3  v100
 BYTE   W12
// 089   ----------------------------------------
 BYTE   TIE  Cn3  v100
 BYTE   TIE  En3  v100
 BYTE   TIE  An3  v100
 BYTE   W96
// 090   ----------------------------------------
 BYTE   W96
// 091   ----------------------------------------
 BYTE   EOT
 BYTE   Cn3
 BYTE   EOT
 BYTE   En3
 BYTE   EOT
 BYTE   An3
 BYTE   TIE  En3  v100
 BYTE   TIE  Gn3  v100
 BYTE   TIE  Bn3  v100
 BYTE   W96
// 092   ----------------------------------------
 BYTE   W96
// 093   ----------------------------------------
 BYTE   EOT
 BYTE   En3
 BYTE   EOT
 BYTE   Gn3
 BYTE   EOT
 BYTE   Bn3
 BYTE   N24  An3  v100
 BYTE   N24  Cn4  v100
 BYTE   W24
 BYTE   N24  Fn3  v100
 BYTE   W24
 BYTE   N24  Cn4  v100
 BYTE   W24
 BYTE   N48  Bn3  v100
 BYTE   N48  Dn4  v100
 BYTE   W48
// 094   ----------------------------------------
 BYTE   N24  Bn3  v100
 BYTE   W24
 BYTE   N24  Dn4  v100
 BYTE   W24
 BYTE   N48  Gn3  v100
 BYTE   N48  Cn4  v100
 BYTE   N48  En4  v100
 BYTE   W24
 BYTE   W24
// 095   ----------------------------------------
 BYTE   N24  Cn4  v100
 BYTE   W24
 BYTE   N24  Gn3  v100
 BYTE   W24
 BYTE   N24  En3  v100
 BYTE   W24
 BYTE   N12  Gn4  v100
 BYTE   W12
 BYTE   N12  En4  v100
 BYTE   W12
// 096   ----------------------------------------
 BYTE   N12  Cn4  v100
 BYTE   W12
 BYTE   N12  Gn3  v100
 BYTE   W12
 BYTE   N12  En4  v100
 BYTE   W12
 BYTE   N12  Cn4  v100
 BYTE   W12
 BYTE   N12  Gn3  v100
 BYTE   W12
 BYTE   N12  Bn3  v100
 BYTE   W12
 BYTE   N24  Dn4  v100
 BYTE   W24
// 097   ----------------------------------------
 BYTE   N24  As3  v100
 BYTE   W24
 BYTE   N24  Dn4  v100
 BYTE   W24
 BYTE   N48  Fn4  v100
 BYTE   W48
// 098   ----------------------------------------
 BYTE   N24  Dn4  v100
 BYTE   W24
 BYTE   N24  As3  v100
 BYTE   W24
 BYTE   N24  Dn4  v100
 BYTE   W24
 BYTE   N24  Cn4  v100
 BYTE   W24
// 099   ----------------------------------------
 BYTE   N24  An3  v100
 BYTE   W24
 BYTE   N24  En4  v100
 BYTE   W24
 BYTE   N48  An4  v100
 BYTE   W48
// 100   ----------------------------------------
 BYTE   N24  En4  v100
 BYTE   W24
 BYTE   N24  Cn4  v100
 BYTE   W24
 BYTE   N24  En4  v100
 BYTE   W24
 BYTE   N72  Bn3  v100
 BYTE   N72  Dn4  v100
 BYTE   W72
// 101   ----------------------------------------
 BYTE   N48  Bn2  v100
 BYTE   N48  En3  v100
 BYTE   W48
 BYTE   N24  Dn3  v100
 BYTE   N24  Fs3  v100
 BYTE   W24
 BYTE   N24  En3  v100
 BYTE   N24  Gs3  v100
 BYTE   W24
// 102   ----------------------------------------
 BYTE   N24  Gs3  v100
 BYTE   N24  Bn3  v100
 BYTE   W24
 BYTE   N12  An3  v100
 BYTE   W12
 BYTE   N12  En3  v100
 BYTE   W12
 BYTE   N12  An3  v100
 BYTE   W12
 BYTE   N12  Cn4  v100
 BYTE   W12
 BYTE   N12  En4  v100
 BYTE   W12
 BYTE   N12  Cn4  v100
 BYTE   W12
// 103   ----------------------------------------
 BYTE   N12  En4  v100
 BYTE   W12
 BYTE   N12  An4  v100
 BYTE   W12
 BYTE   N12  Cn5  v100
 BYTE   W12
 BYTE   N12  An4  v100
 BYTE   W12
 BYTE   N12  En4  v100
 BYTE   W12
 BYTE   N12  Cn4  v100
 BYTE   W12
 BYTE   N12  En4  v100
 BYTE   W12
 BYTE   N12  Cn4  v100
 BYTE   W12
// 104   ----------------------------------------
 BYTE   N12  An3  v100
 BYTE   W12
 BYTE   N12  En3  v100
 BYTE   W12
 BYTE   N72  Fn3  v100
 BYTE   N72  An3  v100
 BYTE   N72  Cn4  v100
 BYTE   W72
// 105   ----------------------------------------
 BYTE   N48  An2  v100
 BYTE   W48
 BYTE   N24  Cn3  v100
 BYTE   W24
 BYTE   N24  Fn3  v100
 BYTE   W24
// 106   ----------------------------------------
 BYTE   N24  An3  v100
 BYTE   W24
 BYTE   N24  Bn3  v100
 BYTE   W24
 BYTE   N24  Gn3  v100
 BYTE   W24
 BYTE   N24  Bn3  v100
 BYTE   W24
// 107   ----------------------------------------
 BYTE   N24  Dn4  v100
 BYTE   W24
 BYTE   N24  Gn4  v100
 BYTE   W24
 BYTE   N24  Dn4  v100
 BYTE   W24
 BYTE   N24  Bn3  v100
 BYTE   W24
// 108   ----------------------------------------
 BYTE   N24  Fn3  v100
 BYTE   W24
 BYTE   N24  Dn3  v100
 BYTE   N24  Gn3  v100
 BYTE   N24  Bn3  v100
 BYTE   W24
 BYTE   N24  Gn3  v100
 BYTE   W24
 BYTE   N24  Dn4  v100
 BYTE   W24
// 109   ----------------------------------------
 BYTE   N48  Gn4  v100
 BYTE   W48
 BYTE   N24  Dn4  v100
 BYTE   W24
 BYTE   N24  Bn3  v100
 BYTE   W24
// 110   ----------------------------------------
 BYTE   N24  Dn4  v100
 BYTE   W24
 BYTE   N12  Cn4  v100
 BYTE   W12
 BYTE   N12  An3  v100
 BYTE   W12
 BYTE   N12  Cn4  v100
 BYTE   W12
 BYTE   N12  En4  v100
 BYTE   W12
 BYTE   N12  An4  v100
 BYTE   W12
 BYTE   N12  Cn4  v100
 BYTE   W12
// 111   ----------------------------------------
 BYTE   N12  En4  v100
 BYTE   W12
 BYTE   N12  An4  v100
 BYTE   W12
 BYTE   N12  Cn5  v100
 BYTE   W12
 BYTE   N12  An4  v100
 BYTE   W12
 BYTE   N12  En4  v100
 BYTE   W12
 BYTE   N12  An4  v100
 BYTE   W12
 BYTE   N12  En4  v100
 BYTE   W12
 BYTE   N12  Cn4  v100
 BYTE   W12
// 112   ----------------------------------------
 BYTE   N12  An3  v100
 BYTE   W12
 BYTE   N12  En3  v100
 BYTE   W12
 BYTE   N72  Fn3  v100
 BYTE   N72  An3  v100
 BYTE   N72  Cn4  v100
 BYTE   W72
// 113   ----------------------------------------
 BYTE   N48  An2  v100
 BYTE   W48
 BYTE   N24  Cn3  v100
 BYTE   W24
 BYTE   N24  Fn3  v100
 BYTE   W24
// 114   ----------------------------------------
 BYTE   N24  An3  v100
 BYTE   W24
 BYTE   N24  Bn3  v100
 BYTE   W24
 BYTE   N24  Gn3  v100
 BYTE   W24
 BYTE   N24  Bn3  v100
 BYTE   W24
// 115   ----------------------------------------
 BYTE   N24  Dn4  v100
 BYTE   W24
 BYTE   N24  Gn4  v100
 BYTE   W24
 BYTE   N24  Dn4  v100
 BYTE   W24
 BYTE   N24  Bn3  v100
 BYTE   W24
// 116   ----------------------------------------
 BYTE   N24  Fn3  v100
 BYTE   W24
 BYTE   N24  Dn3  v100
 BYTE   N24  Gs3  v100
 BYTE   N24  Bn3  v100
 BYTE   W24
 BYTE   N24  Gs3  v100
 BYTE   W24
 BYTE   N24  Dn4  v100
 BYTE   W24
// 117   ----------------------------------------
 BYTE   N48  Gs4  v100
 BYTE   W48
 BYTE   N24  Dn4  v100
 BYTE   W24
 BYTE   N24  Bn3  v100
 BYTE   W24
// 118   ----------------------------------------
 BYTE   N24  Dn4  v100
 BYTE   W24
 BYTE   N12  Cn5  v100
 BYTE   W12
 BYTE   N12  An4  v100
 BYTE   W12
 BYTE   N12  En4  v100
 BYTE   W12
 BYTE   N12  Cn4  v100
 BYTE   W12
 BYTE   N12  An4  v100
 BYTE   W12
 BYTE   N12  En4  v100
 BYTE   W12
// 119   ----------------------------------------
 BYTE   N12  Cn4  v100
 BYTE   W12
 BYTE   N12  En4  v100
 BYTE   W12
 BYTE   N12  An4  v100
 BYTE   W12
 BYTE   N12  En4  v100
 BYTE   W12
 BYTE   N12  Cn4  v100
 BYTE   W12
 BYTE   N12  An3  v100
 BYTE   W12
 BYTE   N12  Cn4  v100
 BYTE   W12
 BYTE   N12  An3  v100
 BYTE   W12
// 120   ----------------------------------------
 BYTE   N12  En3  v100
 BYTE   W12
 BYTE   N12  Cn3  v100
 BYTE   W12
 BYTE   N72  An3  v100
 BYTE   N72  Cn4  v100
 BYTE   W72
// 121   ----------------------------------------
 BYTE   N48  Fn3  v100
 BYTE   N48  An3  v100
 BYTE   W48
 BYTE   N24  Fn3  v100
 BYTE   N24  An3  v100
 BYTE   W24
 BYTE   N24  Gn3  v100
 BYTE   N24  Bn3  v100
 BYTE   W24
// 122   ----------------------------------------
 BYTE   N24  Fn3  v100
 BYTE   N24  An3  v100
 BYTE   W24
 BYTE   N36  Dn3  v100
 BYTE   N36  Gn3  v100
 BYTE   W36
 BYTE   N36  Bn2  v100
 BYTE   N36  Dn3  v100
 BYTE   W36
// 123   ----------------------------------------
 BYTE   N24  Dn3  v100
 BYTE   N24  Gn3  v100
 BYTE   W24
 BYTE   N36  En3  v100
 BYTE   N36  Gs3  v100
 BYTE   W36
 BYTE   N36  Bn2  v100
 BYTE   N36  En3  v100
 BYTE   W36
// 124   ----------------------------------------
 BYTE   N24  En3  v100
 BYTE   N24  Gs3  v100
 BYTE   W24
 BYTE   N12  Fn2  v100
 BYTE   W12
 BYTE   N12  An2  v100
 BYTE   W12
 BYTE   N12  Cn3  v100
 BYTE   W12
 BYTE   N12  Fn3  v100
 BYTE   W12
 BYTE   N12  An2  v100
 BYTE   W12
 BYTE   N12  Cn3  v100
 BYTE   W12
// 125   ----------------------------------------
 BYTE   N12  Fn3  v100
 BYTE   W12
 BYTE   N12  An3  v100
 BYTE   W12
 BYTE   N12  Cn4  v100
 BYTE   W12
 BYTE   N12  An3  v100
 BYTE   W12
 BYTE   N12  Fn3  v100
 BYTE   W12
 BYTE   N12  Cn3  v100
 BYTE   W12
 BYTE   N12  Fn3  v100
 BYTE   W12
 BYTE   N12  Cn3  v100
 BYTE   W12
// 126   ----------------------------------------
 BYTE   N12  An2  v100
 BYTE   W12
 BYTE   N12  Cn3  v100
 BYTE   W12
 BYTE   N12  Gn2  v100
 BYTE   W12
 BYTE   N12  Bn2  v100
 BYTE   W12
 BYTE   N12  Dn3  v100
 BYTE   W12
 BYTE   N12  Gn3  v100
 BYTE   W12
 BYTE   N12  Bn2  v100
 BYTE   W12
 BYTE   N12  Dn3  v100
 BYTE   W12
// 127   ----------------------------------------
 BYTE   N12  Gn3  v100
 BYTE   W12
 BYTE   N12  Bn3  v100
 BYTE   W12
 BYTE   N12  Dn4  v100
 BYTE   W12
 BYTE   N12  Bn3  v100
 BYTE   W12
 BYTE   N12  Gn3  v100
 BYTE   W12
 BYTE   N12  Dn3  v100
 BYTE   W12
 BYTE   N12  Gn3  v100
 BYTE   W12
 BYTE   N12  Dn3  v100
 BYTE   W12
// 128   ----------------------------------------
 BYTE   N12  Bn2  v100
 BYTE   W12
 BYTE   N12  Gn3  v100
 BYTE   W12
 BYTE   N96  En3  v100
 BYTE   N96  An3  v100
 BYTE   N96  Cn4  v100
 BYTE   W96
// 129   ----------------------------------------
 BYTE   N24  En3  v100
 BYTE   W24
 BYTE   N24  An3  v100
 BYTE   W24
 BYTE   N24  Cn4  v100
 BYTE   W24
 BYTE   TIE  Dn3  v100
 BYTE   TIE  Gn3  v100
 BYTE   TIE  Bn3  v100
 BYTE   W24
// 130   ----------------------------------------
 BYTE   W96
// 131   ----------------------------------------
 BYTE   EOT
 BYTE   Dn3
 BYTE   EOT
 BYTE   Gn3
 BYTE   EOT
 BYTE   Bn3
 BYTE   N24  Dn3  v100
 BYTE   W24
 BYTE   N24  Gn3  v100
 BYTE   W24
 BYTE   N24  Bn3  v100
 BYTE   W24
 BYTE   TIE  Cn3  v100
 BYTE   TIE  Fn3  v100
 BYTE   TIE  An3  v100
 BYTE   W24
// 132   ----------------------------------------
 BYTE   W96
// 133   ----------------------------------------
 BYTE   EOT
 BYTE   Cn3
 BYTE   EOT
 BYTE   Fn3
 BYTE   EOT
 BYTE   An3
 BYTE   N12  Cn3  v100
 BYTE   W12
 BYTE   N12  Fn3  v100
 BYTE   W12
 BYTE   N12  An3  v100
 BYTE   W12
 BYTE   N12  Cn4  v100
 BYTE   W12
 BYTE   N12  Fn3  v100
 BYTE   W12
 BYTE   N12  An3  v100
 BYTE   W12
 BYTE   N12  Cn4  v100
 BYTE   W12
 BYTE   N12  Fn4  v100
 BYTE   W12
// 134   ----------------------------------------
 BYTE   N24  Fn3  v108
 BYTE   N24  An3  v108
 BYTE   W24
 BYTE   N24  Gn3  v108
 BYTE   N24  Bn3  v108
 BYTE   W24
 BYTE   N24  An3  v108
 BYTE   N24  Cn4  v108
 BYTE   W24
 BYTE   N24  An3  v108
 BYTE   N24  Cn4  v108
 BYTE   W24
// 135   ----------------------------------------
 BYTE   N24  An3  v108
 BYTE   N24  Cn4  v108
 BYTE   W24
 BYTE   N24  Gn3  v108
 BYTE   N24  Bn3  v108
 BYTE   W24
 BYTE   N24  Gn3  v108
 BYTE   N24  Bn3  v108
 BYTE   W24
 BYTE   N24  En3  v108
 BYTE   N24  Gn3  v108
 BYTE   W24
// 136   ----------------------------------------
 BYTE   N24  Fn3  v108
 BYTE   N24  An3  v108
 BYTE   W96
// 137   ----------------------------------------
 BYTE   N12  En4  v100
 BYTE   W12
 BYTE   N12  Bn3  v100
 BYTE   W12
 BYTE   N12  Gs3  v100
 BYTE   W12
 BYTE   N12  En3  v100
 BYTE   W12
 BYTE   N12  Bn3  v100
 BYTE   W12
 BYTE   N12  Gs3  v100
 BYTE   W12
 BYTE   N12  En3  v100
 BYTE   W12
 BYTE   N12  Bn2  v100
 BYTE   W12
// 138   ----------------------------------------
 BYTE   N24  An3  v104
 BYTE   N24  Cn4  v104
 BYTE   N24  En4  v104
 BYTE   W36
 BYTE   N12  An3  v104
 BYTE   N12  Cn4  v104
 BYTE   N12  En4  v104
 BYTE   W24
 BYTE   GoTo
  POIN2 Label_3_018DE83A
 BYTE   FINE

//**************** Track 5 (Midi-Chn.4) ****************//

song6D_005:
// 000   ----------------------------------------
Label_4_018DE3EE:
 BYTE   KEYSH   song6D_key+0
 BYTE   VOICE   95
 BYTE   VOL   50*song6D_mvl/mxv
 BYTE   MODT 0
 BYTE   CsM2
 BYTE   VOL   41*song6D_mvl/mxv
 BYTE   TIE  En3  v064
 BYTE   TIE  An3  v064
 BYTE   TIE  Cn4  v064
 BYTE   W96
// 001   ----------------------------------------
 BYTE   W72
 BYTE   EOT
 BYTE   En3
 BYTE   EOT
 BYTE   An3
 BYTE   EOT
 BYTE   Cn4
 BYTE   TIE  Dn3  v064
 BYTE   TIE  Gn3  v064
 BYTE   TIE  Bn3  v064
 BYTE   W24
// 002   ----------------------------------------
 BYTE   W96
// 003   ----------------------------------------
 BYTE   W72
 BYTE   EOT
 BYTE   Dn3
 BYTE   EOT
 BYTE   Gn3
 BYTE   EOT
 BYTE   Bn3
 BYTE   TIE  Cn3  v064
 BYTE   TIE  Fn3  v064
 BYTE   TIE  An3  v064
 BYTE   W24
// 004   ----------------------------------------
 BYTE   W96
// 005   ----------------------------------------
 BYTE   W96
// 006   ----------------------------------------
 BYTE   W48
 BYTE   EOT
 BYTE   Cn3
 BYTE   EOT
 BYTE   Fn3
 BYTE   EOT
 BYTE   An3
 BYTE   N72  En3  v064
 BYTE   N72  An3  v064
 BYTE   N72  Cn4  v064
 BYTE   W72
// 007   ----------------------------------------
 BYTE   N72  Dn3  v064
 BYTE   N72  Gn3  v064
 BYTE   N72  Bn3  v064
 BYTE   W72
 BYTE   N96  Cn3  v064
 BYTE   N96  En3  v064
 BYTE   N96  An3  v064
 BYTE   W96
// 008   ----------------------------------------
 BYTE   N96  Bn2  v064
 BYTE   N96  En3  v064
 BYTE   N96  Gs3  v064
 BYTE   W96
// 009   ----------------------------------------
 BYTE   VOICE   89
 BYTE   VOL   50*song6D_mvl/mxv
 BYTE   MODT 0
 BYTE   CsM2
 BYTE   VOL   51*song6D_mvl/mxv
 BYTE   TIE  Cn3  v064
 BYTE   TIE  En3  v064
 BYTE   W96
// 010   ----------------------------------------
 BYTE   W96
// 011   ----------------------------------------
 BYTE   EOT
 BYTE   Cn3
 BYTE   EOT
 BYTE   En3
 BYTE   TIE  Bn2  v064
 BYTE   TIE  Dn3  v064
 BYTE   W96
// 012   ----------------------------------------
 BYTE   W96
// 013   ----------------------------------------
 BYTE   EOT
 BYTE   Bn2
 BYTE   EOT
 BYTE   Dn3
 BYTE   N96  An2  v064
 BYTE   N96  Cn3  v064
 BYTE   W96
// 014   ----------------------------------------
 BYTE   N96  Bn2  v064
 BYTE   N96  Dn3  v064
 BYTE   W96
// 015   ----------------------------------------
 BYTE   TIE  Cn3  v064
 BYTE   TIE  En3  v064
 BYTE   W96
// 016   ----------------------------------------
 BYTE   W96
// 017   ----------------------------------------
 BYTE   EOT
 BYTE   Cn3
 BYTE   EOT
 BYTE   En3
 BYTE   TIE  Dn3  v064
 BYTE   TIE  Fn3  v064
 BYTE   W96
// 018   ----------------------------------------
 BYTE   W96
// 019   ----------------------------------------
 BYTE   EOT
 BYTE   Dn3
 BYTE   EOT
 BYTE   Fn3
 BYTE   TIE  Ds3  v064
 BYTE   TIE  Fs3  v064
 BYTE   W96
// 020   ----------------------------------------
 BYTE   W96
// 021   ----------------------------------------
 BYTE   EOT
 BYTE   Ds3
 BYTE   EOT
 BYTE   Fs3
 BYTE   N96  En3  v064
 BYTE   N96  Gs3  v064
 BYTE   W96
// 022   ----------------------------------------
 BYTE   N96  Fn3  v064
 BYTE   N96  An3  v064
 BYTE   W96
// 023   ----------------------------------------
 BYTE   TIE  En3  v064
 BYTE   TIE  Gs3  v064
 BYTE   W96
// 024   ----------------------------------------
 BYTE   W96
// 025   ----------------------------------------
 BYTE   EOT
 BYTE   En3
 BYTE   EOT
 BYTE   Gs3
 BYTE   TIE  Cn3  v064
 BYTE   TIE  En3  v064
 BYTE   W96
// 026   ----------------------------------------
 BYTE   W96
// 027   ----------------------------------------
 BYTE   EOT
 BYTE   Cn3
 BYTE   EOT
 BYTE   En3
 BYTE   TIE  Bn2  v064
 BYTE   TIE  Dn3  v064
 BYTE   W96
// 028   ----------------------------------------
 BYTE   W96
// 029   ----------------------------------------
 BYTE   EOT
 BYTE   Bn2
 BYTE   EOT
 BYTE   Dn3
 BYTE   N96  An2  v064
 BYTE   N96  Cn3  v064
 BYTE   W96
// 030   ----------------------------------------
 BYTE   N96  Bn2  v064
 BYTE   N96  Dn3  v064
 BYTE   W96
// 031   ----------------------------------------
 BYTE   TIE  Cn3  v064
 BYTE   TIE  En3  v064
 BYTE   W96
// 032   ----------------------------------------
 BYTE   W96
// 033   ----------------------------------------
 BYTE   EOT
 BYTE   Cn3
 BYTE   EOT
 BYTE   En3
 BYTE   TIE  Dn3  v064
 BYTE   TIE  Fn3  v064
 BYTE   W96
// 034   ----------------------------------------
 BYTE   W96
// 035   ----------------------------------------
 BYTE   EOT
 BYTE   Dn3
 BYTE   EOT
 BYTE   Fn3
 BYTE   TIE  Cn3  v064
 BYTE   TIE  En3  v064
 BYTE   W96
// 036   ----------------------------------------
 BYTE   W96
// 037   ----------------------------------------
 BYTE   EOT
 BYTE   Cn3
 BYTE   EOT
 BYTE   En3
 BYTE   N96  Bn2  v064
 BYTE   N96  Dn3  v064
 BYTE   W96
// 038   ----------------------------------------
 BYTE   N96  Dn3  v064
 BYTE   N96  En3  v064
 BYTE   W96
// 039   ----------------------------------------
 BYTE   TIE  Cn3  v064
 BYTE   TIE  En3  v064
 BYTE   W96
// 040   ----------------------------------------
 BYTE   W96
// 041   ----------------------------------------
 BYTE   EOT
 BYTE   Cn3
 BYTE   EOT
 BYTE   En3
 BYTE   TIE  Cn3  v064
 BYTE   TIE  Fn3  v064
 BYTE   W96
// 042   ----------------------------------------
 BYTE   W96
// 043   ----------------------------------------
 BYTE   EOT
 BYTE   Cn3
 BYTE   EOT
 BYTE   Fn3
 BYTE   TIE  Dn3  v064
 BYTE   TIE  Gn3  v064
 BYTE   W96
// 044   ----------------------------------------
 BYTE   W96
// 045   ----------------------------------------
 BYTE   EOT
 BYTE   Dn3
 BYTE   EOT
 BYTE   Gn3
 BYTE   TIE  Bn2  v064
 BYTE   TIE  En3  v064
 BYTE   W96
// 046   ----------------------------------------
 BYTE   W96
// 047   ----------------------------------------
 BYTE   EOT
 BYTE   Bn2
 BYTE   EOT
 BYTE   En3
 BYTE   TIE  Cn3  v064
 BYTE   TIE  En3  v064
 BYTE   W96
// 048   ----------------------------------------
 BYTE   W96
// 049   ----------------------------------------
 BYTE   EOT
 BYTE   Cn3
 BYTE   EOT
 BYTE   En3
 BYTE   TIE  Cn3  v064
 BYTE   TIE  Fn3  v064
 BYTE   W96
// 050   ----------------------------------------
 BYTE   W96
// 051   ----------------------------------------
 BYTE   EOT
 BYTE   Cn3
 BYTE   EOT
 BYTE   Fn3
 BYTE   TIE  Dn3  v064
 BYTE   TIE  Gn3  v064
 BYTE   W96
// 052   ----------------------------------------
 BYTE   W96
// 053   ----------------------------------------
 BYTE   EOT
 BYTE   Dn3
 BYTE   EOT
 BYTE   Gn3
 BYTE   TIE  Bn2  v064
 BYTE   TIE  En3  v064
 BYTE   W96
// 054   ----------------------------------------
 BYTE   W96
// 055   ----------------------------------------
 BYTE   EOT
 BYTE   Bn2
 BYTE   EOT
 BYTE   En3
 BYTE   TIE  Cn3  v064
 BYTE   TIE  En3  v064
 BYTE   W96
// 056   ----------------------------------------
 BYTE   W96
// 057   ----------------------------------------
 BYTE   EOT
 BYTE   Cn3
 BYTE   EOT
 BYTE   En3
 BYTE   TIE  Cn3  v064
 BYTE   TIE  Fn3  v064
 BYTE   W96
// 058   ----------------------------------------
 BYTE   W96
// 059   ----------------------------------------
 BYTE   EOT
 BYTE   Cn3
 BYTE   EOT
 BYTE   Fn3
 BYTE   N96  Dn3  v064
 BYTE   N96  Gn3  v064
 BYTE   W96
// 060   ----------------------------------------
 BYTE   N96  Bn2  v064
 BYTE   N96  En3  v064
 BYTE   W96
// 061   ----------------------------------------
 BYTE   TIE  Cn3  v064
 BYTE   TIE  Fn3  v064
 BYTE   W96
// 062   ----------------------------------------
 BYTE   W96
// 063   ----------------------------------------
 BYTE   EOT
 BYTE   Cn3
 BYTE   EOT
 BYTE   Fn3
 BYTE   TIE  Dn3  v064
 BYTE   TIE  Gn3  v064
 BYTE   W96
// 064   ----------------------------------------
 BYTE   W96
// 065   ----------------------------------------
 BYTE   EOT
 BYTE   Dn3
 BYTE   EOT
 BYTE   Gn3
 BYTE   VOICE   95
 BYTE   VOL   50*song6D_mvl/mxv
 BYTE   MODT 0
 BYTE   CsM2
 BYTE   VOL   41*song6D_mvl/mxv
 BYTE   TIE  En3  v064
 BYTE   TIE  An3  v064
 BYTE   TIE  Cn4  v064
 BYTE   W96
// 066   ----------------------------------------
 BYTE   W72
 BYTE   EOT
 BYTE   En3
 BYTE   EOT
 BYTE   An3
 BYTE   EOT
 BYTE   Cn4
 BYTE   TIE  Dn3  v064
 BYTE   TIE  Gn3  v064
 BYTE   TIE  Bn3  v064
 BYTE   W24
// 067   ----------------------------------------
 BYTE   W96
// 068   ----------------------------------------
 BYTE   W72
 BYTE   EOT
 BYTE   Dn3
 BYTE   EOT
 BYTE   Gn3
 BYTE   EOT
 BYTE   Bn3
 BYTE   TIE  Cn3  v064
 BYTE   TIE  Fn3  v064
 BYTE   TIE  An3  v064
 BYTE   W24
// 069   ----------------------------------------
 BYTE   W96
// 070   ----------------------------------------
 BYTE   W96
// 071   ----------------------------------------
 BYTE   W48
 BYTE   EOT
 BYTE   Cn3
 BYTE   EOT
 BYTE   Fn3
 BYTE   EOT
 BYTE   An3
 BYTE   N72  En3  v064
 BYTE   N72  An3  v064
 BYTE   N72  Cn4  v064
 BYTE   W72
// 072   ----------------------------------------
 BYTE   N72  Dn3  v064
 BYTE   N72  Gn3  v064
 BYTE   N72  Bn3  v064
 BYTE   W72
 BYTE   N96  Cn3  v064
 BYTE   N96  En3  v064
 BYTE   N96  An3  v064
 BYTE   W96
// 073   ----------------------------------------
 BYTE   N96  Bn2  v064
 BYTE   N96  En3  v064
 BYTE   N96  Gs3  v064
 BYTE   W96
// 074   ----------------------------------------
 BYTE   VOICE   49
 BYTE   VOL   50*song6D_mvl/mxv
 BYTE   MODT 0
 BYTE   CsM2
 BYTE   VOL   51*song6D_mvl/mxv
 BYTE   TIE  Cn3  v064
 BYTE   TIE  En3  v064
 BYTE   W96
// 075   ----------------------------------------
 BYTE   W96
// 076   ----------------------------------------
 BYTE   EOT
 BYTE   Cn3
 BYTE   EOT
 BYTE   En3
 BYTE   TIE  Bn2  v064
 BYTE   TIE  Dn3  v064
 BYTE   W96
// 077   ----------------------------------------
 BYTE   W96
// 078   ----------------------------------------
 BYTE   EOT
 BYTE   Bn2
 BYTE   EOT
 BYTE   Dn3
 BYTE   N96  An2  v064
 BYTE   N96  Cn3  v064
 BYTE   W96
// 079   ----------------------------------------
 BYTE   N96  Bn2  v064
 BYTE   N96  Dn3  v064
 BYTE   W96
// 080   ----------------------------------------
 BYTE   TIE  Cn3  v064
 BYTE   TIE  En3  v064
 BYTE   W96
// 081   ----------------------------------------
 BYTE   W96
// 082   ----------------------------------------
 BYTE   EOT
 BYTE   Cn3
 BYTE   EOT
 BYTE   En3
 BYTE   TIE  Dn3  v064
 BYTE   TIE  Fn3  v064
 BYTE   W96
// 083   ----------------------------------------
 BYTE   W96
// 084   ----------------------------------------
 BYTE   EOT
 BYTE   Dn3
 BYTE   EOT
 BYTE   Fn3
 BYTE   TIE  Ds3  v064
 BYTE   TIE  Fs3  v064
 BYTE   W96
// 085   ----------------------------------------
 BYTE   W96
// 086   ----------------------------------------
 BYTE   EOT
 BYTE   Ds3
 BYTE   EOT
 BYTE   Fs3
 BYTE   N96  En3  v064
 BYTE   N96  Gs3  v064
 BYTE   W96
// 087   ----------------------------------------
 BYTE   N96  Fn3  v064
 BYTE   N96  An3  v064
 BYTE   W96
// 088   ----------------------------------------
 BYTE   TIE  En3  v064
 BYTE   TIE  Gs3  v064
 BYTE   W96
// 089   ----------------------------------------
 BYTE   W96
// 090   ----------------------------------------
 BYTE   EOT
 BYTE   En3
 BYTE   EOT
 BYTE   Gs3
 BYTE   TIE  Cn3  v064
 BYTE   TIE  En3  v064
 BYTE   W96
// 091   ----------------------------------------
 BYTE   W96
// 092   ----------------------------------------
 BYTE   EOT
 BYTE   Cn3
 BYTE   EOT
 BYTE   En3
 BYTE   TIE  Bn2  v064
 BYTE   TIE  Dn3  v064
 BYTE   W96
// 093   ----------------------------------------
 BYTE   W96
// 094   ----------------------------------------
 BYTE   EOT
 BYTE   Bn2
 BYTE   EOT
 BYTE   Dn3
 BYTE   N96  An2  v064
 BYTE   N96  Cn3  v064
 BYTE   W96
// 095   ----------------------------------------
 BYTE   N96  Bn2  v064
 BYTE   N96  Dn3  v064
 BYTE   W96
// 096   ----------------------------------------
 BYTE   TIE  Cn3  v064
 BYTE   TIE  En3  v064
 BYTE   W96
// 097   ----------------------------------------
 BYTE   W96
// 098   ----------------------------------------
 BYTE   EOT
 BYTE   Cn3
 BYTE   EOT
 BYTE   En3
 BYTE   TIE  Dn3  v064
 BYTE   TIE  Fn3  v064
 BYTE   W96
// 099   ----------------------------------------
 BYTE   W96
// 100   ----------------------------------------
 BYTE   EOT
 BYTE   Dn3
 BYTE   EOT
 BYTE   Fn3
 BYTE   TIE  Cn3  v064
 BYTE   TIE  En3  v064
 BYTE   W96
// 101   ----------------------------------------
 BYTE   W96
// 102   ----------------------------------------
 BYTE   EOT
 BYTE   Cn3
 BYTE   EOT
 BYTE   En3
 BYTE   N96  Bn2  v064
 BYTE   N96  Dn3  v064
 BYTE   W96
// 103   ----------------------------------------
 BYTE   N96  Dn3  v064
 BYTE   N96  En3  v064
 BYTE   W96
// 104   ----------------------------------------
 BYTE   TIE  Cn3  v064
 BYTE   TIE  En3  v064
 BYTE   W96
// 105   ----------------------------------------
 BYTE   W96
// 106   ----------------------------------------
 BYTE   EOT
 BYTE   Cn3
 BYTE   EOT
 BYTE   En3
 BYTE   TIE  Cn3  v064
 BYTE   TIE  Fn3  v064
 BYTE   TIE  An3  v064
 BYTE   W96
// 107   ----------------------------------------
 BYTE   W96
// 108   ----------------------------------------
 BYTE   EOT
 BYTE   Cn3
 BYTE   EOT
 BYTE   Fn3
 BYTE   EOT
 BYTE   An3
 BYTE   TIE  Dn3  v064
 BYTE   TIE  Gn3  v064
 BYTE   TIE  Bn3  v064
 BYTE   W96
// 109   ----------------------------------------
 BYTE   W96
// 110   ----------------------------------------
 BYTE   EOT
 BYTE   Dn3
 BYTE   EOT
 BYTE   Gn3
 BYTE   EOT
 BYTE   Bn3
 BYTE   TIE  Bn2  v064
 BYTE   TIE  En3  v064
 BYTE   TIE  Gn3  v064
 BYTE   W96
// 111   ----------------------------------------
 BYTE   W96
// 112   ----------------------------------------
 BYTE   EOT
 BYTE   Bn2
 BYTE   EOT
 BYTE   En3
 BYTE   EOT
 BYTE   Gn3
 BYTE   TIE  Cn3  v064
 BYTE   TIE  En3  v064
 BYTE   TIE  An3  v064
 BYTE   W96
// 113   ----------------------------------------
 BYTE   W96
// 114   ----------------------------------------
 BYTE   EOT
 BYTE   Cn3
 BYTE   EOT
 BYTE   En3
 BYTE   EOT
 BYTE   An3
 BYTE   TIE  Cn3  v064
 BYTE   TIE  Fn3  v064
 BYTE   TIE  An3  v064
 BYTE   W96
// 115   ----------------------------------------
 BYTE   W96
// 116   ----------------------------------------
 BYTE   EOT
 BYTE   Cn3
 BYTE   EOT
 BYTE   Fn3
 BYTE   EOT
 BYTE   An3
 BYTE   TIE  Dn3  v064
 BYTE   TIE  Gn3  v064
 BYTE   TIE  Bn3  v064
 BYTE   W96
// 117   ----------------------------------------
 BYTE   W96
// 118   ----------------------------------------
 BYTE   EOT
 BYTE   Dn3
 BYTE   EOT
 BYTE   Gn3
 BYTE   EOT
 BYTE   Bn3
 BYTE   TIE  Bn2  v064
 BYTE   TIE  En3  v064
 BYTE   TIE  Gs3  v064
 BYTE   W96
// 119   ----------------------------------------
 BYTE   W96
// 120   ----------------------------------------
 BYTE   EOT
 BYTE   Bn2
 BYTE   EOT
 BYTE   En3
 BYTE   EOT
 BYTE   Gs3
 BYTE   TIE  En3  v064
 BYTE   TIE  An3  v064
 BYTE   TIE  Cn4  v064
 BYTE   W96
// 121   ----------------------------------------
 BYTE   W96
// 122   ----------------------------------------
 BYTE   EOT
 BYTE   En3
 BYTE   EOT
 BYTE   An3
 BYTE   EOT
 BYTE   Cn4
 BYTE   TIE  Cn3  v064
 BYTE   TIE  Fn3  v064
 BYTE   TIE  An3  v064
 BYTE   W96
// 123   ----------------------------------------
 BYTE   W96
// 124   ----------------------------------------
 BYTE   EOT
 BYTE   Cn3
 BYTE   EOT
 BYTE   Fn3
 BYTE   EOT
 BYTE   An3
 BYTE   N96  Dn3  v064
 BYTE   N96  Gn3  v064
 BYTE   N96  Bn3  v064
 BYTE   W96
// 125   ----------------------------------------
 BYTE   N96  Bn2  v064
 BYTE   N96  En3  v064
 BYTE   N96  Gs3  v064
 BYTE   W96
// 126   ----------------------------------------
 BYTE   TIE  Cn3  v064
 BYTE   TIE  Fn3  v064
 BYTE   TIE  An3  v064
 BYTE   W96
// 127   ----------------------------------------
 BYTE   W96
// 128   ----------------------------------------
 BYTE   EOT
 BYTE   Cn3
 BYTE   EOT
 BYTE   Fn3
 BYTE   EOT
 BYTE   An3
 BYTE   TIE  Dn3  v064
 BYTE   TIE  Gn3  v064
 BYTE   TIE  Bn3  v064
 BYTE   W96
// 129   ----------------------------------------
 BYTE   W96
// 130   ----------------------------------------
 BYTE   EOT
 BYTE   Dn3
 BYTE   EOT
 BYTE   Gn3
 BYTE   EOT
 BYTE   Bn3
 BYTE   VOICE   95
 BYTE   VOL   50*song6D_mvl/mxv
 BYTE   MODT 0
 BYTE   CsM2
 BYTE   VOL   41*song6D_mvl/mxv
 BYTE   TIE  En3  v064
 BYTE   TIE  An3  v064
 BYTE   TIE  Cn4  v064
 BYTE   W96
// 131   ----------------------------------------
 BYTE   W72
 BYTE   EOT
 BYTE   En3
 BYTE   EOT
 BYTE   An3
 BYTE   EOT
 BYTE   Cn4
 BYTE   TIE  Dn3  v064
 BYTE   TIE  Gn3  v064
 BYTE   TIE  Bn3  v064
 BYTE   W24
// 132   ----------------------------------------
 BYTE   W96
// 133   ----------------------------------------
 BYTE   W72
 BYTE   EOT
 BYTE   Dn3
 BYTE   EOT
 BYTE   Gn3
 BYTE   EOT
 BYTE   Bn3
 BYTE   TIE  Cn3  v064
 BYTE   TIE  Fn3  v064
 BYTE   TIE  An3  v064
 BYTE   W24
// 134   ----------------------------------------
 BYTE   W96
// 135   ----------------------------------------
 BYTE   W96
// 136   ----------------------------------------
 BYTE   W48
 BYTE   EOT
 BYTE   Cn3
 BYTE   EOT
 BYTE   Fn3
 BYTE   EOT
 BYTE   An3
 BYTE   N72  En3  v064
 BYTE   N72  An3  v064
 BYTE   N72  Cn4  v064
 BYTE   W72
// 137   ----------------------------------------
 BYTE   N72  Dn3  v064
 BYTE   N72  Gn3  v064
 BYTE   N72  Bn3  v064
 BYTE   W72
 BYTE   N96  Cn3  v064
 BYTE   N96  En3  v064
 BYTE   N96  An3  v064
 BYTE   W96
// 138   ----------------------------------------
 BYTE   N96  Bn2  v064
 BYTE   N96  En3  v064
 BYTE   N96  Gs3  v064
 BYTE   W96
// 139   ----------------------------------------
 BYTE   VOICE   55
 BYTE   VOL   50*song6D_mvl/mxv
 BYTE   MODT 0
 BYTE   CsM2
 BYTE   N24  An3  v080
 BYTE   W36
 BYTE   N12  An3  v080
 BYTE   W24
 BYTE   GoTo
  POIN2 Label_4_018DE3EE
 BYTE   FINE

//******************************************************//
	ALIGN 4

song6D:
	BYTE	5	// NumTrks
	BYTE	0	// NumBlks
	BYTE	song6D_pri	// Priority
	BYTE	song6D_rev	// Reverb.
    
	POIN2	song6D_grp
    
	POIN2	song6D_001
	POIN2	song6D_002
	POIN2	song6D_003
	POIN2	song6D_004
	POIN2	song6D_005

	
